%TF.GenerationSoftware,KiCad,Pcbnew,5.1.0-rc2-unknown-036be7d~80~ubuntu16.04.1*%
%TF.CreationDate,2019-11-29T15:46:33+02:00*%
%TF.ProjectId,S3-OLinuXino_Rev_A,53332d4f-4c69-46e7-9558-696e6f5f5265,F*%
%TF.SameCoordinates,Original*%
%TF.FileFunction,Paste,Bot*%
%TF.FilePolarity,Positive*%
%FSLAX46Y46*%
G04 Gerber Fmt 4.6, Leading zero omitted, Abs format (unit mm)*
G04 Created by KiCad (PCBNEW 5.1.0-rc2-unknown-036be7d~80~ubuntu16.04.1) date 2019-11-29 15:46:33*
%MOMM*%
%LPD*%
G04 APERTURE LIST*
%ADD10R,1.200000X1.400000*%
%ADD11R,0.550000X0.500000*%
%ADD12R,0.330000X0.330000*%
%ADD13R,1.524000X1.270000*%
%ADD14R,1.270000X1.524000*%
%ADD15R,0.230000X1.180000*%
%ADD16R,2.700000X4.300000*%
%ADD17R,2.600000X1.400000*%
%ADD18R,1.800000X1.800000*%
%ADD19R,1.800000X1.400000*%
%ADD20R,1.100000X0.700000*%
%ADD21R,1.800000X1.000000*%
%ADD22R,2.000000X1.700000*%
%ADD23R,1.700000X2.000000*%
%ADD24R,1.000000X1.400000*%
%ADD25O,1.800000X1.400000*%
%ADD26O,1.400000X1.800000*%
%ADD27R,0.211000X0.811000*%
%ADD28R,0.811000X0.211000*%
%ADD29R,1.300000X0.500000*%
%ADD30R,0.500000X1.300000*%
%ADD31R,1.200000X0.550000*%
%ADD32R,0.550000X1.200000*%
%ADD33R,0.500000X0.550000*%
%ADD34R,1.016000X1.016000*%
%ADD35R,1.016000X1.778000*%
%ADD36R,1.016000X0.762000*%
%ADD37R,1.016000X0.508000*%
%ADD38R,1.524000X1.778000*%
%ADD39R,1.400000X1.000000*%
G04 APERTURE END LIST*
D10*
%TO.C,Q2*%
X152362000Y-89197000D03*
X153962000Y-91397000D03*
X152362000Y-91397000D03*
X153962000Y-89197000D03*
%TD*%
D11*
%TO.C,R53*%
X133731000Y-86614000D03*
X133731000Y-87630000D03*
%TD*%
%TO.C,R34*%
X151130000Y-90805000D03*
X151130000Y-89789000D03*
%TD*%
D12*
%TO.C,U1*%
X145925000Y-79300000D03*
X150475000Y-79300000D03*
X151125000Y-79300000D03*
X151775000Y-79300000D03*
X152425000Y-79300000D03*
X153075000Y-79300000D03*
X153725000Y-79300000D03*
X155025000Y-79300000D03*
X154375000Y-79300000D03*
X147225000Y-79300000D03*
X149175000Y-79300000D03*
X148525000Y-79300000D03*
X149825000Y-79300000D03*
X146575000Y-79300000D03*
X147875000Y-79300000D03*
X145925000Y-78650000D03*
X145275000Y-78650000D03*
X150475000Y-78650000D03*
X151125000Y-78650000D03*
X151775000Y-78650000D03*
X152425000Y-78650000D03*
X153075000Y-78650000D03*
X153725000Y-78650000D03*
X155025000Y-78650000D03*
X154375000Y-78650000D03*
X147225000Y-78650000D03*
X149175000Y-78650000D03*
X148525000Y-78650000D03*
X149825000Y-78650000D03*
X146575000Y-78650000D03*
X147875000Y-78650000D03*
X150475000Y-83200000D03*
X151775000Y-83200000D03*
X152425000Y-83200000D03*
X153725000Y-83200000D03*
X155025000Y-83200000D03*
X154375000Y-83200000D03*
X149175000Y-83200000D03*
X145925000Y-83200000D03*
X147875000Y-83200000D03*
X145275000Y-83200000D03*
X146575000Y-83200000D03*
X152425000Y-73450000D03*
X149825000Y-73450000D03*
X145275000Y-73450000D03*
X146575000Y-73450000D03*
X153725000Y-73450000D03*
X154375000Y-73450000D03*
X151125000Y-73450000D03*
X155025000Y-73450000D03*
X145925000Y-73450000D03*
X147225000Y-73450000D03*
X148525000Y-73450000D03*
X152425000Y-74100000D03*
X149825000Y-74100000D03*
X147875000Y-74100000D03*
X145275000Y-74100000D03*
X146575000Y-74100000D03*
X153725000Y-74100000D03*
X149175000Y-74100000D03*
X154375000Y-74100000D03*
X151125000Y-74100000D03*
X155025000Y-74100000D03*
X153075000Y-74100000D03*
X150475000Y-74100000D03*
X151775000Y-74100000D03*
X145925000Y-74100000D03*
X147225000Y-74100000D03*
X148525000Y-74100000D03*
X152425000Y-74750000D03*
X149825000Y-74750000D03*
X147875000Y-74750000D03*
X145275000Y-74750000D03*
X146575000Y-74750000D03*
X153725000Y-74750000D03*
X149175000Y-74750000D03*
X154375000Y-74750000D03*
X151125000Y-74750000D03*
X155025000Y-74750000D03*
X153075000Y-74750000D03*
X150475000Y-74750000D03*
X151775000Y-74750000D03*
X145925000Y-74750000D03*
X147225000Y-74750000D03*
X148525000Y-74750000D03*
X152425000Y-75400000D03*
X149825000Y-75400000D03*
X147875000Y-75400000D03*
X146575000Y-75400000D03*
X153725000Y-75400000D03*
X149175000Y-75400000D03*
X154375000Y-75400000D03*
X151125000Y-75400000D03*
X155025000Y-75400000D03*
X153075000Y-75400000D03*
X150475000Y-75400000D03*
X151775000Y-75400000D03*
X145925000Y-75400000D03*
X148525000Y-75400000D03*
X152425000Y-76050000D03*
X149825000Y-76050000D03*
X147875000Y-76050000D03*
X145275000Y-76050000D03*
X146575000Y-76050000D03*
X153725000Y-76050000D03*
X149175000Y-76050000D03*
X154375000Y-76050000D03*
X151125000Y-76050000D03*
X153075000Y-76050000D03*
X150475000Y-76050000D03*
X151775000Y-76050000D03*
X145925000Y-76050000D03*
X147225000Y-76050000D03*
X148525000Y-76050000D03*
X152425000Y-76700000D03*
X149825000Y-76700000D03*
X147875000Y-76700000D03*
X146575000Y-76700000D03*
X153725000Y-76700000D03*
X149175000Y-76700000D03*
X154375000Y-76700000D03*
X151125000Y-76700000D03*
X155025000Y-76700000D03*
X153075000Y-76700000D03*
X150475000Y-76700000D03*
X151775000Y-76700000D03*
X145925000Y-76700000D03*
X148525000Y-76700000D03*
X152425000Y-77350000D03*
X149825000Y-77350000D03*
X147875000Y-77350000D03*
X145275000Y-77350000D03*
X146575000Y-77350000D03*
X153725000Y-77350000D03*
X149175000Y-77350000D03*
X154375000Y-77350000D03*
X151125000Y-77350000D03*
X153075000Y-77350000D03*
X150475000Y-77350000D03*
X151775000Y-77350000D03*
X145925000Y-77350000D03*
X147225000Y-77350000D03*
X148525000Y-77350000D03*
X152425000Y-78000000D03*
X149825000Y-78000000D03*
X147875000Y-78000000D03*
X146575000Y-78000000D03*
X153725000Y-78000000D03*
X149175000Y-78000000D03*
X154375000Y-78000000D03*
X151125000Y-78000000D03*
X155025000Y-78000000D03*
X153075000Y-78000000D03*
X150475000Y-78000000D03*
X151775000Y-78000000D03*
X145925000Y-78000000D03*
X147225000Y-78000000D03*
X148525000Y-78000000D03*
X153725000Y-79950000D03*
X151775000Y-79950000D03*
X147225000Y-79950000D03*
X148525000Y-79950000D03*
X149175000Y-79950000D03*
X145925000Y-79950000D03*
X149825000Y-79950000D03*
X147875000Y-79950000D03*
X145275000Y-79950000D03*
X146575000Y-79950000D03*
X154375000Y-79950000D03*
X150475000Y-79950000D03*
X151125000Y-79950000D03*
X153075000Y-79950000D03*
X152425000Y-79950000D03*
X151775000Y-80600000D03*
X147225000Y-80600000D03*
X148525000Y-80600000D03*
X149175000Y-80600000D03*
X145925000Y-80600000D03*
X149825000Y-80600000D03*
X147875000Y-80600000D03*
X146575000Y-80600000D03*
X155025000Y-80600000D03*
X154375000Y-80600000D03*
X150475000Y-80600000D03*
X151125000Y-80600000D03*
X153075000Y-80600000D03*
X152425000Y-80600000D03*
X153725000Y-81250000D03*
X151775000Y-81250000D03*
X147225000Y-81250000D03*
X148525000Y-81250000D03*
X149175000Y-81250000D03*
X145925000Y-81250000D03*
X149825000Y-81250000D03*
X147875000Y-81250000D03*
X145275000Y-81250000D03*
X146575000Y-81250000D03*
X154375000Y-81250000D03*
X150475000Y-81250000D03*
X151125000Y-81250000D03*
X153075000Y-81250000D03*
X152425000Y-81250000D03*
X153725000Y-81900000D03*
X151775000Y-81900000D03*
X147225000Y-81900000D03*
X148525000Y-81900000D03*
X149175000Y-81900000D03*
X145925000Y-81900000D03*
X149825000Y-81900000D03*
X147875000Y-81900000D03*
X145275000Y-81900000D03*
X146575000Y-81900000D03*
X155025000Y-81900000D03*
X154375000Y-81900000D03*
X150475000Y-81900000D03*
X151125000Y-81900000D03*
X153075000Y-81900000D03*
X152425000Y-81900000D03*
X153725000Y-82550000D03*
X151775000Y-82550000D03*
X147225000Y-82550000D03*
X148525000Y-82550000D03*
X149175000Y-82550000D03*
X145925000Y-82550000D03*
X149825000Y-82550000D03*
X147875000Y-82550000D03*
X145275000Y-82550000D03*
X146575000Y-82550000D03*
X155025000Y-82550000D03*
X154375000Y-82550000D03*
X150475000Y-82550000D03*
X151125000Y-82550000D03*
X153075000Y-82550000D03*
X152425000Y-82550000D03*
%TD*%
D13*
%TO.C,L12*%
X124079000Y-99695000D03*
X126111000Y-99695000D03*
%TD*%
D14*
%TO.C,C58*%
X148971000Y-95504000D03*
X146939000Y-95504000D03*
%TD*%
D15*
%TO.C,CAM1*%
X158588000Y-65596000D03*
X159088000Y-65596000D03*
X159588000Y-65596000D03*
X160088000Y-65596000D03*
X160588000Y-65596000D03*
X161088000Y-65596000D03*
X161588000Y-65596000D03*
X162088000Y-65596000D03*
X162588000Y-65596000D03*
X163088000Y-65596000D03*
X163588000Y-65596000D03*
X164088000Y-65596000D03*
X164588000Y-65596000D03*
X165088000Y-65596000D03*
X165588000Y-65596000D03*
X166088000Y-65596000D03*
X166588000Y-65596000D03*
X167088000Y-65596000D03*
X167588000Y-65596000D03*
X168088000Y-65596000D03*
X168588000Y-65596000D03*
X169088000Y-65596000D03*
X169588000Y-65596000D03*
X170088000Y-65596000D03*
D16*
X156438000Y-63246000D03*
X172238000Y-63246000D03*
%TD*%
D17*
%TO.C,MICRO_SD1*%
X176305600Y-86257000D03*
X176305600Y-101957000D03*
D18*
X166705600Y-101057000D03*
D19*
X166705600Y-86257000D03*
D20*
X165825600Y-87557000D03*
X165825600Y-88657000D03*
X165825600Y-89757000D03*
X165825600Y-90857000D03*
X165825600Y-91957000D03*
X165825600Y-93057000D03*
X165825600Y-94157000D03*
X165825600Y-95257000D03*
X165825600Y-96357000D03*
%TD*%
D21*
%TO.C,Q1*%
X157099000Y-91547000D03*
X157099000Y-89047000D03*
%TD*%
D22*
%TO.C,D4*%
X140375000Y-104013000D03*
X145375000Y-104013000D03*
%TD*%
D23*
%TO.C,D3*%
X151574500Y-100988500D03*
X151574500Y-95988500D03*
%TD*%
D24*
%TO.C,D1*%
X133853000Y-103886000D03*
X130053000Y-103886000D03*
%TD*%
D25*
%TO.C,U4*%
X136271000Y-97485000D03*
X136271000Y-94285000D03*
D26*
X134671000Y-95885000D03*
X137871000Y-95885000D03*
D27*
X138471000Y-92965000D03*
X138071000Y-92965000D03*
X137671000Y-92965000D03*
X137271000Y-92965000D03*
X136871000Y-92965000D03*
X136471000Y-92965000D03*
X136071000Y-92965000D03*
X135671000Y-92965000D03*
X135271000Y-92965000D03*
X134871000Y-92965000D03*
X134471000Y-92965000D03*
X134071000Y-92965000D03*
D28*
X133351000Y-93685000D03*
X133351000Y-94085000D03*
X133351000Y-94485000D03*
X133351000Y-94885000D03*
X133351000Y-95285000D03*
X133351000Y-95685000D03*
X133351000Y-96085000D03*
X133351000Y-96485000D03*
X133351000Y-96885000D03*
X133351000Y-97285000D03*
X133351000Y-97685000D03*
X133351000Y-98085000D03*
D27*
X134071000Y-98805000D03*
X134471000Y-98805000D03*
X134871000Y-98805000D03*
X135271000Y-98805000D03*
X135671000Y-98805000D03*
X136071000Y-98805000D03*
X136471000Y-98805000D03*
X136871000Y-98805000D03*
X137271000Y-98805000D03*
X137671000Y-98805000D03*
X138071000Y-98805000D03*
X138471000Y-98805000D03*
D28*
X139191000Y-98085000D03*
X139191000Y-97685000D03*
X139191000Y-97285000D03*
X139191000Y-96885000D03*
X139191000Y-96485000D03*
X139191000Y-96085000D03*
X139191000Y-95685000D03*
X139191000Y-95285000D03*
X139191000Y-94885000D03*
X139191000Y-94485000D03*
X139191000Y-94085000D03*
X139191000Y-93685000D03*
%TD*%
D29*
%TO.C,U3*%
X124146000Y-71252000D03*
X124146000Y-72152000D03*
X124146000Y-73052000D03*
X124146000Y-73952000D03*
X124146000Y-74852000D03*
X124146000Y-75752000D03*
X124146000Y-76652000D03*
X124146000Y-77552000D03*
X124146000Y-78452000D03*
X124146000Y-79352000D03*
X124146000Y-80252000D03*
D30*
X125421000Y-81527000D03*
X126321000Y-81527000D03*
X127221000Y-81527000D03*
X128121000Y-81527000D03*
X129021000Y-81527000D03*
X129921000Y-81527000D03*
X130821000Y-81527000D03*
X131721000Y-81527000D03*
X132621000Y-81527000D03*
X133521000Y-81527000D03*
X134421000Y-81527000D03*
D29*
X135696000Y-80252000D03*
X135696000Y-79352000D03*
X135696000Y-78452000D03*
X135696000Y-77552000D03*
X135696000Y-76652000D03*
X135696000Y-75752000D03*
X135696000Y-74852000D03*
X135696000Y-73952000D03*
X135696000Y-73052000D03*
X135696000Y-72152000D03*
X135696000Y-71252000D03*
D30*
X134421000Y-69977000D03*
X133521000Y-69977000D03*
X132621000Y-69977000D03*
X131721000Y-69977000D03*
X130821000Y-69977000D03*
X129921000Y-69977000D03*
X129021000Y-69977000D03*
X128121000Y-69977000D03*
X127221000Y-69977000D03*
X126321000Y-69977000D03*
X125421000Y-69977000D03*
%TD*%
D31*
%TO.C,U6*%
X126903000Y-92776000D03*
X126903000Y-93726000D03*
X126903000Y-94676000D03*
X124303000Y-92776000D03*
X124303000Y-94676000D03*
%TD*%
D32*
%TO.C,U7*%
X149413000Y-99979100D03*
X148463000Y-99979100D03*
X147513000Y-99979100D03*
X147513000Y-97378900D03*
X148463000Y-97378900D03*
X149413000Y-97378900D03*
%TD*%
D11*
%TO.C,C13*%
X123698000Y-68452998D03*
X123698000Y-67436998D03*
%TD*%
%TO.C,C11*%
X125476000Y-67437000D03*
X125476000Y-68453000D03*
%TD*%
%TO.C,C95*%
X124841000Y-82677000D03*
X124841000Y-83693000D03*
%TD*%
%TO.C,C10*%
X126365000Y-67437000D03*
X126365000Y-68453000D03*
%TD*%
D33*
%TO.C,C54*%
X152654000Y-92710000D03*
X153670000Y-92710000D03*
%TD*%
D11*
%TO.C,C7*%
X133985000Y-68707000D03*
X133985000Y-67691000D03*
%TD*%
%TO.C,C51*%
X158661099Y-88900000D03*
X158661099Y-89916000D03*
%TD*%
%TO.C,C52*%
X158661099Y-91694000D03*
X158661099Y-90678000D03*
%TD*%
%TO.C,C32*%
X147066000Y-89789002D03*
X147066000Y-90805002D03*
%TD*%
%TO.C,C104*%
X162623500Y-67056000D03*
X162623500Y-68072000D03*
%TD*%
%TO.C,C101*%
X169418000Y-67056000D03*
X169418000Y-68072000D03*
%TD*%
%TO.C,C102*%
X165735000Y-67056000D03*
X165735000Y-68072000D03*
%TD*%
%TO.C,C103*%
X164846000Y-67056000D03*
X164846000Y-68072000D03*
%TD*%
%TO.C,C30*%
X135382000Y-101727000D03*
X135382000Y-100711000D03*
%TD*%
%TO.C,C20*%
X134366000Y-101727000D03*
X134366000Y-100711000D03*
%TD*%
D33*
%TO.C,C64*%
X166243000Y-73025000D03*
X165227000Y-73025000D03*
%TD*%
%TO.C,C63*%
X166243000Y-72136000D03*
X165227000Y-72136000D03*
%TD*%
%TO.C,C9*%
X138176000Y-82804000D03*
X139192000Y-82804000D03*
%TD*%
D11*
%TO.C,C71*%
X127635000Y-86360000D03*
X127635000Y-87376000D03*
%TD*%
D33*
%TO.C,C100*%
X123952000Y-85343999D03*
X122936000Y-85343999D03*
%TD*%
%TO.C,C66*%
X124841000Y-86360000D03*
X125857000Y-86360000D03*
%TD*%
%TO.C,C99*%
X122936000Y-83565999D03*
X123952000Y-83565999D03*
%TD*%
%TO.C,C53*%
X153670000Y-87884000D03*
X152654000Y-87884000D03*
%TD*%
D11*
%TO.C,C57*%
X160274000Y-73805000D03*
X160274000Y-74821000D03*
%TD*%
%TO.C,C60*%
X160274000Y-76581000D03*
X160274000Y-75565000D03*
%TD*%
%TO.C,C94*%
X124841000Y-84455000D03*
X124841000Y-85471000D03*
%TD*%
D34*
%TO.C,C46*%
X141478000Y-98298000D03*
X143256000Y-98298000D03*
%TD*%
%TO.C,C42*%
X130937000Y-97536000D03*
X129159000Y-97536000D03*
%TD*%
%TO.C,C29*%
X129159000Y-96012000D03*
X130937000Y-96012000D03*
%TD*%
%TO.C,C45*%
X133731000Y-90932000D03*
X133731000Y-89154000D03*
%TD*%
%TO.C,C8*%
X137414000Y-80772000D03*
X139192000Y-80772000D03*
%TD*%
%TO.C,C44*%
X135255000Y-90932000D03*
X135255000Y-89154000D03*
%TD*%
%TO.C,C6*%
X135128000Y-68453000D03*
X136906000Y-68453000D03*
%TD*%
%TO.C,C31*%
X148336000Y-89408000D03*
X148336000Y-91186000D03*
%TD*%
%TO.C,C37*%
X149860000Y-89408000D03*
X149860000Y-91186000D03*
%TD*%
%TO.C,C67*%
X149352000Y-101600000D03*
X147574000Y-101600000D03*
%TD*%
%TO.C,C47*%
X138430000Y-90424000D03*
X136652000Y-90424000D03*
%TD*%
%TO.C,C43*%
X141478000Y-99822000D03*
X143256000Y-99822000D03*
%TD*%
%TO.C,C34*%
X141732000Y-90805000D03*
X139954000Y-90805000D03*
%TD*%
D13*
%TO.C,C56*%
X126873000Y-101981000D03*
X126873000Y-104013000D03*
%TD*%
%TO.C,C61*%
X122428000Y-95250000D03*
X122428000Y-93218000D03*
%TD*%
%TO.C,C12*%
X163576000Y-91008200D03*
X163576000Y-93040200D03*
%TD*%
%TO.C,C27*%
X129921000Y-90678000D03*
X129921000Y-92710000D03*
%TD*%
%TO.C,C26*%
X131953000Y-90678000D03*
X131953000Y-92710000D03*
%TD*%
%TO.C,C70*%
X123317000Y-88646000D03*
X123317000Y-86614000D03*
%TD*%
%TO.C,C69*%
X121285000Y-88646000D03*
X121285000Y-86614000D03*
%TD*%
D35*
%TO.C,C65*%
X166624000Y-84201000D03*
X170180000Y-84201000D03*
%TD*%
D11*
%TO.C,L1*%
X124587000Y-67437000D03*
X124587000Y-68453000D03*
%TD*%
D13*
%TO.C,L11*%
X129159000Y-84836000D03*
X131191000Y-84836000D03*
%TD*%
D14*
%TO.C,L2*%
X161671000Y-91008200D03*
X161671000Y-93040200D03*
%TD*%
D13*
%TO.C,L10*%
X131191000Y-86487000D03*
X129159000Y-86487000D03*
%TD*%
%TO.C,L8*%
X125222000Y-88646000D03*
X127254000Y-88646000D03*
%TD*%
%TO.C,L9*%
X129159000Y-83185000D03*
X131191000Y-83185000D03*
%TD*%
D36*
%TO.C,RM4*%
X157480000Y-73914000D03*
X159004000Y-73914000D03*
X157480000Y-76454000D03*
X159004000Y-76454000D03*
D37*
X157480000Y-74803000D03*
X157480000Y-75565000D03*
X159004000Y-74803000D03*
X159004000Y-75565000D03*
%TD*%
%TO.C,RM3*%
X161798000Y-87579200D03*
X161798000Y-88341200D03*
X163322000Y-87579200D03*
X163322000Y-88341200D03*
D36*
X161798000Y-86690200D03*
X163322000Y-86690200D03*
X161798000Y-89230200D03*
X163322000Y-89230200D03*
%TD*%
D37*
%TO.C,RM2*%
X139065000Y-78359000D03*
X139065000Y-77597000D03*
X137541000Y-78359000D03*
X137541000Y-77597000D03*
D36*
X139065000Y-79248000D03*
X137541000Y-79248000D03*
X139065000Y-76708000D03*
X137541000Y-76708000D03*
%TD*%
D37*
%TO.C,RM1*%
X139065000Y-73279000D03*
X139065000Y-72517000D03*
X137541000Y-73279000D03*
X137541000Y-72517000D03*
D36*
X139065000Y-74168000D03*
X137541000Y-74168000D03*
X139065000Y-71628000D03*
X137541000Y-71628000D03*
%TD*%
D11*
%TO.C,R63*%
X161734500Y-68072000D03*
X161734500Y-67056000D03*
%TD*%
%TO.C,R62*%
X163512500Y-68072000D03*
X163512500Y-67056000D03*
%TD*%
D33*
%TO.C,R8*%
X136144000Y-83820000D03*
X135128000Y-83820000D03*
%TD*%
D11*
%TO.C,R61*%
X166751000Y-68072000D03*
X166751000Y-67056000D03*
%TD*%
D33*
%TO.C,R9*%
X138811000Y-75438000D03*
X137795000Y-75438000D03*
%TD*%
%TO.C,R10*%
X162179000Y-96215200D03*
X163195000Y-96215200D03*
%TD*%
D11*
%TO.C,R13*%
X137160000Y-82804000D03*
X137160000Y-83820000D03*
%TD*%
%TO.C,R60*%
X167640000Y-68072000D03*
X167640000Y-67056000D03*
%TD*%
%TO.C,R1*%
X167005000Y-104140000D03*
X167005000Y-103124000D03*
%TD*%
%TO.C,R3*%
X170307000Y-68072000D03*
X170307000Y-67056000D03*
%TD*%
%TO.C,R2*%
X168529000Y-68072000D03*
X168529000Y-67056000D03*
%TD*%
D33*
%TO.C,R11*%
X163195000Y-95326200D03*
X162179000Y-95326200D03*
%TD*%
D11*
%TO.C,R7*%
X135001000Y-103378000D03*
X135001000Y-104394000D03*
%TD*%
D33*
%TO.C,R12*%
X162179000Y-94437200D03*
X163195000Y-94437200D03*
%TD*%
D11*
%TO.C,R44*%
X146304000Y-99187001D03*
X146304000Y-100203001D03*
%TD*%
%TO.C,R46*%
X147066000Y-103505000D03*
X147066000Y-104521000D03*
%TD*%
%TO.C,R33*%
X155702000Y-90805000D03*
X155702000Y-89789000D03*
%TD*%
D33*
%TO.C,R32*%
X138176000Y-83820000D03*
X139192000Y-83820000D03*
%TD*%
%TO.C,R30*%
X165227000Y-70739000D03*
X166243000Y-70739000D03*
%TD*%
%TO.C,R41*%
X127254000Y-95631000D03*
X126238000Y-95631000D03*
%TD*%
D11*
%TO.C,R51*%
X127635000Y-84455000D03*
X127635000Y-85471000D03*
%TD*%
D33*
%TO.C,R55*%
X122936000Y-82676999D03*
X123952000Y-82676999D03*
%TD*%
%TO.C,R54*%
X123952001Y-84455000D03*
X122936001Y-84455000D03*
%TD*%
%TO.C,R52*%
X125603000Y-85471000D03*
X126619000Y-85471000D03*
%TD*%
D11*
%TO.C,R29*%
X161671000Y-80391000D03*
X161671000Y-79375000D03*
%TD*%
%TO.C,R45*%
X126746000Y-86360000D03*
X126746000Y-87376000D03*
%TD*%
D33*
%TO.C,R39*%
X123952000Y-95631000D03*
X124968000Y-95631000D03*
%TD*%
%TO.C,R47*%
X124841000Y-87376000D03*
X125857000Y-87376000D03*
%TD*%
D11*
%TO.C,R17*%
X133477000Y-101727000D03*
X133477000Y-100711000D03*
%TD*%
%TO.C,R40*%
X146304000Y-97155000D03*
X146304000Y-98171000D03*
%TD*%
D33*
%TO.C,R24*%
X140716000Y-92964000D03*
X141732000Y-92964000D03*
%TD*%
%TO.C,R25*%
X140716000Y-93853000D03*
X141732000Y-93853000D03*
%TD*%
D11*
%TO.C,R37*%
X130048000Y-98806000D03*
X130048000Y-99822000D03*
%TD*%
%TO.C,R35*%
X131826000Y-98806000D03*
X131826000Y-99822000D03*
%TD*%
%TO.C,R36*%
X130937000Y-98806000D03*
X130937000Y-99822000D03*
%TD*%
D33*
%TO.C,R22*%
X140081000Y-82804000D03*
X141097000Y-82804000D03*
%TD*%
D11*
%TO.C,R48*%
X128270000Y-99822000D03*
X128270000Y-98806000D03*
%TD*%
D33*
%TO.C,R26*%
X140716000Y-92075000D03*
X141732000Y-92075000D03*
%TD*%
D38*
%TO.C,R38*%
X139700000Y-88519000D03*
X136906000Y-88519000D03*
%TD*%
D39*
%TO.C,FET1*%
X143982440Y-106111040D03*
X143982440Y-108013500D03*
X141772640Y-107058460D03*
%TD*%
M02*
