%TF.GenerationSoftware,KiCad,Pcbnew,5.1.0-rc2-unknown-036be7d~80~ubuntu16.04.1*%
%TF.CreationDate,2019-11-29T15:46:33+02:00*%
%TF.ProjectId,S3-OLinuXino_Rev_A,53332d4f-4c69-46e7-9558-696e6f5f5265,F*%
%TF.SameCoordinates,Original*%
%TF.FileFunction,Legend,Bot*%
%TF.FilePolarity,Positive*%
%FSLAX46Y46*%
G04 Gerber Fmt 4.6, Leading zero omitted, Abs format (unit mm)*
G04 Created by KiCad (PCBNEW 5.1.0-rc2-unknown-036be7d~80~ubuntu16.04.1) date 2019-11-29 15:46:33*
%MOMM*%
%LPD*%
G04 APERTURE LIST*
%ADD10C,0.254000*%
%ADD11C,0.190500*%
%ADD12C,0.127000*%
%ADD13C,0.150000*%
%ADD14C,0.203200*%
%ADD15C,0.508000*%
%ADD16C,0.400000*%
%ADD17C,0.700000*%
%ADD18C,0.500000*%
%ADD19C,0.100000*%
%ADD20C,0.420000*%
%ADD21C,0.370000*%
%ADD22C,0.380000*%
%ADD23C,1.000000*%
%ADD24C,0.200000*%
%ADD25C,0.158750*%
%ADD26C,0.350000*%
G04 APERTURE END LIST*
D10*
X147193000Y-84328000D02*
X146304000Y-84328000D01*
D11*
X122718285Y-81860571D02*
X122464285Y-81860571D01*
X122355428Y-82259714D02*
X122718285Y-82259714D01*
X122718285Y-81497714D01*
X122355428Y-81497714D01*
X123008571Y-79973714D02*
X123008571Y-79211714D01*
X122827142Y-79211714D01*
X122718285Y-79248000D01*
X122645714Y-79320571D01*
X122609428Y-79393142D01*
X122573142Y-79538285D01*
X122573142Y-79647142D01*
X122609428Y-79792285D01*
X122645714Y-79864857D01*
X122718285Y-79937428D01*
X122827142Y-79973714D01*
X123008571Y-79973714D01*
D10*
X143637000Y-81407000D02*
X142748000Y-81407000D01*
X144272000Y-79756000D02*
X144272000Y-74422000D01*
D11*
X143328571Y-80989714D02*
X143328571Y-80227714D01*
X143147142Y-80227714D01*
X143038285Y-80264000D01*
X142965714Y-80336571D01*
X142929428Y-80409142D01*
X142893142Y-80554285D01*
X142893142Y-80663142D01*
X142929428Y-80808285D01*
X142965714Y-80880857D01*
X143038285Y-80953428D01*
X143147142Y-80989714D01*
X143328571Y-80989714D01*
X122446142Y-75964142D02*
X122482428Y-76000428D01*
X122591285Y-76036714D01*
X122663857Y-76036714D01*
X122772714Y-76000428D01*
X122845285Y-75927857D01*
X122881571Y-75855285D01*
X122917857Y-75710142D01*
X122917857Y-75601285D01*
X122881571Y-75456142D01*
X122845285Y-75383571D01*
X122772714Y-75311000D01*
X122663857Y-75274714D01*
X122591285Y-75274714D01*
X122482428Y-75311000D01*
X122446142Y-75347285D01*
X143401142Y-79647142D02*
X143437428Y-79683428D01*
X143546285Y-79719714D01*
X143618857Y-79719714D01*
X143727714Y-79683428D01*
X143800285Y-79610857D01*
X143836571Y-79538285D01*
X143872857Y-79393142D01*
X143872857Y-79284285D01*
X143836571Y-79139142D01*
X143800285Y-79066571D01*
X143727714Y-78994000D01*
X143618857Y-78957714D01*
X143546285Y-78957714D01*
X143437428Y-78994000D01*
X143401142Y-79030285D01*
X122464285Y-78830714D02*
X122899714Y-78830714D01*
X122682000Y-78830714D02*
X122682000Y-78068714D01*
X122754571Y-78177571D01*
X122827142Y-78250142D01*
X122899714Y-78286428D01*
X122936000Y-76798714D02*
X122464285Y-76798714D01*
X122718285Y-77089000D01*
X122609428Y-77089000D01*
X122536857Y-77125285D01*
X122500571Y-77161571D01*
X122464285Y-77234142D01*
X122464285Y-77415571D01*
X122500571Y-77488142D01*
X122536857Y-77524428D01*
X122609428Y-77560714D01*
X122827142Y-77560714D01*
X122899714Y-77524428D01*
X122936000Y-77488142D01*
X147229285Y-85162571D02*
X146975285Y-85162571D01*
X146866428Y-85561714D02*
X147229285Y-85561714D01*
X147229285Y-84799714D01*
X146866428Y-84799714D01*
X120940285Y-69305714D02*
X121375714Y-69305714D01*
X121158000Y-69305714D02*
X121158000Y-68543714D01*
X121230571Y-68652571D01*
X121303142Y-68725142D01*
X121375714Y-68761428D01*
X122464285Y-74385714D02*
X122899714Y-74385714D01*
X122682000Y-74385714D02*
X122682000Y-73623714D01*
X122754571Y-73732571D01*
X122827142Y-73805142D01*
X122899714Y-73841428D01*
X122936000Y-80354714D02*
X122464285Y-80354714D01*
X122718285Y-80645000D01*
X122609428Y-80645000D01*
X122536857Y-80681285D01*
X122500571Y-80717571D01*
X122464285Y-80790142D01*
X122464285Y-80971571D01*
X122500571Y-81044142D01*
X122536857Y-81080428D01*
X122609428Y-81116714D01*
X122827142Y-81116714D01*
X122899714Y-81080428D01*
X122936000Y-81044142D01*
D10*
X156210000Y-84201000D02*
X156210000Y-85471000D01*
X160909000Y-85471000D02*
X156210000Y-85471000D01*
X156845000Y-77597000D02*
X156845000Y-78867000D01*
X160909000Y-78867000D02*
X156845000Y-78867000D01*
X144145000Y-87249000D02*
X144145000Y-81788000D01*
D11*
X124049971Y-89810771D02*
X123941114Y-89847057D01*
X123904828Y-89883342D01*
X123868542Y-89955914D01*
X123868542Y-90064771D01*
X123904828Y-90137342D01*
X123941114Y-90173628D01*
X124013685Y-90209914D01*
X124303971Y-90209914D01*
X124303971Y-89447914D01*
X124049971Y-89447914D01*
X123977400Y-89484200D01*
X123941114Y-89520485D01*
X123904828Y-89593057D01*
X123904828Y-89665628D01*
X123941114Y-89738200D01*
X123977400Y-89774485D01*
X124049971Y-89810771D01*
X124303971Y-89810771D01*
D10*
X144326428Y-88319428D02*
X144181285Y-88367809D01*
X144132904Y-88416190D01*
X144084523Y-88512952D01*
X144084523Y-88658095D01*
X144132904Y-88754857D01*
X144181285Y-88803238D01*
X144278047Y-88851619D01*
X144665095Y-88851619D01*
X144665095Y-87835619D01*
X144326428Y-87835619D01*
X144229666Y-87884000D01*
X144181285Y-87932380D01*
X144132904Y-88029142D01*
X144132904Y-88125904D01*
X144181285Y-88222666D01*
X144229666Y-88271047D01*
X144326428Y-88319428D01*
X144665095Y-88319428D01*
X160909000Y-85471000D02*
X160909000Y-78867000D01*
X161912904Y-84624333D02*
X161429095Y-84624333D01*
X162009666Y-84914619D02*
X161671000Y-83898619D01*
X161332333Y-84914619D01*
X128511904Y-89958333D02*
X128028095Y-89958333D01*
X128608666Y-90248619D02*
X128270000Y-89232619D01*
X127931333Y-90248619D01*
X175133000Y-67056000D02*
X176784000Y-67056000D01*
X171069000Y-67056000D02*
X171831000Y-67056000D01*
%TO.C,Q2*%
X151892000Y-90551000D02*
X151892000Y-90043000D01*
X154432000Y-90551000D02*
X154432000Y-90043000D01*
%TO.C,R53*%
X134175500Y-87122000D02*
X134175500Y-87376000D01*
X134175500Y-87122000D02*
X134175500Y-86868000D01*
X133286500Y-87122000D02*
X133286500Y-86868000D01*
X133286500Y-87122000D02*
X133286500Y-87376000D01*
%TO.C,R34*%
X151574500Y-90297000D02*
X151574500Y-90043000D01*
X151574500Y-90297000D02*
X151574500Y-90551000D01*
X150685500Y-90297000D02*
X150685500Y-90551000D01*
X150685500Y-90297000D02*
X150685500Y-90043000D01*
%TO.C,U1*%
X155650000Y-72825000D02*
X155650000Y-73825000D01*
X155650000Y-72825000D02*
X154650000Y-72825000D01*
X144650000Y-83825000D02*
X145650000Y-83825000D01*
X144650000Y-83825000D02*
X144650000Y-82825000D01*
X154650000Y-83825000D02*
X155150000Y-83825000D01*
X155650000Y-82825000D02*
X155650000Y-83325000D01*
X144650000Y-73825000D02*
X144650000Y-73325000D01*
X145650000Y-72825000D02*
X145150000Y-72825000D01*
D12*
%TO.C,L12*%
X124663200Y-100584000D02*
X125501400Y-100584000D01*
X124663200Y-98806000D02*
X125501400Y-98806000D01*
D10*
%TO.C,C58*%
X147447000Y-96520000D02*
X148463000Y-96520000D01*
X147447000Y-94488000D02*
X148463000Y-94488000D01*
%TO.C,CAM1*%
X173838000Y-61196000D02*
X173838000Y-60396000D01*
X173838000Y-60396000D02*
X154838000Y-60396000D01*
X154838000Y-60396000D02*
X154838000Y-61196000D01*
X173838000Y-61196000D02*
X173738000Y-61196000D01*
X154838000Y-61196000D02*
X154938000Y-61196000D01*
X157938000Y-61196000D02*
X170738000Y-61196000D01*
X170738000Y-64696000D02*
X157938000Y-64696000D01*
X170588000Y-61196000D02*
X170588000Y-60396000D01*
X158088000Y-61196000D02*
X158088000Y-60396000D01*
X172838000Y-65546000D02*
X172838000Y-65696000D01*
X172838000Y-65696000D02*
X170488000Y-65696000D01*
X158188000Y-65696000D02*
X155838000Y-65696000D01*
X155838000Y-65696000D02*
X155838000Y-65546000D01*
%TO.C,MICRO_SD1*%
X167708580Y-86758780D02*
X174904400Y-86758780D01*
X166207440Y-96956880D02*
X166207440Y-99855020D01*
X167708580Y-101455220D02*
X174904400Y-101455220D01*
X180705760Y-101455220D02*
X180705760Y-98155760D01*
X180004720Y-95755460D02*
X180004720Y-86758780D01*
X177706020Y-101455220D02*
X180705760Y-101455220D01*
X177706020Y-86758780D02*
X180004720Y-86758780D01*
X180705760Y-98155760D02*
X180004720Y-95755460D01*
%TO.C,Q1*%
X156349000Y-90797000D02*
X156349000Y-89797000D01*
X157849000Y-90797000D02*
X157849000Y-89797000D01*
D12*
X156718000Y-90170000D02*
X156718000Y-90424000D01*
X156718000Y-90424000D02*
X157480000Y-90424000D01*
X157480000Y-90424000D02*
X157480000Y-90170000D01*
X157480000Y-90170000D02*
X156718000Y-90170000D01*
X157480000Y-89916000D02*
X156718000Y-89916000D01*
X156718000Y-90678000D02*
X157480000Y-90678000D01*
X157099000Y-90678000D02*
X157099000Y-90868500D01*
X157099000Y-89725500D02*
X157099000Y-89916000D01*
D10*
%TO.C,D4*%
X142185000Y-105363000D02*
X142185000Y-102663000D01*
X145375000Y-105363000D02*
X140375000Y-105363000D01*
X141745000Y-105363000D02*
X141745000Y-102663000D01*
X140375000Y-102663000D02*
X145375000Y-102663000D01*
%TO.C,D3*%
X152924500Y-99178500D02*
X150224500Y-99178500D01*
X152924500Y-95988500D02*
X152924500Y-100988500D01*
X152924500Y-99618500D02*
X150224500Y-99618500D01*
X150224500Y-100988500D02*
X150224500Y-95988500D01*
%TO.C,D1*%
X131699000Y-103759000D02*
X131699000Y-104140000D01*
X131826000Y-103632000D02*
X131826000Y-104267000D01*
X131953000Y-103505000D02*
X131953000Y-104267000D01*
X132080000Y-103505000D02*
X132080000Y-104394000D01*
X132207000Y-104394000D02*
X132207000Y-103251000D01*
X132334000Y-103251000D02*
X132334000Y-104521000D01*
X132461000Y-104648000D02*
X132461000Y-103124000D01*
X131241800Y-102946200D02*
X131064000Y-102946200D01*
X131241800Y-104851200D02*
X131064000Y-104851200D01*
X131064000Y-102946200D02*
X131064000Y-104851200D01*
X132613400Y-102946200D02*
X132613400Y-104851200D01*
X131241800Y-102946200D02*
X131241800Y-104851200D01*
X131241800Y-103860600D02*
X132613400Y-104851200D01*
X132613400Y-102946200D02*
X131241800Y-103860600D01*
X133197600Y-103898700D02*
X130721100Y-103898700D01*
%TO.C,U4*%
X139268200Y-98882200D02*
X139268200Y-98374200D01*
X138760200Y-98882200D02*
X139268200Y-98882200D01*
X133273800Y-98882200D02*
X133781800Y-98882200D01*
X133273800Y-98374200D02*
X133273800Y-98882200D01*
X133273800Y-92887800D02*
X133781800Y-92887800D01*
X133273800Y-93395800D02*
X133273800Y-92887800D01*
X139244605Y-93091000D02*
G75*
G03X139244605Y-93091000I-179605J0D01*
G01*
%TO.C,U3*%
X123931000Y-69752000D02*
X123931000Y-70862000D01*
X123931000Y-69752000D02*
X125031000Y-69752000D01*
X135921000Y-81752000D02*
X134811000Y-81752000D01*
X135921000Y-81752000D02*
X135921000Y-80642000D01*
X125703488Y-71292000D02*
G75*
G03X125703488Y-71292000I-262488J0D01*
G01*
X124753488Y-69012000D02*
G75*
G03X124753488Y-69012000I-262488J0D01*
G01*
X135921000Y-70342000D02*
X135921000Y-70842000D01*
X134821000Y-69752000D02*
X135311000Y-69752000D01*
X124921000Y-81752000D02*
X124501000Y-81752000D01*
X123921000Y-80672000D02*
X123921000Y-81162000D01*
%TO.C,U6*%
X125044200Y-95123000D02*
X126174500Y-95123000D01*
X125044200Y-92316300D02*
X126174500Y-92316300D01*
D13*
%TO.C,U7*%
X150434613Y-99816920D02*
G75*
G03X150434613Y-99816920I-158053J0D01*
G01*
D14*
X147040600Y-97868740D02*
X147040600Y-99489260D01*
X149885400Y-99489260D02*
X149885400Y-97868740D01*
X148889720Y-99489260D02*
X148983700Y-99489260D01*
X147942300Y-99489260D02*
X148036280Y-99489260D01*
X148889720Y-97871280D02*
X148983700Y-97871280D01*
X147942300Y-97871280D02*
X148036280Y-97871280D01*
D13*
X149545613Y-98927920D02*
G75*
G03X149545613Y-98927920I-158053J0D01*
G01*
D10*
%TO.C,HPHONEOUTL/LINEOUTL1*%
X122047000Y-85471000D02*
X122047000Y-82423000D01*
X121793000Y-85725000D02*
X120777000Y-85725000D01*
X121793000Y-82169000D02*
X120777000Y-82169000D01*
X120523000Y-82423000D02*
X120523000Y-85471000D01*
X120777000Y-85725000D02*
G75*
G02X120523000Y-85471000I0J254000D01*
G01*
X120523000Y-82423000D02*
G75*
G02X120777000Y-82169000I254000J0D01*
G01*
X121793000Y-82169000D02*
G75*
G02X122047000Y-82423000I0J-254000D01*
G01*
X122047000Y-85471000D02*
G75*
G02X121793000Y-85725000I-254000J0D01*
G01*
%TO.C,HPHONEOUTR/LINEOUTR1*%
X122047000Y-81407000D02*
G75*
G02X121793000Y-81661000I-254000J0D01*
G01*
X121793000Y-78105000D02*
G75*
G02X122047000Y-78359000I0J-254000D01*
G01*
X120523000Y-78359000D02*
G75*
G02X120777000Y-78105000I254000J0D01*
G01*
X120777000Y-81661000D02*
G75*
G02X120523000Y-81407000I0J254000D01*
G01*
X120523000Y-78359000D02*
X120523000Y-81407000D01*
X121793000Y-78105000D02*
X120777000Y-78105000D01*
X121793000Y-81661000D02*
X120777000Y-81661000D01*
X122047000Y-81407000D02*
X122047000Y-78359000D01*
%TO.C,LINEINR/MICIN1*%
X122047000Y-73279000D02*
G75*
G02X121793000Y-73533000I-254000J0D01*
G01*
X121793000Y-69977000D02*
G75*
G02X122047000Y-70231000I0J-254000D01*
G01*
X120523000Y-70231000D02*
G75*
G02X120777000Y-69977000I254000J0D01*
G01*
X120777000Y-73533000D02*
G75*
G02X120523000Y-73279000I0J254000D01*
G01*
X120523000Y-70231000D02*
X120523000Y-73279000D01*
X121793000Y-69977000D02*
X120777000Y-69977000D01*
X121793000Y-73533000D02*
X120777000Y-73533000D01*
X122047000Y-73279000D02*
X122047000Y-70231000D01*
%TO.C,LINEINL/MICIN1*%
X122047000Y-77343000D02*
G75*
G02X121793000Y-77597000I-254000J0D01*
G01*
X121793000Y-74041000D02*
G75*
G02X122047000Y-74295000I0J-254000D01*
G01*
X120523000Y-74295000D02*
G75*
G02X120777000Y-74041000I254000J0D01*
G01*
X120777000Y-77597000D02*
G75*
G02X120523000Y-77343000I0J254000D01*
G01*
X120523000Y-74295000D02*
X120523000Y-77343000D01*
X121793000Y-74041000D02*
X120777000Y-74041000D01*
X121793000Y-77597000D02*
X120777000Y-77597000D01*
X122047000Y-77343000D02*
X122047000Y-74295000D01*
%TO.C,C13*%
X124142500Y-67944998D02*
X124142500Y-67690998D01*
X124142500Y-67944998D02*
X124142500Y-68198998D01*
X123253500Y-67944998D02*
X123253500Y-68198998D01*
X123253500Y-67944998D02*
X123253500Y-67690998D01*
%TO.C,C11*%
X125031500Y-67945000D02*
X125031500Y-68199000D01*
X125031500Y-67945000D02*
X125031500Y-67691000D01*
X125920500Y-67945000D02*
X125920500Y-67691000D01*
X125920500Y-67945000D02*
X125920500Y-68199000D01*
%TO.C,C95*%
X124396500Y-83185000D02*
X124396500Y-83439000D01*
X124396500Y-83185000D02*
X124396500Y-82931000D01*
X125285500Y-83185000D02*
X125285500Y-82931000D01*
X125285500Y-83185000D02*
X125285500Y-83439000D01*
%TO.C,C10*%
X125920500Y-67945000D02*
X125920500Y-68199000D01*
X125920500Y-67945000D02*
X125920500Y-67691000D01*
X126809500Y-67945000D02*
X126809500Y-67691000D01*
X126809500Y-67945000D02*
X126809500Y-68199000D01*
%TO.C,C54*%
X153162000Y-93154500D02*
X153416000Y-93154500D01*
X153162000Y-93154500D02*
X152908000Y-93154500D01*
X153162000Y-92265500D02*
X152908000Y-92265500D01*
X153162000Y-92265500D02*
X153416000Y-92265500D01*
%TO.C,C7*%
X134429500Y-68199000D02*
X134429500Y-67945000D01*
X134429500Y-68199000D02*
X134429500Y-68453000D01*
X133540500Y-68199000D02*
X133540500Y-68453000D01*
X133540500Y-68199000D02*
X133540500Y-67945000D01*
%TO.C,C51*%
X158216599Y-89408000D02*
X158216599Y-89662000D01*
X158216599Y-89408000D02*
X158216599Y-89154000D01*
X159105599Y-89408000D02*
X159105599Y-89154000D01*
X159105599Y-89408000D02*
X159105599Y-89662000D01*
%TO.C,C52*%
X159105599Y-91186000D02*
X159105599Y-90932000D01*
X159105599Y-91186000D02*
X159105599Y-91440000D01*
X158216599Y-91186000D02*
X158216599Y-91440000D01*
X158216599Y-91186000D02*
X158216599Y-90932000D01*
%TO.C,C32*%
X146621500Y-90297002D02*
X146621500Y-90551002D01*
X146621500Y-90297002D02*
X146621500Y-90043002D01*
X147510500Y-90297002D02*
X147510500Y-90043002D01*
X147510500Y-90297002D02*
X147510500Y-90551002D01*
%TO.C,C104*%
X162179000Y-67564000D02*
X162179000Y-67818000D01*
X162179000Y-67564000D02*
X162179000Y-67310000D01*
X163068000Y-67564000D02*
X163068000Y-67310000D01*
X163068000Y-67564000D02*
X163068000Y-67818000D01*
%TO.C,C101*%
X168973500Y-67564000D02*
X168973500Y-67818000D01*
X168973500Y-67564000D02*
X168973500Y-67310000D01*
X169862500Y-67564000D02*
X169862500Y-67310000D01*
X169862500Y-67564000D02*
X169862500Y-67818000D01*
%TO.C,C102*%
X165290500Y-67564000D02*
X165290500Y-67818000D01*
X165290500Y-67564000D02*
X165290500Y-67310000D01*
X166179500Y-67564000D02*
X166179500Y-67310000D01*
X166179500Y-67564000D02*
X166179500Y-67818000D01*
%TO.C,C103*%
X164401500Y-67564000D02*
X164401500Y-67818000D01*
X164401500Y-67564000D02*
X164401500Y-67310000D01*
X165290500Y-67564000D02*
X165290500Y-67310000D01*
X165290500Y-67564000D02*
X165290500Y-67818000D01*
%TO.C,C30*%
X135826500Y-101219000D02*
X135826500Y-100965000D01*
X135826500Y-101219000D02*
X135826500Y-101473000D01*
X134937500Y-101219000D02*
X134937500Y-101473000D01*
X134937500Y-101219000D02*
X134937500Y-100965000D01*
%TO.C,C20*%
X134810500Y-101219000D02*
X134810500Y-100965000D01*
X134810500Y-101219000D02*
X134810500Y-101473000D01*
X133921500Y-101219000D02*
X133921500Y-101473000D01*
X133921500Y-101219000D02*
X133921500Y-100965000D01*
%TO.C,C64*%
X165735000Y-72580500D02*
X165481000Y-72580500D01*
X165735000Y-72580500D02*
X165989000Y-72580500D01*
X165735000Y-73469500D02*
X165989000Y-73469500D01*
X165735000Y-73469500D02*
X165481000Y-73469500D01*
%TO.C,C63*%
X165735000Y-71691500D02*
X165481000Y-71691500D01*
X165735000Y-71691500D02*
X165989000Y-71691500D01*
X165735000Y-72580500D02*
X165989000Y-72580500D01*
X165735000Y-72580500D02*
X165481000Y-72580500D01*
%TO.C,C9*%
X138684000Y-83248500D02*
X138938000Y-83248500D01*
X138684000Y-83248500D02*
X138430000Y-83248500D01*
X138684000Y-82359500D02*
X138430000Y-82359500D01*
X138684000Y-82359500D02*
X138938000Y-82359500D01*
%TO.C,C71*%
X127190500Y-86868000D02*
X127190500Y-87122000D01*
X127190500Y-86868000D02*
X127190500Y-86614000D01*
X128079500Y-86868000D02*
X128079500Y-86614000D01*
X128079500Y-86868000D02*
X128079500Y-87122000D01*
%TO.C,C100*%
X123444000Y-84899499D02*
X123698000Y-84899499D01*
X123444000Y-84899499D02*
X123190000Y-84899499D01*
X123444000Y-85788499D02*
X123190000Y-85788499D01*
X123444000Y-85788499D02*
X123698000Y-85788499D01*
%TO.C,C66*%
X125349000Y-86804500D02*
X125095000Y-86804500D01*
X125349000Y-86804500D02*
X125603000Y-86804500D01*
X125349000Y-85915500D02*
X125603000Y-85915500D01*
X125349000Y-85915500D02*
X125095000Y-85915500D01*
%TO.C,C99*%
X123444000Y-84010499D02*
X123698000Y-84010499D01*
X123444000Y-84010499D02*
X123190000Y-84010499D01*
X123444000Y-83121499D02*
X123190000Y-83121499D01*
X123444000Y-83121499D02*
X123698000Y-83121499D01*
%TO.C,C53*%
X153162000Y-87439500D02*
X152908000Y-87439500D01*
X153162000Y-87439500D02*
X153416000Y-87439500D01*
X153162000Y-88328500D02*
X153416000Y-88328500D01*
X153162000Y-88328500D02*
X152908000Y-88328500D01*
%TO.C,C57*%
X159829500Y-74313000D02*
X159829500Y-74567000D01*
X159829500Y-74313000D02*
X159829500Y-74059000D01*
X160718500Y-74313000D02*
X160718500Y-74059000D01*
X160718500Y-74313000D02*
X160718500Y-74567000D01*
%TO.C,C60*%
X160718500Y-76073000D02*
X160718500Y-75819000D01*
X160718500Y-76073000D02*
X160718500Y-76327000D01*
X159829500Y-76073000D02*
X159829500Y-76327000D01*
X159829500Y-76073000D02*
X159829500Y-75819000D01*
%TO.C,C94*%
X124396500Y-84963000D02*
X124396500Y-85217000D01*
X124396500Y-84963000D02*
X124396500Y-84709000D01*
X125285500Y-84963000D02*
X125285500Y-84709000D01*
X125285500Y-84963000D02*
X125285500Y-85217000D01*
%TO.C,C46*%
X142875000Y-97536000D02*
X141859000Y-97536000D01*
X142875000Y-99060000D02*
X141859000Y-99060000D01*
%TO.C,C42*%
X129540000Y-98298000D02*
X130556000Y-98298000D01*
X129540000Y-96774000D02*
X130556000Y-96774000D01*
%TO.C,C29*%
X130556000Y-95250000D02*
X129540000Y-95250000D01*
X130556000Y-96774000D02*
X129540000Y-96774000D01*
%TO.C,C45*%
X132969000Y-89535000D02*
X132969000Y-90551000D01*
X134493000Y-89535000D02*
X134493000Y-90551000D01*
%TO.C,C8*%
X138811000Y-80010000D02*
X137795000Y-80010000D01*
X138811000Y-81534000D02*
X137795000Y-81534000D01*
%TO.C,C44*%
X134493000Y-89535000D02*
X134493000Y-90551000D01*
X136017000Y-89535000D02*
X136017000Y-90551000D01*
%TO.C,C6*%
X136525000Y-67691000D02*
X135509000Y-67691000D01*
X136525000Y-69215000D02*
X135509000Y-69215000D01*
%TO.C,C31*%
X149098000Y-90805000D02*
X149098000Y-89789000D01*
X147574000Y-90805000D02*
X147574000Y-89789000D01*
%TO.C,C37*%
X150622000Y-90805000D02*
X150622000Y-89789000D01*
X149098000Y-90805000D02*
X149098000Y-89789000D01*
%TO.C,C67*%
X147955000Y-102362000D02*
X148971000Y-102362000D01*
X147955000Y-100838000D02*
X148971000Y-100838000D01*
%TO.C,C47*%
X137033000Y-91186000D02*
X138049000Y-91186000D01*
X137033000Y-89662000D02*
X138049000Y-89662000D01*
%TO.C,C43*%
X142875000Y-99060000D02*
X141859000Y-99060000D01*
X142875000Y-100584000D02*
X141859000Y-100584000D01*
%TO.C,C34*%
X141351000Y-91567000D02*
X140335000Y-91567000D01*
X141351000Y-90043000D02*
X140335000Y-90043000D01*
%TO.C,C56*%
X127889000Y-103505000D02*
X127889000Y-102489000D01*
X125857000Y-103505000D02*
X125857000Y-102489000D01*
%TO.C,C61*%
X121412000Y-93726000D02*
X121412000Y-94742000D01*
X123444000Y-93726000D02*
X123444000Y-94742000D01*
%TO.C,C12*%
X164592000Y-92532200D02*
X164592000Y-91516200D01*
X162560000Y-92532200D02*
X162560000Y-91516200D01*
%TO.C,C27*%
X130937000Y-92202000D02*
X130937000Y-91186000D01*
X128905000Y-92202000D02*
X128905000Y-91186000D01*
%TO.C,C26*%
X132969000Y-92202000D02*
X132969000Y-91186000D01*
X130937000Y-92202000D02*
X130937000Y-91186000D01*
%TO.C,C70*%
X122301000Y-87122000D02*
X122301000Y-88138000D01*
X124333000Y-87122000D02*
X124333000Y-88138000D01*
%TO.C,C69*%
X120269000Y-87122000D02*
X120269000Y-88138000D01*
X122301000Y-87122000D02*
X122301000Y-88138000D01*
%TO.C,C65*%
X169164000Y-83058000D02*
X167640000Y-83058000D01*
X169164000Y-85344000D02*
X167640000Y-85344000D01*
%TO.C,L1*%
X124142500Y-67945000D02*
X124142500Y-68199000D01*
X124142500Y-67945000D02*
X124142500Y-67691000D01*
X125031500Y-67945000D02*
X125031500Y-67691000D01*
X125031500Y-67945000D02*
X125031500Y-68199000D01*
D12*
%TO.C,L11*%
X129743200Y-85725000D02*
X130581400Y-85725000D01*
X129743200Y-83947000D02*
X130581400Y-83947000D01*
%TO.C,L2*%
X160782000Y-91592400D02*
X160782000Y-92430600D01*
X162560000Y-91592400D02*
X162560000Y-92430600D01*
%TO.C,L10*%
X130606800Y-85598000D02*
X129768600Y-85598000D01*
X130606800Y-87376000D02*
X129768600Y-87376000D01*
%TO.C,L8*%
X125806200Y-89535000D02*
X126644400Y-89535000D01*
X125806200Y-87757000D02*
X126644400Y-87757000D01*
%TO.C,L9*%
X129743200Y-84074000D02*
X130581400Y-84074000D01*
X129743200Y-82296000D02*
X130581400Y-82296000D01*
D10*
%TO.C,RM4*%
X159715200Y-77190600D02*
X159715200Y-76974700D01*
X156768800Y-77190600D02*
X159715200Y-77190600D01*
X156768800Y-77000100D02*
X156768800Y-77190600D01*
X159715200Y-73177400D02*
X159715200Y-73393300D01*
X156768800Y-73202800D02*
X156768800Y-73380600D01*
X156768800Y-73190100D02*
X159715200Y-73190100D01*
%TO.C,RM3*%
X164033200Y-89954100D02*
X161086800Y-89954100D01*
X164033200Y-89941400D02*
X164033200Y-89763600D01*
X161086800Y-89966800D02*
X161086800Y-89750900D01*
X164033200Y-86144100D02*
X164033200Y-85953600D01*
X164033200Y-85953600D02*
X161086800Y-85953600D01*
X161086800Y-85953600D02*
X161086800Y-86169500D01*
%TO.C,RM2*%
X136829800Y-75984100D02*
X139776200Y-75984100D01*
X136829800Y-75996800D02*
X136829800Y-76174600D01*
X139776200Y-75971400D02*
X139776200Y-76187300D01*
X136829800Y-79794100D02*
X136829800Y-79984600D01*
X136829800Y-79984600D02*
X139776200Y-79984600D01*
X139776200Y-79984600D02*
X139776200Y-79768700D01*
%TO.C,RM1*%
X136829800Y-70904100D02*
X139776200Y-70904100D01*
X136829800Y-70916800D02*
X136829800Y-71094600D01*
X139776200Y-70891400D02*
X139776200Y-71107300D01*
X136829800Y-74714100D02*
X136829800Y-74904600D01*
X136829800Y-74904600D02*
X139776200Y-74904600D01*
X139776200Y-74904600D02*
X139776200Y-74688700D01*
%TO.C,R63*%
X162179000Y-67564000D02*
X162179000Y-67310000D01*
X162179000Y-67564000D02*
X162179000Y-67818000D01*
X161290000Y-67564000D02*
X161290000Y-67818000D01*
X161290000Y-67564000D02*
X161290000Y-67310000D01*
%TO.C,R62*%
X163957000Y-67564000D02*
X163957000Y-67310000D01*
X163957000Y-67564000D02*
X163957000Y-67818000D01*
X163068000Y-67564000D02*
X163068000Y-67818000D01*
X163068000Y-67564000D02*
X163068000Y-67310000D01*
%TO.C,R8*%
X135636000Y-83375500D02*
X135382000Y-83375500D01*
X135636000Y-83375500D02*
X135890000Y-83375500D01*
X135636000Y-84264500D02*
X135890000Y-84264500D01*
X135636000Y-84264500D02*
X135382000Y-84264500D01*
%TO.C,R61*%
X167195500Y-67564000D02*
X167195500Y-67310000D01*
X167195500Y-67564000D02*
X167195500Y-67818000D01*
X166306500Y-67564000D02*
X166306500Y-67818000D01*
X166306500Y-67564000D02*
X166306500Y-67310000D01*
%TO.C,R9*%
X138303000Y-74993500D02*
X138049000Y-74993500D01*
X138303000Y-74993500D02*
X138557000Y-74993500D01*
X138303000Y-75882500D02*
X138557000Y-75882500D01*
X138303000Y-75882500D02*
X138049000Y-75882500D01*
%TO.C,R10*%
X162687000Y-96659700D02*
X162941000Y-96659700D01*
X162687000Y-96659700D02*
X162433000Y-96659700D01*
X162687000Y-95770700D02*
X162433000Y-95770700D01*
X162687000Y-95770700D02*
X162941000Y-95770700D01*
%TO.C,R13*%
X136715500Y-83312000D02*
X136715500Y-83566000D01*
X136715500Y-83312000D02*
X136715500Y-83058000D01*
X137604500Y-83312000D02*
X137604500Y-83058000D01*
X137604500Y-83312000D02*
X137604500Y-83566000D01*
%TO.C,R60*%
X168084500Y-67564000D02*
X168084500Y-67310000D01*
X168084500Y-67564000D02*
X168084500Y-67818000D01*
X167195500Y-67564000D02*
X167195500Y-67818000D01*
X167195500Y-67564000D02*
X167195500Y-67310000D01*
%TO.C,R1*%
X167449500Y-103632000D02*
X167449500Y-103378000D01*
X167449500Y-103632000D02*
X167449500Y-103886000D01*
X166560500Y-103632000D02*
X166560500Y-103886000D01*
X166560500Y-103632000D02*
X166560500Y-103378000D01*
%TO.C,R3*%
X170751500Y-67564000D02*
X170751500Y-67310000D01*
X170751500Y-67564000D02*
X170751500Y-67818000D01*
X169862500Y-67564000D02*
X169862500Y-67818000D01*
X169862500Y-67564000D02*
X169862500Y-67310000D01*
%TO.C,R2*%
X168973500Y-67564000D02*
X168973500Y-67310000D01*
X168973500Y-67564000D02*
X168973500Y-67818000D01*
X168084500Y-67564000D02*
X168084500Y-67818000D01*
X168084500Y-67564000D02*
X168084500Y-67310000D01*
%TO.C,R11*%
X162687000Y-94881700D02*
X162941000Y-94881700D01*
X162687000Y-94881700D02*
X162433000Y-94881700D01*
X162687000Y-95770700D02*
X162433000Y-95770700D01*
X162687000Y-95770700D02*
X162941000Y-95770700D01*
%TO.C,R7*%
X134556500Y-103886000D02*
X134556500Y-104140000D01*
X134556500Y-103886000D02*
X134556500Y-103632000D01*
X135445500Y-103886000D02*
X135445500Y-103632000D01*
X135445500Y-103886000D02*
X135445500Y-104140000D01*
%TO.C,R12*%
X162687000Y-94881700D02*
X162941000Y-94881700D01*
X162687000Y-94881700D02*
X162433000Y-94881700D01*
X162687000Y-93992700D02*
X162433000Y-93992700D01*
X162687000Y-93992700D02*
X162941000Y-93992700D01*
%TO.C,R44*%
X145859500Y-99695001D02*
X145859500Y-99949001D01*
X145859500Y-99695001D02*
X145859500Y-99441001D01*
X146748500Y-99695001D02*
X146748500Y-99441001D01*
X146748500Y-99695001D02*
X146748500Y-99949001D01*
%TO.C,R46*%
X146621500Y-104013000D02*
X146621500Y-104267000D01*
X146621500Y-104013000D02*
X146621500Y-103759000D01*
X147510500Y-104013000D02*
X147510500Y-103759000D01*
X147510500Y-104013000D02*
X147510500Y-104267000D01*
%TO.C,R33*%
X156146500Y-90297000D02*
X156146500Y-90043000D01*
X156146500Y-90297000D02*
X156146500Y-90551000D01*
X155257500Y-90297000D02*
X155257500Y-90551000D01*
X155257500Y-90297000D02*
X155257500Y-90043000D01*
%TO.C,R32*%
X138684000Y-84264500D02*
X138938000Y-84264500D01*
X138684000Y-84264500D02*
X138430000Y-84264500D01*
X138684000Y-83375500D02*
X138430000Y-83375500D01*
X138684000Y-83375500D02*
X138938000Y-83375500D01*
%TO.C,R30*%
X165735000Y-71183500D02*
X165989000Y-71183500D01*
X165735000Y-71183500D02*
X165481000Y-71183500D01*
X165735000Y-70294500D02*
X165481000Y-70294500D01*
X165735000Y-70294500D02*
X165989000Y-70294500D01*
%TO.C,R41*%
X126746000Y-95186500D02*
X126492000Y-95186500D01*
X126746000Y-95186500D02*
X127000000Y-95186500D01*
X126746000Y-96075500D02*
X127000000Y-96075500D01*
X126746000Y-96075500D02*
X126492000Y-96075500D01*
%TO.C,R51*%
X127190500Y-84963000D02*
X127190500Y-85217000D01*
X127190500Y-84963000D02*
X127190500Y-84709000D01*
X128079500Y-84963000D02*
X128079500Y-84709000D01*
X128079500Y-84963000D02*
X128079500Y-85217000D01*
%TO.C,R55*%
X123444000Y-83121499D02*
X123698000Y-83121499D01*
X123444000Y-83121499D02*
X123190000Y-83121499D01*
X123444000Y-82232499D02*
X123190000Y-82232499D01*
X123444000Y-82232499D02*
X123698000Y-82232499D01*
%TO.C,R54*%
X123444001Y-84010500D02*
X123698001Y-84010500D01*
X123444001Y-84010500D02*
X123190001Y-84010500D01*
X123444001Y-84899500D02*
X123190001Y-84899500D01*
X123444001Y-84899500D02*
X123698001Y-84899500D01*
%TO.C,R52*%
X126111000Y-85915500D02*
X125857000Y-85915500D01*
X126111000Y-85915500D02*
X126365000Y-85915500D01*
X126111000Y-85026500D02*
X126365000Y-85026500D01*
X126111000Y-85026500D02*
X125857000Y-85026500D01*
%TO.C,R29*%
X162115500Y-79883000D02*
X162115500Y-80137000D01*
X162115500Y-79883000D02*
X162115500Y-79629000D01*
X161226500Y-79883000D02*
X161226500Y-79629000D01*
X161226500Y-79883000D02*
X161226500Y-80137000D01*
%TO.C,R45*%
X126301500Y-86868000D02*
X126301500Y-86614000D01*
X126301500Y-86868000D02*
X126301500Y-87122000D01*
X127190500Y-86868000D02*
X127190500Y-87122000D01*
X127190500Y-86868000D02*
X127190500Y-86614000D01*
%TO.C,R39*%
X124460000Y-96075500D02*
X124714000Y-96075500D01*
X124460000Y-96075500D02*
X124206000Y-96075500D01*
X124460000Y-95186500D02*
X124206000Y-95186500D01*
X124460000Y-95186500D02*
X124714000Y-95186500D01*
%TO.C,R47*%
X125349000Y-87820500D02*
X125603000Y-87820500D01*
X125349000Y-87820500D02*
X125095000Y-87820500D01*
X125349000Y-86931500D02*
X125095000Y-86931500D01*
X125349000Y-86931500D02*
X125603000Y-86931500D01*
%TO.C,R17*%
X133921500Y-101219000D02*
X133921500Y-100965000D01*
X133921500Y-101219000D02*
X133921500Y-101473000D01*
X133032500Y-101219000D02*
X133032500Y-101473000D01*
X133032500Y-101219000D02*
X133032500Y-100965000D01*
%TO.C,R40*%
X145859500Y-97663000D02*
X145859500Y-97917000D01*
X145859500Y-97663000D02*
X145859500Y-97409000D01*
X146748500Y-97663000D02*
X146748500Y-97409000D01*
X146748500Y-97663000D02*
X146748500Y-97917000D01*
%TO.C,R24*%
X141224000Y-93408500D02*
X141478000Y-93408500D01*
X141224000Y-93408500D02*
X140970000Y-93408500D01*
X141224000Y-92519500D02*
X140970000Y-92519500D01*
X141224000Y-92519500D02*
X141478000Y-92519500D01*
%TO.C,R25*%
X141224000Y-94297500D02*
X141478000Y-94297500D01*
X141224000Y-94297500D02*
X140970000Y-94297500D01*
X141224000Y-93408500D02*
X140970000Y-93408500D01*
X141224000Y-93408500D02*
X141478000Y-93408500D01*
%TO.C,R37*%
X129603500Y-99314000D02*
X129603500Y-99568000D01*
X129603500Y-99314000D02*
X129603500Y-99060000D01*
X130492500Y-99314000D02*
X130492500Y-99060000D01*
X130492500Y-99314000D02*
X130492500Y-99568000D01*
%TO.C,R35*%
X131381500Y-99314000D02*
X131381500Y-99568000D01*
X131381500Y-99314000D02*
X131381500Y-99060000D01*
X132270500Y-99314000D02*
X132270500Y-99060000D01*
X132270500Y-99314000D02*
X132270500Y-99568000D01*
%TO.C,R36*%
X130492500Y-99314000D02*
X130492500Y-99568000D01*
X130492500Y-99314000D02*
X130492500Y-99060000D01*
X131381500Y-99314000D02*
X131381500Y-99060000D01*
X131381500Y-99314000D02*
X131381500Y-99568000D01*
%TO.C,R22*%
X140589000Y-83248500D02*
X140843000Y-83248500D01*
X140589000Y-83248500D02*
X140335000Y-83248500D01*
X140589000Y-82359500D02*
X140335000Y-82359500D01*
X140589000Y-82359500D02*
X140843000Y-82359500D01*
%TO.C,R48*%
X128714500Y-99314000D02*
X128714500Y-99060000D01*
X128714500Y-99314000D02*
X128714500Y-99568000D01*
X127825500Y-99314000D02*
X127825500Y-99568000D01*
X127825500Y-99314000D02*
X127825500Y-99060000D01*
%TO.C,R26*%
X141224000Y-92519500D02*
X141478000Y-92519500D01*
X141224000Y-92519500D02*
X140970000Y-92519500D01*
X141224000Y-91630500D02*
X140970000Y-91630500D01*
X141224000Y-91630500D02*
X141478000Y-91630500D01*
%TO.C,R38*%
X139065000Y-89662000D02*
X137541000Y-89662000D01*
X139065000Y-87376000D02*
X137541000Y-87376000D01*
%TO.C,FET1*%
X142240000Y-108483400D02*
X142240000Y-107772200D01*
X143078200Y-108483400D02*
X142240000Y-108483400D01*
X143078200Y-105638600D02*
X142240000Y-105638600D01*
X142240000Y-106349800D02*
X142240000Y-105638600D01*
%TO.C,Sign-RoHS*%
X143128556Y-68096371D02*
G75*
G02X142875000Y-68707000I-865696J1511D01*
G01*
X141682020Y-66601180D02*
G75*
G02X142189200Y-67632580I-991420J-1127920D01*
G01*
X142599340Y-68737046D02*
G75*
G02X142189200Y-67640200I1118940J1043506D01*
G01*
X142876788Y-68835791D02*
G75*
G02X142572740Y-68709540I752J431051D01*
G01*
X142310340Y-68829613D02*
G75*
G02X141808200Y-68033900I709440J1003993D01*
G01*
X141428795Y-66695066D02*
G75*
G02X141782800Y-67685920I-1408755J-1061974D01*
G01*
X141961927Y-68835303D02*
G75*
G02X141762480Y-68811140I-1327J824263D01*
G01*
X141760497Y-68810453D02*
G75*
G02X141180820Y-68536820I205183J1185493D01*
G01*
X141156946Y-68514974D02*
G75*
G02X140843000Y-67757040I757934J757934D01*
G01*
X140843283Y-67757487D02*
G75*
G02X140914120Y-67388740I992857J447D01*
G01*
X140978148Y-66454136D02*
G75*
G02X140914120Y-67388740I-1478808J-368184D01*
G01*
X142280000Y-66475511D02*
G75*
G02X143002000Y-67119500I-601340J-1400909D01*
G01*
X143055794Y-67215321D02*
G75*
G02X143256000Y-67970400I-1323794J-755079D01*
G01*
X143257874Y-67970901D02*
G75*
G02X143172180Y-68414900I-1195674J501D01*
G01*
X143301720Y-69089612D02*
G75*
G02X143009620Y-68968620I0J413092D01*
G01*
X143659134Y-68939954D02*
G75*
G02X143301720Y-69088000I-357414J357414D01*
G01*
X144032258Y-69105710D02*
G75*
G02X143764000Y-68453000I653762J650170D01*
G01*
X144269978Y-69723280D02*
G75*
G02X143764000Y-68498720I1228842J1224560D01*
G01*
X147834379Y-65184186D02*
G75*
G02X146491960Y-65399920I-1812319J6992786D01*
G01*
X144710130Y-65973934D02*
G75*
G02X145973800Y-65473580I2134890J-3545866D01*
G01*
X143643641Y-67051765D02*
G75*
G02X144698720Y-65981580I3831299J-2722035D01*
G01*
X143763155Y-68326069D02*
G75*
G02X143883380Y-67388740I762845J378529D01*
G01*
X144054473Y-67200156D02*
G75*
G02X146608800Y-65930780I3654147J-4148444D01*
G01*
X148945541Y-65119778D02*
G75*
G02X146918680Y-65869820I-2631381J3997218D01*
G01*
X144211549Y-69411559D02*
G75*
G02X143764000Y-68326000I1086611J1083019D01*
G01*
X143637760Y-66674243D02*
G75*
G02X143697960Y-65996820I3049780J70363D01*
G01*
X143844736Y-65393585D02*
G75*
G02X145895060Y-63881000I2144304J-760715D01*
G01*
X149758952Y-63736522D02*
G75*
G02X148043900Y-64076580I-1268012J1900222D01*
G01*
X147732933Y-67660013D02*
G75*
G02X145867120Y-68326000I-1738813J1924813D01*
G01*
X149753464Y-65240447D02*
G75*
G02X147772120Y-67622420I-8344044J4925607D01*
G01*
X144040860Y-68049140D02*
G75*
G02X144759680Y-68051680I358140J-360680D01*
G01*
X145351500Y-68328066D02*
G75*
G02X144813020Y-68105020I0J761526D01*
G01*
X145669000Y-72136000D02*
G75*
G02X144145000Y-70612000I0J1524000D01*
G01*
X159004000Y-70612000D02*
G75*
G02X157480000Y-72136000I-1524000J0D01*
G01*
X157480000Y-69088000D02*
G75*
G02X159004000Y-70612000I0J-1524000D01*
G01*
X144145000Y-70612000D02*
G75*
G02X145669000Y-69088000I1524000J0D01*
G01*
X142113000Y-68707000D02*
X141605000Y-68707000D01*
X141986000Y-68580000D02*
X141351000Y-68580000D01*
X141859000Y-68453000D02*
X141224000Y-68453000D01*
X141859000Y-68326000D02*
X141097000Y-68326000D01*
X141808200Y-68199000D02*
X140970000Y-68199000D01*
X141732000Y-68072000D02*
X140970000Y-68072000D01*
X141732000Y-67945000D02*
X140970000Y-67945000D01*
X141732000Y-67818000D02*
X140970000Y-67818000D01*
X141732000Y-67691000D02*
X140970000Y-67691000D01*
X141732000Y-67564000D02*
X140970000Y-67564000D01*
X141732000Y-67437000D02*
X140970000Y-67437000D01*
X141732000Y-67310000D02*
X141097000Y-67310000D01*
X141605000Y-67183000D02*
X141097000Y-67183000D01*
X141605000Y-67056000D02*
X141097000Y-67056000D01*
X141224000Y-66548000D02*
X141224000Y-67056000D01*
X141351000Y-66548000D02*
X141351000Y-67056000D01*
X141478000Y-66167000D02*
X140970000Y-66167000D01*
X141605000Y-66294000D02*
X140970000Y-66294000D01*
X141859000Y-66421000D02*
X141097000Y-66421000D01*
X141351000Y-66548000D02*
X142240000Y-66548000D01*
X141224000Y-66548000D02*
X141351000Y-66548000D01*
X141097000Y-66548000D02*
X141224000Y-66548000D01*
X141859000Y-66675000D02*
X142367000Y-66675000D01*
X141986000Y-66802000D02*
X142621000Y-66802000D01*
X141986000Y-66929000D02*
X142748000Y-66929000D01*
X142113000Y-67056000D02*
X142875000Y-67056000D01*
X142113000Y-67183000D02*
X143002000Y-67183000D01*
X142240000Y-67310000D02*
X143002000Y-67310000D01*
X142240000Y-67437000D02*
X143002000Y-67437000D01*
X142240000Y-67564000D02*
X143129000Y-67564000D01*
X142240000Y-67691000D02*
X143129000Y-67691000D01*
X143002000Y-68453000D02*
X142494000Y-68453000D01*
X143002000Y-68326000D02*
X142367000Y-68326000D01*
X143129000Y-68199000D02*
X142367000Y-68199000D01*
X143129000Y-68072000D02*
X142367000Y-68072000D01*
X143002000Y-67945000D02*
X142367000Y-67945000D01*
X142494000Y-67818000D02*
X142494000Y-68326000D01*
X142240000Y-67818000D02*
X142748000Y-68707000D01*
X142494000Y-67818000D02*
X142240000Y-67818000D01*
X142875000Y-67818000D02*
X142494000Y-67818000D01*
X143002000Y-68453000D02*
X143002000Y-68580000D01*
X143002000Y-68326000D02*
X143002000Y-68453000D01*
X143002000Y-67945000D02*
X143002000Y-68326000D01*
X143002000Y-67818000D02*
X143002000Y-67945000D01*
X142875000Y-67818000D02*
X142875000Y-68453000D01*
X143002000Y-67818000D02*
X142875000Y-67818000D01*
X143129000Y-67818000D02*
X143002000Y-67818000D01*
X143129000Y-68072000D02*
X143129000Y-67818000D01*
X143129000Y-68094860D02*
X143129000Y-68072000D01*
X142189200Y-67640200D02*
X142189200Y-67632580D01*
X142572740Y-68709540D02*
X142600680Y-68737480D01*
D15*
X145923000Y-67310000D02*
X147193000Y-67056000D01*
X145542000Y-67437000D02*
X145923000Y-67310000D01*
X145415000Y-67310000D02*
X145542000Y-67437000D01*
X145415000Y-67183000D02*
X145415000Y-67310000D01*
X145923000Y-66929000D02*
X145415000Y-67183000D01*
X146177000Y-66929000D02*
X145923000Y-66929000D01*
X147193000Y-66675000D02*
X146177000Y-66929000D01*
X147701000Y-66675000D02*
X147193000Y-66675000D01*
X147828000Y-66802000D02*
X147701000Y-66675000D01*
X147701000Y-66929000D02*
X147828000Y-66802000D01*
X147066000Y-67437000D02*
X147701000Y-66929000D01*
X146558000Y-67564000D02*
X147066000Y-67437000D01*
X146177000Y-67691000D02*
X146558000Y-67564000D01*
X145542000Y-67691000D02*
X146177000Y-67691000D01*
X145161000Y-67564000D02*
X145542000Y-67691000D01*
X144907000Y-67564000D02*
X145161000Y-67564000D01*
X144780000Y-67310000D02*
X144907000Y-67564000D01*
X144907000Y-67183000D02*
X144780000Y-67310000D01*
X145542000Y-66675000D02*
X144907000Y-67183000D01*
X146558000Y-66421000D02*
X145542000Y-66675000D01*
X147701000Y-66294000D02*
X146558000Y-66421000D01*
X147828000Y-66294000D02*
X147701000Y-66294000D01*
X147955000Y-66421000D02*
X147828000Y-66294000D01*
X148717000Y-65786000D02*
X147955000Y-66421000D01*
X148082000Y-65786000D02*
X148844000Y-65405000D01*
X147345400Y-66040000D02*
X148082000Y-65786000D01*
X146735800Y-66040000D02*
X147345400Y-66040000D01*
X145338800Y-66522600D02*
X146735800Y-66040000D01*
X144653000Y-66929000D02*
X145338800Y-66522600D01*
X144145000Y-67437000D02*
X144653000Y-66929000D01*
X143891000Y-67945000D02*
X144145000Y-67437000D01*
X144145000Y-67691000D02*
X143891000Y-67945000D01*
X144526000Y-67564000D02*
X144145000Y-67691000D01*
X145288000Y-68072000D02*
X144526000Y-67564000D01*
X146177000Y-68072000D02*
X145288000Y-68072000D01*
X147066000Y-67818000D02*
X146177000Y-68072000D01*
X147574000Y-67437000D02*
X147066000Y-67818000D01*
X148463000Y-66548000D02*
X147574000Y-67437000D01*
X148717000Y-66167000D02*
X148463000Y-66548000D01*
X149098000Y-65659000D02*
X148717000Y-66167000D01*
X149227540Y-65151000D02*
X149606000Y-64264540D01*
X149227540Y-65532000D02*
X149227540Y-65151000D01*
X149606000Y-65024000D02*
X149227540Y-65532000D01*
X149733000Y-64516000D02*
X149606000Y-65024000D01*
X150241000Y-63627000D02*
X149733000Y-64516000D01*
X144653000Y-65151000D02*
X146304000Y-65151000D01*
X144780000Y-64770000D02*
X149733000Y-64693800D01*
X144780000Y-65024000D02*
X144780000Y-64770000D01*
X144780000Y-64516000D02*
X144780000Y-64770000D01*
X149352000Y-64516000D02*
X144780000Y-64516000D01*
X148844000Y-64643000D02*
X149352000Y-64516000D01*
X147574000Y-65024000D02*
X148844000Y-64643000D01*
X146431000Y-65151000D02*
X147574000Y-65024000D01*
X146304000Y-65151000D02*
X146431000Y-65151000D01*
X145796000Y-65151000D02*
X146304000Y-65151000D01*
X145161000Y-65532000D02*
X145796000Y-65151000D01*
X144780000Y-65024000D02*
X144399000Y-65532000D01*
X145034000Y-65532000D02*
X144780000Y-65024000D01*
X144399000Y-65913000D02*
X145034000Y-65532000D01*
X143891000Y-66548000D02*
X144399000Y-65913000D01*
X144018000Y-65532000D02*
X143891000Y-66548000D01*
X144272000Y-65024000D02*
X144018000Y-65532000D01*
X144780000Y-64516000D02*
X144272000Y-65024000D01*
X145415000Y-64135000D02*
X144780000Y-64516000D01*
X147066000Y-64135000D02*
X145415000Y-64135000D01*
X148082000Y-64264540D02*
X147066000Y-64135000D01*
X149227540Y-64264540D02*
X148082000Y-64264540D01*
D10*
X150241000Y-63627000D02*
X149227540Y-64264540D01*
X141782800Y-67642740D02*
X141808200Y-68033900D01*
X142862300Y-68834000D02*
X142875000Y-68834000D01*
X141960600Y-68834000D02*
X142316200Y-68834000D01*
X141157960Y-68513960D02*
X141180820Y-68536820D01*
X140843000Y-65913000D02*
X140977620Y-66451480D01*
X141859000Y-66294000D02*
X140843000Y-65913000D01*
X142280640Y-66474340D02*
X141859000Y-66294000D01*
X143055340Y-67213480D02*
X143002000Y-67119500D01*
X142875000Y-68834000D02*
X143172180Y-68414900D01*
X143009620Y-68968620D02*
X142875000Y-68834000D01*
X143764000Y-68834000D02*
X143659860Y-68940680D01*
X144526000Y-69596000D02*
X144035780Y-69105780D01*
X143764000Y-68498720D02*
X143764000Y-68453000D01*
X144399000Y-69723000D02*
X143891000Y-68961000D01*
X147840700Y-65184020D02*
X149227540Y-64770000D01*
X145973800Y-65473580D02*
X146491960Y-65399920D01*
X144698720Y-65981580D02*
X144706340Y-65976500D01*
X143639540Y-67056000D02*
X143642080Y-67053460D01*
X144053560Y-67200780D02*
X143883380Y-67388740D01*
X146918680Y-65869820D02*
X146608800Y-65930780D01*
X149227540Y-64770000D02*
X148945600Y-65117980D01*
X144399000Y-69596000D02*
X144213580Y-69410580D01*
X143741140Y-68280280D02*
X143764000Y-68326000D01*
X143639540Y-66675000D02*
X143639540Y-67056000D01*
X143845280Y-65397380D02*
X143697960Y-65996820D01*
X148043900Y-64076580D02*
X145895060Y-63881000D01*
X150622000Y-63119000D02*
X149760940Y-63738760D01*
X145867120Y-68326000D02*
X145351500Y-68326000D01*
X147772120Y-67622420D02*
X147736560Y-67657980D01*
X150622000Y-63119000D02*
X149755860Y-65234820D01*
X144040860Y-68051680D02*
X143764000Y-68326000D01*
X144813020Y-68105020D02*
X144759680Y-68051680D01*
X157480000Y-72136000D02*
X145669000Y-72136000D01*
X145669000Y-69088000D02*
X157480000Y-69088000D01*
D16*
%TO.C,Logo-OLimeX_Big*%
X142818747Y-62484000D02*
G75*
G03X142818747Y-62484000I-337447J0D01*
G01*
D17*
X142494000Y-61709300D02*
X141986000Y-61201300D01*
X140893800Y-61125100D02*
X140258800Y-61734700D01*
X140284200Y-63690500D02*
X140843000Y-64274700D01*
X138658600Y-64287400D02*
X139115800Y-63830200D01*
X137672800Y-64287400D02*
X138658600Y-64287400D01*
D16*
X137526324Y-64262000D02*
G75*
G03X137526324Y-64262000I-366324J0D01*
G01*
D17*
X137160000Y-61569600D02*
X137160000Y-63169800D01*
D16*
X137520818Y-61036200D02*
G75*
G03X137520818Y-61036200I-373518J0D01*
G01*
X136287759Y-64236600D02*
G75*
G03X136287759Y-64236600I-359659J0D01*
G01*
D17*
X135940800Y-63728600D02*
X135940800Y-61137800D01*
X135940800Y-61137800D02*
X135102600Y-61137800D01*
X135102600Y-61137800D02*
X134493000Y-61645800D01*
X134391400Y-62433200D02*
X134391400Y-61722000D01*
X134315200Y-61645800D02*
X133680200Y-61137800D01*
D16*
X134762318Y-62966600D02*
G75*
G03X134762318Y-62966600I-370918J0D01*
G01*
D17*
X133680200Y-61137800D02*
X132791200Y-61137800D01*
D16*
X133141729Y-64249300D02*
G75*
G03X133141729Y-64249300I-363229J0D01*
G01*
X127278666Y-64338200D02*
G75*
G03X127278666Y-64338200I-329466J0D01*
G01*
D17*
X127279400Y-63982600D02*
X128117600Y-63169800D01*
D18*
X128625600Y-63068200D02*
X128092200Y-63068200D01*
D17*
X129768600Y-64287400D02*
X128625600Y-63169800D01*
X131089400Y-64287400D02*
X129768600Y-64287400D01*
X131521200Y-63855600D02*
X131089400Y-64287400D01*
X131521200Y-61620400D02*
X131521200Y-63855600D01*
X131521200Y-61595000D02*
X131038600Y-61087000D01*
X130990500Y-61112400D02*
X129768600Y-61112400D01*
X129768600Y-61112400D02*
X128676400Y-62179200D01*
D18*
X128651000Y-62293500D02*
X128092200Y-62293500D01*
D17*
X127228600Y-61302900D02*
X128092200Y-62196600D01*
D16*
X127219735Y-60947300D02*
G75*
G03X127219735Y-60947300I-359435J0D01*
G01*
D17*
X130302000Y-62687200D02*
X131521200Y-62687200D01*
D16*
X130153659Y-62687200D02*
G75*
G03X130153659Y-62687200I-359659J0D01*
G01*
D17*
X141922500Y-64300100D02*
X140881100Y-64300100D01*
X142481300Y-63741300D02*
X142481300Y-62979300D01*
X142494000Y-63728600D02*
X141909800Y-64300100D01*
X142494000Y-61760100D02*
X142494000Y-62001400D01*
X140271500Y-61722000D02*
X140271500Y-63652400D01*
X140893800Y-61112400D02*
X141897100Y-61112400D01*
X132778500Y-61125100D02*
X132778500Y-63728600D01*
X139115800Y-63842900D02*
X139115800Y-61112400D01*
D19*
X139115800Y-60769500D02*
X139395200Y-60769500D01*
X139420600Y-60769500D02*
X139420600Y-63919100D01*
X139407900Y-60769500D02*
X139420600Y-60769500D01*
X139395200Y-60769500D02*
X139407900Y-60769500D01*
X139280900Y-60858400D02*
X139344400Y-60845700D01*
X138798300Y-60769500D02*
X138798300Y-63804800D01*
X139103100Y-60769500D02*
X138798300Y-60769500D01*
X138976100Y-60845700D02*
X138861800Y-60845700D01*
X137477500Y-61455300D02*
X137477500Y-63474600D01*
X136842500Y-63474600D02*
X136842500Y-61455300D01*
X136867900Y-63474600D02*
X136842500Y-63474600D01*
X137477500Y-63474600D02*
X136867900Y-63474600D01*
X137337800Y-63411100D02*
X137401300Y-63411100D01*
X136994900Y-63411100D02*
X136906000Y-63411100D01*
X136258300Y-63817500D02*
X136258300Y-60833000D01*
X135013700Y-60820300D02*
X134429500Y-61302900D01*
X136258300Y-60820300D02*
X135013700Y-60820300D01*
X136105900Y-60883800D02*
X136182100Y-60883800D01*
X132448300Y-63842900D02*
X132448300Y-60833000D01*
X133769100Y-60820300D02*
X134391400Y-61315600D01*
X133743700Y-60820300D02*
X133769100Y-60820300D01*
X132448300Y-60820300D02*
X133743700Y-60820300D01*
X132448300Y-60833000D02*
X132448300Y-60820300D01*
X132600700Y-60896500D02*
X132499100Y-60896500D01*
X129654300Y-60782200D02*
X128397000Y-62026800D01*
X129705100Y-60782200D02*
X129654300Y-60782200D01*
X131076700Y-60782200D02*
X129705100Y-60782200D01*
D20*
%TO.C,Logo-OSHW*%
X158579820Y-100632260D02*
X158028640Y-99209860D01*
D21*
X158925260Y-100446840D02*
X158607760Y-100652580D01*
D16*
X159715200Y-100995480D02*
X158935420Y-100464620D01*
D22*
X160291780Y-100457000D02*
X159727900Y-100995480D01*
D21*
X160276540Y-100457000D02*
X159743140Y-99623880D01*
X160101280Y-98696780D02*
X159743140Y-99580700D01*
X161079180Y-98455480D02*
X160129220Y-98673920D01*
D22*
X161069020Y-97678240D02*
X161074100Y-98465640D01*
D21*
X161081720Y-97665540D02*
X160063180Y-97485200D01*
X160032700Y-97449640D02*
X159684720Y-96583500D01*
X160261300Y-95681800D02*
X159705040Y-96532700D01*
D22*
X160271460Y-95658940D02*
X159771080Y-95125540D01*
D21*
X159722820Y-95100140D02*
X158894780Y-95752920D01*
X158833820Y-95742760D02*
X157988000Y-95336360D01*
X157728920Y-94302580D02*
X157934660Y-95316040D01*
X157736540Y-94289880D02*
X156951680Y-94289880D01*
X156969460Y-94310200D02*
X156756100Y-95328740D01*
X156756100Y-95328740D02*
X155854400Y-95778320D01*
X155841700Y-95773240D02*
X154937460Y-95138800D01*
X154937460Y-95140780D02*
X154383740Y-95686880D01*
X154383740Y-95689420D02*
X155000960Y-96479360D01*
X155000960Y-96479360D02*
X154660600Y-97416620D01*
X154660600Y-97416620D02*
X153578560Y-97645220D01*
X153578560Y-97645220D02*
X153578560Y-98480880D01*
X153578560Y-98480880D02*
X154592020Y-98651060D01*
X154592020Y-98651060D02*
X154998420Y-99562920D01*
X154947620Y-101010720D02*
X155783280Y-100444300D01*
X155783280Y-100444300D02*
X156121100Y-100629720D01*
X156121100Y-100629720D02*
X156695140Y-99189540D01*
X156684980Y-99187000D02*
G75*
G02X156314140Y-97322640I746760J1117600D01*
G01*
X156303980Y-97337880D02*
G75*
G02X158229300Y-97139760I1061720J-863600D01*
G01*
X158254700Y-97165160D02*
G75*
G02X158178500Y-99019360I-965200J-889000D01*
G01*
X154998420Y-99562920D02*
X154378660Y-100449380D01*
X154932380Y-101003100D02*
X154378660Y-100457000D01*
D13*
X158498540Y-100812600D02*
X157848300Y-99143820D01*
X158882080Y-100609400D02*
X158536640Y-100830380D01*
X158894780Y-100599240D02*
X159720280Y-101163120D01*
X159727900Y-101170740D02*
X160449260Y-100477320D01*
X160456880Y-100474780D02*
X159859980Y-99611180D01*
X161218880Y-98567240D02*
X160147000Y-98762820D01*
X161218880Y-97574100D02*
X161218880Y-98559620D01*
X161221420Y-97571560D02*
X160050480Y-97368360D01*
X160152080Y-97373440D02*
X159816800Y-96540320D01*
X160413700Y-95689420D02*
X159819340Y-96542860D01*
X160434020Y-95653860D02*
X159760920Y-94940120D01*
X159748220Y-94937580D02*
X158777940Y-95653860D01*
X158813500Y-95585280D02*
X157909260Y-95206820D01*
X157825440Y-94190820D02*
X158026100Y-95216980D01*
X157815280Y-94183200D02*
X156850080Y-94183200D01*
X156850080Y-94183200D02*
X156624020Y-95354140D01*
X156634180Y-95272860D02*
X155829000Y-95610680D01*
X155948380Y-95658940D02*
X154937460Y-94985840D01*
X154932380Y-94983300D02*
X154238960Y-95674180D01*
X154233880Y-95681800D02*
X154937460Y-96672400D01*
X154848560Y-96563180D02*
X154482800Y-97431860D01*
X153545540Y-98333560D02*
X154652980Y-98557080D01*
X153461720Y-97591880D02*
X153464260Y-98549460D01*
X154599640Y-98780600D02*
X153476960Y-98569780D01*
X154495500Y-98747580D02*
X154876500Y-99728020D01*
X154528520Y-100383340D02*
X155013660Y-100914200D01*
X154924760Y-101158040D02*
X154241500Y-100467160D01*
X155811220Y-100543360D02*
X154934920Y-101163120D01*
X154947620Y-100848160D02*
X155768040Y-100319840D01*
X155630880Y-100515420D02*
X156159200Y-100843080D01*
X156159200Y-100843080D02*
X156545280Y-99862640D01*
X156550360Y-99164140D02*
X156022040Y-100545900D01*
X160926780Y-97762060D02*
X160926780Y-98412300D01*
X161069020Y-97817940D02*
X159953960Y-97571560D01*
X159539940Y-96550480D02*
X159926020Y-97548700D01*
X159534860Y-96555560D02*
X160136840Y-95646240D01*
X159778700Y-95201740D02*
X158894780Y-95923100D01*
X156507180Y-99222560D02*
X156329380Y-99100640D01*
X156329380Y-99100640D02*
X155953460Y-98389440D01*
X155953460Y-98389440D02*
X155953460Y-97871280D01*
X155948380Y-97883980D02*
X156182060Y-97210880D01*
X156182060Y-97210880D02*
X156692600Y-96781620D01*
X156692600Y-96781620D02*
X157507940Y-96621600D01*
X157507940Y-96613980D02*
X158379160Y-97043240D01*
X158379160Y-97043240D02*
X158798260Y-97774760D01*
X158803340Y-97779840D02*
X158671260Y-98602800D01*
X158666180Y-98633280D02*
X158572200Y-98803460D01*
X158666180Y-98633280D02*
X158572200Y-98803460D01*
X158442660Y-98854260D02*
X158183580Y-99192080D01*
X158074360Y-98968560D02*
X157848300Y-99143820D01*
X156573220Y-98971100D02*
X156827220Y-99136200D01*
X156710380Y-99425760D02*
X156832300Y-99141280D01*
X158889700Y-95920560D02*
X157906720Y-95427800D01*
X158559500Y-98833940D02*
X158252160Y-99100640D01*
D23*
X159575500Y-100263960D02*
X158722060Y-99242880D01*
X160611820Y-98059240D02*
X159194500Y-97998280D01*
X159626300Y-95773240D02*
X158564580Y-96880680D01*
X157365700Y-94797880D02*
X157360620Y-96311720D01*
X155100020Y-95854520D02*
X156212540Y-96921320D01*
X154109420Y-98038920D02*
X155577540Y-98125280D01*
X158899860Y-100091240D02*
X158534100Y-99329240D01*
X159565340Y-99192080D02*
X159001460Y-98712020D01*
X159814260Y-98546920D02*
X159108140Y-98419920D01*
X159489140Y-97302320D02*
X159047180Y-97462340D01*
X159313880Y-96822260D02*
X158856680Y-97111820D01*
X158315660Y-96045020D02*
X158140400Y-96403160D01*
X157881320Y-95785940D02*
X157713680Y-96395540D01*
X156616400Y-95801180D02*
X156837380Y-96486980D01*
X156029660Y-96052640D02*
X156448760Y-96639380D01*
X155160980Y-96921320D02*
X155816300Y-97287080D01*
X154919680Y-97614740D02*
X155641040Y-97762060D01*
X155755340Y-98772980D02*
X155145740Y-98879660D01*
X156075380Y-99192080D02*
X155458160Y-99519740D01*
X156189680Y-99329240D02*
X155008580Y-100342700D01*
X156189680Y-99237800D02*
X155856940Y-99969320D01*
D13*
%TO.C,Sign-RecycleBin*%
X175212000Y-77547000D02*
X175212000Y-78309000D01*
X179784000Y-77547000D02*
X175212000Y-77547000D01*
X179784000Y-78309000D02*
X179784000Y-77547000D01*
X175212000Y-78309000D02*
X179784000Y-78309000D01*
X175262800Y-77597800D02*
X179682400Y-77597800D01*
X179733200Y-77699400D02*
X175262800Y-77699400D01*
X175262800Y-77851800D02*
X179682400Y-77851800D01*
X175262800Y-78004200D02*
X179682400Y-78004200D01*
X179733200Y-77750200D02*
X175313600Y-77750200D01*
X179733200Y-77902600D02*
X175262800Y-77902600D01*
X175313600Y-78105800D02*
X179682400Y-78105800D01*
X179733200Y-78207400D02*
X175313600Y-78207400D01*
D10*
X179578000Y-72771000D02*
X175387000Y-76962000D01*
X179451000Y-76835000D02*
X175387000Y-72898000D01*
X178435000Y-76454000D02*
X177038000Y-76454000D01*
X178435000Y-76454000D02*
X178689000Y-73406000D01*
X178943000Y-73279000D02*
X176022000Y-73279000D01*
X177927000Y-76835000D02*
X177927000Y-76581000D01*
X178435000Y-76835000D02*
X177927000Y-76835000D01*
X178435000Y-76454000D02*
X178435000Y-76835000D01*
X176530000Y-75946000D02*
X176403000Y-73914000D01*
X176931609Y-76454000D02*
G75*
G03X176931609Y-76454000I-401609J0D01*
G01*
X178308000Y-72644000D02*
X178308000Y-73152000D01*
X178435000Y-72644000D02*
X178308000Y-72644000D01*
X178435000Y-73152000D02*
X178435000Y-72644000D01*
X176022000Y-73787000D02*
X176022000Y-73279000D01*
X176403000Y-73787000D02*
X176022000Y-73787000D01*
X176403000Y-73279000D02*
X176403000Y-73787000D01*
X176276000Y-73406000D02*
X176276000Y-73533000D01*
X176276000Y-73279000D02*
X176149000Y-73660000D01*
X176276000Y-73406000D02*
X176276000Y-73533000D01*
X176149000Y-73406000D02*
X176149000Y-73787000D01*
X176276000Y-73406000D02*
X176149000Y-73406000D01*
X176276000Y-73787000D02*
X176276000Y-73406000D01*
X177673000Y-74168000D02*
X177673000Y-73787000D01*
X176784000Y-74168000D02*
X177673000Y-74168000D01*
X176784000Y-73787000D02*
X176784000Y-74168000D01*
X177673000Y-73787000D02*
X176784000Y-73787000D01*
X177546000Y-73914000D02*
X176911000Y-73914000D01*
X177292000Y-72390000D02*
X177673000Y-72390000D01*
X177292000Y-72517000D02*
X177292000Y-72390000D01*
X177673000Y-72517000D02*
X177292000Y-72517000D01*
X177673000Y-72390000D02*
X177673000Y-72517000D01*
X176403000Y-73152000D02*
G75*
G02X178689000Y-73152000I1143000J-1143000D01*
G01*
D12*
X176657000Y-76454000D02*
G75*
G03X176657000Y-76454000I-127000J0D01*
G01*
%TO.C,Q2*%
D11*
X155266571Y-88174285D02*
X155339142Y-88138000D01*
X155411714Y-88065428D01*
X155520571Y-87956571D01*
X155593142Y-87920285D01*
X155665714Y-87920285D01*
X155629428Y-88101714D02*
X155702000Y-88065428D01*
X155774571Y-87992857D01*
X155810857Y-87847714D01*
X155810857Y-87593714D01*
X155774571Y-87448571D01*
X155702000Y-87376000D01*
X155629428Y-87339714D01*
X155484285Y-87339714D01*
X155411714Y-87376000D01*
X155339142Y-87448571D01*
X155302857Y-87593714D01*
X155302857Y-87847714D01*
X155339142Y-87992857D01*
X155411714Y-88065428D01*
X155484285Y-88101714D01*
X155629428Y-88101714D01*
X155012571Y-87412285D02*
X154976285Y-87376000D01*
X154903714Y-87339714D01*
X154722285Y-87339714D01*
X154649714Y-87376000D01*
X154613428Y-87412285D01*
X154577142Y-87484857D01*
X154577142Y-87557428D01*
X154613428Y-87666285D01*
X155048857Y-88101714D01*
X154577142Y-88101714D01*
D24*
X155187642Y-89198404D02*
X155263833Y-89160309D01*
X155301928Y-89122214D01*
X155340023Y-89046023D01*
X155340023Y-88817452D01*
X155301928Y-88741261D01*
X155263833Y-88703166D01*
X155187642Y-88665071D01*
X155073357Y-88665071D01*
X154997166Y-88703166D01*
X154959071Y-88741261D01*
X154920976Y-88817452D01*
X154920976Y-89046023D01*
X154959071Y-89122214D01*
X154997166Y-89160309D01*
X155073357Y-89198404D01*
X155187642Y-89198404D01*
%TO.C,R53*%
D11*
X135998857Y-87085714D02*
X136252857Y-86722857D01*
X136434285Y-87085714D02*
X136434285Y-86323714D01*
X136144000Y-86323714D01*
X136071428Y-86360000D01*
X136035142Y-86396285D01*
X135998857Y-86468857D01*
X135998857Y-86577714D01*
X136035142Y-86650285D01*
X136071428Y-86686571D01*
X136144000Y-86722857D01*
X136434285Y-86722857D01*
X135309428Y-86323714D02*
X135672285Y-86323714D01*
X135708571Y-86686571D01*
X135672285Y-86650285D01*
X135599714Y-86614000D01*
X135418285Y-86614000D01*
X135345714Y-86650285D01*
X135309428Y-86686571D01*
X135273142Y-86759142D01*
X135273142Y-86940571D01*
X135309428Y-87013142D01*
X135345714Y-87049428D01*
X135418285Y-87085714D01*
X135599714Y-87085714D01*
X135672285Y-87049428D01*
X135708571Y-87013142D01*
X135019142Y-86323714D02*
X134547428Y-86323714D01*
X134801428Y-86614000D01*
X134692571Y-86614000D01*
X134620000Y-86650285D01*
X134583714Y-86686571D01*
X134547428Y-86759142D01*
X134547428Y-86940571D01*
X134583714Y-87013142D01*
X134620000Y-87049428D01*
X134692571Y-87085714D01*
X134910285Y-87085714D01*
X134982857Y-87049428D01*
X135019142Y-87013142D01*
%TO.C,R34*%
X151474714Y-86886142D02*
X151111857Y-86632142D01*
X151474714Y-86450714D02*
X150712714Y-86450714D01*
X150712714Y-86741000D01*
X150749000Y-86813571D01*
X150785285Y-86849857D01*
X150857857Y-86886142D01*
X150966714Y-86886142D01*
X151039285Y-86849857D01*
X151075571Y-86813571D01*
X151111857Y-86741000D01*
X151111857Y-86450714D01*
X150712714Y-87140142D02*
X150712714Y-87611857D01*
X151003000Y-87357857D01*
X151003000Y-87466714D01*
X151039285Y-87539285D01*
X151075571Y-87575571D01*
X151148142Y-87611857D01*
X151329571Y-87611857D01*
X151402142Y-87575571D01*
X151438428Y-87539285D01*
X151474714Y-87466714D01*
X151474714Y-87249000D01*
X151438428Y-87176428D01*
X151402142Y-87140142D01*
X150966714Y-88265000D02*
X151474714Y-88265000D01*
X150676428Y-88083571D02*
X151220714Y-87902142D01*
X151220714Y-88373857D01*
%TO.C,U1*%
D10*
X160413095Y-71706619D02*
X160413095Y-72529095D01*
X160364714Y-72625857D01*
X160316333Y-72674238D01*
X160219571Y-72722619D01*
X160026047Y-72722619D01*
X159929285Y-72674238D01*
X159880904Y-72625857D01*
X159832523Y-72529095D01*
X159832523Y-71706619D01*
X158816523Y-72722619D02*
X159397095Y-72722619D01*
X159106809Y-72722619D02*
X159106809Y-71706619D01*
X159203571Y-71851761D01*
X159300333Y-71948523D01*
X159397095Y-71996904D01*
X156409571Y-73230619D02*
X156506333Y-73182238D01*
X156554714Y-73133857D01*
X156603095Y-73037095D01*
X156603095Y-72746809D01*
X156554714Y-72650047D01*
X156506333Y-72601666D01*
X156409571Y-72553285D01*
X156264428Y-72553285D01*
X156167666Y-72601666D01*
X156119285Y-72650047D01*
X156070904Y-72746809D01*
X156070904Y-73037095D01*
X156119285Y-73133857D01*
X156167666Y-73182238D01*
X156264428Y-73230619D01*
X156409571Y-73230619D01*
%TO.C,L12*%
D11*
X122663857Y-99658714D02*
X123026714Y-99658714D01*
X123026714Y-98896714D01*
X122010714Y-99658714D02*
X122446142Y-99658714D01*
X122228428Y-99658714D02*
X122228428Y-98896714D01*
X122301000Y-99005571D01*
X122373571Y-99078142D01*
X122446142Y-99114428D01*
X121720428Y-98969285D02*
X121684142Y-98933000D01*
X121611571Y-98896714D01*
X121430142Y-98896714D01*
X121357571Y-98933000D01*
X121321285Y-98969285D01*
X121285000Y-99041857D01*
X121285000Y-99114428D01*
X121321285Y-99223285D01*
X121756714Y-99658714D01*
X121285000Y-99658714D01*
%TO.C,C58*%
X148444857Y-93871142D02*
X148481142Y-93907428D01*
X148590000Y-93943714D01*
X148662571Y-93943714D01*
X148771428Y-93907428D01*
X148844000Y-93834857D01*
X148880285Y-93762285D01*
X148916571Y-93617142D01*
X148916571Y-93508285D01*
X148880285Y-93363142D01*
X148844000Y-93290571D01*
X148771428Y-93218000D01*
X148662571Y-93181714D01*
X148590000Y-93181714D01*
X148481142Y-93218000D01*
X148444857Y-93254285D01*
X147755428Y-93181714D02*
X148118285Y-93181714D01*
X148154571Y-93544571D01*
X148118285Y-93508285D01*
X148045714Y-93472000D01*
X147864285Y-93472000D01*
X147791714Y-93508285D01*
X147755428Y-93544571D01*
X147719142Y-93617142D01*
X147719142Y-93798571D01*
X147755428Y-93871142D01*
X147791714Y-93907428D01*
X147864285Y-93943714D01*
X148045714Y-93943714D01*
X148118285Y-93907428D01*
X148154571Y-93871142D01*
X147283714Y-93508285D02*
X147356285Y-93472000D01*
X147392571Y-93435714D01*
X147428857Y-93363142D01*
X147428857Y-93326857D01*
X147392571Y-93254285D01*
X147356285Y-93218000D01*
X147283714Y-93181714D01*
X147138571Y-93181714D01*
X147066000Y-93218000D01*
X147029714Y-93254285D01*
X146993428Y-93326857D01*
X146993428Y-93363142D01*
X147029714Y-93435714D01*
X147066000Y-93472000D01*
X147138571Y-93508285D01*
X147283714Y-93508285D01*
X147356285Y-93544571D01*
X147392571Y-93580857D01*
X147428857Y-93653428D01*
X147428857Y-93798571D01*
X147392571Y-93871142D01*
X147356285Y-93907428D01*
X147283714Y-93943714D01*
X147138571Y-93943714D01*
X147066000Y-93907428D01*
X147029714Y-93871142D01*
X146993428Y-93798571D01*
X146993428Y-93653428D01*
X147029714Y-93580857D01*
X147066000Y-93544571D01*
X147138571Y-93508285D01*
%TO.C,CAM1*%
D10*
X176064333Y-66402857D02*
X176112714Y-66451238D01*
X176257857Y-66499619D01*
X176354619Y-66499619D01*
X176499761Y-66451238D01*
X176596523Y-66354476D01*
X176644904Y-66257714D01*
X176693285Y-66064190D01*
X176693285Y-65919047D01*
X176644904Y-65725523D01*
X176596523Y-65628761D01*
X176499761Y-65532000D01*
X176354619Y-65483619D01*
X176257857Y-65483619D01*
X176112714Y-65532000D01*
X176064333Y-65580380D01*
X175677285Y-66209333D02*
X175193476Y-66209333D01*
X175774047Y-66499619D02*
X175435380Y-65483619D01*
X175096714Y-66499619D01*
X174758047Y-66499619D02*
X174758047Y-65483619D01*
X174419380Y-66209333D01*
X174080714Y-65483619D01*
X174080714Y-66499619D01*
X173064714Y-66499619D02*
X173645285Y-66499619D01*
X173355000Y-66499619D02*
X173355000Y-65483619D01*
X173451761Y-65628761D01*
X173548523Y-65725523D01*
X173645285Y-65773904D01*
%TO.C,MICRO_SD1*%
X176584428Y-103964619D02*
X176584428Y-102948619D01*
X176245761Y-103674333D01*
X175907095Y-102948619D01*
X175907095Y-103964619D01*
X175423285Y-103964619D02*
X175423285Y-102948619D01*
X174358904Y-103867857D02*
X174407285Y-103916238D01*
X174552428Y-103964619D01*
X174649190Y-103964619D01*
X174794333Y-103916238D01*
X174891095Y-103819476D01*
X174939476Y-103722714D01*
X174987857Y-103529190D01*
X174987857Y-103384047D01*
X174939476Y-103190523D01*
X174891095Y-103093761D01*
X174794333Y-102997000D01*
X174649190Y-102948619D01*
X174552428Y-102948619D01*
X174407285Y-102997000D01*
X174358904Y-103045380D01*
X173342904Y-103964619D02*
X173681571Y-103480809D01*
X173923476Y-103964619D02*
X173923476Y-102948619D01*
X173536428Y-102948619D01*
X173439666Y-102997000D01*
X173391285Y-103045380D01*
X173342904Y-103142142D01*
X173342904Y-103287285D01*
X173391285Y-103384047D01*
X173439666Y-103432428D01*
X173536428Y-103480809D01*
X173923476Y-103480809D01*
X172713952Y-102948619D02*
X172520428Y-102948619D01*
X172423666Y-102997000D01*
X172326904Y-103093761D01*
X172278523Y-103287285D01*
X172278523Y-103625952D01*
X172326904Y-103819476D01*
X172423666Y-103916238D01*
X172520428Y-103964619D01*
X172713952Y-103964619D01*
X172810714Y-103916238D01*
X172907476Y-103819476D01*
X172955857Y-103625952D01*
X172955857Y-103287285D01*
X172907476Y-103093761D01*
X172810714Y-102997000D01*
X172713952Y-102948619D01*
X172085000Y-104061380D02*
X171310904Y-104061380D01*
X171117380Y-103916238D02*
X170972238Y-103964619D01*
X170730333Y-103964619D01*
X170633571Y-103916238D01*
X170585190Y-103867857D01*
X170536809Y-103771095D01*
X170536809Y-103674333D01*
X170585190Y-103577571D01*
X170633571Y-103529190D01*
X170730333Y-103480809D01*
X170923857Y-103432428D01*
X171020619Y-103384047D01*
X171069000Y-103335666D01*
X171117380Y-103238904D01*
X171117380Y-103142142D01*
X171069000Y-103045380D01*
X171020619Y-102997000D01*
X170923857Y-102948619D01*
X170681952Y-102948619D01*
X170536809Y-102997000D01*
X170101380Y-103964619D02*
X170101380Y-102948619D01*
X169859476Y-102948619D01*
X169714333Y-102997000D01*
X169617571Y-103093761D01*
X169569190Y-103190523D01*
X169520809Y-103384047D01*
X169520809Y-103529190D01*
X169569190Y-103722714D01*
X169617571Y-103819476D01*
X169714333Y-103916238D01*
X169859476Y-103964619D01*
X170101380Y-103964619D01*
X168553190Y-103964619D02*
X169133761Y-103964619D01*
X168843476Y-103964619D02*
X168843476Y-102948619D01*
X168940238Y-103093761D01*
X169037000Y-103190523D01*
X169133761Y-103238904D01*
%TO.C,Q1*%
D11*
X157425571Y-88174285D02*
X157498142Y-88138000D01*
X157570714Y-88065428D01*
X157679571Y-87956571D01*
X157752142Y-87920285D01*
X157824714Y-87920285D01*
X157788428Y-88101714D02*
X157861000Y-88065428D01*
X157933571Y-87992857D01*
X157969857Y-87847714D01*
X157969857Y-87593714D01*
X157933571Y-87448571D01*
X157861000Y-87376000D01*
X157788428Y-87339714D01*
X157643285Y-87339714D01*
X157570714Y-87376000D01*
X157498142Y-87448571D01*
X157461857Y-87593714D01*
X157461857Y-87847714D01*
X157498142Y-87992857D01*
X157570714Y-88065428D01*
X157643285Y-88101714D01*
X157788428Y-88101714D01*
X156736142Y-88101714D02*
X157171571Y-88101714D01*
X156953857Y-88101714D02*
X156953857Y-87339714D01*
X157026428Y-87448571D01*
X157099000Y-87521142D01*
X157171571Y-87557428D01*
%TO.C,D4*%
X139028714Y-103450571D02*
X138266714Y-103450571D01*
X138266714Y-103632000D01*
X138303000Y-103740857D01*
X138375571Y-103813428D01*
X138448142Y-103849714D01*
X138593285Y-103886000D01*
X138702142Y-103886000D01*
X138847285Y-103849714D01*
X138919857Y-103813428D01*
X138992428Y-103740857D01*
X139028714Y-103632000D01*
X139028714Y-103450571D01*
X138520714Y-104539142D02*
X139028714Y-104539142D01*
X138230428Y-104357714D02*
X138774714Y-104176285D01*
X138774714Y-104648000D01*
%TO.C,D3*%
D25*
X152433261Y-102401309D02*
X151798261Y-102401309D01*
X151798261Y-102552500D01*
X151828500Y-102643214D01*
X151888976Y-102703690D01*
X151949452Y-102733928D01*
X152070404Y-102764166D01*
X152161119Y-102764166D01*
X152282071Y-102733928D01*
X152342547Y-102703690D01*
X152403023Y-102643214D01*
X152433261Y-102552500D01*
X152433261Y-102401309D01*
X151798261Y-102975833D02*
X151798261Y-103368928D01*
X152040166Y-103157261D01*
X152040166Y-103247976D01*
X152070404Y-103308452D01*
X152100642Y-103338690D01*
X152161119Y-103368928D01*
X152312309Y-103368928D01*
X152372785Y-103338690D01*
X152403023Y-103308452D01*
X152433261Y-103247976D01*
X152433261Y-103066547D01*
X152403023Y-103006071D01*
X152372785Y-102975833D01*
%TO.C,D1*%
D11*
X129122714Y-103323571D02*
X128360714Y-103323571D01*
X128360714Y-103505000D01*
X128397000Y-103613857D01*
X128469571Y-103686428D01*
X128542142Y-103722714D01*
X128687285Y-103759000D01*
X128796142Y-103759000D01*
X128941285Y-103722714D01*
X129013857Y-103686428D01*
X129086428Y-103613857D01*
X129122714Y-103505000D01*
X129122714Y-103323571D01*
X129122714Y-104484714D02*
X129122714Y-104049285D01*
X129122714Y-104267000D02*
X128360714Y-104267000D01*
X128469571Y-104194428D01*
X128542142Y-104121857D01*
X128578428Y-104049285D01*
%TO.C,U4*%
D10*
X141744095Y-94693619D02*
X141744095Y-95516095D01*
X141695714Y-95612857D01*
X141647333Y-95661238D01*
X141550571Y-95709619D01*
X141357047Y-95709619D01*
X141260285Y-95661238D01*
X141211904Y-95612857D01*
X141163523Y-95516095D01*
X141163523Y-94693619D01*
X140244285Y-95032285D02*
X140244285Y-95709619D01*
X140486190Y-94645238D02*
X140728095Y-95370952D01*
X140099142Y-95370952D01*
%TO.C,U3*%
X127205619Y-67297904D02*
X128028095Y-67297904D01*
X128124857Y-67346285D01*
X128173238Y-67394666D01*
X128221619Y-67491428D01*
X128221619Y-67684952D01*
X128173238Y-67781714D01*
X128124857Y-67830095D01*
X128028095Y-67878476D01*
X127205619Y-67878476D01*
X127205619Y-68265523D02*
X127205619Y-68894476D01*
X127592666Y-68555809D01*
X127592666Y-68700952D01*
X127641047Y-68797714D01*
X127689428Y-68846095D01*
X127786190Y-68894476D01*
X128028095Y-68894476D01*
X128124857Y-68846095D01*
X128173238Y-68797714D01*
X128221619Y-68700952D01*
X128221619Y-68410666D01*
X128173238Y-68313904D01*
X128124857Y-68265523D01*
%TO.C,U6*%
D11*
X125675571Y-91022714D02*
X125675571Y-91639571D01*
X125639285Y-91712142D01*
X125603000Y-91748428D01*
X125530428Y-91784714D01*
X125385285Y-91784714D01*
X125312714Y-91748428D01*
X125276428Y-91712142D01*
X125240142Y-91639571D01*
X125240142Y-91022714D01*
X124550714Y-91022714D02*
X124695857Y-91022714D01*
X124768428Y-91059000D01*
X124804714Y-91095285D01*
X124877285Y-91204142D01*
X124913571Y-91349285D01*
X124913571Y-91639571D01*
X124877285Y-91712142D01*
X124841000Y-91748428D01*
X124768428Y-91784714D01*
X124623285Y-91784714D01*
X124550714Y-91748428D01*
X124514428Y-91712142D01*
X124478142Y-91639571D01*
X124478142Y-91458142D01*
X124514428Y-91385571D01*
X124550714Y-91349285D01*
X124623285Y-91313000D01*
X124768428Y-91313000D01*
X124841000Y-91349285D01*
X124877285Y-91385571D01*
X124913571Y-91458142D01*
%TO.C,U7*%
X150694571Y-102452714D02*
X150694571Y-103069571D01*
X150658285Y-103142142D01*
X150622000Y-103178428D01*
X150549428Y-103214714D01*
X150404285Y-103214714D01*
X150331714Y-103178428D01*
X150295428Y-103142142D01*
X150259142Y-103069571D01*
X150259142Y-102452714D01*
X149968857Y-102452714D02*
X149460857Y-102452714D01*
X149787428Y-103214714D01*
%TO.C,HPHONEOUTL/LINEOUTL1*%
D25*
X145829261Y-84267523D02*
X145194261Y-84267523D01*
X145496642Y-84267523D02*
X145496642Y-84630380D01*
X145829261Y-84630380D02*
X145194261Y-84630380D01*
X145829261Y-84932761D02*
X145194261Y-84932761D01*
X145194261Y-85174666D01*
X145224500Y-85235142D01*
X145254738Y-85265380D01*
X145315214Y-85295619D01*
X145405928Y-85295619D01*
X145466404Y-85265380D01*
X145496642Y-85235142D01*
X145526880Y-85174666D01*
X145526880Y-84932761D01*
X145829261Y-85567761D02*
X145194261Y-85567761D01*
X145496642Y-85567761D02*
X145496642Y-85930619D01*
X145829261Y-85930619D02*
X145194261Y-85930619D01*
X145194261Y-86353952D02*
X145194261Y-86474904D01*
X145224500Y-86535380D01*
X145284976Y-86595857D01*
X145405928Y-86626095D01*
X145617595Y-86626095D01*
X145738547Y-86595857D01*
X145799023Y-86535380D01*
X145829261Y-86474904D01*
X145829261Y-86353952D01*
X145799023Y-86293476D01*
X145738547Y-86233000D01*
X145617595Y-86202761D01*
X145405928Y-86202761D01*
X145284976Y-86233000D01*
X145224500Y-86293476D01*
X145194261Y-86353952D01*
X145829261Y-86898238D02*
X145194261Y-86898238D01*
X145829261Y-87261095D01*
X145194261Y-87261095D01*
X145496642Y-87563476D02*
X145496642Y-87775142D01*
X145829261Y-87865857D02*
X145829261Y-87563476D01*
X145194261Y-87563476D01*
X145194261Y-87865857D01*
X145194261Y-88258952D02*
X145194261Y-88379904D01*
X145224500Y-88440380D01*
X145284976Y-88500857D01*
X145405928Y-88531095D01*
X145617595Y-88531095D01*
X145738547Y-88500857D01*
X145799023Y-88440380D01*
X145829261Y-88379904D01*
X145829261Y-88258952D01*
X145799023Y-88198476D01*
X145738547Y-88138000D01*
X145617595Y-88107761D01*
X145405928Y-88107761D01*
X145284976Y-88138000D01*
X145224500Y-88198476D01*
X145194261Y-88258952D01*
X145194261Y-88803238D02*
X145708309Y-88803238D01*
X145768785Y-88833476D01*
X145799023Y-88863714D01*
X145829261Y-88924190D01*
X145829261Y-89045142D01*
X145799023Y-89105619D01*
X145768785Y-89135857D01*
X145708309Y-89166095D01*
X145194261Y-89166095D01*
X145194261Y-89377761D02*
X145194261Y-89740619D01*
X145829261Y-89559190D02*
X145194261Y-89559190D01*
X145829261Y-90254666D02*
X145829261Y-89952285D01*
X145194261Y-89952285D01*
X145164023Y-90919904D02*
X145980452Y-90375619D01*
X145829261Y-91433952D02*
X145829261Y-91131571D01*
X145194261Y-91131571D01*
X145829261Y-91645619D02*
X145194261Y-91645619D01*
X145829261Y-91948000D02*
X145194261Y-91948000D01*
X145829261Y-92310857D01*
X145194261Y-92310857D01*
X145496642Y-92613238D02*
X145496642Y-92824904D01*
X145829261Y-92915619D02*
X145829261Y-92613238D01*
X145194261Y-92613238D01*
X145194261Y-92915619D01*
X145194261Y-93308714D02*
X145194261Y-93429666D01*
X145224500Y-93490142D01*
X145284976Y-93550619D01*
X145405928Y-93580857D01*
X145617595Y-93580857D01*
X145738547Y-93550619D01*
X145799023Y-93490142D01*
X145829261Y-93429666D01*
X145829261Y-93308714D01*
X145799023Y-93248238D01*
X145738547Y-93187761D01*
X145617595Y-93157523D01*
X145405928Y-93157523D01*
X145284976Y-93187761D01*
X145224500Y-93248238D01*
X145194261Y-93308714D01*
X145194261Y-93853000D02*
X145708309Y-93853000D01*
X145768785Y-93883238D01*
X145799023Y-93913476D01*
X145829261Y-93973952D01*
X145829261Y-94094904D01*
X145799023Y-94155380D01*
X145768785Y-94185619D01*
X145708309Y-94215857D01*
X145194261Y-94215857D01*
X145194261Y-94427523D02*
X145194261Y-94790380D01*
X145829261Y-94608952D02*
X145194261Y-94608952D01*
X145829261Y-95304428D02*
X145829261Y-95002047D01*
X145194261Y-95002047D01*
X145829261Y-95848714D02*
X145829261Y-95485857D01*
X145829261Y-95667285D02*
X145194261Y-95667285D01*
X145284976Y-95606809D01*
X145345452Y-95546333D01*
X145375690Y-95485857D01*
%TO.C,HPHONEOUTR/LINEOUTR1*%
X142400261Y-69414571D02*
X141765261Y-69414571D01*
X142067642Y-69414571D02*
X142067642Y-69777428D01*
X142400261Y-69777428D02*
X141765261Y-69777428D01*
X142400261Y-70079809D02*
X141765261Y-70079809D01*
X141765261Y-70321714D01*
X141795500Y-70382190D01*
X141825738Y-70412428D01*
X141886214Y-70442666D01*
X141976928Y-70442666D01*
X142037404Y-70412428D01*
X142067642Y-70382190D01*
X142097880Y-70321714D01*
X142097880Y-70079809D01*
X142400261Y-70714809D02*
X141765261Y-70714809D01*
X142067642Y-70714809D02*
X142067642Y-71077666D01*
X142400261Y-71077666D02*
X141765261Y-71077666D01*
X141765261Y-71501000D02*
X141765261Y-71621952D01*
X141795500Y-71682428D01*
X141855976Y-71742904D01*
X141976928Y-71773142D01*
X142188595Y-71773142D01*
X142309547Y-71742904D01*
X142370023Y-71682428D01*
X142400261Y-71621952D01*
X142400261Y-71501000D01*
X142370023Y-71440523D01*
X142309547Y-71380047D01*
X142188595Y-71349809D01*
X141976928Y-71349809D01*
X141855976Y-71380047D01*
X141795500Y-71440523D01*
X141765261Y-71501000D01*
X142400261Y-72045285D02*
X141765261Y-72045285D01*
X142400261Y-72408142D01*
X141765261Y-72408142D01*
X142067642Y-72710523D02*
X142067642Y-72922190D01*
X142400261Y-73012904D02*
X142400261Y-72710523D01*
X141765261Y-72710523D01*
X141765261Y-73012904D01*
X141765261Y-73406000D02*
X141765261Y-73526952D01*
X141795500Y-73587428D01*
X141855976Y-73647904D01*
X141976928Y-73678142D01*
X142188595Y-73678142D01*
X142309547Y-73647904D01*
X142370023Y-73587428D01*
X142400261Y-73526952D01*
X142400261Y-73406000D01*
X142370023Y-73345523D01*
X142309547Y-73285047D01*
X142188595Y-73254809D01*
X141976928Y-73254809D01*
X141855976Y-73285047D01*
X141795500Y-73345523D01*
X141765261Y-73406000D01*
X141765261Y-73950285D02*
X142279309Y-73950285D01*
X142339785Y-73980523D01*
X142370023Y-74010761D01*
X142400261Y-74071238D01*
X142400261Y-74192190D01*
X142370023Y-74252666D01*
X142339785Y-74282904D01*
X142279309Y-74313142D01*
X141765261Y-74313142D01*
X141765261Y-74524809D02*
X141765261Y-74887666D01*
X142400261Y-74706238D02*
X141765261Y-74706238D01*
X142400261Y-75462190D02*
X142097880Y-75250523D01*
X142400261Y-75099333D02*
X141765261Y-75099333D01*
X141765261Y-75341238D01*
X141795500Y-75401714D01*
X141825738Y-75431952D01*
X141886214Y-75462190D01*
X141976928Y-75462190D01*
X142037404Y-75431952D01*
X142067642Y-75401714D01*
X142097880Y-75341238D01*
X142097880Y-75099333D01*
X141735023Y-76187904D02*
X142551452Y-75643619D01*
X142400261Y-76701952D02*
X142400261Y-76399571D01*
X141765261Y-76399571D01*
X142400261Y-76913619D02*
X141765261Y-76913619D01*
X142400261Y-77216000D02*
X141765261Y-77216000D01*
X142400261Y-77578857D01*
X141765261Y-77578857D01*
X142067642Y-77881238D02*
X142067642Y-78092904D01*
X142400261Y-78183619D02*
X142400261Y-77881238D01*
X141765261Y-77881238D01*
X141765261Y-78183619D01*
X141765261Y-78576714D02*
X141765261Y-78697666D01*
X141795500Y-78758142D01*
X141855976Y-78818619D01*
X141976928Y-78848857D01*
X142188595Y-78848857D01*
X142309547Y-78818619D01*
X142370023Y-78758142D01*
X142400261Y-78697666D01*
X142400261Y-78576714D01*
X142370023Y-78516238D01*
X142309547Y-78455761D01*
X142188595Y-78425523D01*
X141976928Y-78425523D01*
X141855976Y-78455761D01*
X141795500Y-78516238D01*
X141765261Y-78576714D01*
X141765261Y-79121000D02*
X142279309Y-79121000D01*
X142339785Y-79151238D01*
X142370023Y-79181476D01*
X142400261Y-79241952D01*
X142400261Y-79362904D01*
X142370023Y-79423380D01*
X142339785Y-79453619D01*
X142279309Y-79483857D01*
X141765261Y-79483857D01*
X141765261Y-79695523D02*
X141765261Y-80058380D01*
X142400261Y-79876952D02*
X141765261Y-79876952D01*
X142400261Y-80632904D02*
X142097880Y-80421238D01*
X142400261Y-80270047D02*
X141765261Y-80270047D01*
X141765261Y-80511952D01*
X141795500Y-80572428D01*
X141825738Y-80602666D01*
X141886214Y-80632904D01*
X141976928Y-80632904D01*
X142037404Y-80602666D01*
X142067642Y-80572428D01*
X142097880Y-80511952D01*
X142097880Y-80270047D01*
X142400261Y-81237666D02*
X142400261Y-80874809D01*
X142400261Y-81056238D02*
X141765261Y-81056238D01*
X141855976Y-80995761D01*
X141916452Y-80935285D01*
X141946690Y-80874809D01*
%TO.C,LINEINR/MICIN1*%
X122969261Y-66269809D02*
X122969261Y-65967428D01*
X122334261Y-65967428D01*
X122969261Y-66481476D02*
X122334261Y-66481476D01*
X122969261Y-66783857D02*
X122334261Y-66783857D01*
X122969261Y-67146714D01*
X122334261Y-67146714D01*
X122636642Y-67449095D02*
X122636642Y-67660761D01*
X122969261Y-67751476D02*
X122969261Y-67449095D01*
X122334261Y-67449095D01*
X122334261Y-67751476D01*
X122969261Y-68023619D02*
X122334261Y-68023619D01*
X122969261Y-68326000D02*
X122334261Y-68326000D01*
X122969261Y-68688857D01*
X122334261Y-68688857D01*
X122969261Y-69354095D02*
X122666880Y-69142428D01*
X122969261Y-68991238D02*
X122334261Y-68991238D01*
X122334261Y-69233142D01*
X122364500Y-69293619D01*
X122394738Y-69323857D01*
X122455214Y-69354095D01*
X122545928Y-69354095D01*
X122606404Y-69323857D01*
X122636642Y-69293619D01*
X122666880Y-69233142D01*
X122666880Y-68991238D01*
X122304023Y-70079809D02*
X123120452Y-69535523D01*
X122969261Y-70291476D02*
X122334261Y-70291476D01*
X122787833Y-70503142D01*
X122334261Y-70714809D01*
X122969261Y-70714809D01*
X122969261Y-71017190D02*
X122334261Y-71017190D01*
X122908785Y-71682428D02*
X122939023Y-71652190D01*
X122969261Y-71561476D01*
X122969261Y-71501000D01*
X122939023Y-71410285D01*
X122878547Y-71349809D01*
X122818071Y-71319571D01*
X122697119Y-71289333D01*
X122606404Y-71289333D01*
X122485452Y-71319571D01*
X122424976Y-71349809D01*
X122364500Y-71410285D01*
X122334261Y-71501000D01*
X122334261Y-71561476D01*
X122364500Y-71652190D01*
X122394738Y-71682428D01*
X122969261Y-71954571D02*
X122334261Y-71954571D01*
X122969261Y-72256952D02*
X122334261Y-72256952D01*
X122969261Y-72619809D01*
X122334261Y-72619809D01*
X122969261Y-73254809D02*
X122969261Y-72891952D01*
X122969261Y-73073380D02*
X122334261Y-73073380D01*
X122424976Y-73012904D01*
X122485452Y-72952428D01*
X122515690Y-72891952D01*
%TO.C,LINEINL/MICIN1*%
X143797261Y-71664285D02*
X143797261Y-71361904D01*
X143162261Y-71361904D01*
X143797261Y-71875952D02*
X143162261Y-71875952D01*
X143797261Y-72178333D02*
X143162261Y-72178333D01*
X143797261Y-72541190D01*
X143162261Y-72541190D01*
X143464642Y-72843571D02*
X143464642Y-73055238D01*
X143797261Y-73145952D02*
X143797261Y-72843571D01*
X143162261Y-72843571D01*
X143162261Y-73145952D01*
X143797261Y-73418095D02*
X143162261Y-73418095D01*
X143797261Y-73720476D02*
X143162261Y-73720476D01*
X143797261Y-74083333D01*
X143162261Y-74083333D01*
X143797261Y-74688095D02*
X143797261Y-74385714D01*
X143162261Y-74385714D01*
X143132023Y-75353333D02*
X143948452Y-74809047D01*
X143797261Y-75565000D02*
X143162261Y-75565000D01*
X143615833Y-75776666D01*
X143162261Y-75988333D01*
X143797261Y-75988333D01*
X143797261Y-76290714D02*
X143162261Y-76290714D01*
X143736785Y-76955952D02*
X143767023Y-76925714D01*
X143797261Y-76835000D01*
X143797261Y-76774523D01*
X143767023Y-76683809D01*
X143706547Y-76623333D01*
X143646071Y-76593095D01*
X143525119Y-76562857D01*
X143434404Y-76562857D01*
X143313452Y-76593095D01*
X143252976Y-76623333D01*
X143192500Y-76683809D01*
X143162261Y-76774523D01*
X143162261Y-76835000D01*
X143192500Y-76925714D01*
X143222738Y-76955952D01*
X143797261Y-77228095D02*
X143162261Y-77228095D01*
X143797261Y-77530476D02*
X143162261Y-77530476D01*
X143797261Y-77893333D01*
X143162261Y-77893333D01*
X143797261Y-78528333D02*
X143797261Y-78165476D01*
X143797261Y-78346904D02*
X143162261Y-78346904D01*
X143252976Y-78286428D01*
X143313452Y-78225952D01*
X143343690Y-78165476D01*
%TO.C,C13*%
X124051785Y-65631785D02*
X124082023Y-65601547D01*
X124112261Y-65510833D01*
X124112261Y-65450357D01*
X124082023Y-65359642D01*
X124021547Y-65299166D01*
X123961071Y-65268928D01*
X123840119Y-65238690D01*
X123749404Y-65238690D01*
X123628452Y-65268928D01*
X123567976Y-65299166D01*
X123507500Y-65359642D01*
X123477261Y-65450357D01*
X123477261Y-65510833D01*
X123507500Y-65601547D01*
X123537738Y-65631785D01*
X124112261Y-66236547D02*
X124112261Y-65873690D01*
X124112261Y-66055119D02*
X123477261Y-66055119D01*
X123567976Y-65994642D01*
X123628452Y-65934166D01*
X123658690Y-65873690D01*
X123477261Y-66448214D02*
X123477261Y-66841309D01*
X123719166Y-66629642D01*
X123719166Y-66720357D01*
X123749404Y-66780833D01*
X123779642Y-66811071D01*
X123840119Y-66841309D01*
X123991309Y-66841309D01*
X124051785Y-66811071D01*
X124082023Y-66780833D01*
X124112261Y-66720357D01*
X124112261Y-66538928D01*
X124082023Y-66478452D01*
X124051785Y-66448214D01*
%TO.C,C11*%
X126083785Y-65631785D02*
X126114023Y-65601547D01*
X126144261Y-65510833D01*
X126144261Y-65450357D01*
X126114023Y-65359642D01*
X126053547Y-65299166D01*
X125993071Y-65268928D01*
X125872119Y-65238690D01*
X125781404Y-65238690D01*
X125660452Y-65268928D01*
X125599976Y-65299166D01*
X125539500Y-65359642D01*
X125509261Y-65450357D01*
X125509261Y-65510833D01*
X125539500Y-65601547D01*
X125569738Y-65631785D01*
X126144261Y-66236547D02*
X126144261Y-65873690D01*
X126144261Y-66055119D02*
X125509261Y-66055119D01*
X125599976Y-65994642D01*
X125660452Y-65934166D01*
X125690690Y-65873690D01*
X126144261Y-66841309D02*
X126144261Y-66478452D01*
X126144261Y-66659880D02*
X125509261Y-66659880D01*
X125599976Y-66599404D01*
X125660452Y-66538928D01*
X125690690Y-66478452D01*
%TO.C,C95*%
D11*
X156355142Y-77551642D02*
X156391428Y-77515357D01*
X156427714Y-77406500D01*
X156427714Y-77333928D01*
X156391428Y-77225071D01*
X156318857Y-77152500D01*
X156246285Y-77116214D01*
X156101142Y-77079928D01*
X155992285Y-77079928D01*
X155847142Y-77116214D01*
X155774571Y-77152500D01*
X155702000Y-77225071D01*
X155665714Y-77333928D01*
X155665714Y-77406500D01*
X155702000Y-77515357D01*
X155738285Y-77551642D01*
X156427714Y-77914500D02*
X156427714Y-78059642D01*
X156391428Y-78132214D01*
X156355142Y-78168500D01*
X156246285Y-78241071D01*
X156101142Y-78277357D01*
X155810857Y-78277357D01*
X155738285Y-78241071D01*
X155702000Y-78204785D01*
X155665714Y-78132214D01*
X155665714Y-77987071D01*
X155702000Y-77914500D01*
X155738285Y-77878214D01*
X155810857Y-77841928D01*
X155992285Y-77841928D01*
X156064857Y-77878214D01*
X156101142Y-77914500D01*
X156137428Y-77987071D01*
X156137428Y-78132214D01*
X156101142Y-78204785D01*
X156064857Y-78241071D01*
X155992285Y-78277357D01*
X155665714Y-78966785D02*
X155665714Y-78603928D01*
X156028571Y-78567642D01*
X155992285Y-78603928D01*
X155956000Y-78676500D01*
X155956000Y-78857928D01*
X155992285Y-78930500D01*
X156028571Y-78966785D01*
X156101142Y-79003071D01*
X156282571Y-79003071D01*
X156355142Y-78966785D01*
X156391428Y-78930500D01*
X156427714Y-78857928D01*
X156427714Y-78676500D01*
X156391428Y-78603928D01*
X156355142Y-78567642D01*
%TO.C,C10*%
D25*
X127099785Y-65631785D02*
X127130023Y-65601547D01*
X127160261Y-65510833D01*
X127160261Y-65450357D01*
X127130023Y-65359642D01*
X127069547Y-65299166D01*
X127009071Y-65268928D01*
X126888119Y-65238690D01*
X126797404Y-65238690D01*
X126676452Y-65268928D01*
X126615976Y-65299166D01*
X126555500Y-65359642D01*
X126525261Y-65450357D01*
X126525261Y-65510833D01*
X126555500Y-65601547D01*
X126585738Y-65631785D01*
X127160261Y-66236547D02*
X127160261Y-65873690D01*
X127160261Y-66055119D02*
X126525261Y-66055119D01*
X126615976Y-65994642D01*
X126676452Y-65934166D01*
X126706690Y-65873690D01*
X126525261Y-66629642D02*
X126525261Y-66690119D01*
X126555500Y-66750595D01*
X126585738Y-66780833D01*
X126646214Y-66811071D01*
X126767166Y-66841309D01*
X126918357Y-66841309D01*
X127039309Y-66811071D01*
X127099785Y-66780833D01*
X127130023Y-66750595D01*
X127160261Y-66690119D01*
X127160261Y-66629642D01*
X127130023Y-66569166D01*
X127099785Y-66538928D01*
X127039309Y-66508690D01*
X126918357Y-66478452D01*
X126767166Y-66478452D01*
X126646214Y-66508690D01*
X126585738Y-66538928D01*
X126555500Y-66569166D01*
X126525261Y-66629642D01*
%TO.C,C54*%
D11*
X151492857Y-93490142D02*
X151529142Y-93526428D01*
X151638000Y-93562714D01*
X151710571Y-93562714D01*
X151819428Y-93526428D01*
X151892000Y-93453857D01*
X151928285Y-93381285D01*
X151964571Y-93236142D01*
X151964571Y-93127285D01*
X151928285Y-92982142D01*
X151892000Y-92909571D01*
X151819428Y-92837000D01*
X151710571Y-92800714D01*
X151638000Y-92800714D01*
X151529142Y-92837000D01*
X151492857Y-92873285D01*
X150803428Y-92800714D02*
X151166285Y-92800714D01*
X151202571Y-93163571D01*
X151166285Y-93127285D01*
X151093714Y-93091000D01*
X150912285Y-93091000D01*
X150839714Y-93127285D01*
X150803428Y-93163571D01*
X150767142Y-93236142D01*
X150767142Y-93417571D01*
X150803428Y-93490142D01*
X150839714Y-93526428D01*
X150912285Y-93562714D01*
X151093714Y-93562714D01*
X151166285Y-93526428D01*
X151202571Y-93490142D01*
X150114000Y-93054714D02*
X150114000Y-93562714D01*
X150295428Y-92764428D02*
X150476857Y-93308714D01*
X150005142Y-93308714D01*
%TO.C,C7*%
D25*
X134211785Y-66569166D02*
X134242023Y-66538928D01*
X134272261Y-66448214D01*
X134272261Y-66387738D01*
X134242023Y-66297023D01*
X134181547Y-66236547D01*
X134121071Y-66206309D01*
X134000119Y-66176071D01*
X133909404Y-66176071D01*
X133788452Y-66206309D01*
X133727976Y-66236547D01*
X133667500Y-66297023D01*
X133637261Y-66387738D01*
X133637261Y-66448214D01*
X133667500Y-66538928D01*
X133697738Y-66569166D01*
X133637261Y-66780833D02*
X133637261Y-67204166D01*
X134272261Y-66932023D01*
%TO.C,C51*%
D11*
X160292142Y-88156142D02*
X160328428Y-88119857D01*
X160364714Y-88011000D01*
X160364714Y-87938428D01*
X160328428Y-87829571D01*
X160255857Y-87757000D01*
X160183285Y-87720714D01*
X160038142Y-87684428D01*
X159929285Y-87684428D01*
X159784142Y-87720714D01*
X159711571Y-87757000D01*
X159639000Y-87829571D01*
X159602714Y-87938428D01*
X159602714Y-88011000D01*
X159639000Y-88119857D01*
X159675285Y-88156142D01*
X159602714Y-88845571D02*
X159602714Y-88482714D01*
X159965571Y-88446428D01*
X159929285Y-88482714D01*
X159893000Y-88555285D01*
X159893000Y-88736714D01*
X159929285Y-88809285D01*
X159965571Y-88845571D01*
X160038142Y-88881857D01*
X160219571Y-88881857D01*
X160292142Y-88845571D01*
X160328428Y-88809285D01*
X160364714Y-88736714D01*
X160364714Y-88555285D01*
X160328428Y-88482714D01*
X160292142Y-88446428D01*
X160364714Y-89607571D02*
X160364714Y-89172142D01*
X160364714Y-89389857D02*
X159602714Y-89389857D01*
X159711571Y-89317285D01*
X159784142Y-89244714D01*
X159820428Y-89172142D01*
%TO.C,C52*%
X160292142Y-90569142D02*
X160328428Y-90532857D01*
X160364714Y-90424000D01*
X160364714Y-90351428D01*
X160328428Y-90242571D01*
X160255857Y-90170000D01*
X160183285Y-90133714D01*
X160038142Y-90097428D01*
X159929285Y-90097428D01*
X159784142Y-90133714D01*
X159711571Y-90170000D01*
X159639000Y-90242571D01*
X159602714Y-90351428D01*
X159602714Y-90424000D01*
X159639000Y-90532857D01*
X159675285Y-90569142D01*
X159602714Y-91258571D02*
X159602714Y-90895714D01*
X159965571Y-90859428D01*
X159929285Y-90895714D01*
X159893000Y-90968285D01*
X159893000Y-91149714D01*
X159929285Y-91222285D01*
X159965571Y-91258571D01*
X160038142Y-91294857D01*
X160219571Y-91294857D01*
X160292142Y-91258571D01*
X160328428Y-91222285D01*
X160364714Y-91149714D01*
X160364714Y-90968285D01*
X160328428Y-90895714D01*
X160292142Y-90859428D01*
X159675285Y-91585142D02*
X159639000Y-91621428D01*
X159602714Y-91694000D01*
X159602714Y-91875428D01*
X159639000Y-91948000D01*
X159675285Y-91984285D01*
X159747857Y-92020571D01*
X159820428Y-92020571D01*
X159929285Y-91984285D01*
X160364714Y-91548857D01*
X160364714Y-92020571D01*
%TO.C,C32*%
X147211142Y-86886142D02*
X147247428Y-86849857D01*
X147283714Y-86741000D01*
X147283714Y-86668428D01*
X147247428Y-86559571D01*
X147174857Y-86487000D01*
X147102285Y-86450714D01*
X146957142Y-86414428D01*
X146848285Y-86414428D01*
X146703142Y-86450714D01*
X146630571Y-86487000D01*
X146558000Y-86559571D01*
X146521714Y-86668428D01*
X146521714Y-86741000D01*
X146558000Y-86849857D01*
X146594285Y-86886142D01*
X146521714Y-87140142D02*
X146521714Y-87611857D01*
X146812000Y-87357857D01*
X146812000Y-87466714D01*
X146848285Y-87539285D01*
X146884571Y-87575571D01*
X146957142Y-87611857D01*
X147138571Y-87611857D01*
X147211142Y-87575571D01*
X147247428Y-87539285D01*
X147283714Y-87466714D01*
X147283714Y-87249000D01*
X147247428Y-87176428D01*
X147211142Y-87140142D01*
X146594285Y-87902142D02*
X146558000Y-87938428D01*
X146521714Y-88011000D01*
X146521714Y-88192428D01*
X146558000Y-88265000D01*
X146594285Y-88301285D01*
X146666857Y-88337571D01*
X146739428Y-88337571D01*
X146848285Y-88301285D01*
X147283714Y-87865857D01*
X147283714Y-88337571D01*
%TO.C,C104*%
X162324142Y-69124285D02*
X162360428Y-69088000D01*
X162396714Y-68979142D01*
X162396714Y-68906571D01*
X162360428Y-68797714D01*
X162287857Y-68725142D01*
X162215285Y-68688857D01*
X162070142Y-68652571D01*
X161961285Y-68652571D01*
X161816142Y-68688857D01*
X161743571Y-68725142D01*
X161671000Y-68797714D01*
X161634714Y-68906571D01*
X161634714Y-68979142D01*
X161671000Y-69088000D01*
X161707285Y-69124285D01*
X162396714Y-69850000D02*
X162396714Y-69414571D01*
X162396714Y-69632285D02*
X161634714Y-69632285D01*
X161743571Y-69559714D01*
X161816142Y-69487142D01*
X161852428Y-69414571D01*
X161634714Y-70321714D02*
X161634714Y-70394285D01*
X161671000Y-70466857D01*
X161707285Y-70503142D01*
X161779857Y-70539428D01*
X161925000Y-70575714D01*
X162106428Y-70575714D01*
X162251571Y-70539428D01*
X162324142Y-70503142D01*
X162360428Y-70466857D01*
X162396714Y-70394285D01*
X162396714Y-70321714D01*
X162360428Y-70249142D01*
X162324142Y-70212857D01*
X162251571Y-70176571D01*
X162106428Y-70140285D01*
X161925000Y-70140285D01*
X161779857Y-70176571D01*
X161707285Y-70212857D01*
X161671000Y-70249142D01*
X161634714Y-70321714D01*
X161888714Y-71228857D02*
X162396714Y-71228857D01*
X161598428Y-71047428D02*
X162142714Y-70866000D01*
X162142714Y-71337714D01*
%TO.C,C101*%
X179342142Y-66203285D02*
X179378428Y-66167000D01*
X179414714Y-66058142D01*
X179414714Y-65985571D01*
X179378428Y-65876714D01*
X179305857Y-65804142D01*
X179233285Y-65767857D01*
X179088142Y-65731571D01*
X178979285Y-65731571D01*
X178834142Y-65767857D01*
X178761571Y-65804142D01*
X178689000Y-65876714D01*
X178652714Y-65985571D01*
X178652714Y-66058142D01*
X178689000Y-66167000D01*
X178725285Y-66203285D01*
X179414714Y-66929000D02*
X179414714Y-66493571D01*
X179414714Y-66711285D02*
X178652714Y-66711285D01*
X178761571Y-66638714D01*
X178834142Y-66566142D01*
X178870428Y-66493571D01*
X178652714Y-67400714D02*
X178652714Y-67473285D01*
X178689000Y-67545857D01*
X178725285Y-67582142D01*
X178797857Y-67618428D01*
X178943000Y-67654714D01*
X179124428Y-67654714D01*
X179269571Y-67618428D01*
X179342142Y-67582142D01*
X179378428Y-67545857D01*
X179414714Y-67473285D01*
X179414714Y-67400714D01*
X179378428Y-67328142D01*
X179342142Y-67291857D01*
X179269571Y-67255571D01*
X179124428Y-67219285D01*
X178943000Y-67219285D01*
X178797857Y-67255571D01*
X178725285Y-67291857D01*
X178689000Y-67328142D01*
X178652714Y-67400714D01*
X179414714Y-68380428D02*
X179414714Y-67945000D01*
X179414714Y-68162714D02*
X178652714Y-68162714D01*
X178761571Y-68090142D01*
X178834142Y-68017571D01*
X178870428Y-67945000D01*
%TO.C,C102*%
D25*
X166458104Y-70131828D02*
X166458104Y-70174591D01*
X166500868Y-70260117D01*
X166543631Y-70302880D01*
X166629157Y-70345644D01*
X166714683Y-70345644D01*
X166778828Y-70324262D01*
X166885736Y-70260117D01*
X166949880Y-70195973D01*
X167014025Y-70089065D01*
X167035407Y-70024920D01*
X167035407Y-69939394D01*
X166992644Y-69853868D01*
X166949880Y-69811104D01*
X166864354Y-69768341D01*
X166821591Y-69768341D01*
X165987710Y-69746960D02*
X166244289Y-70003539D01*
X166116000Y-69875249D02*
X166565012Y-69426236D01*
X166543631Y-69533144D01*
X166543631Y-69618670D01*
X166565012Y-69682815D01*
X166158763Y-69019987D02*
X166116000Y-68977224D01*
X166051855Y-68955842D01*
X166009092Y-68955842D01*
X165944947Y-68977224D01*
X165838039Y-69041368D01*
X165731131Y-69148276D01*
X165666987Y-69255184D01*
X165645605Y-69319329D01*
X165645605Y-69362092D01*
X165666987Y-69426236D01*
X165709750Y-69469000D01*
X165773895Y-69490381D01*
X165816658Y-69490381D01*
X165880802Y-69469000D01*
X165987710Y-69404855D01*
X166094618Y-69297947D01*
X166158763Y-69191039D01*
X166180144Y-69126895D01*
X166180144Y-69084131D01*
X166158763Y-69019987D01*
X165795276Y-68742026D02*
X165795276Y-68699263D01*
X165773895Y-68635119D01*
X165666987Y-68528211D01*
X165602842Y-68506829D01*
X165560079Y-68506829D01*
X165495934Y-68528211D01*
X165453171Y-68570974D01*
X165410408Y-68656500D01*
X165410408Y-69169658D01*
X165132448Y-68891697D01*
%TO.C,C103*%
X164691785Y-68885404D02*
X164722023Y-68855166D01*
X164752261Y-68764452D01*
X164752261Y-68703976D01*
X164722023Y-68613261D01*
X164661547Y-68552785D01*
X164601071Y-68522547D01*
X164480119Y-68492309D01*
X164389404Y-68492309D01*
X164268452Y-68522547D01*
X164207976Y-68552785D01*
X164147500Y-68613261D01*
X164117261Y-68703976D01*
X164117261Y-68764452D01*
X164147500Y-68855166D01*
X164177738Y-68885404D01*
X164752261Y-69490166D02*
X164752261Y-69127309D01*
X164752261Y-69308738D02*
X164117261Y-69308738D01*
X164207976Y-69248261D01*
X164268452Y-69187785D01*
X164298690Y-69127309D01*
X164117261Y-69883261D02*
X164117261Y-69943738D01*
X164147500Y-70004214D01*
X164177738Y-70034452D01*
X164238214Y-70064690D01*
X164359166Y-70094928D01*
X164510357Y-70094928D01*
X164631309Y-70064690D01*
X164691785Y-70034452D01*
X164722023Y-70004214D01*
X164752261Y-69943738D01*
X164752261Y-69883261D01*
X164722023Y-69822785D01*
X164691785Y-69792547D01*
X164631309Y-69762309D01*
X164510357Y-69732071D01*
X164359166Y-69732071D01*
X164238214Y-69762309D01*
X164177738Y-69792547D01*
X164147500Y-69822785D01*
X164117261Y-69883261D01*
X164117261Y-70306595D02*
X164117261Y-70699690D01*
X164359166Y-70488023D01*
X164359166Y-70578738D01*
X164389404Y-70639214D01*
X164419642Y-70669452D01*
X164480119Y-70699690D01*
X164631309Y-70699690D01*
X164691785Y-70669452D01*
X164722023Y-70639214D01*
X164752261Y-70578738D01*
X164752261Y-70397309D01*
X164722023Y-70336833D01*
X164691785Y-70306595D01*
%TO.C,C30*%
D11*
X139464142Y-100729142D02*
X139500428Y-100692857D01*
X139536714Y-100584000D01*
X139536714Y-100511428D01*
X139500428Y-100402571D01*
X139427857Y-100330000D01*
X139355285Y-100293714D01*
X139210142Y-100257428D01*
X139101285Y-100257428D01*
X138956142Y-100293714D01*
X138883571Y-100330000D01*
X138811000Y-100402571D01*
X138774714Y-100511428D01*
X138774714Y-100584000D01*
X138811000Y-100692857D01*
X138847285Y-100729142D01*
X138774714Y-100983142D02*
X138774714Y-101454857D01*
X139065000Y-101200857D01*
X139065000Y-101309714D01*
X139101285Y-101382285D01*
X139137571Y-101418571D01*
X139210142Y-101454857D01*
X139391571Y-101454857D01*
X139464142Y-101418571D01*
X139500428Y-101382285D01*
X139536714Y-101309714D01*
X139536714Y-101092000D01*
X139500428Y-101019428D01*
X139464142Y-100983142D01*
X138774714Y-101926571D02*
X138774714Y-101999142D01*
X138811000Y-102071714D01*
X138847285Y-102108000D01*
X138919857Y-102144285D01*
X139065000Y-102180571D01*
X139246428Y-102180571D01*
X139391571Y-102144285D01*
X139464142Y-102108000D01*
X139500428Y-102071714D01*
X139536714Y-101999142D01*
X139536714Y-101926571D01*
X139500428Y-101854000D01*
X139464142Y-101817714D01*
X139391571Y-101781428D01*
X139246428Y-101745142D01*
X139065000Y-101745142D01*
X138919857Y-101781428D01*
X138847285Y-101817714D01*
X138811000Y-101854000D01*
X138774714Y-101926571D01*
%TO.C,C20*%
X138194142Y-100729142D02*
X138230428Y-100692857D01*
X138266714Y-100584000D01*
X138266714Y-100511428D01*
X138230428Y-100402571D01*
X138157857Y-100330000D01*
X138085285Y-100293714D01*
X137940142Y-100257428D01*
X137831285Y-100257428D01*
X137686142Y-100293714D01*
X137613571Y-100330000D01*
X137541000Y-100402571D01*
X137504714Y-100511428D01*
X137504714Y-100584000D01*
X137541000Y-100692857D01*
X137577285Y-100729142D01*
X137577285Y-101019428D02*
X137541000Y-101055714D01*
X137504714Y-101128285D01*
X137504714Y-101309714D01*
X137541000Y-101382285D01*
X137577285Y-101418571D01*
X137649857Y-101454857D01*
X137722428Y-101454857D01*
X137831285Y-101418571D01*
X138266714Y-100983142D01*
X138266714Y-101454857D01*
X137504714Y-101926571D02*
X137504714Y-101999142D01*
X137541000Y-102071714D01*
X137577285Y-102108000D01*
X137649857Y-102144285D01*
X137795000Y-102180571D01*
X137976428Y-102180571D01*
X138121571Y-102144285D01*
X138194142Y-102108000D01*
X138230428Y-102071714D01*
X138266714Y-101999142D01*
X138266714Y-101926571D01*
X138230428Y-101854000D01*
X138194142Y-101817714D01*
X138121571Y-101781428D01*
X137976428Y-101745142D01*
X137795000Y-101745142D01*
X137649857Y-101781428D01*
X137577285Y-101817714D01*
X137541000Y-101854000D01*
X137504714Y-101926571D01*
%TO.C,C64*%
X166351857Y-74694142D02*
X166388142Y-74730428D01*
X166497000Y-74766714D01*
X166569571Y-74766714D01*
X166678428Y-74730428D01*
X166751000Y-74657857D01*
X166787285Y-74585285D01*
X166823571Y-74440142D01*
X166823571Y-74331285D01*
X166787285Y-74186142D01*
X166751000Y-74113571D01*
X166678428Y-74041000D01*
X166569571Y-74004714D01*
X166497000Y-74004714D01*
X166388142Y-74041000D01*
X166351857Y-74077285D01*
X165698714Y-74004714D02*
X165843857Y-74004714D01*
X165916428Y-74041000D01*
X165952714Y-74077285D01*
X166025285Y-74186142D01*
X166061571Y-74331285D01*
X166061571Y-74621571D01*
X166025285Y-74694142D01*
X165989000Y-74730428D01*
X165916428Y-74766714D01*
X165771285Y-74766714D01*
X165698714Y-74730428D01*
X165662428Y-74694142D01*
X165626142Y-74621571D01*
X165626142Y-74440142D01*
X165662428Y-74367571D01*
X165698714Y-74331285D01*
X165771285Y-74295000D01*
X165916428Y-74295000D01*
X165989000Y-74331285D01*
X166025285Y-74367571D01*
X166061571Y-74440142D01*
X164973000Y-74258714D02*
X164973000Y-74766714D01*
X165154428Y-73968428D02*
X165335857Y-74512714D01*
X164864142Y-74512714D01*
%TO.C,C63*%
X164319857Y-73043142D02*
X164356142Y-73079428D01*
X164465000Y-73115714D01*
X164537571Y-73115714D01*
X164646428Y-73079428D01*
X164719000Y-73006857D01*
X164755285Y-72934285D01*
X164791571Y-72789142D01*
X164791571Y-72680285D01*
X164755285Y-72535142D01*
X164719000Y-72462571D01*
X164646428Y-72390000D01*
X164537571Y-72353714D01*
X164465000Y-72353714D01*
X164356142Y-72390000D01*
X164319857Y-72426285D01*
X163666714Y-72353714D02*
X163811857Y-72353714D01*
X163884428Y-72390000D01*
X163920714Y-72426285D01*
X163993285Y-72535142D01*
X164029571Y-72680285D01*
X164029571Y-72970571D01*
X163993285Y-73043142D01*
X163957000Y-73079428D01*
X163884428Y-73115714D01*
X163739285Y-73115714D01*
X163666714Y-73079428D01*
X163630428Y-73043142D01*
X163594142Y-72970571D01*
X163594142Y-72789142D01*
X163630428Y-72716571D01*
X163666714Y-72680285D01*
X163739285Y-72644000D01*
X163884428Y-72644000D01*
X163957000Y-72680285D01*
X163993285Y-72716571D01*
X164029571Y-72789142D01*
X163340142Y-72353714D02*
X162868428Y-72353714D01*
X163122428Y-72644000D01*
X163013571Y-72644000D01*
X162941000Y-72680285D01*
X162904714Y-72716571D01*
X162868428Y-72789142D01*
X162868428Y-72970571D01*
X162904714Y-73043142D01*
X162941000Y-73079428D01*
X163013571Y-73115714D01*
X163231285Y-73115714D01*
X163303857Y-73079428D01*
X163340142Y-73043142D01*
%TO.C,C9*%
D25*
X138789833Y-85189785D02*
X138820071Y-85220023D01*
X138910785Y-85250261D01*
X138971261Y-85250261D01*
X139061976Y-85220023D01*
X139122452Y-85159547D01*
X139152690Y-85099071D01*
X139182928Y-84978119D01*
X139182928Y-84887404D01*
X139152690Y-84766452D01*
X139122452Y-84705976D01*
X139061976Y-84645500D01*
X138971261Y-84615261D01*
X138910785Y-84615261D01*
X138820071Y-84645500D01*
X138789833Y-84675738D01*
X138487452Y-85250261D02*
X138366500Y-85250261D01*
X138306023Y-85220023D01*
X138275785Y-85189785D01*
X138215309Y-85099071D01*
X138185071Y-84978119D01*
X138185071Y-84736214D01*
X138215309Y-84675738D01*
X138245547Y-84645500D01*
X138306023Y-84615261D01*
X138426976Y-84615261D01*
X138487452Y-84645500D01*
X138517690Y-84675738D01*
X138547928Y-84736214D01*
X138547928Y-84887404D01*
X138517690Y-84947880D01*
X138487452Y-84978119D01*
X138426976Y-85008357D01*
X138306023Y-85008357D01*
X138245547Y-84978119D01*
X138215309Y-84947880D01*
X138185071Y-84887404D01*
%TO.C,C71*%
D11*
X160419142Y-82187142D02*
X160455428Y-82150857D01*
X160491714Y-82042000D01*
X160491714Y-81969428D01*
X160455428Y-81860571D01*
X160382857Y-81788000D01*
X160310285Y-81751714D01*
X160165142Y-81715428D01*
X160056285Y-81715428D01*
X159911142Y-81751714D01*
X159838571Y-81788000D01*
X159766000Y-81860571D01*
X159729714Y-81969428D01*
X159729714Y-82042000D01*
X159766000Y-82150857D01*
X159802285Y-82187142D01*
X159729714Y-82441142D02*
X159729714Y-82949142D01*
X160491714Y-82622571D01*
X160491714Y-83638571D02*
X160491714Y-83203142D01*
X160491714Y-83420857D02*
X159729714Y-83420857D01*
X159838571Y-83348285D01*
X159911142Y-83275714D01*
X159947428Y-83203142D01*
%TO.C,C100*%
X143219714Y-85997142D02*
X143256000Y-86033428D01*
X143364857Y-86069714D01*
X143437428Y-86069714D01*
X143546285Y-86033428D01*
X143618857Y-85960857D01*
X143655142Y-85888285D01*
X143691428Y-85743142D01*
X143691428Y-85634285D01*
X143655142Y-85489142D01*
X143618857Y-85416571D01*
X143546285Y-85344000D01*
X143437428Y-85307714D01*
X143364857Y-85307714D01*
X143256000Y-85344000D01*
X143219714Y-85380285D01*
X142494000Y-86069714D02*
X142929428Y-86069714D01*
X142711714Y-86069714D02*
X142711714Y-85307714D01*
X142784285Y-85416571D01*
X142856857Y-85489142D01*
X142929428Y-85525428D01*
X142022285Y-85307714D02*
X141949714Y-85307714D01*
X141877142Y-85344000D01*
X141840857Y-85380285D01*
X141804571Y-85452857D01*
X141768285Y-85598000D01*
X141768285Y-85779428D01*
X141804571Y-85924571D01*
X141840857Y-85997142D01*
X141877142Y-86033428D01*
X141949714Y-86069714D01*
X142022285Y-86069714D01*
X142094857Y-86033428D01*
X142131142Y-85997142D01*
X142167428Y-85924571D01*
X142203714Y-85779428D01*
X142203714Y-85598000D01*
X142167428Y-85452857D01*
X142131142Y-85380285D01*
X142094857Y-85344000D01*
X142022285Y-85307714D01*
X141296571Y-85307714D02*
X141224000Y-85307714D01*
X141151428Y-85344000D01*
X141115142Y-85380285D01*
X141078857Y-85452857D01*
X141042571Y-85598000D01*
X141042571Y-85779428D01*
X141078857Y-85924571D01*
X141115142Y-85997142D01*
X141151428Y-86033428D01*
X141224000Y-86069714D01*
X141296571Y-86069714D01*
X141369142Y-86033428D01*
X141405428Y-85997142D01*
X141441714Y-85924571D01*
X141478000Y-85779428D01*
X141478000Y-85598000D01*
X141441714Y-85452857D01*
X141405428Y-85380285D01*
X141369142Y-85344000D01*
X141296571Y-85307714D01*
%TO.C,C66*%
X157588857Y-82441142D02*
X157625142Y-82477428D01*
X157734000Y-82513714D01*
X157806571Y-82513714D01*
X157915428Y-82477428D01*
X157988000Y-82404857D01*
X158024285Y-82332285D01*
X158060571Y-82187142D01*
X158060571Y-82078285D01*
X158024285Y-81933142D01*
X157988000Y-81860571D01*
X157915428Y-81788000D01*
X157806571Y-81751714D01*
X157734000Y-81751714D01*
X157625142Y-81788000D01*
X157588857Y-81824285D01*
X156935714Y-81751714D02*
X157080857Y-81751714D01*
X157153428Y-81788000D01*
X157189714Y-81824285D01*
X157262285Y-81933142D01*
X157298571Y-82078285D01*
X157298571Y-82368571D01*
X157262285Y-82441142D01*
X157226000Y-82477428D01*
X157153428Y-82513714D01*
X157008285Y-82513714D01*
X156935714Y-82477428D01*
X156899428Y-82441142D01*
X156863142Y-82368571D01*
X156863142Y-82187142D01*
X156899428Y-82114571D01*
X156935714Y-82078285D01*
X157008285Y-82042000D01*
X157153428Y-82042000D01*
X157226000Y-82078285D01*
X157262285Y-82114571D01*
X157298571Y-82187142D01*
X156210000Y-81751714D02*
X156355142Y-81751714D01*
X156427714Y-81788000D01*
X156464000Y-81824285D01*
X156536571Y-81933142D01*
X156572857Y-82078285D01*
X156572857Y-82368571D01*
X156536571Y-82441142D01*
X156500285Y-82477428D01*
X156427714Y-82513714D01*
X156282571Y-82513714D01*
X156210000Y-82477428D01*
X156173714Y-82441142D01*
X156137428Y-82368571D01*
X156137428Y-82187142D01*
X156173714Y-82114571D01*
X156210000Y-82078285D01*
X156282571Y-82042000D01*
X156427714Y-82042000D01*
X156500285Y-82078285D01*
X156536571Y-82114571D01*
X156572857Y-82187142D01*
%TO.C,C99*%
X143237857Y-83711142D02*
X143274142Y-83747428D01*
X143383000Y-83783714D01*
X143455571Y-83783714D01*
X143564428Y-83747428D01*
X143637000Y-83674857D01*
X143673285Y-83602285D01*
X143709571Y-83457142D01*
X143709571Y-83348285D01*
X143673285Y-83203142D01*
X143637000Y-83130571D01*
X143564428Y-83058000D01*
X143455571Y-83021714D01*
X143383000Y-83021714D01*
X143274142Y-83058000D01*
X143237857Y-83094285D01*
X142875000Y-83783714D02*
X142729857Y-83783714D01*
X142657285Y-83747428D01*
X142621000Y-83711142D01*
X142548428Y-83602285D01*
X142512142Y-83457142D01*
X142512142Y-83166857D01*
X142548428Y-83094285D01*
X142584714Y-83058000D01*
X142657285Y-83021714D01*
X142802428Y-83021714D01*
X142875000Y-83058000D01*
X142911285Y-83094285D01*
X142947571Y-83166857D01*
X142947571Y-83348285D01*
X142911285Y-83420857D01*
X142875000Y-83457142D01*
X142802428Y-83493428D01*
X142657285Y-83493428D01*
X142584714Y-83457142D01*
X142548428Y-83420857D01*
X142512142Y-83348285D01*
X142149285Y-83783714D02*
X142004142Y-83783714D01*
X141931571Y-83747428D01*
X141895285Y-83711142D01*
X141822714Y-83602285D01*
X141786428Y-83457142D01*
X141786428Y-83166857D01*
X141822714Y-83094285D01*
X141859000Y-83058000D01*
X141931571Y-83021714D01*
X142076714Y-83021714D01*
X142149285Y-83058000D01*
X142185571Y-83094285D01*
X142221857Y-83166857D01*
X142221857Y-83348285D01*
X142185571Y-83420857D01*
X142149285Y-83457142D01*
X142076714Y-83493428D01*
X141931571Y-83493428D01*
X141859000Y-83457142D01*
X141822714Y-83420857D01*
X141786428Y-83348285D01*
%TO.C,C53*%
X153651857Y-86886142D02*
X153688142Y-86922428D01*
X153797000Y-86958714D01*
X153869571Y-86958714D01*
X153978428Y-86922428D01*
X154051000Y-86849857D01*
X154087285Y-86777285D01*
X154123571Y-86632142D01*
X154123571Y-86523285D01*
X154087285Y-86378142D01*
X154051000Y-86305571D01*
X153978428Y-86233000D01*
X153869571Y-86196714D01*
X153797000Y-86196714D01*
X153688142Y-86233000D01*
X153651857Y-86269285D01*
X152962428Y-86196714D02*
X153325285Y-86196714D01*
X153361571Y-86559571D01*
X153325285Y-86523285D01*
X153252714Y-86487000D01*
X153071285Y-86487000D01*
X152998714Y-86523285D01*
X152962428Y-86559571D01*
X152926142Y-86632142D01*
X152926142Y-86813571D01*
X152962428Y-86886142D01*
X152998714Y-86922428D01*
X153071285Y-86958714D01*
X153252714Y-86958714D01*
X153325285Y-86922428D01*
X153361571Y-86886142D01*
X152672142Y-86196714D02*
X152200428Y-86196714D01*
X152454428Y-86487000D01*
X152345571Y-86487000D01*
X152273000Y-86523285D01*
X152236714Y-86559571D01*
X152200428Y-86632142D01*
X152200428Y-86813571D01*
X152236714Y-86886142D01*
X152273000Y-86922428D01*
X152345571Y-86958714D01*
X152563285Y-86958714D01*
X152635857Y-86922428D01*
X152672142Y-86886142D01*
%TO.C,C57*%
X162070142Y-73170142D02*
X162106428Y-73133857D01*
X162142714Y-73025000D01*
X162142714Y-72952428D01*
X162106428Y-72843571D01*
X162033857Y-72771000D01*
X161961285Y-72734714D01*
X161816142Y-72698428D01*
X161707285Y-72698428D01*
X161562142Y-72734714D01*
X161489571Y-72771000D01*
X161417000Y-72843571D01*
X161380714Y-72952428D01*
X161380714Y-73025000D01*
X161417000Y-73133857D01*
X161453285Y-73170142D01*
X161380714Y-73859571D02*
X161380714Y-73496714D01*
X161743571Y-73460428D01*
X161707285Y-73496714D01*
X161671000Y-73569285D01*
X161671000Y-73750714D01*
X161707285Y-73823285D01*
X161743571Y-73859571D01*
X161816142Y-73895857D01*
X161997571Y-73895857D01*
X162070142Y-73859571D01*
X162106428Y-73823285D01*
X162142714Y-73750714D01*
X162142714Y-73569285D01*
X162106428Y-73496714D01*
X162070142Y-73460428D01*
X161380714Y-74149857D02*
X161380714Y-74657857D01*
X162142714Y-74331285D01*
%TO.C,C60*%
X161943142Y-75583142D02*
X161979428Y-75546857D01*
X162015714Y-75438000D01*
X162015714Y-75365428D01*
X161979428Y-75256571D01*
X161906857Y-75184000D01*
X161834285Y-75147714D01*
X161689142Y-75111428D01*
X161580285Y-75111428D01*
X161435142Y-75147714D01*
X161362571Y-75184000D01*
X161290000Y-75256571D01*
X161253714Y-75365428D01*
X161253714Y-75438000D01*
X161290000Y-75546857D01*
X161326285Y-75583142D01*
X161253714Y-76236285D02*
X161253714Y-76091142D01*
X161290000Y-76018571D01*
X161326285Y-75982285D01*
X161435142Y-75909714D01*
X161580285Y-75873428D01*
X161870571Y-75873428D01*
X161943142Y-75909714D01*
X161979428Y-75946000D01*
X162015714Y-76018571D01*
X162015714Y-76163714D01*
X161979428Y-76236285D01*
X161943142Y-76272571D01*
X161870571Y-76308857D01*
X161689142Y-76308857D01*
X161616571Y-76272571D01*
X161580285Y-76236285D01*
X161544000Y-76163714D01*
X161544000Y-76018571D01*
X161580285Y-75946000D01*
X161616571Y-75909714D01*
X161689142Y-75873428D01*
X161253714Y-76780571D02*
X161253714Y-76853142D01*
X161290000Y-76925714D01*
X161326285Y-76962000D01*
X161398857Y-76998285D01*
X161544000Y-77034571D01*
X161725428Y-77034571D01*
X161870571Y-76998285D01*
X161943142Y-76962000D01*
X161979428Y-76925714D01*
X162015714Y-76853142D01*
X162015714Y-76780571D01*
X161979428Y-76708000D01*
X161943142Y-76671714D01*
X161870571Y-76635428D01*
X161725428Y-76599142D01*
X161544000Y-76599142D01*
X161398857Y-76635428D01*
X161326285Y-76671714D01*
X161290000Y-76708000D01*
X161253714Y-76780571D01*
%TO.C,C94*%
X156418642Y-79901142D02*
X156454928Y-79864857D01*
X156491214Y-79756000D01*
X156491214Y-79683428D01*
X156454928Y-79574571D01*
X156382357Y-79502000D01*
X156309785Y-79465714D01*
X156164642Y-79429428D01*
X156055785Y-79429428D01*
X155910642Y-79465714D01*
X155838071Y-79502000D01*
X155765500Y-79574571D01*
X155729214Y-79683428D01*
X155729214Y-79756000D01*
X155765500Y-79864857D01*
X155801785Y-79901142D01*
X156491214Y-80264000D02*
X156491214Y-80409142D01*
X156454928Y-80481714D01*
X156418642Y-80518000D01*
X156309785Y-80590571D01*
X156164642Y-80626857D01*
X155874357Y-80626857D01*
X155801785Y-80590571D01*
X155765500Y-80554285D01*
X155729214Y-80481714D01*
X155729214Y-80336571D01*
X155765500Y-80264000D01*
X155801785Y-80227714D01*
X155874357Y-80191428D01*
X156055785Y-80191428D01*
X156128357Y-80227714D01*
X156164642Y-80264000D01*
X156200928Y-80336571D01*
X156200928Y-80481714D01*
X156164642Y-80554285D01*
X156128357Y-80590571D01*
X156055785Y-80626857D01*
X155983214Y-81280000D02*
X156491214Y-81280000D01*
X155692928Y-81098571D02*
X156237214Y-80917142D01*
X156237214Y-81388857D01*
%TO.C,C46*%
X142856857Y-96792142D02*
X142893142Y-96828428D01*
X143002000Y-96864714D01*
X143074571Y-96864714D01*
X143183428Y-96828428D01*
X143256000Y-96755857D01*
X143292285Y-96683285D01*
X143328571Y-96538142D01*
X143328571Y-96429285D01*
X143292285Y-96284142D01*
X143256000Y-96211571D01*
X143183428Y-96139000D01*
X143074571Y-96102714D01*
X143002000Y-96102714D01*
X142893142Y-96139000D01*
X142856857Y-96175285D01*
X142203714Y-96356714D02*
X142203714Y-96864714D01*
X142385142Y-96066428D02*
X142566571Y-96610714D01*
X142094857Y-96610714D01*
X141478000Y-96102714D02*
X141623142Y-96102714D01*
X141695714Y-96139000D01*
X141732000Y-96175285D01*
X141804571Y-96284142D01*
X141840857Y-96429285D01*
X141840857Y-96719571D01*
X141804571Y-96792142D01*
X141768285Y-96828428D01*
X141695714Y-96864714D01*
X141550571Y-96864714D01*
X141478000Y-96828428D01*
X141441714Y-96792142D01*
X141405428Y-96719571D01*
X141405428Y-96538142D01*
X141441714Y-96465571D01*
X141478000Y-96429285D01*
X141550571Y-96393000D01*
X141695714Y-96393000D01*
X141768285Y-96429285D01*
X141804571Y-96465571D01*
X141840857Y-96538142D01*
%TO.C,C42*%
X132479142Y-96665142D02*
X132515428Y-96628857D01*
X132551714Y-96520000D01*
X132551714Y-96447428D01*
X132515428Y-96338571D01*
X132442857Y-96266000D01*
X132370285Y-96229714D01*
X132225142Y-96193428D01*
X132116285Y-96193428D01*
X131971142Y-96229714D01*
X131898571Y-96266000D01*
X131826000Y-96338571D01*
X131789714Y-96447428D01*
X131789714Y-96520000D01*
X131826000Y-96628857D01*
X131862285Y-96665142D01*
X132043714Y-97318285D02*
X132551714Y-97318285D01*
X131753428Y-97136857D02*
X132297714Y-96955428D01*
X132297714Y-97427142D01*
X131862285Y-97681142D02*
X131826000Y-97717428D01*
X131789714Y-97790000D01*
X131789714Y-97971428D01*
X131826000Y-98044000D01*
X131862285Y-98080285D01*
X131934857Y-98116571D01*
X132007428Y-98116571D01*
X132116285Y-98080285D01*
X132551714Y-97644857D01*
X132551714Y-98116571D01*
%TO.C,C29*%
X129394857Y-94887142D02*
X129431142Y-94923428D01*
X129540000Y-94959714D01*
X129612571Y-94959714D01*
X129721428Y-94923428D01*
X129794000Y-94850857D01*
X129830285Y-94778285D01*
X129866571Y-94633142D01*
X129866571Y-94524285D01*
X129830285Y-94379142D01*
X129794000Y-94306571D01*
X129721428Y-94234000D01*
X129612571Y-94197714D01*
X129540000Y-94197714D01*
X129431142Y-94234000D01*
X129394857Y-94270285D01*
X129104571Y-94270285D02*
X129068285Y-94234000D01*
X128995714Y-94197714D01*
X128814285Y-94197714D01*
X128741714Y-94234000D01*
X128705428Y-94270285D01*
X128669142Y-94342857D01*
X128669142Y-94415428D01*
X128705428Y-94524285D01*
X129140857Y-94959714D01*
X128669142Y-94959714D01*
X128306285Y-94959714D02*
X128161142Y-94959714D01*
X128088571Y-94923428D01*
X128052285Y-94887142D01*
X127979714Y-94778285D01*
X127943428Y-94633142D01*
X127943428Y-94342857D01*
X127979714Y-94270285D01*
X128016000Y-94234000D01*
X128088571Y-94197714D01*
X128233714Y-94197714D01*
X128306285Y-94234000D01*
X128342571Y-94270285D01*
X128378857Y-94342857D01*
X128378857Y-94524285D01*
X128342571Y-94596857D01*
X128306285Y-94633142D01*
X128233714Y-94669428D01*
X128088571Y-94669428D01*
X128016000Y-94633142D01*
X127979714Y-94596857D01*
X127943428Y-94524285D01*
%TO.C,C45*%
X134728857Y-92347142D02*
X134765142Y-92383428D01*
X134874000Y-92419714D01*
X134946571Y-92419714D01*
X135055428Y-92383428D01*
X135128000Y-92310857D01*
X135164285Y-92238285D01*
X135200571Y-92093142D01*
X135200571Y-91984285D01*
X135164285Y-91839142D01*
X135128000Y-91766571D01*
X135055428Y-91694000D01*
X134946571Y-91657714D01*
X134874000Y-91657714D01*
X134765142Y-91694000D01*
X134728857Y-91730285D01*
X134075714Y-91911714D02*
X134075714Y-92419714D01*
X134257142Y-91621428D02*
X134438571Y-92165714D01*
X133966857Y-92165714D01*
X133313714Y-91657714D02*
X133676571Y-91657714D01*
X133712857Y-92020571D01*
X133676571Y-91984285D01*
X133604000Y-91948000D01*
X133422571Y-91948000D01*
X133350000Y-91984285D01*
X133313714Y-92020571D01*
X133277428Y-92093142D01*
X133277428Y-92274571D01*
X133313714Y-92347142D01*
X133350000Y-92383428D01*
X133422571Y-92419714D01*
X133604000Y-92419714D01*
X133676571Y-92383428D01*
X133712857Y-92347142D01*
%TO.C,C8*%
D25*
X140948833Y-80998785D02*
X140979071Y-81029023D01*
X141069785Y-81059261D01*
X141130261Y-81059261D01*
X141220976Y-81029023D01*
X141281452Y-80968547D01*
X141311690Y-80908071D01*
X141341928Y-80787119D01*
X141341928Y-80696404D01*
X141311690Y-80575452D01*
X141281452Y-80514976D01*
X141220976Y-80454500D01*
X141130261Y-80424261D01*
X141069785Y-80424261D01*
X140979071Y-80454500D01*
X140948833Y-80484738D01*
X140585976Y-80696404D02*
X140646452Y-80666166D01*
X140676690Y-80635928D01*
X140706928Y-80575452D01*
X140706928Y-80545214D01*
X140676690Y-80484738D01*
X140646452Y-80454500D01*
X140585976Y-80424261D01*
X140465023Y-80424261D01*
X140404547Y-80454500D01*
X140374309Y-80484738D01*
X140344071Y-80545214D01*
X140344071Y-80575452D01*
X140374309Y-80635928D01*
X140404547Y-80666166D01*
X140465023Y-80696404D01*
X140585976Y-80696404D01*
X140646452Y-80726642D01*
X140676690Y-80756880D01*
X140706928Y-80817357D01*
X140706928Y-80938309D01*
X140676690Y-80998785D01*
X140646452Y-81029023D01*
X140585976Y-81059261D01*
X140465023Y-81059261D01*
X140404547Y-81029023D01*
X140374309Y-80998785D01*
X140344071Y-80938309D01*
X140344071Y-80817357D01*
X140374309Y-80756880D01*
X140404547Y-80726642D01*
X140465023Y-80696404D01*
%TO.C,C44*%
D11*
X135516257Y-88410142D02*
X135552542Y-88446428D01*
X135661400Y-88482714D01*
X135733971Y-88482714D01*
X135842828Y-88446428D01*
X135915400Y-88373857D01*
X135951685Y-88301285D01*
X135987971Y-88156142D01*
X135987971Y-88047285D01*
X135951685Y-87902142D01*
X135915400Y-87829571D01*
X135842828Y-87757000D01*
X135733971Y-87720714D01*
X135661400Y-87720714D01*
X135552542Y-87757000D01*
X135516257Y-87793285D01*
X134863114Y-87974714D02*
X134863114Y-88482714D01*
X135044542Y-87684428D02*
X135225971Y-88228714D01*
X134754257Y-88228714D01*
X134137400Y-87974714D02*
X134137400Y-88482714D01*
X134318828Y-87684428D02*
X134500257Y-88228714D01*
X134028542Y-88228714D01*
%TO.C,C6*%
D25*
X136243785Y-66569166D02*
X136274023Y-66538928D01*
X136304261Y-66448214D01*
X136304261Y-66387738D01*
X136274023Y-66297023D01*
X136213547Y-66236547D01*
X136153071Y-66206309D01*
X136032119Y-66176071D01*
X135941404Y-66176071D01*
X135820452Y-66206309D01*
X135759976Y-66236547D01*
X135699500Y-66297023D01*
X135669261Y-66387738D01*
X135669261Y-66448214D01*
X135699500Y-66538928D01*
X135729738Y-66569166D01*
X135669261Y-67113452D02*
X135669261Y-66992500D01*
X135699500Y-66932023D01*
X135729738Y-66901785D01*
X135820452Y-66841309D01*
X135941404Y-66811071D01*
X136183309Y-66811071D01*
X136243785Y-66841309D01*
X136274023Y-66871547D01*
X136304261Y-66932023D01*
X136304261Y-67052976D01*
X136274023Y-67113452D01*
X136243785Y-67143690D01*
X136183309Y-67173928D01*
X136032119Y-67173928D01*
X135971642Y-67143690D01*
X135941404Y-67113452D01*
X135911166Y-67052976D01*
X135911166Y-66932023D01*
X135941404Y-66871547D01*
X135971642Y-66841309D01*
X136032119Y-66811071D01*
%TO.C,C31*%
D11*
X148608142Y-86886142D02*
X148644428Y-86849857D01*
X148680714Y-86741000D01*
X148680714Y-86668428D01*
X148644428Y-86559571D01*
X148571857Y-86487000D01*
X148499285Y-86450714D01*
X148354142Y-86414428D01*
X148245285Y-86414428D01*
X148100142Y-86450714D01*
X148027571Y-86487000D01*
X147955000Y-86559571D01*
X147918714Y-86668428D01*
X147918714Y-86741000D01*
X147955000Y-86849857D01*
X147991285Y-86886142D01*
X147918714Y-87140142D02*
X147918714Y-87611857D01*
X148209000Y-87357857D01*
X148209000Y-87466714D01*
X148245285Y-87539285D01*
X148281571Y-87575571D01*
X148354142Y-87611857D01*
X148535571Y-87611857D01*
X148608142Y-87575571D01*
X148644428Y-87539285D01*
X148680714Y-87466714D01*
X148680714Y-87249000D01*
X148644428Y-87176428D01*
X148608142Y-87140142D01*
X148680714Y-88337571D02*
X148680714Y-87902142D01*
X148680714Y-88119857D02*
X147918714Y-88119857D01*
X148027571Y-88047285D01*
X148100142Y-87974714D01*
X148136428Y-87902142D01*
%TO.C,C37*%
X150005142Y-86886142D02*
X150041428Y-86849857D01*
X150077714Y-86741000D01*
X150077714Y-86668428D01*
X150041428Y-86559571D01*
X149968857Y-86487000D01*
X149896285Y-86450714D01*
X149751142Y-86414428D01*
X149642285Y-86414428D01*
X149497142Y-86450714D01*
X149424571Y-86487000D01*
X149352000Y-86559571D01*
X149315714Y-86668428D01*
X149315714Y-86741000D01*
X149352000Y-86849857D01*
X149388285Y-86886142D01*
X149315714Y-87140142D02*
X149315714Y-87611857D01*
X149606000Y-87357857D01*
X149606000Y-87466714D01*
X149642285Y-87539285D01*
X149678571Y-87575571D01*
X149751142Y-87611857D01*
X149932571Y-87611857D01*
X150005142Y-87575571D01*
X150041428Y-87539285D01*
X150077714Y-87466714D01*
X150077714Y-87249000D01*
X150041428Y-87176428D01*
X150005142Y-87140142D01*
X149315714Y-87865857D02*
X149315714Y-88373857D01*
X150077714Y-88047285D01*
%TO.C,C67*%
X146158857Y-101872142D02*
X146195142Y-101908428D01*
X146304000Y-101944714D01*
X146376571Y-101944714D01*
X146485428Y-101908428D01*
X146558000Y-101835857D01*
X146594285Y-101763285D01*
X146630571Y-101618142D01*
X146630571Y-101509285D01*
X146594285Y-101364142D01*
X146558000Y-101291571D01*
X146485428Y-101219000D01*
X146376571Y-101182714D01*
X146304000Y-101182714D01*
X146195142Y-101219000D01*
X146158857Y-101255285D01*
X145505714Y-101182714D02*
X145650857Y-101182714D01*
X145723428Y-101219000D01*
X145759714Y-101255285D01*
X145832285Y-101364142D01*
X145868571Y-101509285D01*
X145868571Y-101799571D01*
X145832285Y-101872142D01*
X145796000Y-101908428D01*
X145723428Y-101944714D01*
X145578285Y-101944714D01*
X145505714Y-101908428D01*
X145469428Y-101872142D01*
X145433142Y-101799571D01*
X145433142Y-101618142D01*
X145469428Y-101545571D01*
X145505714Y-101509285D01*
X145578285Y-101473000D01*
X145723428Y-101473000D01*
X145796000Y-101509285D01*
X145832285Y-101545571D01*
X145868571Y-101618142D01*
X145179142Y-101182714D02*
X144671142Y-101182714D01*
X144997714Y-101944714D01*
%TO.C,C47*%
X138030857Y-92220142D02*
X138067142Y-92256428D01*
X138176000Y-92292714D01*
X138248571Y-92292714D01*
X138357428Y-92256428D01*
X138430000Y-92183857D01*
X138466285Y-92111285D01*
X138502571Y-91966142D01*
X138502571Y-91857285D01*
X138466285Y-91712142D01*
X138430000Y-91639571D01*
X138357428Y-91567000D01*
X138248571Y-91530714D01*
X138176000Y-91530714D01*
X138067142Y-91567000D01*
X138030857Y-91603285D01*
X137377714Y-91784714D02*
X137377714Y-92292714D01*
X137559142Y-91494428D02*
X137740571Y-92038714D01*
X137268857Y-92038714D01*
X137051142Y-91530714D02*
X136543142Y-91530714D01*
X136869714Y-92292714D01*
%TO.C,C43*%
X142856857Y-101745142D02*
X142893142Y-101781428D01*
X143002000Y-101817714D01*
X143074571Y-101817714D01*
X143183428Y-101781428D01*
X143256000Y-101708857D01*
X143292285Y-101636285D01*
X143328571Y-101491142D01*
X143328571Y-101382285D01*
X143292285Y-101237142D01*
X143256000Y-101164571D01*
X143183428Y-101092000D01*
X143074571Y-101055714D01*
X143002000Y-101055714D01*
X142893142Y-101092000D01*
X142856857Y-101128285D01*
X142203714Y-101309714D02*
X142203714Y-101817714D01*
X142385142Y-101019428D02*
X142566571Y-101563714D01*
X142094857Y-101563714D01*
X141877142Y-101055714D02*
X141405428Y-101055714D01*
X141659428Y-101346000D01*
X141550571Y-101346000D01*
X141478000Y-101382285D01*
X141441714Y-101418571D01*
X141405428Y-101491142D01*
X141405428Y-101672571D01*
X141441714Y-101745142D01*
X141478000Y-101781428D01*
X141550571Y-101817714D01*
X141768285Y-101817714D01*
X141840857Y-101781428D01*
X141877142Y-101745142D01*
%TO.C,C34*%
X144126857Y-90696142D02*
X144163142Y-90732428D01*
X144272000Y-90768714D01*
X144344571Y-90768714D01*
X144453428Y-90732428D01*
X144526000Y-90659857D01*
X144562285Y-90587285D01*
X144598571Y-90442142D01*
X144598571Y-90333285D01*
X144562285Y-90188142D01*
X144526000Y-90115571D01*
X144453428Y-90043000D01*
X144344571Y-90006714D01*
X144272000Y-90006714D01*
X144163142Y-90043000D01*
X144126857Y-90079285D01*
X143872857Y-90006714D02*
X143401142Y-90006714D01*
X143655142Y-90297000D01*
X143546285Y-90297000D01*
X143473714Y-90333285D01*
X143437428Y-90369571D01*
X143401142Y-90442142D01*
X143401142Y-90623571D01*
X143437428Y-90696142D01*
X143473714Y-90732428D01*
X143546285Y-90768714D01*
X143764000Y-90768714D01*
X143836571Y-90732428D01*
X143872857Y-90696142D01*
X142748000Y-90260714D02*
X142748000Y-90768714D01*
X142929428Y-89970428D02*
X143110857Y-90514714D01*
X142639142Y-90514714D01*
%TO.C,C56*%
X127399142Y-105555142D02*
X127435428Y-105518857D01*
X127471714Y-105410000D01*
X127471714Y-105337428D01*
X127435428Y-105228571D01*
X127362857Y-105156000D01*
X127290285Y-105119714D01*
X127145142Y-105083428D01*
X127036285Y-105083428D01*
X126891142Y-105119714D01*
X126818571Y-105156000D01*
X126746000Y-105228571D01*
X126709714Y-105337428D01*
X126709714Y-105410000D01*
X126746000Y-105518857D01*
X126782285Y-105555142D01*
X126709714Y-106244571D02*
X126709714Y-105881714D01*
X127072571Y-105845428D01*
X127036285Y-105881714D01*
X127000000Y-105954285D01*
X127000000Y-106135714D01*
X127036285Y-106208285D01*
X127072571Y-106244571D01*
X127145142Y-106280857D01*
X127326571Y-106280857D01*
X127399142Y-106244571D01*
X127435428Y-106208285D01*
X127471714Y-106135714D01*
X127471714Y-105954285D01*
X127435428Y-105881714D01*
X127399142Y-105845428D01*
X126709714Y-106934000D02*
X126709714Y-106788857D01*
X126746000Y-106716285D01*
X126782285Y-106680000D01*
X126891142Y-106607428D01*
X127036285Y-106571142D01*
X127326571Y-106571142D01*
X127399142Y-106607428D01*
X127435428Y-106643714D01*
X127471714Y-106716285D01*
X127471714Y-106861428D01*
X127435428Y-106934000D01*
X127399142Y-106970285D01*
X127326571Y-107006571D01*
X127145142Y-107006571D01*
X127072571Y-106970285D01*
X127036285Y-106934000D01*
X127000000Y-106861428D01*
X127000000Y-106716285D01*
X127036285Y-106643714D01*
X127072571Y-106607428D01*
X127145142Y-106571142D01*
%TO.C,C61*%
X122192142Y-96665142D02*
X122228428Y-96628857D01*
X122264714Y-96520000D01*
X122264714Y-96447428D01*
X122228428Y-96338571D01*
X122155857Y-96266000D01*
X122083285Y-96229714D01*
X121938142Y-96193428D01*
X121829285Y-96193428D01*
X121684142Y-96229714D01*
X121611571Y-96266000D01*
X121539000Y-96338571D01*
X121502714Y-96447428D01*
X121502714Y-96520000D01*
X121539000Y-96628857D01*
X121575285Y-96665142D01*
X121502714Y-97318285D02*
X121502714Y-97173142D01*
X121539000Y-97100571D01*
X121575285Y-97064285D01*
X121684142Y-96991714D01*
X121829285Y-96955428D01*
X122119571Y-96955428D01*
X122192142Y-96991714D01*
X122228428Y-97028000D01*
X122264714Y-97100571D01*
X122264714Y-97245714D01*
X122228428Y-97318285D01*
X122192142Y-97354571D01*
X122119571Y-97390857D01*
X121938142Y-97390857D01*
X121865571Y-97354571D01*
X121829285Y-97318285D01*
X121793000Y-97245714D01*
X121793000Y-97100571D01*
X121829285Y-97028000D01*
X121865571Y-96991714D01*
X121938142Y-96955428D01*
X122264714Y-98116571D02*
X122264714Y-97681142D01*
X122264714Y-97898857D02*
X121502714Y-97898857D01*
X121611571Y-97826285D01*
X121684142Y-97753714D01*
X121720428Y-97681142D01*
%TO.C,C12*%
X164610142Y-94506142D02*
X164646428Y-94469857D01*
X164682714Y-94361000D01*
X164682714Y-94288428D01*
X164646428Y-94179571D01*
X164573857Y-94107000D01*
X164501285Y-94070714D01*
X164356142Y-94034428D01*
X164247285Y-94034428D01*
X164102142Y-94070714D01*
X164029571Y-94107000D01*
X163957000Y-94179571D01*
X163920714Y-94288428D01*
X163920714Y-94361000D01*
X163957000Y-94469857D01*
X163993285Y-94506142D01*
X164682714Y-95231857D02*
X164682714Y-94796428D01*
X164682714Y-95014142D02*
X163920714Y-95014142D01*
X164029571Y-94941571D01*
X164102142Y-94869000D01*
X164138428Y-94796428D01*
X163993285Y-95522142D02*
X163957000Y-95558428D01*
X163920714Y-95631000D01*
X163920714Y-95812428D01*
X163957000Y-95885000D01*
X163993285Y-95921285D01*
X164065857Y-95957571D01*
X164138428Y-95957571D01*
X164247285Y-95921285D01*
X164682714Y-95485857D01*
X164682714Y-95957571D01*
%TO.C,C27*%
X128542142Y-91585142D02*
X128578428Y-91548857D01*
X128614714Y-91440000D01*
X128614714Y-91367428D01*
X128578428Y-91258571D01*
X128505857Y-91186000D01*
X128433285Y-91149714D01*
X128288142Y-91113428D01*
X128179285Y-91113428D01*
X128034142Y-91149714D01*
X127961571Y-91186000D01*
X127889000Y-91258571D01*
X127852714Y-91367428D01*
X127852714Y-91440000D01*
X127889000Y-91548857D01*
X127925285Y-91585142D01*
X127925285Y-91875428D02*
X127889000Y-91911714D01*
X127852714Y-91984285D01*
X127852714Y-92165714D01*
X127889000Y-92238285D01*
X127925285Y-92274571D01*
X127997857Y-92310857D01*
X128070428Y-92310857D01*
X128179285Y-92274571D01*
X128614714Y-91839142D01*
X128614714Y-92310857D01*
X127852714Y-92564857D02*
X127852714Y-93072857D01*
X128614714Y-92746285D01*
%TO.C,C26*%
X131934857Y-94379142D02*
X131971142Y-94415428D01*
X132080000Y-94451714D01*
X132152571Y-94451714D01*
X132261428Y-94415428D01*
X132334000Y-94342857D01*
X132370285Y-94270285D01*
X132406571Y-94125142D01*
X132406571Y-94016285D01*
X132370285Y-93871142D01*
X132334000Y-93798571D01*
X132261428Y-93726000D01*
X132152571Y-93689714D01*
X132080000Y-93689714D01*
X131971142Y-93726000D01*
X131934857Y-93762285D01*
X131644571Y-93762285D02*
X131608285Y-93726000D01*
X131535714Y-93689714D01*
X131354285Y-93689714D01*
X131281714Y-93726000D01*
X131245428Y-93762285D01*
X131209142Y-93834857D01*
X131209142Y-93907428D01*
X131245428Y-94016285D01*
X131680857Y-94451714D01*
X131209142Y-94451714D01*
X130556000Y-93689714D02*
X130701142Y-93689714D01*
X130773714Y-93726000D01*
X130810000Y-93762285D01*
X130882571Y-93871142D01*
X130918857Y-94016285D01*
X130918857Y-94306571D01*
X130882571Y-94379142D01*
X130846285Y-94415428D01*
X130773714Y-94451714D01*
X130628571Y-94451714D01*
X130556000Y-94415428D01*
X130519714Y-94379142D01*
X130483428Y-94306571D01*
X130483428Y-94125142D01*
X130519714Y-94052571D01*
X130556000Y-94016285D01*
X130628571Y-93980000D01*
X130773714Y-93980000D01*
X130846285Y-94016285D01*
X130882571Y-94052571D01*
X130918857Y-94125142D01*
%TO.C,C70*%
X143237857Y-87140142D02*
X143274142Y-87176428D01*
X143383000Y-87212714D01*
X143455571Y-87212714D01*
X143564428Y-87176428D01*
X143637000Y-87103857D01*
X143673285Y-87031285D01*
X143709571Y-86886142D01*
X143709571Y-86777285D01*
X143673285Y-86632142D01*
X143637000Y-86559571D01*
X143564428Y-86487000D01*
X143455571Y-86450714D01*
X143383000Y-86450714D01*
X143274142Y-86487000D01*
X143237857Y-86523285D01*
X142983857Y-86450714D02*
X142475857Y-86450714D01*
X142802428Y-87212714D01*
X142040428Y-86450714D02*
X141967857Y-86450714D01*
X141895285Y-86487000D01*
X141859000Y-86523285D01*
X141822714Y-86595857D01*
X141786428Y-86741000D01*
X141786428Y-86922428D01*
X141822714Y-87067571D01*
X141859000Y-87140142D01*
X141895285Y-87176428D01*
X141967857Y-87212714D01*
X142040428Y-87212714D01*
X142113000Y-87176428D01*
X142149285Y-87140142D01*
X142185571Y-87067571D01*
X142221857Y-86922428D01*
X142221857Y-86741000D01*
X142185571Y-86595857D01*
X142149285Y-86523285D01*
X142113000Y-86487000D01*
X142040428Y-86450714D01*
%TO.C,C69*%
X122192142Y-89997642D02*
X122228428Y-89961357D01*
X122264714Y-89852500D01*
X122264714Y-89779928D01*
X122228428Y-89671071D01*
X122155857Y-89598500D01*
X122083285Y-89562214D01*
X121938142Y-89525928D01*
X121829285Y-89525928D01*
X121684142Y-89562214D01*
X121611571Y-89598500D01*
X121539000Y-89671071D01*
X121502714Y-89779928D01*
X121502714Y-89852500D01*
X121539000Y-89961357D01*
X121575285Y-89997642D01*
X121502714Y-90650785D02*
X121502714Y-90505642D01*
X121539000Y-90433071D01*
X121575285Y-90396785D01*
X121684142Y-90324214D01*
X121829285Y-90287928D01*
X122119571Y-90287928D01*
X122192142Y-90324214D01*
X122228428Y-90360500D01*
X122264714Y-90433071D01*
X122264714Y-90578214D01*
X122228428Y-90650785D01*
X122192142Y-90687071D01*
X122119571Y-90723357D01*
X121938142Y-90723357D01*
X121865571Y-90687071D01*
X121829285Y-90650785D01*
X121793000Y-90578214D01*
X121793000Y-90433071D01*
X121829285Y-90360500D01*
X121865571Y-90324214D01*
X121938142Y-90287928D01*
X122264714Y-91086214D02*
X122264714Y-91231357D01*
X122228428Y-91303928D01*
X122192142Y-91340214D01*
X122083285Y-91412785D01*
X121938142Y-91449071D01*
X121647857Y-91449071D01*
X121575285Y-91412785D01*
X121539000Y-91376500D01*
X121502714Y-91303928D01*
X121502714Y-91158785D01*
X121539000Y-91086214D01*
X121575285Y-91049928D01*
X121647857Y-91013642D01*
X121829285Y-91013642D01*
X121901857Y-91049928D01*
X121938142Y-91086214D01*
X121974428Y-91158785D01*
X121974428Y-91303928D01*
X121938142Y-91376500D01*
X121901857Y-91412785D01*
X121829285Y-91449071D01*
%TO.C,C65*%
X164954857Y-83965142D02*
X164991142Y-84001428D01*
X165100000Y-84037714D01*
X165172571Y-84037714D01*
X165281428Y-84001428D01*
X165354000Y-83928857D01*
X165390285Y-83856285D01*
X165426571Y-83711142D01*
X165426571Y-83602285D01*
X165390285Y-83457142D01*
X165354000Y-83384571D01*
X165281428Y-83312000D01*
X165172571Y-83275714D01*
X165100000Y-83275714D01*
X164991142Y-83312000D01*
X164954857Y-83348285D01*
X164301714Y-83275714D02*
X164446857Y-83275714D01*
X164519428Y-83312000D01*
X164555714Y-83348285D01*
X164628285Y-83457142D01*
X164664571Y-83602285D01*
X164664571Y-83892571D01*
X164628285Y-83965142D01*
X164592000Y-84001428D01*
X164519428Y-84037714D01*
X164374285Y-84037714D01*
X164301714Y-84001428D01*
X164265428Y-83965142D01*
X164229142Y-83892571D01*
X164229142Y-83711142D01*
X164265428Y-83638571D01*
X164301714Y-83602285D01*
X164374285Y-83566000D01*
X164519428Y-83566000D01*
X164592000Y-83602285D01*
X164628285Y-83638571D01*
X164664571Y-83711142D01*
X163539714Y-83275714D02*
X163902571Y-83275714D01*
X163938857Y-83638571D01*
X163902571Y-83602285D01*
X163830000Y-83566000D01*
X163648571Y-83566000D01*
X163576000Y-83602285D01*
X163539714Y-83638571D01*
X163503428Y-83711142D01*
X163503428Y-83892571D01*
X163539714Y-83965142D01*
X163576000Y-84001428D01*
X163648571Y-84037714D01*
X163830000Y-84037714D01*
X163902571Y-84001428D01*
X163938857Y-83965142D01*
%TO.C,L1*%
D25*
X125128261Y-66315166D02*
X125128261Y-66012785D01*
X124493261Y-66012785D01*
X125128261Y-66859452D02*
X125128261Y-66496595D01*
X125128261Y-66678023D02*
X124493261Y-66678023D01*
X124583976Y-66617547D01*
X124644452Y-66557071D01*
X124674690Y-66496595D01*
%TO.C,L11*%
D11*
X133585857Y-85180714D02*
X133948714Y-85180714D01*
X133948714Y-84418714D01*
X132932714Y-85180714D02*
X133368142Y-85180714D01*
X133150428Y-85180714D02*
X133150428Y-84418714D01*
X133223000Y-84527571D01*
X133295571Y-84600142D01*
X133368142Y-84636428D01*
X132207000Y-85180714D02*
X132642428Y-85180714D01*
X132424714Y-85180714D02*
X132424714Y-84418714D01*
X132497285Y-84527571D01*
X132569857Y-84600142D01*
X132642428Y-84636428D01*
%TO.C,L2*%
X160618714Y-93218000D02*
X160618714Y-92855142D01*
X159856714Y-92855142D01*
X159929285Y-93435714D02*
X159893000Y-93472000D01*
X159856714Y-93544571D01*
X159856714Y-93726000D01*
X159893000Y-93798571D01*
X159929285Y-93834857D01*
X160001857Y-93871142D01*
X160074428Y-93871142D01*
X160183285Y-93834857D01*
X160618714Y-93399428D01*
X160618714Y-93871142D01*
%TO.C,L10*%
X132932714Y-85870142D02*
X132932714Y-85507285D01*
X132170714Y-85507285D01*
X132932714Y-86523285D02*
X132932714Y-86087857D01*
X132932714Y-86305571D02*
X132170714Y-86305571D01*
X132279571Y-86233000D01*
X132352142Y-86160428D01*
X132388428Y-86087857D01*
X132170714Y-86995000D02*
X132170714Y-87067571D01*
X132207000Y-87140142D01*
X132243285Y-87176428D01*
X132315857Y-87212714D01*
X132461000Y-87249000D01*
X132642428Y-87249000D01*
X132787571Y-87212714D01*
X132860142Y-87176428D01*
X132896428Y-87140142D01*
X132932714Y-87067571D01*
X132932714Y-86995000D01*
X132896428Y-86922428D01*
X132860142Y-86886142D01*
X132787571Y-86849857D01*
X132642428Y-86813571D01*
X132461000Y-86813571D01*
X132315857Y-86849857D01*
X132243285Y-86886142D01*
X132207000Y-86922428D01*
X132170714Y-86995000D01*
%TO.C,L8*%
X160147000Y-84926714D02*
X160509857Y-84926714D01*
X160509857Y-84164714D01*
X159784142Y-84491285D02*
X159856714Y-84455000D01*
X159893000Y-84418714D01*
X159929285Y-84346142D01*
X159929285Y-84309857D01*
X159893000Y-84237285D01*
X159856714Y-84201000D01*
X159784142Y-84164714D01*
X159639000Y-84164714D01*
X159566428Y-84201000D01*
X159530142Y-84237285D01*
X159493857Y-84309857D01*
X159493857Y-84346142D01*
X159530142Y-84418714D01*
X159566428Y-84455000D01*
X159639000Y-84491285D01*
X159784142Y-84491285D01*
X159856714Y-84527571D01*
X159893000Y-84563857D01*
X159929285Y-84636428D01*
X159929285Y-84781571D01*
X159893000Y-84854142D01*
X159856714Y-84890428D01*
X159784142Y-84926714D01*
X159639000Y-84926714D01*
X159566428Y-84890428D01*
X159530142Y-84854142D01*
X159493857Y-84781571D01*
X159493857Y-84636428D01*
X159530142Y-84563857D01*
X159566428Y-84527571D01*
X159639000Y-84491285D01*
%TO.C,L9*%
X128233714Y-82931000D02*
X128233714Y-82568142D01*
X127471714Y-82568142D01*
X128233714Y-83221285D02*
X128233714Y-83366428D01*
X128197428Y-83439000D01*
X128161142Y-83475285D01*
X128052285Y-83547857D01*
X127907142Y-83584142D01*
X127616857Y-83584142D01*
X127544285Y-83547857D01*
X127508000Y-83511571D01*
X127471714Y-83439000D01*
X127471714Y-83293857D01*
X127508000Y-83221285D01*
X127544285Y-83185000D01*
X127616857Y-83148714D01*
X127798285Y-83148714D01*
X127870857Y-83185000D01*
X127907142Y-83221285D01*
X127943428Y-83293857D01*
X127943428Y-83439000D01*
X127907142Y-83511571D01*
X127870857Y-83547857D01*
X127798285Y-83584142D01*
%TO.C,RM4*%
X161788928Y-78259214D02*
X162042928Y-77896357D01*
X162224357Y-78259214D02*
X162224357Y-77497214D01*
X161934071Y-77497214D01*
X161861500Y-77533500D01*
X161825214Y-77569785D01*
X161788928Y-77642357D01*
X161788928Y-77751214D01*
X161825214Y-77823785D01*
X161861500Y-77860071D01*
X161934071Y-77896357D01*
X162224357Y-77896357D01*
X161462357Y-78259214D02*
X161462357Y-77497214D01*
X161208357Y-78041500D01*
X160954357Y-77497214D01*
X160954357Y-78259214D01*
X160264928Y-77751214D02*
X160264928Y-78259214D01*
X160446357Y-77460928D02*
X160627785Y-78005214D01*
X160156071Y-78005214D01*
%TO.C,RM3*%
X164138428Y-85434714D02*
X164392428Y-85071857D01*
X164573857Y-85434714D02*
X164573857Y-84672714D01*
X164283571Y-84672714D01*
X164211000Y-84709000D01*
X164174714Y-84745285D01*
X164138428Y-84817857D01*
X164138428Y-84926714D01*
X164174714Y-84999285D01*
X164211000Y-85035571D01*
X164283571Y-85071857D01*
X164573857Y-85071857D01*
X163811857Y-85434714D02*
X163811857Y-84672714D01*
X163557857Y-85217000D01*
X163303857Y-84672714D01*
X163303857Y-85434714D01*
X163013571Y-84672714D02*
X162541857Y-84672714D01*
X162795857Y-84963000D01*
X162687000Y-84963000D01*
X162614428Y-84999285D01*
X162578142Y-85035571D01*
X162541857Y-85108142D01*
X162541857Y-85289571D01*
X162578142Y-85362142D01*
X162614428Y-85398428D01*
X162687000Y-85434714D01*
X162904714Y-85434714D01*
X162977285Y-85398428D01*
X163013571Y-85362142D01*
%TO.C,RM2*%
D25*
X140622261Y-77509309D02*
X140319880Y-77297642D01*
X140622261Y-77146452D02*
X139987261Y-77146452D01*
X139987261Y-77388357D01*
X140017500Y-77448833D01*
X140047738Y-77479071D01*
X140108214Y-77509309D01*
X140198928Y-77509309D01*
X140259404Y-77479071D01*
X140289642Y-77448833D01*
X140319880Y-77388357D01*
X140319880Y-77146452D01*
X140622261Y-77781452D02*
X139987261Y-77781452D01*
X140440833Y-77993119D01*
X139987261Y-78204785D01*
X140622261Y-78204785D01*
X140047738Y-78476928D02*
X140017500Y-78507166D01*
X139987261Y-78567642D01*
X139987261Y-78718833D01*
X140017500Y-78779309D01*
X140047738Y-78809547D01*
X140108214Y-78839785D01*
X140168690Y-78839785D01*
X140259404Y-78809547D01*
X140622261Y-78446690D01*
X140622261Y-78839785D01*
%TO.C,RM1*%
X140622261Y-72429309D02*
X140319880Y-72217642D01*
X140622261Y-72066452D02*
X139987261Y-72066452D01*
X139987261Y-72308357D01*
X140017500Y-72368833D01*
X140047738Y-72399071D01*
X140108214Y-72429309D01*
X140198928Y-72429309D01*
X140259404Y-72399071D01*
X140289642Y-72368833D01*
X140319880Y-72308357D01*
X140319880Y-72066452D01*
X140622261Y-72701452D02*
X139987261Y-72701452D01*
X140440833Y-72913119D01*
X139987261Y-73124785D01*
X140622261Y-73124785D01*
X140622261Y-73759785D02*
X140622261Y-73396928D01*
X140622261Y-73578357D02*
X139987261Y-73578357D01*
X140077976Y-73517880D01*
X140138452Y-73457404D01*
X140168690Y-73396928D01*
%TO.C,R63*%
D11*
X161126714Y-69233142D02*
X160763857Y-68979142D01*
X161126714Y-68797714D02*
X160364714Y-68797714D01*
X160364714Y-69088000D01*
X160401000Y-69160571D01*
X160437285Y-69196857D01*
X160509857Y-69233142D01*
X160618714Y-69233142D01*
X160691285Y-69196857D01*
X160727571Y-69160571D01*
X160763857Y-69088000D01*
X160763857Y-68797714D01*
X160364714Y-69886285D02*
X160364714Y-69741142D01*
X160401000Y-69668571D01*
X160437285Y-69632285D01*
X160546142Y-69559714D01*
X160691285Y-69523428D01*
X160981571Y-69523428D01*
X161054142Y-69559714D01*
X161090428Y-69596000D01*
X161126714Y-69668571D01*
X161126714Y-69813714D01*
X161090428Y-69886285D01*
X161054142Y-69922571D01*
X160981571Y-69958857D01*
X160800142Y-69958857D01*
X160727571Y-69922571D01*
X160691285Y-69886285D01*
X160655000Y-69813714D01*
X160655000Y-69668571D01*
X160691285Y-69596000D01*
X160727571Y-69559714D01*
X160800142Y-69523428D01*
X160364714Y-70212857D02*
X160364714Y-70684571D01*
X160655000Y-70430571D01*
X160655000Y-70539428D01*
X160691285Y-70612000D01*
X160727571Y-70648285D01*
X160800142Y-70684571D01*
X160981571Y-70684571D01*
X161054142Y-70648285D01*
X161090428Y-70612000D01*
X161126714Y-70539428D01*
X161126714Y-70321714D01*
X161090428Y-70249142D01*
X161054142Y-70212857D01*
%TO.C,R62*%
X163666714Y-69106142D02*
X163303857Y-68852142D01*
X163666714Y-68670714D02*
X162904714Y-68670714D01*
X162904714Y-68961000D01*
X162941000Y-69033571D01*
X162977285Y-69069857D01*
X163049857Y-69106142D01*
X163158714Y-69106142D01*
X163231285Y-69069857D01*
X163267571Y-69033571D01*
X163303857Y-68961000D01*
X163303857Y-68670714D01*
X162904714Y-69759285D02*
X162904714Y-69614142D01*
X162941000Y-69541571D01*
X162977285Y-69505285D01*
X163086142Y-69432714D01*
X163231285Y-69396428D01*
X163521571Y-69396428D01*
X163594142Y-69432714D01*
X163630428Y-69469000D01*
X163666714Y-69541571D01*
X163666714Y-69686714D01*
X163630428Y-69759285D01*
X163594142Y-69795571D01*
X163521571Y-69831857D01*
X163340142Y-69831857D01*
X163267571Y-69795571D01*
X163231285Y-69759285D01*
X163195000Y-69686714D01*
X163195000Y-69541571D01*
X163231285Y-69469000D01*
X163267571Y-69432714D01*
X163340142Y-69396428D01*
X162977285Y-70122142D02*
X162941000Y-70158428D01*
X162904714Y-70231000D01*
X162904714Y-70412428D01*
X162941000Y-70485000D01*
X162977285Y-70521285D01*
X163049857Y-70557571D01*
X163122428Y-70557571D01*
X163231285Y-70521285D01*
X163666714Y-70085857D01*
X163666714Y-70557571D01*
%TO.C,R8*%
D25*
X135741833Y-82964261D02*
X135953500Y-82661880D01*
X136104690Y-82964261D02*
X136104690Y-82329261D01*
X135862785Y-82329261D01*
X135802309Y-82359500D01*
X135772071Y-82389738D01*
X135741833Y-82450214D01*
X135741833Y-82540928D01*
X135772071Y-82601404D01*
X135802309Y-82631642D01*
X135862785Y-82661880D01*
X136104690Y-82661880D01*
X135378976Y-82601404D02*
X135439452Y-82571166D01*
X135469690Y-82540928D01*
X135499928Y-82480452D01*
X135499928Y-82450214D01*
X135469690Y-82389738D01*
X135439452Y-82359500D01*
X135378976Y-82329261D01*
X135258023Y-82329261D01*
X135197547Y-82359500D01*
X135167309Y-82389738D01*
X135137071Y-82450214D01*
X135137071Y-82480452D01*
X135167309Y-82540928D01*
X135197547Y-82571166D01*
X135258023Y-82601404D01*
X135378976Y-82601404D01*
X135439452Y-82631642D01*
X135469690Y-82661880D01*
X135499928Y-82722357D01*
X135499928Y-82843309D01*
X135469690Y-82903785D01*
X135439452Y-82934023D01*
X135378976Y-82964261D01*
X135258023Y-82964261D01*
X135197547Y-82934023D01*
X135167309Y-82903785D01*
X135137071Y-82843309D01*
X135137071Y-82722357D01*
X135167309Y-82661880D01*
X135197547Y-82631642D01*
X135258023Y-82601404D01*
%TO.C,R61*%
X167344526Y-69706775D02*
X167708012Y-69642631D01*
X167601104Y-69963354D02*
X168050117Y-69514341D01*
X167879065Y-69343289D01*
X167814920Y-69321907D01*
X167772157Y-69321907D01*
X167708012Y-69343289D01*
X167643868Y-69407434D01*
X167622486Y-69471578D01*
X167622486Y-69514341D01*
X167643868Y-69578486D01*
X167814920Y-69749539D01*
X167408670Y-68872895D02*
X167494197Y-68958421D01*
X167515578Y-69022565D01*
X167515578Y-69065329D01*
X167494197Y-69172236D01*
X167430052Y-69279144D01*
X167259000Y-69450197D01*
X167194855Y-69471578D01*
X167152092Y-69471578D01*
X167087947Y-69450197D01*
X167002421Y-69364670D01*
X166981039Y-69300526D01*
X166981039Y-69257763D01*
X167002421Y-69193618D01*
X167109329Y-69086710D01*
X167173473Y-69065329D01*
X167216236Y-69065329D01*
X167280381Y-69086710D01*
X167365907Y-69172236D01*
X167387289Y-69236381D01*
X167387289Y-69279144D01*
X167365907Y-69343289D01*
X166489263Y-68851513D02*
X166745842Y-69108092D01*
X166617553Y-68979802D02*
X167066565Y-68530790D01*
X167045184Y-68637697D01*
X167045184Y-68723224D01*
X167066565Y-68787368D01*
%TO.C,R9*%
X140567833Y-75725261D02*
X140779500Y-75422880D01*
X140930690Y-75725261D02*
X140930690Y-75090261D01*
X140688785Y-75090261D01*
X140628309Y-75120500D01*
X140598071Y-75150738D01*
X140567833Y-75211214D01*
X140567833Y-75301928D01*
X140598071Y-75362404D01*
X140628309Y-75392642D01*
X140688785Y-75422880D01*
X140930690Y-75422880D01*
X140265452Y-75725261D02*
X140144500Y-75725261D01*
X140084023Y-75695023D01*
X140053785Y-75664785D01*
X139993309Y-75574071D01*
X139963071Y-75453119D01*
X139963071Y-75211214D01*
X139993309Y-75150738D01*
X140023547Y-75120500D01*
X140084023Y-75090261D01*
X140204976Y-75090261D01*
X140265452Y-75120500D01*
X140295690Y-75150738D01*
X140325928Y-75211214D01*
X140325928Y-75362404D01*
X140295690Y-75422880D01*
X140265452Y-75453119D01*
X140204976Y-75483357D01*
X140084023Y-75483357D01*
X140023547Y-75453119D01*
X139993309Y-75422880D01*
X139963071Y-75362404D01*
%TO.C,R10*%
D11*
X164319857Y-100293714D02*
X164573857Y-99930857D01*
X164755285Y-100293714D02*
X164755285Y-99531714D01*
X164465000Y-99531714D01*
X164392428Y-99568000D01*
X164356142Y-99604285D01*
X164319857Y-99676857D01*
X164319857Y-99785714D01*
X164356142Y-99858285D01*
X164392428Y-99894571D01*
X164465000Y-99930857D01*
X164755285Y-99930857D01*
X163594142Y-100293714D02*
X164029571Y-100293714D01*
X163811857Y-100293714D02*
X163811857Y-99531714D01*
X163884428Y-99640571D01*
X163957000Y-99713142D01*
X164029571Y-99749428D01*
X163122428Y-99531714D02*
X163049857Y-99531714D01*
X162977285Y-99568000D01*
X162941000Y-99604285D01*
X162904714Y-99676857D01*
X162868428Y-99822000D01*
X162868428Y-100003428D01*
X162904714Y-100148571D01*
X162941000Y-100221142D01*
X162977285Y-100257428D01*
X163049857Y-100293714D01*
X163122428Y-100293714D01*
X163195000Y-100257428D01*
X163231285Y-100221142D01*
X163267571Y-100148571D01*
X163303857Y-100003428D01*
X163303857Y-99822000D01*
X163267571Y-99676857D01*
X163231285Y-99604285D01*
X163195000Y-99568000D01*
X163122428Y-99531714D01*
%TO.C,R13*%
D25*
X137447261Y-84808785D02*
X137144880Y-84597119D01*
X137447261Y-84445928D02*
X136812261Y-84445928D01*
X136812261Y-84687833D01*
X136842500Y-84748309D01*
X136872738Y-84778547D01*
X136933214Y-84808785D01*
X137023928Y-84808785D01*
X137084404Y-84778547D01*
X137114642Y-84748309D01*
X137144880Y-84687833D01*
X137144880Y-84445928D01*
X137447261Y-85413547D02*
X137447261Y-85050690D01*
X137447261Y-85232119D02*
X136812261Y-85232119D01*
X136902976Y-85171642D01*
X136963452Y-85111166D01*
X136993690Y-85050690D01*
X136812261Y-85625214D02*
X136812261Y-86018309D01*
X137054166Y-85806642D01*
X137054166Y-85897357D01*
X137084404Y-85957833D01*
X137114642Y-85988071D01*
X137175119Y-86018309D01*
X137326309Y-86018309D01*
X137386785Y-85988071D01*
X137417023Y-85957833D01*
X137447261Y-85897357D01*
X137447261Y-85715928D01*
X137417023Y-85655452D01*
X137386785Y-85625214D01*
%TO.C,R60*%
X168614526Y-69706775D02*
X168978012Y-69642631D01*
X168871104Y-69963354D02*
X169320117Y-69514341D01*
X169149065Y-69343289D01*
X169084920Y-69321907D01*
X169042157Y-69321907D01*
X168978012Y-69343289D01*
X168913868Y-69407434D01*
X168892486Y-69471578D01*
X168892486Y-69514341D01*
X168913868Y-69578486D01*
X169084920Y-69749539D01*
X168678670Y-68872895D02*
X168764197Y-68958421D01*
X168785578Y-69022565D01*
X168785578Y-69065329D01*
X168764197Y-69172236D01*
X168700052Y-69279144D01*
X168529000Y-69450197D01*
X168464855Y-69471578D01*
X168422092Y-69471578D01*
X168357947Y-69450197D01*
X168272421Y-69364670D01*
X168251039Y-69300526D01*
X168251039Y-69257763D01*
X168272421Y-69193618D01*
X168379329Y-69086710D01*
X168443473Y-69065329D01*
X168486236Y-69065329D01*
X168550381Y-69086710D01*
X168635907Y-69172236D01*
X168657289Y-69236381D01*
X168657289Y-69279144D01*
X168635907Y-69343289D01*
X168357947Y-68552171D02*
X168315184Y-68509408D01*
X168251039Y-68488026D01*
X168208276Y-68488026D01*
X168144131Y-68509408D01*
X168037224Y-68573553D01*
X167930316Y-68680460D01*
X167866171Y-68787368D01*
X167844790Y-68851513D01*
X167844790Y-68894276D01*
X167866171Y-68958421D01*
X167908934Y-69001184D01*
X167973079Y-69022565D01*
X168015842Y-69022565D01*
X168079987Y-69001184D01*
X168186895Y-68937039D01*
X168293802Y-68830131D01*
X168357947Y-68723224D01*
X168379329Y-68659079D01*
X168379329Y-68616316D01*
X168357947Y-68552171D01*
%TO.C,R1*%
D11*
X166079714Y-104013000D02*
X165716857Y-103759000D01*
X166079714Y-103577571D02*
X165317714Y-103577571D01*
X165317714Y-103867857D01*
X165354000Y-103940428D01*
X165390285Y-103976714D01*
X165462857Y-104013000D01*
X165571714Y-104013000D01*
X165644285Y-103976714D01*
X165680571Y-103940428D01*
X165716857Y-103867857D01*
X165716857Y-103577571D01*
X166079714Y-104738714D02*
X166079714Y-104303285D01*
X166079714Y-104521000D02*
X165317714Y-104521000D01*
X165426571Y-104448428D01*
X165499142Y-104375857D01*
X165535428Y-104303285D01*
%TO.C,R3*%
X180811714Y-67056000D02*
X180448857Y-66802000D01*
X180811714Y-66620571D02*
X180049714Y-66620571D01*
X180049714Y-66910857D01*
X180086000Y-66983428D01*
X180122285Y-67019714D01*
X180194857Y-67056000D01*
X180303714Y-67056000D01*
X180376285Y-67019714D01*
X180412571Y-66983428D01*
X180448857Y-66910857D01*
X180448857Y-66620571D01*
X180049714Y-67310000D02*
X180049714Y-67781714D01*
X180340000Y-67527714D01*
X180340000Y-67636571D01*
X180376285Y-67709142D01*
X180412571Y-67745428D01*
X180485142Y-67781714D01*
X180666571Y-67781714D01*
X180739142Y-67745428D01*
X180775428Y-67709142D01*
X180811714Y-67636571D01*
X180811714Y-67418857D01*
X180775428Y-67346285D01*
X180739142Y-67310000D01*
%TO.C,R2*%
X178017714Y-67056000D02*
X177654857Y-66802000D01*
X178017714Y-66620571D02*
X177255714Y-66620571D01*
X177255714Y-66910857D01*
X177292000Y-66983428D01*
X177328285Y-67019714D01*
X177400857Y-67056000D01*
X177509714Y-67056000D01*
X177582285Y-67019714D01*
X177618571Y-66983428D01*
X177654857Y-66910857D01*
X177654857Y-66620571D01*
X177328285Y-67346285D02*
X177292000Y-67382571D01*
X177255714Y-67455142D01*
X177255714Y-67636571D01*
X177292000Y-67709142D01*
X177328285Y-67745428D01*
X177400857Y-67781714D01*
X177473428Y-67781714D01*
X177582285Y-67745428D01*
X178017714Y-67310000D01*
X178017714Y-67781714D01*
%TO.C,R11*%
X164319857Y-99023714D02*
X164573857Y-98660857D01*
X164755285Y-99023714D02*
X164755285Y-98261714D01*
X164465000Y-98261714D01*
X164392428Y-98298000D01*
X164356142Y-98334285D01*
X164319857Y-98406857D01*
X164319857Y-98515714D01*
X164356142Y-98588285D01*
X164392428Y-98624571D01*
X164465000Y-98660857D01*
X164755285Y-98660857D01*
X163594142Y-99023714D02*
X164029571Y-99023714D01*
X163811857Y-99023714D02*
X163811857Y-98261714D01*
X163884428Y-98370571D01*
X163957000Y-98443142D01*
X164029571Y-98479428D01*
X162868428Y-99023714D02*
X163303857Y-99023714D01*
X163086142Y-99023714D02*
X163086142Y-98261714D01*
X163158714Y-98370571D01*
X163231285Y-98443142D01*
X163303857Y-98479428D01*
%TO.C,R7*%
X136742714Y-103759000D02*
X136379857Y-103505000D01*
X136742714Y-103323571D02*
X135980714Y-103323571D01*
X135980714Y-103613857D01*
X136017000Y-103686428D01*
X136053285Y-103722714D01*
X136125857Y-103759000D01*
X136234714Y-103759000D01*
X136307285Y-103722714D01*
X136343571Y-103686428D01*
X136379857Y-103613857D01*
X136379857Y-103323571D01*
X135980714Y-104013000D02*
X135980714Y-104521000D01*
X136742714Y-104194428D01*
%TO.C,R12*%
X164319857Y-97753714D02*
X164573857Y-97390857D01*
X164755285Y-97753714D02*
X164755285Y-96991714D01*
X164465000Y-96991714D01*
X164392428Y-97028000D01*
X164356142Y-97064285D01*
X164319857Y-97136857D01*
X164319857Y-97245714D01*
X164356142Y-97318285D01*
X164392428Y-97354571D01*
X164465000Y-97390857D01*
X164755285Y-97390857D01*
X163594142Y-97753714D02*
X164029571Y-97753714D01*
X163811857Y-97753714D02*
X163811857Y-96991714D01*
X163884428Y-97100571D01*
X163957000Y-97173142D01*
X164029571Y-97209428D01*
X163303857Y-97064285D02*
X163267571Y-97028000D01*
X163195000Y-96991714D01*
X163013571Y-96991714D01*
X162941000Y-97028000D01*
X162904714Y-97064285D01*
X162868428Y-97136857D01*
X162868428Y-97209428D01*
X162904714Y-97318285D01*
X163340142Y-97753714D01*
X162868428Y-97753714D01*
%TO.C,R44*%
X145378714Y-99078142D02*
X145015857Y-98824142D01*
X145378714Y-98642714D02*
X144616714Y-98642714D01*
X144616714Y-98933000D01*
X144653000Y-99005571D01*
X144689285Y-99041857D01*
X144761857Y-99078142D01*
X144870714Y-99078142D01*
X144943285Y-99041857D01*
X144979571Y-99005571D01*
X145015857Y-98933000D01*
X145015857Y-98642714D01*
X144870714Y-99731285D02*
X145378714Y-99731285D01*
X144580428Y-99549857D02*
X145124714Y-99368428D01*
X145124714Y-99840142D01*
X144870714Y-100457000D02*
X145378714Y-100457000D01*
X144580428Y-100275571D02*
X145124714Y-100094142D01*
X145124714Y-100565857D01*
%TO.C,R46*%
X148807714Y-103523142D02*
X148444857Y-103269142D01*
X148807714Y-103087714D02*
X148045714Y-103087714D01*
X148045714Y-103378000D01*
X148082000Y-103450571D01*
X148118285Y-103486857D01*
X148190857Y-103523142D01*
X148299714Y-103523142D01*
X148372285Y-103486857D01*
X148408571Y-103450571D01*
X148444857Y-103378000D01*
X148444857Y-103087714D01*
X148299714Y-104176285D02*
X148807714Y-104176285D01*
X148009428Y-103994857D02*
X148553714Y-103813428D01*
X148553714Y-104285142D01*
X148045714Y-104902000D02*
X148045714Y-104756857D01*
X148082000Y-104684285D01*
X148118285Y-104648000D01*
X148227142Y-104575428D01*
X148372285Y-104539142D01*
X148662571Y-104539142D01*
X148735142Y-104575428D01*
X148771428Y-104611714D01*
X148807714Y-104684285D01*
X148807714Y-104829428D01*
X148771428Y-104902000D01*
X148735142Y-104938285D01*
X148662571Y-104974571D01*
X148481142Y-104974571D01*
X148408571Y-104938285D01*
X148372285Y-104902000D01*
X148336000Y-104829428D01*
X148336000Y-104684285D01*
X148372285Y-104611714D01*
X148408571Y-104575428D01*
X148481142Y-104539142D01*
%TO.C,R33*%
X155919714Y-91839142D02*
X155556857Y-91585142D01*
X155919714Y-91403714D02*
X155157714Y-91403714D01*
X155157714Y-91694000D01*
X155194000Y-91766571D01*
X155230285Y-91802857D01*
X155302857Y-91839142D01*
X155411714Y-91839142D01*
X155484285Y-91802857D01*
X155520571Y-91766571D01*
X155556857Y-91694000D01*
X155556857Y-91403714D01*
X155157714Y-92093142D02*
X155157714Y-92564857D01*
X155448000Y-92310857D01*
X155448000Y-92419714D01*
X155484285Y-92492285D01*
X155520571Y-92528571D01*
X155593142Y-92564857D01*
X155774571Y-92564857D01*
X155847142Y-92528571D01*
X155883428Y-92492285D01*
X155919714Y-92419714D01*
X155919714Y-92202000D01*
X155883428Y-92129428D01*
X155847142Y-92093142D01*
X155157714Y-92818857D02*
X155157714Y-93290571D01*
X155448000Y-93036571D01*
X155448000Y-93145428D01*
X155484285Y-93218000D01*
X155520571Y-93254285D01*
X155593142Y-93290571D01*
X155774571Y-93290571D01*
X155847142Y-93254285D01*
X155883428Y-93218000D01*
X155919714Y-93145428D01*
X155919714Y-92927714D01*
X155883428Y-92855142D01*
X155847142Y-92818857D01*
%TO.C,R32*%
D25*
X139092214Y-86266261D02*
X139303880Y-85963880D01*
X139455071Y-86266261D02*
X139455071Y-85631261D01*
X139213166Y-85631261D01*
X139152690Y-85661500D01*
X139122452Y-85691738D01*
X139092214Y-85752214D01*
X139092214Y-85842928D01*
X139122452Y-85903404D01*
X139152690Y-85933642D01*
X139213166Y-85963880D01*
X139455071Y-85963880D01*
X138880547Y-85631261D02*
X138487452Y-85631261D01*
X138699119Y-85873166D01*
X138608404Y-85873166D01*
X138547928Y-85903404D01*
X138517690Y-85933642D01*
X138487452Y-85994119D01*
X138487452Y-86145309D01*
X138517690Y-86205785D01*
X138547928Y-86236023D01*
X138608404Y-86266261D01*
X138789833Y-86266261D01*
X138850309Y-86236023D01*
X138880547Y-86205785D01*
X138245547Y-85691738D02*
X138215309Y-85661500D01*
X138154833Y-85631261D01*
X138003642Y-85631261D01*
X137943166Y-85661500D01*
X137912928Y-85691738D01*
X137882690Y-85752214D01*
X137882690Y-85812690D01*
X137912928Y-85903404D01*
X138275785Y-86266261D01*
X137882690Y-86266261D01*
%TO.C,R30*%
D11*
X164319857Y-71845714D02*
X164573857Y-71482857D01*
X164755285Y-71845714D02*
X164755285Y-71083714D01*
X164465000Y-71083714D01*
X164392428Y-71120000D01*
X164356142Y-71156285D01*
X164319857Y-71228857D01*
X164319857Y-71337714D01*
X164356142Y-71410285D01*
X164392428Y-71446571D01*
X164465000Y-71482857D01*
X164755285Y-71482857D01*
X164065857Y-71083714D02*
X163594142Y-71083714D01*
X163848142Y-71374000D01*
X163739285Y-71374000D01*
X163666714Y-71410285D01*
X163630428Y-71446571D01*
X163594142Y-71519142D01*
X163594142Y-71700571D01*
X163630428Y-71773142D01*
X163666714Y-71809428D01*
X163739285Y-71845714D01*
X163957000Y-71845714D01*
X164029571Y-71809428D01*
X164065857Y-71773142D01*
X163122428Y-71083714D02*
X163049857Y-71083714D01*
X162977285Y-71120000D01*
X162941000Y-71156285D01*
X162904714Y-71228857D01*
X162868428Y-71374000D01*
X162868428Y-71555428D01*
X162904714Y-71700571D01*
X162941000Y-71773142D01*
X162977285Y-71809428D01*
X163049857Y-71845714D01*
X163122428Y-71845714D01*
X163195000Y-71809428D01*
X163231285Y-71773142D01*
X163267571Y-71700571D01*
X163303857Y-71555428D01*
X163303857Y-71374000D01*
X163267571Y-71228857D01*
X163231285Y-71156285D01*
X163195000Y-71120000D01*
X163122428Y-71083714D01*
%TO.C,R41*%
X127616857Y-97245714D02*
X127870857Y-96882857D01*
X128052285Y-97245714D02*
X128052285Y-96483714D01*
X127762000Y-96483714D01*
X127689428Y-96520000D01*
X127653142Y-96556285D01*
X127616857Y-96628857D01*
X127616857Y-96737714D01*
X127653142Y-96810285D01*
X127689428Y-96846571D01*
X127762000Y-96882857D01*
X128052285Y-96882857D01*
X126963714Y-96737714D02*
X126963714Y-97245714D01*
X127145142Y-96447428D02*
X127326571Y-96991714D01*
X126854857Y-96991714D01*
X126165428Y-97245714D02*
X126600857Y-97245714D01*
X126383142Y-97245714D02*
X126383142Y-96483714D01*
X126455714Y-96592571D01*
X126528285Y-96665142D01*
X126600857Y-96701428D01*
%TO.C,R51*%
X160491714Y-79774142D02*
X160128857Y-79520142D01*
X160491714Y-79338714D02*
X159729714Y-79338714D01*
X159729714Y-79629000D01*
X159766000Y-79701571D01*
X159802285Y-79737857D01*
X159874857Y-79774142D01*
X159983714Y-79774142D01*
X160056285Y-79737857D01*
X160092571Y-79701571D01*
X160128857Y-79629000D01*
X160128857Y-79338714D01*
X159729714Y-80463571D02*
X159729714Y-80100714D01*
X160092571Y-80064428D01*
X160056285Y-80100714D01*
X160020000Y-80173285D01*
X160020000Y-80354714D01*
X160056285Y-80427285D01*
X160092571Y-80463571D01*
X160165142Y-80499857D01*
X160346571Y-80499857D01*
X160419142Y-80463571D01*
X160455428Y-80427285D01*
X160491714Y-80354714D01*
X160491714Y-80173285D01*
X160455428Y-80100714D01*
X160419142Y-80064428D01*
X160491714Y-81225571D02*
X160491714Y-80790142D01*
X160491714Y-81007857D02*
X159729714Y-81007857D01*
X159838571Y-80935285D01*
X159911142Y-80862714D01*
X159947428Y-80790142D01*
%TO.C,R55*%
X143237857Y-82640714D02*
X143491857Y-82277857D01*
X143673285Y-82640714D02*
X143673285Y-81878714D01*
X143383000Y-81878714D01*
X143310428Y-81915000D01*
X143274142Y-81951285D01*
X143237857Y-82023857D01*
X143237857Y-82132714D01*
X143274142Y-82205285D01*
X143310428Y-82241571D01*
X143383000Y-82277857D01*
X143673285Y-82277857D01*
X142548428Y-81878714D02*
X142911285Y-81878714D01*
X142947571Y-82241571D01*
X142911285Y-82205285D01*
X142838714Y-82169000D01*
X142657285Y-82169000D01*
X142584714Y-82205285D01*
X142548428Y-82241571D01*
X142512142Y-82314142D01*
X142512142Y-82495571D01*
X142548428Y-82568142D01*
X142584714Y-82604428D01*
X142657285Y-82640714D01*
X142838714Y-82640714D01*
X142911285Y-82604428D01*
X142947571Y-82568142D01*
X141822714Y-81878714D02*
X142185571Y-81878714D01*
X142221857Y-82241571D01*
X142185571Y-82205285D01*
X142113000Y-82169000D01*
X141931571Y-82169000D01*
X141859000Y-82205285D01*
X141822714Y-82241571D01*
X141786428Y-82314142D01*
X141786428Y-82495571D01*
X141822714Y-82568142D01*
X141859000Y-82604428D01*
X141931571Y-82640714D01*
X142113000Y-82640714D01*
X142185571Y-82604428D01*
X142221857Y-82568142D01*
%TO.C,R54*%
X143237857Y-84926714D02*
X143491857Y-84563857D01*
X143673285Y-84926714D02*
X143673285Y-84164714D01*
X143383000Y-84164714D01*
X143310428Y-84201000D01*
X143274142Y-84237285D01*
X143237857Y-84309857D01*
X143237857Y-84418714D01*
X143274142Y-84491285D01*
X143310428Y-84527571D01*
X143383000Y-84563857D01*
X143673285Y-84563857D01*
X142548428Y-84164714D02*
X142911285Y-84164714D01*
X142947571Y-84527571D01*
X142911285Y-84491285D01*
X142838714Y-84455000D01*
X142657285Y-84455000D01*
X142584714Y-84491285D01*
X142548428Y-84527571D01*
X142512142Y-84600142D01*
X142512142Y-84781571D01*
X142548428Y-84854142D01*
X142584714Y-84890428D01*
X142657285Y-84926714D01*
X142838714Y-84926714D01*
X142911285Y-84890428D01*
X142947571Y-84854142D01*
X141859000Y-84418714D02*
X141859000Y-84926714D01*
X142040428Y-84128428D02*
X142221857Y-84672714D01*
X141750142Y-84672714D01*
%TO.C,R52*%
X158858857Y-81243714D02*
X159112857Y-80880857D01*
X159294285Y-81243714D02*
X159294285Y-80481714D01*
X159004000Y-80481714D01*
X158931428Y-80518000D01*
X158895142Y-80554285D01*
X158858857Y-80626857D01*
X158858857Y-80735714D01*
X158895142Y-80808285D01*
X158931428Y-80844571D01*
X159004000Y-80880857D01*
X159294285Y-80880857D01*
X158169428Y-80481714D02*
X158532285Y-80481714D01*
X158568571Y-80844571D01*
X158532285Y-80808285D01*
X158459714Y-80772000D01*
X158278285Y-80772000D01*
X158205714Y-80808285D01*
X158169428Y-80844571D01*
X158133142Y-80917142D01*
X158133142Y-81098571D01*
X158169428Y-81171142D01*
X158205714Y-81207428D01*
X158278285Y-81243714D01*
X158459714Y-81243714D01*
X158532285Y-81207428D01*
X158568571Y-81171142D01*
X157842857Y-80554285D02*
X157806571Y-80518000D01*
X157734000Y-80481714D01*
X157552571Y-80481714D01*
X157480000Y-80518000D01*
X157443714Y-80554285D01*
X157407428Y-80626857D01*
X157407428Y-80699428D01*
X157443714Y-80808285D01*
X157879142Y-81243714D01*
X157407428Y-81243714D01*
%TO.C,R29*%
X162269714Y-81552142D02*
X161906857Y-81298142D01*
X162269714Y-81116714D02*
X161507714Y-81116714D01*
X161507714Y-81407000D01*
X161544000Y-81479571D01*
X161580285Y-81515857D01*
X161652857Y-81552142D01*
X161761714Y-81552142D01*
X161834285Y-81515857D01*
X161870571Y-81479571D01*
X161906857Y-81407000D01*
X161906857Y-81116714D01*
X161580285Y-81842428D02*
X161544000Y-81878714D01*
X161507714Y-81951285D01*
X161507714Y-82132714D01*
X161544000Y-82205285D01*
X161580285Y-82241571D01*
X161652857Y-82277857D01*
X161725428Y-82277857D01*
X161834285Y-82241571D01*
X162269714Y-81806142D01*
X162269714Y-82277857D01*
X162269714Y-82640714D02*
X162269714Y-82785857D01*
X162233428Y-82858428D01*
X162197142Y-82894714D01*
X162088285Y-82967285D01*
X161943142Y-83003571D01*
X161652857Y-83003571D01*
X161580285Y-82967285D01*
X161544000Y-82931000D01*
X161507714Y-82858428D01*
X161507714Y-82713285D01*
X161544000Y-82640714D01*
X161580285Y-82604428D01*
X161652857Y-82568142D01*
X161834285Y-82568142D01*
X161906857Y-82604428D01*
X161943142Y-82640714D01*
X161979428Y-82713285D01*
X161979428Y-82858428D01*
X161943142Y-82931000D01*
X161906857Y-82967285D01*
X161834285Y-83003571D01*
%TO.C,R45*%
X159348714Y-82187142D02*
X158985857Y-81933142D01*
X159348714Y-81751714D02*
X158586714Y-81751714D01*
X158586714Y-82042000D01*
X158623000Y-82114571D01*
X158659285Y-82150857D01*
X158731857Y-82187142D01*
X158840714Y-82187142D01*
X158913285Y-82150857D01*
X158949571Y-82114571D01*
X158985857Y-82042000D01*
X158985857Y-81751714D01*
X158840714Y-82840285D02*
X159348714Y-82840285D01*
X158550428Y-82658857D02*
X159094714Y-82477428D01*
X159094714Y-82949142D01*
X158586714Y-83602285D02*
X158586714Y-83239428D01*
X158949571Y-83203142D01*
X158913285Y-83239428D01*
X158877000Y-83312000D01*
X158877000Y-83493428D01*
X158913285Y-83566000D01*
X158949571Y-83602285D01*
X159022142Y-83638571D01*
X159203571Y-83638571D01*
X159276142Y-83602285D01*
X159312428Y-83566000D01*
X159348714Y-83493428D01*
X159348714Y-83312000D01*
X159312428Y-83239428D01*
X159276142Y-83203142D01*
%TO.C,R39*%
X124441857Y-97245714D02*
X124695857Y-96882857D01*
X124877285Y-97245714D02*
X124877285Y-96483714D01*
X124587000Y-96483714D01*
X124514428Y-96520000D01*
X124478142Y-96556285D01*
X124441857Y-96628857D01*
X124441857Y-96737714D01*
X124478142Y-96810285D01*
X124514428Y-96846571D01*
X124587000Y-96882857D01*
X124877285Y-96882857D01*
X124187857Y-96483714D02*
X123716142Y-96483714D01*
X123970142Y-96774000D01*
X123861285Y-96774000D01*
X123788714Y-96810285D01*
X123752428Y-96846571D01*
X123716142Y-96919142D01*
X123716142Y-97100571D01*
X123752428Y-97173142D01*
X123788714Y-97209428D01*
X123861285Y-97245714D01*
X124079000Y-97245714D01*
X124151571Y-97209428D01*
X124187857Y-97173142D01*
X123353285Y-97245714D02*
X123208142Y-97245714D01*
X123135571Y-97209428D01*
X123099285Y-97173142D01*
X123026714Y-97064285D01*
X122990428Y-96919142D01*
X122990428Y-96628857D01*
X123026714Y-96556285D01*
X123063000Y-96520000D01*
X123135571Y-96483714D01*
X123280714Y-96483714D01*
X123353285Y-96520000D01*
X123389571Y-96556285D01*
X123425857Y-96628857D01*
X123425857Y-96810285D01*
X123389571Y-96882857D01*
X123353285Y-96919142D01*
X123280714Y-96955428D01*
X123135571Y-96955428D01*
X123063000Y-96919142D01*
X123026714Y-96882857D01*
X122990428Y-96810285D01*
%TO.C,R47*%
X157588857Y-83656714D02*
X157842857Y-83293857D01*
X158024285Y-83656714D02*
X158024285Y-82894714D01*
X157734000Y-82894714D01*
X157661428Y-82931000D01*
X157625142Y-82967285D01*
X157588857Y-83039857D01*
X157588857Y-83148714D01*
X157625142Y-83221285D01*
X157661428Y-83257571D01*
X157734000Y-83293857D01*
X158024285Y-83293857D01*
X156935714Y-83148714D02*
X156935714Y-83656714D01*
X157117142Y-82858428D02*
X157298571Y-83402714D01*
X156826857Y-83402714D01*
X156609142Y-82894714D02*
X156101142Y-82894714D01*
X156427714Y-83656714D01*
%TO.C,R17*%
X136996714Y-100729142D02*
X136633857Y-100475142D01*
X136996714Y-100293714D02*
X136234714Y-100293714D01*
X136234714Y-100584000D01*
X136271000Y-100656571D01*
X136307285Y-100692857D01*
X136379857Y-100729142D01*
X136488714Y-100729142D01*
X136561285Y-100692857D01*
X136597571Y-100656571D01*
X136633857Y-100584000D01*
X136633857Y-100293714D01*
X136996714Y-101454857D02*
X136996714Y-101019428D01*
X136996714Y-101237142D02*
X136234714Y-101237142D01*
X136343571Y-101164571D01*
X136416142Y-101092000D01*
X136452428Y-101019428D01*
X136234714Y-101708857D02*
X136234714Y-102216857D01*
X136996714Y-101890285D01*
%TO.C,R40*%
X145378714Y-96665142D02*
X145015857Y-96411142D01*
X145378714Y-96229714D02*
X144616714Y-96229714D01*
X144616714Y-96520000D01*
X144653000Y-96592571D01*
X144689285Y-96628857D01*
X144761857Y-96665142D01*
X144870714Y-96665142D01*
X144943285Y-96628857D01*
X144979571Y-96592571D01*
X145015857Y-96520000D01*
X145015857Y-96229714D01*
X144870714Y-97318285D02*
X145378714Y-97318285D01*
X144580428Y-97136857D02*
X145124714Y-96955428D01*
X145124714Y-97427142D01*
X144616714Y-97862571D02*
X144616714Y-97935142D01*
X144653000Y-98007714D01*
X144689285Y-98044000D01*
X144761857Y-98080285D01*
X144907000Y-98116571D01*
X145088428Y-98116571D01*
X145233571Y-98080285D01*
X145306142Y-98044000D01*
X145342428Y-98007714D01*
X145378714Y-97935142D01*
X145378714Y-97862571D01*
X145342428Y-97790000D01*
X145306142Y-97753714D01*
X145233571Y-97717428D01*
X145088428Y-97681142D01*
X144907000Y-97681142D01*
X144761857Y-97717428D01*
X144689285Y-97753714D01*
X144653000Y-97790000D01*
X144616714Y-97862571D01*
%TO.C,R24*%
X144126857Y-93181714D02*
X144380857Y-92818857D01*
X144562285Y-93181714D02*
X144562285Y-92419714D01*
X144272000Y-92419714D01*
X144199428Y-92456000D01*
X144163142Y-92492285D01*
X144126857Y-92564857D01*
X144126857Y-92673714D01*
X144163142Y-92746285D01*
X144199428Y-92782571D01*
X144272000Y-92818857D01*
X144562285Y-92818857D01*
X143836571Y-92492285D02*
X143800285Y-92456000D01*
X143727714Y-92419714D01*
X143546285Y-92419714D01*
X143473714Y-92456000D01*
X143437428Y-92492285D01*
X143401142Y-92564857D01*
X143401142Y-92637428D01*
X143437428Y-92746285D01*
X143872857Y-93181714D01*
X143401142Y-93181714D01*
X142748000Y-92673714D02*
X142748000Y-93181714D01*
X142929428Y-92383428D02*
X143110857Y-92927714D01*
X142639142Y-92927714D01*
%TO.C,R25*%
X144126857Y-94451714D02*
X144380857Y-94088857D01*
X144562285Y-94451714D02*
X144562285Y-93689714D01*
X144272000Y-93689714D01*
X144199428Y-93726000D01*
X144163142Y-93762285D01*
X144126857Y-93834857D01*
X144126857Y-93943714D01*
X144163142Y-94016285D01*
X144199428Y-94052571D01*
X144272000Y-94088857D01*
X144562285Y-94088857D01*
X143836571Y-93762285D02*
X143800285Y-93726000D01*
X143727714Y-93689714D01*
X143546285Y-93689714D01*
X143473714Y-93726000D01*
X143437428Y-93762285D01*
X143401142Y-93834857D01*
X143401142Y-93907428D01*
X143437428Y-94016285D01*
X143872857Y-94451714D01*
X143401142Y-94451714D01*
X142711714Y-93689714D02*
X143074571Y-93689714D01*
X143110857Y-94052571D01*
X143074571Y-94016285D01*
X143002000Y-93980000D01*
X142820571Y-93980000D01*
X142748000Y-94016285D01*
X142711714Y-94052571D01*
X142675428Y-94125142D01*
X142675428Y-94306571D01*
X142711714Y-94379142D01*
X142748000Y-94415428D01*
X142820571Y-94451714D01*
X143002000Y-94451714D01*
X143074571Y-94415428D01*
X143110857Y-94379142D01*
%TO.C,R37*%
X130265714Y-100856142D02*
X129902857Y-100602142D01*
X130265714Y-100420714D02*
X129503714Y-100420714D01*
X129503714Y-100711000D01*
X129540000Y-100783571D01*
X129576285Y-100819857D01*
X129648857Y-100856142D01*
X129757714Y-100856142D01*
X129830285Y-100819857D01*
X129866571Y-100783571D01*
X129902857Y-100711000D01*
X129902857Y-100420714D01*
X129503714Y-101110142D02*
X129503714Y-101581857D01*
X129794000Y-101327857D01*
X129794000Y-101436714D01*
X129830285Y-101509285D01*
X129866571Y-101545571D01*
X129939142Y-101581857D01*
X130120571Y-101581857D01*
X130193142Y-101545571D01*
X130229428Y-101509285D01*
X130265714Y-101436714D01*
X130265714Y-101219000D01*
X130229428Y-101146428D01*
X130193142Y-101110142D01*
X129503714Y-101835857D02*
X129503714Y-102343857D01*
X130265714Y-102017285D01*
%TO.C,R35*%
X132678714Y-100856142D02*
X132315857Y-100602142D01*
X132678714Y-100420714D02*
X131916714Y-100420714D01*
X131916714Y-100711000D01*
X131953000Y-100783571D01*
X131989285Y-100819857D01*
X132061857Y-100856142D01*
X132170714Y-100856142D01*
X132243285Y-100819857D01*
X132279571Y-100783571D01*
X132315857Y-100711000D01*
X132315857Y-100420714D01*
X131916714Y-101110142D02*
X131916714Y-101581857D01*
X132207000Y-101327857D01*
X132207000Y-101436714D01*
X132243285Y-101509285D01*
X132279571Y-101545571D01*
X132352142Y-101581857D01*
X132533571Y-101581857D01*
X132606142Y-101545571D01*
X132642428Y-101509285D01*
X132678714Y-101436714D01*
X132678714Y-101219000D01*
X132642428Y-101146428D01*
X132606142Y-101110142D01*
X131916714Y-102271285D02*
X131916714Y-101908428D01*
X132279571Y-101872142D01*
X132243285Y-101908428D01*
X132207000Y-101981000D01*
X132207000Y-102162428D01*
X132243285Y-102235000D01*
X132279571Y-102271285D01*
X132352142Y-102307571D01*
X132533571Y-102307571D01*
X132606142Y-102271285D01*
X132642428Y-102235000D01*
X132678714Y-102162428D01*
X132678714Y-101981000D01*
X132642428Y-101908428D01*
X132606142Y-101872142D01*
%TO.C,R36*%
X131535714Y-100856142D02*
X131172857Y-100602142D01*
X131535714Y-100420714D02*
X130773714Y-100420714D01*
X130773714Y-100711000D01*
X130810000Y-100783571D01*
X130846285Y-100819857D01*
X130918857Y-100856142D01*
X131027714Y-100856142D01*
X131100285Y-100819857D01*
X131136571Y-100783571D01*
X131172857Y-100711000D01*
X131172857Y-100420714D01*
X130773714Y-101110142D02*
X130773714Y-101581857D01*
X131064000Y-101327857D01*
X131064000Y-101436714D01*
X131100285Y-101509285D01*
X131136571Y-101545571D01*
X131209142Y-101581857D01*
X131390571Y-101581857D01*
X131463142Y-101545571D01*
X131499428Y-101509285D01*
X131535714Y-101436714D01*
X131535714Y-101219000D01*
X131499428Y-101146428D01*
X131463142Y-101110142D01*
X130773714Y-102235000D02*
X130773714Y-102089857D01*
X130810000Y-102017285D01*
X130846285Y-101981000D01*
X130955142Y-101908428D01*
X131100285Y-101872142D01*
X131390571Y-101872142D01*
X131463142Y-101908428D01*
X131499428Y-101944714D01*
X131535714Y-102017285D01*
X131535714Y-102162428D01*
X131499428Y-102235000D01*
X131463142Y-102271285D01*
X131390571Y-102307571D01*
X131209142Y-102307571D01*
X131136571Y-102271285D01*
X131100285Y-102235000D01*
X131064000Y-102162428D01*
X131064000Y-102017285D01*
X131100285Y-101944714D01*
X131136571Y-101908428D01*
X131209142Y-101872142D01*
%TO.C,R22*%
D25*
X140997214Y-82075261D02*
X141208880Y-81772880D01*
X141360071Y-82075261D02*
X141360071Y-81440261D01*
X141118166Y-81440261D01*
X141057690Y-81470500D01*
X141027452Y-81500738D01*
X140997214Y-81561214D01*
X140997214Y-81651928D01*
X141027452Y-81712404D01*
X141057690Y-81742642D01*
X141118166Y-81772880D01*
X141360071Y-81772880D01*
X140755309Y-81500738D02*
X140725071Y-81470500D01*
X140664595Y-81440261D01*
X140513404Y-81440261D01*
X140452928Y-81470500D01*
X140422690Y-81500738D01*
X140392452Y-81561214D01*
X140392452Y-81621690D01*
X140422690Y-81712404D01*
X140785547Y-82075261D01*
X140392452Y-82075261D01*
X140150547Y-81500738D02*
X140120309Y-81470500D01*
X140059833Y-81440261D01*
X139908642Y-81440261D01*
X139848166Y-81470500D01*
X139817928Y-81500738D01*
X139787690Y-81561214D01*
X139787690Y-81621690D01*
X139817928Y-81712404D01*
X140180785Y-82075261D01*
X139787690Y-82075261D01*
%TO.C,R48*%
D11*
X128995714Y-100856142D02*
X128632857Y-100602142D01*
X128995714Y-100420714D02*
X128233714Y-100420714D01*
X128233714Y-100711000D01*
X128270000Y-100783571D01*
X128306285Y-100819857D01*
X128378857Y-100856142D01*
X128487714Y-100856142D01*
X128560285Y-100819857D01*
X128596571Y-100783571D01*
X128632857Y-100711000D01*
X128632857Y-100420714D01*
X128487714Y-101509285D02*
X128995714Y-101509285D01*
X128197428Y-101327857D02*
X128741714Y-101146428D01*
X128741714Y-101618142D01*
X128560285Y-102017285D02*
X128524000Y-101944714D01*
X128487714Y-101908428D01*
X128415142Y-101872142D01*
X128378857Y-101872142D01*
X128306285Y-101908428D01*
X128270000Y-101944714D01*
X128233714Y-102017285D01*
X128233714Y-102162428D01*
X128270000Y-102235000D01*
X128306285Y-102271285D01*
X128378857Y-102307571D01*
X128415142Y-102307571D01*
X128487714Y-102271285D01*
X128524000Y-102235000D01*
X128560285Y-102162428D01*
X128560285Y-102017285D01*
X128596571Y-101944714D01*
X128632857Y-101908428D01*
X128705428Y-101872142D01*
X128850571Y-101872142D01*
X128923142Y-101908428D01*
X128959428Y-101944714D01*
X128995714Y-102017285D01*
X128995714Y-102162428D01*
X128959428Y-102235000D01*
X128923142Y-102271285D01*
X128850571Y-102307571D01*
X128705428Y-102307571D01*
X128632857Y-102271285D01*
X128596571Y-102235000D01*
X128560285Y-102162428D01*
%TO.C,R26*%
X144126857Y-91911714D02*
X144380857Y-91548857D01*
X144562285Y-91911714D02*
X144562285Y-91149714D01*
X144272000Y-91149714D01*
X144199428Y-91186000D01*
X144163142Y-91222285D01*
X144126857Y-91294857D01*
X144126857Y-91403714D01*
X144163142Y-91476285D01*
X144199428Y-91512571D01*
X144272000Y-91548857D01*
X144562285Y-91548857D01*
X143836571Y-91222285D02*
X143800285Y-91186000D01*
X143727714Y-91149714D01*
X143546285Y-91149714D01*
X143473714Y-91186000D01*
X143437428Y-91222285D01*
X143401142Y-91294857D01*
X143401142Y-91367428D01*
X143437428Y-91476285D01*
X143872857Y-91911714D01*
X143401142Y-91911714D01*
X142748000Y-91149714D02*
X142893142Y-91149714D01*
X142965714Y-91186000D01*
X143002000Y-91222285D01*
X143074571Y-91331142D01*
X143110857Y-91476285D01*
X143110857Y-91766571D01*
X143074571Y-91839142D01*
X143038285Y-91875428D01*
X142965714Y-91911714D01*
X142820571Y-91911714D01*
X142748000Y-91875428D01*
X142711714Y-91839142D01*
X142675428Y-91766571D01*
X142675428Y-91585142D01*
X142711714Y-91512571D01*
X142748000Y-91476285D01*
X142820571Y-91440000D01*
X142965714Y-91440000D01*
X143038285Y-91476285D01*
X143074571Y-91512571D01*
X143110857Y-91585142D01*
%TO.C,R38*%
X142348857Y-89244714D02*
X142602857Y-88881857D01*
X142784285Y-89244714D02*
X142784285Y-88482714D01*
X142494000Y-88482714D01*
X142421428Y-88519000D01*
X142385142Y-88555285D01*
X142348857Y-88627857D01*
X142348857Y-88736714D01*
X142385142Y-88809285D01*
X142421428Y-88845571D01*
X142494000Y-88881857D01*
X142784285Y-88881857D01*
X142094857Y-88482714D02*
X141623142Y-88482714D01*
X141877142Y-88773000D01*
X141768285Y-88773000D01*
X141695714Y-88809285D01*
X141659428Y-88845571D01*
X141623142Y-88918142D01*
X141623142Y-89099571D01*
X141659428Y-89172142D01*
X141695714Y-89208428D01*
X141768285Y-89244714D01*
X141986000Y-89244714D01*
X142058571Y-89208428D01*
X142094857Y-89172142D01*
X141187714Y-88809285D02*
X141260285Y-88773000D01*
X141296571Y-88736714D01*
X141332857Y-88664142D01*
X141332857Y-88627857D01*
X141296571Y-88555285D01*
X141260285Y-88519000D01*
X141187714Y-88482714D01*
X141042571Y-88482714D01*
X140970000Y-88519000D01*
X140933714Y-88555285D01*
X140897428Y-88627857D01*
X140897428Y-88664142D01*
X140933714Y-88736714D01*
X140970000Y-88773000D01*
X141042571Y-88809285D01*
X141187714Y-88809285D01*
X141260285Y-88845571D01*
X141296571Y-88881857D01*
X141332857Y-88954428D01*
X141332857Y-89099571D01*
X141296571Y-89172142D01*
X141260285Y-89208428D01*
X141187714Y-89244714D01*
X141042571Y-89244714D01*
X140970000Y-89208428D01*
X140933714Y-89172142D01*
X140897428Y-89099571D01*
X140897428Y-88954428D01*
X140933714Y-88881857D01*
X140970000Y-88845571D01*
X141042571Y-88809285D01*
%TO.C,FET1*%
X144526000Y-109165571D02*
X144780000Y-109165571D01*
X144780000Y-109564714D02*
X144780000Y-108802714D01*
X144417142Y-108802714D01*
X144126857Y-109165571D02*
X143872857Y-109165571D01*
X143764000Y-109564714D02*
X144126857Y-109564714D01*
X144126857Y-108802714D01*
X143764000Y-108802714D01*
X143546285Y-108802714D02*
X143110857Y-108802714D01*
X143328571Y-109564714D02*
X143328571Y-108802714D01*
X142457714Y-109564714D02*
X142893142Y-109564714D01*
X142675428Y-109564714D02*
X142675428Y-108802714D01*
X142748000Y-108911571D01*
X142820571Y-108984142D01*
X142893142Y-109020428D01*
%TO.C,Sign-RoHS*%
D26*
X157037193Y-71297800D02*
X157121860Y-71382466D01*
X157375860Y-71467133D01*
X157545193Y-71467133D01*
X157799193Y-71382466D01*
X157968526Y-71213133D01*
X158053193Y-71043800D01*
X158137860Y-70705133D01*
X158137860Y-70451133D01*
X158053193Y-70112466D01*
X157968526Y-69943133D01*
X157799193Y-69773800D01*
X157545193Y-69689133D01*
X157375860Y-69689133D01*
X157121860Y-69773800D01*
X157037193Y-69858466D01*
X156021193Y-71467133D02*
X156190526Y-71382466D01*
X156275193Y-71297800D01*
X156359860Y-71128466D01*
X156359860Y-70620466D01*
X156275193Y-70451133D01*
X156190526Y-70366466D01*
X156021193Y-70281800D01*
X155767193Y-70281800D01*
X155597860Y-70366466D01*
X155513193Y-70451133D01*
X155428526Y-70620466D01*
X155428526Y-71128466D01*
X155513193Y-71297800D01*
X155597860Y-71382466D01*
X155767193Y-71467133D01*
X156021193Y-71467133D01*
X154666526Y-71467133D02*
X154666526Y-70281800D01*
X154666526Y-70451133D02*
X154581860Y-70366466D01*
X154412526Y-70281800D01*
X154158526Y-70281800D01*
X153989193Y-70366466D01*
X153904526Y-70535800D01*
X153904526Y-71467133D01*
X153904526Y-70535800D02*
X153819860Y-70366466D01*
X153650526Y-70281800D01*
X153396526Y-70281800D01*
X153227193Y-70366466D01*
X153142526Y-70535800D01*
X153142526Y-71467133D01*
X152295860Y-70281800D02*
X152295860Y-72059800D01*
X152295860Y-70366466D02*
X152126526Y-70281800D01*
X151787860Y-70281800D01*
X151618526Y-70366466D01*
X151533860Y-70451133D01*
X151449193Y-70620466D01*
X151449193Y-71128466D01*
X151533860Y-71297800D01*
X151618526Y-71382466D01*
X151787860Y-71467133D01*
X152126526Y-71467133D01*
X152295860Y-71382466D01*
X150433193Y-71467133D02*
X150602526Y-71382466D01*
X150687193Y-71213133D01*
X150687193Y-69689133D01*
X149755860Y-71467133D02*
X149755860Y-70281800D01*
X149755860Y-69689133D02*
X149840526Y-69773800D01*
X149755860Y-69858466D01*
X149671193Y-69773800D01*
X149755860Y-69689133D01*
X149755860Y-69858466D01*
X148147193Y-71467133D02*
X148147193Y-70535800D01*
X148231860Y-70366466D01*
X148401193Y-70281800D01*
X148739860Y-70281800D01*
X148909193Y-70366466D01*
X148147193Y-71382466D02*
X148316526Y-71467133D01*
X148739860Y-71467133D01*
X148909193Y-71382466D01*
X148993860Y-71213133D01*
X148993860Y-71043800D01*
X148909193Y-70874466D01*
X148739860Y-70789800D01*
X148316526Y-70789800D01*
X148147193Y-70705133D01*
X147300526Y-70281800D02*
X147300526Y-71467133D01*
X147300526Y-70451133D02*
X147215860Y-70366466D01*
X147046526Y-70281800D01*
X146792526Y-70281800D01*
X146623193Y-70366466D01*
X146538526Y-70535800D01*
X146538526Y-71467133D01*
X145945860Y-70281800D02*
X145268526Y-70281800D01*
X145691860Y-69689133D02*
X145691860Y-71213133D01*
X145607193Y-71382466D01*
X145437860Y-71467133D01*
X145268526Y-71467133D01*
D18*
X156458634Y-68362081D02*
X157125300Y-67409700D01*
X157601491Y-68362081D02*
X157601491Y-66362081D01*
X156839586Y-66362081D01*
X156649110Y-66457320D01*
X156553872Y-66552558D01*
X156458634Y-66743034D01*
X156458634Y-67028748D01*
X156553872Y-67219224D01*
X156649110Y-67314462D01*
X156839586Y-67409700D01*
X157601491Y-67409700D01*
X155315777Y-68362081D02*
X155506253Y-68266843D01*
X155601491Y-68171605D01*
X155696729Y-67981129D01*
X155696729Y-67409700D01*
X155601491Y-67219224D01*
X155506253Y-67123986D01*
X155315777Y-67028748D01*
X155030062Y-67028748D01*
X154839586Y-67123986D01*
X154744348Y-67219224D01*
X154649110Y-67409700D01*
X154649110Y-67981129D01*
X154744348Y-68171605D01*
X154839586Y-68266843D01*
X155030062Y-68362081D01*
X155315777Y-68362081D01*
X153791967Y-68362081D02*
X153791967Y-66362081D01*
X153791967Y-67314462D02*
X152649110Y-67314462D01*
X152649110Y-68362081D02*
X152649110Y-66362081D01*
X151791967Y-68266843D02*
X151506253Y-68362081D01*
X151030062Y-68362081D01*
X150839586Y-68266843D01*
X150744348Y-68171605D01*
X150649110Y-67981129D01*
X150649110Y-67790653D01*
X150744348Y-67600177D01*
X150839586Y-67504939D01*
X151030062Y-67409700D01*
X151411015Y-67314462D01*
X151601491Y-67219224D01*
X151696729Y-67123986D01*
X151791967Y-66933510D01*
X151791967Y-66743034D01*
X151696729Y-66552558D01*
X151601491Y-66457320D01*
X151411015Y-66362081D01*
X150934824Y-66362081D01*
X150649110Y-66457320D01*
%TO.C,Logo-OSHW*%
D10*
X159137047Y-102700523D02*
X159258000Y-102640047D01*
X159318476Y-102579571D01*
X159378952Y-102458619D01*
X159378952Y-102095761D01*
X159318476Y-101974809D01*
X159258000Y-101914333D01*
X159137047Y-101853857D01*
X158955619Y-101853857D01*
X158834666Y-101914333D01*
X158774190Y-101974809D01*
X158713714Y-102095761D01*
X158713714Y-102458619D01*
X158774190Y-102579571D01*
X158834666Y-102640047D01*
X158955619Y-102700523D01*
X159137047Y-102700523D01*
X158169428Y-101853857D02*
X158169428Y-103123857D01*
X158169428Y-101914333D02*
X158048476Y-101853857D01*
X157806571Y-101853857D01*
X157685619Y-101914333D01*
X157625142Y-101974809D01*
X157564666Y-102095761D01*
X157564666Y-102458619D01*
X157625142Y-102579571D01*
X157685619Y-102640047D01*
X157806571Y-102700523D01*
X158048476Y-102700523D01*
X158169428Y-102640047D01*
X156536571Y-102640047D02*
X156657523Y-102700523D01*
X156899428Y-102700523D01*
X157020380Y-102640047D01*
X157080857Y-102519095D01*
X157080857Y-102035285D01*
X157020380Y-101914333D01*
X156899428Y-101853857D01*
X156657523Y-101853857D01*
X156536571Y-101914333D01*
X156476095Y-102035285D01*
X156476095Y-102156238D01*
X157080857Y-102277190D01*
X155931809Y-101853857D02*
X155931809Y-102700523D01*
X155931809Y-101974809D02*
X155871333Y-101914333D01*
X155750380Y-101853857D01*
X155568952Y-101853857D01*
X155448000Y-101914333D01*
X155387523Y-102035285D01*
X155387523Y-102700523D01*
X161344428Y-104859523D02*
X161344428Y-103589523D01*
X160800142Y-104859523D02*
X160800142Y-104194285D01*
X160860619Y-104073333D01*
X160981571Y-104012857D01*
X161163000Y-104012857D01*
X161283952Y-104073333D01*
X161344428Y-104133809D01*
X159651095Y-104859523D02*
X159651095Y-104194285D01*
X159711571Y-104073333D01*
X159832523Y-104012857D01*
X160074428Y-104012857D01*
X160195380Y-104073333D01*
X159651095Y-104799047D02*
X159772047Y-104859523D01*
X160074428Y-104859523D01*
X160195380Y-104799047D01*
X160255857Y-104678095D01*
X160255857Y-104557142D01*
X160195380Y-104436190D01*
X160074428Y-104375714D01*
X159772047Y-104375714D01*
X159651095Y-104315238D01*
X159046333Y-104859523D02*
X159046333Y-104012857D01*
X159046333Y-104254761D02*
X158985857Y-104133809D01*
X158925380Y-104073333D01*
X158804428Y-104012857D01*
X158683476Y-104012857D01*
X157715857Y-104859523D02*
X157715857Y-103589523D01*
X157715857Y-104799047D02*
X157836809Y-104859523D01*
X158078714Y-104859523D01*
X158199666Y-104799047D01*
X158260142Y-104738571D01*
X158320619Y-104617619D01*
X158320619Y-104254761D01*
X158260142Y-104133809D01*
X158199666Y-104073333D01*
X158078714Y-104012857D01*
X157836809Y-104012857D01*
X157715857Y-104073333D01*
X157232047Y-104012857D02*
X156990142Y-104859523D01*
X156748238Y-104254761D01*
X156506333Y-104859523D01*
X156264428Y-104012857D01*
X155236333Y-104859523D02*
X155236333Y-104194285D01*
X155296809Y-104073333D01*
X155417761Y-104012857D01*
X155659666Y-104012857D01*
X155780619Y-104073333D01*
X155236333Y-104799047D02*
X155357285Y-104859523D01*
X155659666Y-104859523D01*
X155780619Y-104799047D01*
X155841095Y-104678095D01*
X155841095Y-104557142D01*
X155780619Y-104436190D01*
X155659666Y-104375714D01*
X155357285Y-104375714D01*
X155236333Y-104315238D01*
X154631571Y-104859523D02*
X154631571Y-104012857D01*
X154631571Y-104254761D02*
X154571095Y-104133809D01*
X154510619Y-104073333D01*
X154389666Y-104012857D01*
X154268714Y-104012857D01*
X153361571Y-104799047D02*
X153482523Y-104859523D01*
X153724428Y-104859523D01*
X153845380Y-104799047D01*
X153905857Y-104678095D01*
X153905857Y-104194285D01*
X153845380Y-104073333D01*
X153724428Y-104012857D01*
X153482523Y-104012857D01*
X153361571Y-104073333D01*
X153301095Y-104194285D01*
X153301095Y-104315238D01*
X153905857Y-104436190D01*
%TD*%
M02*
