M48
; DRILL file {KiCad 5.1.0-rc2-unknown-036be7d~80~ubuntu16.04.1} date 29.11.2019 (пт) 15:46:37 EET
; FORMAT={-:-/ absolute / inch / decimal}
; #@! TF.CreationDate,2019-11-29T15:46:37+02:00*
; #@! TF.GenerationSoftware,Kicad,Pcbnew,5.1.0-rc2-unknown-036be7d~80~ubuntu16.04.1
; #@! TF.FileFunction,NonPlated,1,4,NPTH
FMAT,2
INCH
T1C0.0236
T2C0.0276
T3C0.0394
T4C0.0748
T5C0.1299
T6C0.1299
%
G90
G05
T1
X4.9398Y-3.6413
X4.9398Y-3.7987
T2
X7.04Y-3.9746
X7.04Y-4.0454
X6.325Y-3.418
X6.325Y-3.818
X6.975Y-3.468
X6.975Y-3.868
X6.7896Y-4.2
X6.8604Y-4.2
T3
X6.957Y-3.51
X6.957Y-3.825
T4
X4.9769Y-3.2878
X5.2525Y-3.2878
X4.9754Y-2.89
X5.251Y-2.89
T5
X6.95Y-2.75
X6.95Y-3.2
T6
X4.8425Y-4.2126
X7.0472Y-4.2126
X4.8425Y-2.4803
X7.0472Y-2.4803
T0
M30
