%TF.GenerationSoftware,KiCad,Pcbnew,5.99.0-unknown-18d4112~100~ubuntu18.04.1*%
%TF.CreationDate,2020-01-03T13:20:43+02:00*%
%TF.ProjectId,S3-OLinuXino_Rev_A,53332d4f-4c69-46e7-9558-696e6f5f5265,F*%
%TF.SameCoordinates,Original*%
%TF.FileFunction,Legend,Top*%
%TF.FilePolarity,Positive*%
%FSLAX46Y46*%
G04 Gerber Fmt 4.6, Leading zero omitted, Abs format (unit mm)*
G04 Created by KiCad (PCBNEW 5.99.0-unknown-18d4112~100~ubuntu18.04.1) date 2020-01-03 13:20:43*
%MOMM*%
%LPD*%
G04 APERTURE LIST*
%ADD10C,0.190500*%
%ADD11C,0.254000*%
%ADD12C,0.127000*%
%ADD13C,0.400000*%
%ADD14C,0.203200*%
%ADD15C,0.050000*%
%ADD16C,0.100000*%
%ADD17C,0.200000*%
%ADD18C,0.158750*%
%ADD19C,0.222250*%
G04 APERTURE END LIST*
D10*
X144290142Y-72480714D02*
X144290142Y-71718714D01*
X144616714Y-72480714D02*
X144616714Y-72081571D01*
X144580428Y-72009000D01*
X144507857Y-71972714D01*
X144399000Y-71972714D01*
X144326428Y-72009000D01*
X144290142Y-72045285D01*
X144870714Y-71972714D02*
X145161000Y-71972714D01*
X144979571Y-71718714D02*
X144979571Y-72371857D01*
X145015857Y-72444428D01*
X145088428Y-72480714D01*
X145161000Y-72480714D01*
X145306142Y-71972714D02*
X145596428Y-71972714D01*
X145415000Y-71718714D02*
X145415000Y-72371857D01*
X145451285Y-72444428D01*
X145523857Y-72480714D01*
X145596428Y-72480714D01*
X145850428Y-71972714D02*
X145850428Y-72734714D01*
X145850428Y-72009000D02*
X145923000Y-71972714D01*
X146068142Y-71972714D01*
X146140714Y-72009000D01*
X146177000Y-72045285D01*
X146213285Y-72117857D01*
X146213285Y-72335571D01*
X146177000Y-72408142D01*
X146140714Y-72444428D01*
X146068142Y-72480714D01*
X145923000Y-72480714D01*
X145850428Y-72444428D01*
X146503571Y-72444428D02*
X146576142Y-72480714D01*
X146721285Y-72480714D01*
X146793857Y-72444428D01*
X146830142Y-72371857D01*
X146830142Y-72335571D01*
X146793857Y-72263000D01*
X146721285Y-72226714D01*
X146612428Y-72226714D01*
X146539857Y-72190428D01*
X146503571Y-72117857D01*
X146503571Y-72081571D01*
X146539857Y-72009000D01*
X146612428Y-71972714D01*
X146721285Y-71972714D01*
X146793857Y-72009000D01*
X147156714Y-72408142D02*
X147193000Y-72444428D01*
X147156714Y-72480714D01*
X147120428Y-72444428D01*
X147156714Y-72408142D01*
X147156714Y-72480714D01*
X147156714Y-72009000D02*
X147193000Y-72045285D01*
X147156714Y-72081571D01*
X147120428Y-72045285D01*
X147156714Y-72009000D01*
X147156714Y-72081571D01*
X148063857Y-71682428D02*
X147410714Y-72662142D01*
X148862142Y-71682428D02*
X148209000Y-72662142D01*
X149043571Y-71972714D02*
X149188714Y-72480714D01*
X149333857Y-72117857D01*
X149479000Y-72480714D01*
X149624142Y-71972714D01*
X149841857Y-71972714D02*
X149987000Y-72480714D01*
X150132142Y-72117857D01*
X150277285Y-72480714D01*
X150422428Y-71972714D01*
X150640142Y-71972714D02*
X150785285Y-72480714D01*
X150930428Y-72117857D01*
X151075571Y-72480714D01*
X151220714Y-71972714D01*
X151511000Y-72408142D02*
X151547285Y-72444428D01*
X151511000Y-72480714D01*
X151474714Y-72444428D01*
X151511000Y-72408142D01*
X151511000Y-72480714D01*
X151982714Y-72480714D02*
X151910142Y-72444428D01*
X151873857Y-72408142D01*
X151837571Y-72335571D01*
X151837571Y-72117857D01*
X151873857Y-72045285D01*
X151910142Y-72009000D01*
X151982714Y-71972714D01*
X152091571Y-71972714D01*
X152164142Y-72009000D01*
X152200428Y-72045285D01*
X152236714Y-72117857D01*
X152236714Y-72335571D01*
X152200428Y-72408142D01*
X152164142Y-72444428D01*
X152091571Y-72480714D01*
X151982714Y-72480714D01*
X152672142Y-72480714D02*
X152599571Y-72444428D01*
X152563285Y-72371857D01*
X152563285Y-71718714D01*
X152962428Y-72480714D02*
X152962428Y-71972714D01*
X152962428Y-71718714D02*
X152926142Y-71755000D01*
X152962428Y-71791285D01*
X152998714Y-71755000D01*
X152962428Y-71718714D01*
X152962428Y-71791285D01*
X153325285Y-72480714D02*
X153325285Y-71972714D01*
X153325285Y-72045285D02*
X153361571Y-72009000D01*
X153434142Y-71972714D01*
X153543000Y-71972714D01*
X153615571Y-72009000D01*
X153651857Y-72081571D01*
X153651857Y-72480714D01*
X153651857Y-72081571D02*
X153688142Y-72009000D01*
X153760714Y-71972714D01*
X153869571Y-71972714D01*
X153942142Y-72009000D01*
X153978428Y-72081571D01*
X153978428Y-72480714D01*
X154631571Y-72444428D02*
X154559000Y-72480714D01*
X154413857Y-72480714D01*
X154341285Y-72444428D01*
X154305000Y-72371857D01*
X154305000Y-72081571D01*
X154341285Y-72009000D01*
X154413857Y-71972714D01*
X154559000Y-71972714D01*
X154631571Y-72009000D01*
X154667857Y-72081571D01*
X154667857Y-72154142D01*
X154305000Y-72226714D01*
X154921857Y-72480714D02*
X155321000Y-71972714D01*
X154921857Y-71972714D02*
X155321000Y-72480714D01*
X155611285Y-72408142D02*
X155647571Y-72444428D01*
X155611285Y-72480714D01*
X155575000Y-72444428D01*
X155611285Y-72408142D01*
X155611285Y-72480714D01*
X156300714Y-72444428D02*
X156228142Y-72480714D01*
X156083000Y-72480714D01*
X156010428Y-72444428D01*
X155974142Y-72408142D01*
X155937857Y-72335571D01*
X155937857Y-72117857D01*
X155974142Y-72045285D01*
X156010428Y-72009000D01*
X156083000Y-71972714D01*
X156228142Y-71972714D01*
X156300714Y-72009000D01*
X156736142Y-72480714D02*
X156663571Y-72444428D01*
X156627285Y-72408142D01*
X156591000Y-72335571D01*
X156591000Y-72117857D01*
X156627285Y-72045285D01*
X156663571Y-72009000D01*
X156736142Y-71972714D01*
X156845000Y-71972714D01*
X156917571Y-72009000D01*
X156953857Y-72045285D01*
X156990142Y-72117857D01*
X156990142Y-72335571D01*
X156953857Y-72408142D01*
X156917571Y-72444428D01*
X156845000Y-72480714D01*
X156736142Y-72480714D01*
X157316714Y-72480714D02*
X157316714Y-71972714D01*
X157316714Y-72045285D02*
X157353000Y-72009000D01*
X157425571Y-71972714D01*
X157534428Y-71972714D01*
X157607000Y-72009000D01*
X157643285Y-72081571D01*
X157643285Y-72480714D01*
X157643285Y-72081571D02*
X157679571Y-72009000D01*
X157752142Y-71972714D01*
X157861000Y-71972714D01*
X157933571Y-72009000D01*
X157969857Y-72081571D01*
X157969857Y-72480714D01*
D11*
X151275142Y-71204666D02*
X151226761Y-71156285D01*
X151130000Y-71011142D01*
X151081619Y-70914380D01*
X151033238Y-70769238D01*
X150984857Y-70527333D01*
X150984857Y-70333809D01*
X151033238Y-70091904D01*
X151081619Y-69946761D01*
X151130000Y-69850000D01*
X151226761Y-69704857D01*
X151275142Y-69656476D01*
X152097619Y-70769238D02*
X152000857Y-70817619D01*
X151807333Y-70817619D01*
X151710571Y-70769238D01*
X151662190Y-70720857D01*
X151613809Y-70624095D01*
X151613809Y-70333809D01*
X151662190Y-70237047D01*
X151710571Y-70188666D01*
X151807333Y-70140285D01*
X152000857Y-70140285D01*
X152097619Y-70188666D01*
X152436285Y-71204666D02*
X152484666Y-71156285D01*
X152581428Y-71011142D01*
X152629809Y-70914380D01*
X152678190Y-70769238D01*
X152726571Y-70527333D01*
X152726571Y-70333809D01*
X152678190Y-70091904D01*
X152629809Y-69946761D01*
X152581428Y-69850000D01*
X152484666Y-69704857D01*
X152436285Y-69656476D01*
X153936095Y-69898380D02*
X153984476Y-69850000D01*
X154081238Y-69801619D01*
X154323142Y-69801619D01*
X154419904Y-69850000D01*
X154468285Y-69898380D01*
X154516666Y-69995142D01*
X154516666Y-70091904D01*
X154468285Y-70237047D01*
X153887714Y-70817619D01*
X154516666Y-70817619D01*
X155145619Y-69801619D02*
X155242380Y-69801619D01*
X155339142Y-69850000D01*
X155387523Y-69898380D01*
X155435904Y-69995142D01*
X155484285Y-70188666D01*
X155484285Y-70430571D01*
X155435904Y-70624095D01*
X155387523Y-70720857D01*
X155339142Y-70769238D01*
X155242380Y-70817619D01*
X155145619Y-70817619D01*
X155048857Y-70769238D01*
X155000476Y-70720857D01*
X154952095Y-70624095D01*
X154903714Y-70430571D01*
X154903714Y-70188666D01*
X154952095Y-69995142D01*
X155000476Y-69898380D01*
X155048857Y-69850000D01*
X155145619Y-69801619D01*
X156451904Y-70817619D02*
X155871333Y-70817619D01*
X156161619Y-70817619D02*
X156161619Y-69801619D01*
X156064857Y-69946761D01*
X155968095Y-70043523D01*
X155871333Y-70091904D01*
X156935714Y-70817619D02*
X157129238Y-70817619D01*
X157226000Y-70769238D01*
X157274380Y-70720857D01*
X157371142Y-70575714D01*
X157419523Y-70382190D01*
X157419523Y-69995142D01*
X157371142Y-69898380D01*
X157322761Y-69850000D01*
X157226000Y-69801619D01*
X157032476Y-69801619D01*
X156935714Y-69850000D01*
X156887333Y-69898380D01*
X156838952Y-69995142D01*
X156838952Y-70237047D01*
X156887333Y-70333809D01*
X156935714Y-70382190D01*
X157032476Y-70430571D01*
X157226000Y-70430571D01*
X157322761Y-70382190D01*
X157371142Y-70333809D01*
X157419523Y-70237047D01*
X145118666Y-70817619D02*
X144780000Y-70333809D01*
X144538095Y-70817619D02*
X144538095Y-69801619D01*
X144925142Y-69801619D01*
X145021904Y-69850000D01*
X145070285Y-69898380D01*
X145118666Y-69995142D01*
X145118666Y-70140285D01*
X145070285Y-70237047D01*
X145021904Y-70285428D01*
X144925142Y-70333809D01*
X144538095Y-70333809D01*
X145941142Y-70769238D02*
X145844380Y-70817619D01*
X145650857Y-70817619D01*
X145554095Y-70769238D01*
X145505714Y-70672476D01*
X145505714Y-70285428D01*
X145554095Y-70188666D01*
X145650857Y-70140285D01*
X145844380Y-70140285D01*
X145941142Y-70188666D01*
X145989523Y-70285428D01*
X145989523Y-70382190D01*
X145505714Y-70478952D01*
X146328190Y-70140285D02*
X146570095Y-70817619D01*
X146812000Y-70140285D01*
X147199047Y-70720857D02*
X147247428Y-70769238D01*
X147199047Y-70817619D01*
X147150666Y-70769238D01*
X147199047Y-70720857D01*
X147199047Y-70817619D01*
X147634476Y-70527333D02*
X148118285Y-70527333D01*
X147537714Y-70817619D02*
X147876380Y-69801619D01*
X148215047Y-70817619D01*
X144562285Y-68967047D02*
X144743714Y-69027523D01*
X145046095Y-69027523D01*
X145167047Y-68967047D01*
X145227523Y-68906571D01*
X145288000Y-68785619D01*
X145288000Y-68664666D01*
X145227523Y-68543714D01*
X145167047Y-68483238D01*
X145046095Y-68422761D01*
X144804190Y-68362285D01*
X144683238Y-68301809D01*
X144622761Y-68241333D01*
X144562285Y-68120380D01*
X144562285Y-67999428D01*
X144622761Y-67878476D01*
X144683238Y-67818000D01*
X144804190Y-67757523D01*
X145106571Y-67757523D01*
X145288000Y-67818000D01*
X145711333Y-67757523D02*
X146497523Y-67757523D01*
X146074190Y-68241333D01*
X146255619Y-68241333D01*
X146376571Y-68301809D01*
X146437047Y-68362285D01*
X146497523Y-68483238D01*
X146497523Y-68785619D01*
X146437047Y-68906571D01*
X146376571Y-68967047D01*
X146255619Y-69027523D01*
X145892761Y-69027523D01*
X145771809Y-68967047D01*
X145711333Y-68906571D01*
X147041809Y-68543714D02*
X148009428Y-68543714D01*
X148856095Y-67757523D02*
X149098000Y-67757523D01*
X149218952Y-67818000D01*
X149339904Y-67938952D01*
X149400380Y-68180857D01*
X149400380Y-68604190D01*
X149339904Y-68846095D01*
X149218952Y-68967047D01*
X149098000Y-69027523D01*
X148856095Y-69027523D01*
X148735142Y-68967047D01*
X148614190Y-68846095D01*
X148553714Y-68604190D01*
X148553714Y-68180857D01*
X148614190Y-67938952D01*
X148735142Y-67818000D01*
X148856095Y-67757523D01*
X150549428Y-69027523D02*
X149944666Y-69027523D01*
X149944666Y-67757523D01*
X150972761Y-69027523D02*
X150972761Y-68180857D01*
X150972761Y-67757523D02*
X150912285Y-67818000D01*
X150972761Y-67878476D01*
X151033238Y-67818000D01*
X150972761Y-67757523D01*
X150972761Y-67878476D01*
X151577523Y-68180857D02*
X151577523Y-69027523D01*
X151577523Y-68301809D02*
X151638000Y-68241333D01*
X151758952Y-68180857D01*
X151940380Y-68180857D01*
X152061333Y-68241333D01*
X152121809Y-68362285D01*
X152121809Y-69027523D01*
X153270857Y-68180857D02*
X153270857Y-69027523D01*
X152726571Y-68180857D02*
X152726571Y-68846095D01*
X152787047Y-68967047D01*
X152908000Y-69027523D01*
X153089428Y-69027523D01*
X153210380Y-68967047D01*
X153270857Y-68906571D01*
X153754666Y-67757523D02*
X154601333Y-69027523D01*
X154601333Y-67757523D02*
X153754666Y-69027523D01*
X155085142Y-69027523D02*
X155085142Y-68180857D01*
X155085142Y-67757523D02*
X155024666Y-67818000D01*
X155085142Y-67878476D01*
X155145619Y-67818000D01*
X155085142Y-67757523D01*
X155085142Y-67878476D01*
X155689904Y-68180857D02*
X155689904Y-69027523D01*
X155689904Y-68301809D02*
X155750380Y-68241333D01*
X155871333Y-68180857D01*
X156052761Y-68180857D01*
X156173714Y-68241333D01*
X156234190Y-68362285D01*
X156234190Y-69027523D01*
X157020380Y-69027523D02*
X156899428Y-68967047D01*
X156838952Y-68906571D01*
X156778476Y-68785619D01*
X156778476Y-68422761D01*
X156838952Y-68301809D01*
X156899428Y-68241333D01*
X157020380Y-68180857D01*
X157201809Y-68180857D01*
X157322761Y-68241333D01*
X157383238Y-68301809D01*
X157443714Y-68422761D01*
X157443714Y-68785619D01*
X157383238Y-68906571D01*
X157322761Y-68967047D01*
X157201809Y-69027523D01*
X157020380Y-69027523D01*
%TO.C,RPi_CAMERA1*%
X153838000Y-61119000D02*
X156713000Y-61119000D01*
X153138000Y-61819000D02*
X153838000Y-61119000D01*
X153138000Y-64944000D02*
X153138000Y-61819000D01*
X156713000Y-64944000D02*
X153138000Y-64944000D01*
X174838000Y-61119000D02*
X171963000Y-61119000D01*
X175538000Y-61819000D02*
X174838000Y-61119000D01*
X175538000Y-64944000D02*
X175538000Y-61819000D01*
X171963000Y-64944000D02*
X175538000Y-64944000D01*
%TO.C,C25*%
X132969000Y-92202000D02*
X132969000Y-91186000D01*
X130937000Y-92202000D02*
X130937000Y-91186000D01*
%TO.C,UEXT1*%
X140335000Y-105015000D02*
X140335000Y-109615000D01*
X127635000Y-104775000D02*
X127635000Y-107315000D01*
X140081000Y-104775000D02*
X140335000Y-105015000D01*
X140335000Y-109615000D02*
X140081000Y-109855000D01*
X135509000Y-109855000D02*
X135255000Y-109601000D01*
X140081000Y-109855000D02*
X138049000Y-109855000D01*
X138049000Y-104775000D02*
X140081000Y-104775000D01*
X137795000Y-105029000D02*
X138049000Y-104775000D01*
X127635000Y-104775000D02*
X127889000Y-104775000D01*
X127889000Y-104775000D02*
X129921000Y-104775000D01*
X129921000Y-104775000D02*
X130175000Y-105029000D01*
X130175000Y-105029000D02*
X130429000Y-104775000D01*
X130429000Y-104775000D02*
X132461000Y-104775000D01*
X132461000Y-104775000D02*
X132715000Y-105029000D01*
X132715000Y-105029000D02*
X132969000Y-104775000D01*
X132969000Y-104775000D02*
X135001000Y-104775000D01*
X135001000Y-104775000D02*
X135255000Y-105029000D01*
X135255000Y-105029000D02*
X135509000Y-104775000D01*
X135509000Y-104775000D02*
X137541000Y-104775000D01*
X137541000Y-104775000D02*
X137795000Y-105029000D01*
X137795000Y-109601000D02*
X137541000Y-109855000D01*
X137541000Y-109855000D02*
X135509000Y-109855000D01*
X138049000Y-109855000D02*
X137795000Y-109601000D01*
X135255000Y-109601000D02*
X135001000Y-109855000D01*
X135001000Y-109855000D02*
X132969000Y-109855000D01*
X127635000Y-105029000D02*
X127889000Y-104775000D01*
X127889000Y-109855000D02*
X127635000Y-109601000D01*
X128143000Y-109855000D02*
X127635000Y-109855000D01*
X132461000Y-109855000D02*
X130429000Y-109855000D01*
X130429000Y-109855000D02*
X130175000Y-109601000D01*
X130175000Y-109601000D02*
X129921000Y-109855000D01*
X129921000Y-109855000D02*
X128143000Y-109855000D01*
X132461000Y-109855000D02*
X132715000Y-109601000D01*
X132715000Y-109601000D02*
X132969000Y-109855000D01*
X127635000Y-107315000D02*
X127635000Y-109855000D01*
%TO.C,PoE1*%
X133096000Y-86995000D02*
X133350000Y-87249000D01*
X133350000Y-87249000D02*
X133350000Y-89281000D01*
X128270000Y-87249000D02*
X128524000Y-86995000D01*
X128524000Y-89535000D02*
X128270000Y-89281000D01*
X128778000Y-89535000D02*
X128270000Y-89535000D01*
X133096000Y-89535000D02*
X131064000Y-89535000D01*
X131064000Y-89535000D02*
X130810000Y-89281000D01*
X130810000Y-89281000D02*
X130556000Y-89535000D01*
X130556000Y-89535000D02*
X128778000Y-89535000D01*
X133096000Y-89535000D02*
X133350000Y-89281000D01*
X128270000Y-86995000D02*
X128270000Y-89535000D01*
X128270000Y-86995000D02*
X128524000Y-86995000D01*
X128524000Y-86995000D02*
X130556000Y-86995000D01*
X130556000Y-86995000D02*
X130810000Y-87249000D01*
X130810000Y-87249000D02*
X131064000Y-86995000D01*
X131064000Y-86995000D02*
X133096000Y-86995000D01*
X133096000Y-66675000D02*
X133350000Y-66929000D01*
X133350000Y-66929000D02*
X133350000Y-68961000D01*
X128270000Y-66929000D02*
X128524000Y-66675000D01*
X128524000Y-69215000D02*
X128270000Y-68961000D01*
X128778000Y-69215000D02*
X128270000Y-69215000D01*
X133096000Y-69215000D02*
X131064000Y-69215000D01*
X131064000Y-69215000D02*
X130810000Y-68961000D01*
X130810000Y-68961000D02*
X130556000Y-69215000D01*
X130556000Y-69215000D02*
X128778000Y-69215000D01*
X133096000Y-69215000D02*
X133350000Y-68961000D01*
X128270000Y-66675000D02*
X128270000Y-69215000D01*
X128270000Y-66675000D02*
X128524000Y-66675000D01*
X128524000Y-66675000D02*
X130556000Y-66675000D01*
X130556000Y-66675000D02*
X130810000Y-66929000D01*
X130810000Y-66929000D02*
X131064000Y-66675000D01*
X131064000Y-66675000D02*
X133096000Y-66675000D01*
X162560000Y-73279000D02*
X162814000Y-73025000D01*
X165100000Y-78359000D02*
X165100000Y-80391000D01*
X165100000Y-82677000D02*
X165100000Y-83185000D01*
X162560000Y-77851000D02*
X162560000Y-75819000D01*
X162560000Y-78359000D02*
X162814000Y-78105000D01*
X162560000Y-83185000D02*
X162560000Y-82931000D01*
X162814000Y-78105000D02*
X162560000Y-77851000D01*
X162560000Y-82931000D02*
X162560000Y-80899000D01*
X162814000Y-75565000D02*
X162560000Y-75311000D01*
X165100000Y-75311000D02*
X164846000Y-75565000D01*
X165100000Y-78359000D02*
X164846000Y-78105000D01*
X164846000Y-73025000D02*
X165100000Y-73279000D01*
X165100000Y-80391000D02*
X164846000Y-80645000D01*
X162814000Y-80645000D02*
X162560000Y-80391000D01*
X165100000Y-80899000D02*
X165100000Y-82677000D01*
X162560000Y-80899000D02*
X162814000Y-80645000D01*
X162560000Y-80391000D02*
X162560000Y-78359000D01*
X162814000Y-73025000D02*
X164846000Y-73025000D01*
X164846000Y-78105000D02*
X165100000Y-77851000D01*
X162560000Y-75311000D02*
X162560000Y-73279000D01*
X165100000Y-73279000D02*
X165100000Y-75311000D01*
X162560000Y-83185000D02*
X165100000Y-83185000D01*
X164846000Y-80645000D02*
X165100000Y-80899000D01*
X162560000Y-75819000D02*
X162814000Y-75565000D01*
X162814000Y-83185000D02*
X162560000Y-82931000D01*
X165100000Y-75819000D02*
X165100000Y-77851000D01*
X164846000Y-75565000D02*
X165100000Y-75819000D01*
X165100000Y-82931000D02*
X164846000Y-83185000D01*
D12*
%TO.C,Flash1*%
X176784000Y-99136200D02*
X176784000Y-98628200D01*
X176784000Y-98628200D02*
X176276000Y-98628200D01*
X176276000Y-99136200D02*
X176276000Y-98628200D01*
X176784000Y-99136200D02*
X176276000Y-99136200D01*
X176784000Y-97866200D02*
X176784000Y-97358200D01*
X176784000Y-97358200D02*
X176276000Y-97358200D01*
X176276000Y-97866200D02*
X176276000Y-97358200D01*
X176784000Y-97866200D02*
X176276000Y-97866200D01*
X176784000Y-96596200D02*
X176784000Y-96088200D01*
X176784000Y-96088200D02*
X176276000Y-96088200D01*
X176276000Y-96596200D02*
X176276000Y-96088200D01*
X176784000Y-96596200D02*
X176276000Y-96596200D01*
X176784000Y-95326200D02*
X176784000Y-94818200D01*
X176784000Y-94818200D02*
X176276000Y-94818200D01*
X176276000Y-95326200D02*
X176276000Y-94818200D01*
X176784000Y-95326200D02*
X176276000Y-95326200D01*
X176784000Y-94056200D02*
X176784000Y-93548200D01*
X176784000Y-93548200D02*
X176276000Y-93548200D01*
X176276000Y-94056200D02*
X176276000Y-93548200D01*
X176784000Y-94056200D02*
X176276000Y-94056200D01*
X176784000Y-92786200D02*
X176784000Y-92278200D01*
X176784000Y-92278200D02*
X176276000Y-92278200D01*
X176276000Y-92786200D02*
X176276000Y-92278200D01*
X176784000Y-92786200D02*
X176276000Y-92786200D01*
X176784000Y-91516200D02*
X176784000Y-91008200D01*
X176784000Y-91008200D02*
X176276000Y-91008200D01*
X176276000Y-91516200D02*
X176276000Y-91008200D01*
X176784000Y-91516200D02*
X176276000Y-91516200D01*
X176784000Y-90246200D02*
X176784000Y-89738200D01*
X176784000Y-89738200D02*
X176276000Y-89738200D01*
X176276000Y-90246200D02*
X176276000Y-89738200D01*
X176784000Y-90246200D02*
X176276000Y-90246200D01*
X176784000Y-88976200D02*
X176784000Y-88468200D01*
X176784000Y-88468200D02*
X176276000Y-88468200D01*
X176276000Y-88976200D02*
X176276000Y-88468200D01*
X176784000Y-88976200D02*
X176276000Y-88976200D01*
X176784000Y-87706200D02*
X176784000Y-87198200D01*
X176784000Y-87198200D02*
X176276000Y-87198200D01*
X176276000Y-87706200D02*
X176276000Y-87198200D01*
X176784000Y-87706200D02*
X176276000Y-87706200D01*
X178054000Y-99136200D02*
X178054000Y-98628200D01*
X178054000Y-98628200D02*
X177546000Y-98628200D01*
X177546000Y-99136200D02*
X177546000Y-98628200D01*
X178054000Y-99136200D02*
X177546000Y-99136200D01*
X178054000Y-97866200D02*
X178054000Y-97358200D01*
X178054000Y-97358200D02*
X177546000Y-97358200D01*
X177546000Y-97866200D02*
X177546000Y-97358200D01*
X178054000Y-97866200D02*
X177546000Y-97866200D01*
X178054000Y-96596200D02*
X178054000Y-96088200D01*
X178054000Y-96088200D02*
X177546000Y-96088200D01*
X177546000Y-96596200D02*
X177546000Y-96088200D01*
X178054000Y-96596200D02*
X177546000Y-96596200D01*
X178054000Y-95326200D02*
X178054000Y-94818200D01*
X178054000Y-94818200D02*
X177546000Y-94818200D01*
X177546000Y-95326200D02*
X177546000Y-94818200D01*
X178054000Y-95326200D02*
X177546000Y-95326200D01*
X178054000Y-94056200D02*
X178054000Y-93548200D01*
X178054000Y-93548200D02*
X177546000Y-93548200D01*
X177546000Y-94056200D02*
X177546000Y-93548200D01*
X178054000Y-94056200D02*
X177546000Y-94056200D01*
X178054000Y-92786200D02*
X178054000Y-92278200D01*
X178054000Y-92278200D02*
X177546000Y-92278200D01*
X177546000Y-92786200D02*
X177546000Y-92278200D01*
X178054000Y-92786200D02*
X177546000Y-92786200D01*
X178054000Y-91516200D02*
X178054000Y-91008200D01*
X178054000Y-91008200D02*
X177546000Y-91008200D01*
X177546000Y-91516200D02*
X177546000Y-91008200D01*
X178054000Y-91516200D02*
X177546000Y-91516200D01*
X178054000Y-90246200D02*
X178054000Y-89738200D01*
X178054000Y-89738200D02*
X177546000Y-89738200D01*
X177546000Y-90246200D02*
X177546000Y-89738200D01*
X178054000Y-90246200D02*
X177546000Y-90246200D01*
X178054000Y-88976200D02*
X178054000Y-88468200D01*
X178054000Y-88468200D02*
X177546000Y-88468200D01*
X177546000Y-88976200D02*
X177546000Y-88468200D01*
X178054000Y-88976200D02*
X177546000Y-88976200D01*
X178054000Y-87706200D02*
X178054000Y-87198200D01*
X178054000Y-87198200D02*
X177546000Y-87198200D01*
X177546000Y-87706200D02*
X177546000Y-87198200D01*
X178054000Y-87706200D02*
X177546000Y-87706200D01*
D11*
X175641000Y-99390200D02*
X175641000Y-99517200D01*
X175641000Y-99517200D02*
X177165000Y-99517200D01*
X177165000Y-99517200D02*
X178689000Y-99517200D01*
X178689000Y-99517200D02*
X178689000Y-99390200D01*
X175641000Y-86944200D02*
X175641000Y-86817200D01*
X175641000Y-86817200D02*
X177165000Y-86817200D01*
X177165000Y-86817200D02*
X178689000Y-86817200D01*
X178689000Y-86817200D02*
X178689000Y-86944200D01*
X177165000Y-99517200D02*
X177165000Y-98882200D01*
X177165000Y-97612200D02*
X177165000Y-96977200D01*
X177165000Y-96977200D02*
X177165000Y-95707200D01*
X177165000Y-95707200D02*
X177165000Y-94437200D01*
X177165000Y-94437200D02*
X177165000Y-93167200D01*
X177165000Y-93167200D02*
X177165000Y-91897200D01*
X177165000Y-91897200D02*
X177165000Y-90627200D01*
X177165000Y-90627200D02*
X177165000Y-89357200D01*
X177165000Y-89357200D02*
X177165000Y-88722200D01*
X177165000Y-87452200D02*
X177165000Y-86817200D01*
X178689000Y-98374200D02*
X178689000Y-98247200D01*
X178689000Y-98247200D02*
X178689000Y-98120200D01*
X178689000Y-97104200D02*
X178689000Y-96977200D01*
X178689000Y-96977200D02*
X178689000Y-96850200D01*
X178689000Y-95834200D02*
X178689000Y-95707200D01*
X178689000Y-95707200D02*
X178689000Y-95580200D01*
X178689000Y-94564200D02*
X178689000Y-94437200D01*
X178689000Y-94437200D02*
X178689000Y-94310200D01*
X178689000Y-93294200D02*
X178689000Y-93167200D01*
X178689000Y-93167200D02*
X178689000Y-93040200D01*
X178689000Y-92024200D02*
X178689000Y-91897200D01*
X178689000Y-91897200D02*
X178689000Y-91770200D01*
X178689000Y-90754200D02*
X178689000Y-90627200D01*
X178689000Y-90627200D02*
X178689000Y-90500200D01*
X178689000Y-89484200D02*
X178689000Y-89357200D01*
X178689000Y-89357200D02*
X178689000Y-89230200D01*
X178689000Y-88214200D02*
X178689000Y-88087200D01*
X178689000Y-88087200D02*
X178689000Y-87960200D01*
X175641000Y-88214200D02*
X175641000Y-87960200D01*
X175641000Y-89484200D02*
X175641000Y-89357200D01*
X175641000Y-89357200D02*
X175641000Y-89230200D01*
X175641000Y-90754200D02*
X175641000Y-90627200D01*
X175641000Y-90627200D02*
X175641000Y-90500200D01*
X175641000Y-92024200D02*
X175641000Y-91897200D01*
X175641000Y-91897200D02*
X175641000Y-91770200D01*
X175641000Y-93294200D02*
X175641000Y-93167200D01*
X175641000Y-93167200D02*
X175641000Y-93040200D01*
X175641000Y-94564200D02*
X175641000Y-94437200D01*
X175641000Y-94437200D02*
X175641000Y-94310200D01*
X175641000Y-95834200D02*
X175641000Y-95707200D01*
X175641000Y-95707200D02*
X175641000Y-95580200D01*
X175641000Y-97104200D02*
X175641000Y-96977200D01*
X175641000Y-96977200D02*
X175641000Y-96850200D01*
X175641000Y-98374200D02*
X175641000Y-98247200D01*
X175641000Y-98247200D02*
X175641000Y-98120200D01*
X178689000Y-98247200D02*
X177800000Y-98247200D01*
X178689000Y-96977200D02*
X177165000Y-96977200D01*
X178689000Y-95707200D02*
X177165000Y-95707200D01*
X178689000Y-94437200D02*
X177165000Y-94437200D01*
X178689000Y-93167200D02*
X177165000Y-93167200D01*
X178689000Y-91897200D02*
X177165000Y-91897200D01*
X178689000Y-90627200D02*
X177165000Y-90627200D01*
X178689000Y-89357200D02*
X177165000Y-89357200D01*
X176530000Y-98247200D02*
X175641000Y-98247200D01*
X177165000Y-96977200D02*
X175641000Y-96977200D01*
X177165000Y-95707200D02*
X175641000Y-95707200D01*
X177165000Y-94437200D02*
X175641000Y-94437200D01*
X177165000Y-93167200D02*
X175641000Y-93167200D01*
X177165000Y-91897200D02*
X175641000Y-91897200D01*
X177165000Y-90627200D02*
X175641000Y-90627200D01*
X177165000Y-89357200D02*
X175641000Y-89357200D01*
X178689000Y-88087200D02*
X177800000Y-88087200D01*
X176530000Y-88087200D02*
X175641000Y-88087200D01*
X181610000Y-100152200D02*
X156210000Y-100152200D01*
X156210000Y-100152200D02*
X156210000Y-84912200D01*
X156210000Y-84912200D02*
X181610000Y-84912200D01*
X181610000Y-84912200D02*
X181610000Y-100152200D01*
X162179000Y-90627200D02*
X162179000Y-90500200D01*
X162179000Y-89484200D02*
X162179000Y-89357200D01*
X162179000Y-89357200D02*
X162179000Y-89230200D01*
X162179000Y-88214200D02*
X162179000Y-88087200D01*
X160655000Y-86182200D02*
X160655000Y-85547200D01*
X162179000Y-97104200D02*
X162179000Y-96977200D01*
X162179000Y-96977200D02*
X162179000Y-96850200D01*
X162179000Y-95834200D02*
X162179000Y-95707200D01*
D12*
X161544000Y-97358200D02*
X161036000Y-97358200D01*
X161036000Y-97866200D02*
X161036000Y-97358200D01*
X161544000Y-97866200D02*
X161036000Y-97866200D01*
X161544000Y-96596200D02*
X161544000Y-96088200D01*
X161544000Y-88468200D02*
X161036000Y-88468200D01*
X161036000Y-88976200D02*
X161036000Y-88468200D01*
X161544000Y-88976200D02*
X161036000Y-88976200D01*
X161544000Y-87706200D02*
X161544000Y-87198200D01*
D11*
X162179000Y-96977200D02*
X161290000Y-96977200D01*
X162179000Y-95707200D02*
X160655000Y-95707200D01*
X162179000Y-94437200D02*
X160655000Y-94437200D01*
X162179000Y-93167200D02*
X160655000Y-93167200D01*
X160655000Y-89357200D02*
X159131000Y-89357200D01*
X160655000Y-88087200D02*
X159131000Y-88087200D01*
X162179000Y-86817200D02*
X161290000Y-86817200D01*
X160020000Y-86817200D02*
X159131000Y-86817200D01*
D12*
X159766000Y-97866200D02*
X159766000Y-97358200D01*
X160274000Y-87198200D02*
X159766000Y-87198200D01*
X159766000Y-87706200D02*
X159766000Y-87198200D01*
X160274000Y-87706200D02*
X159766000Y-87706200D01*
X160274000Y-86436200D02*
X160274000Y-85928200D01*
D11*
X159131000Y-88214200D02*
X159131000Y-88087200D01*
X159131000Y-88087200D02*
X159131000Y-87960200D01*
X159131000Y-89484200D02*
X159131000Y-89357200D01*
X159131000Y-89357200D02*
X159131000Y-89230200D01*
D12*
X161544000Y-96088200D02*
X161036000Y-96088200D01*
X161036000Y-96596200D02*
X161036000Y-96088200D01*
X161544000Y-96596200D02*
X161036000Y-96596200D01*
X161544000Y-95326200D02*
X161544000Y-94818200D01*
X160274000Y-96088200D02*
X159766000Y-96088200D01*
D11*
X159131000Y-98247200D02*
X160655000Y-98247200D01*
X160655000Y-98247200D02*
X162179000Y-98247200D01*
X162179000Y-98247200D02*
X162179000Y-98120200D01*
X159131000Y-85674200D02*
X159131000Y-85547200D01*
D12*
X160274000Y-96596200D02*
X160274000Y-96088200D01*
X160274000Y-92278200D02*
X159766000Y-92278200D01*
X159766000Y-92786200D02*
X159766000Y-92278200D01*
X160274000Y-92786200D02*
X159766000Y-92786200D01*
X160274000Y-91516200D02*
X160274000Y-91008200D01*
X160274000Y-95326200D02*
X160274000Y-94818200D01*
X161544000Y-87198200D02*
X161036000Y-87198200D01*
X161036000Y-87706200D02*
X161036000Y-87198200D01*
X161544000Y-87706200D02*
X161036000Y-87706200D01*
X161544000Y-86436200D02*
X161544000Y-85928200D01*
X160274000Y-89738200D02*
X159766000Y-89738200D01*
X159766000Y-90246200D02*
X159766000Y-89738200D01*
X160274000Y-90246200D02*
X159766000Y-90246200D01*
X160274000Y-88976200D02*
X160274000Y-88468200D01*
X159766000Y-96596200D02*
X159766000Y-96088200D01*
D11*
X159131000Y-85547200D02*
X160655000Y-85547200D01*
X160655000Y-85547200D02*
X162179000Y-85547200D01*
X162179000Y-85547200D02*
X162179000Y-85674200D01*
X160655000Y-98247200D02*
X160655000Y-97612200D01*
D12*
X160274000Y-97866200D02*
X159766000Y-97866200D01*
X161544000Y-94818200D02*
X161036000Y-94818200D01*
X161036000Y-95326200D02*
X161036000Y-94818200D01*
X161544000Y-95326200D02*
X161036000Y-95326200D01*
X161544000Y-94056200D02*
X161544000Y-93548200D01*
X161544000Y-85928200D02*
X161036000Y-85928200D01*
X161036000Y-86436200D02*
X161036000Y-85928200D01*
X161544000Y-86436200D02*
X161036000Y-86436200D01*
D11*
X159131000Y-98120200D02*
X159131000Y-98247200D01*
D12*
X160274000Y-97358200D02*
X159766000Y-97358200D01*
X160274000Y-96596200D02*
X159766000Y-96596200D01*
D11*
X160655000Y-96342200D02*
X160655000Y-95707200D01*
X160655000Y-95707200D02*
X160655000Y-94437200D01*
X160655000Y-94437200D02*
X160655000Y-93167200D01*
X160655000Y-93167200D02*
X160655000Y-91897200D01*
X160655000Y-91897200D02*
X160655000Y-90627200D01*
X160655000Y-90627200D02*
X160655000Y-89357200D01*
X160655000Y-89357200D02*
X160655000Y-88087200D01*
X160655000Y-88087200D02*
X160655000Y-87452200D01*
X162179000Y-93167200D02*
X162179000Y-93040200D01*
X162179000Y-92024200D02*
X162179000Y-91897200D01*
X162179000Y-91897200D02*
X162179000Y-91770200D01*
X162179000Y-90754200D02*
X162179000Y-90627200D01*
X159131000Y-93294200D02*
X159131000Y-93167200D01*
X159131000Y-93167200D02*
X159131000Y-93040200D01*
X159131000Y-94564200D02*
X159131000Y-94437200D01*
X159131000Y-94437200D02*
X159131000Y-94310200D01*
X162179000Y-95707200D02*
X162179000Y-95580200D01*
X162179000Y-94564200D02*
X162179000Y-94437200D01*
X162179000Y-94437200D02*
X162179000Y-94310200D01*
X162179000Y-93294200D02*
X162179000Y-93167200D01*
D12*
X160274000Y-91008200D02*
X159766000Y-91008200D01*
X159766000Y-91516200D02*
X159766000Y-91008200D01*
X160274000Y-91516200D02*
X159766000Y-91516200D01*
X160274000Y-90246200D02*
X160274000Y-89738200D01*
X161544000Y-91008200D02*
X161036000Y-91008200D01*
X161036000Y-91516200D02*
X161036000Y-91008200D01*
X161544000Y-91516200D02*
X161036000Y-91516200D01*
X161544000Y-90246200D02*
X161544000Y-89738200D01*
D11*
X159131000Y-90754200D02*
X159131000Y-90627200D01*
X159131000Y-90627200D02*
X159131000Y-90500200D01*
X159131000Y-92024200D02*
X159131000Y-91897200D01*
X159131000Y-91897200D02*
X159131000Y-91770200D01*
D12*
X160274000Y-85928200D02*
X159766000Y-85928200D01*
X159766000Y-86436200D02*
X159766000Y-85928200D01*
X160274000Y-86436200D02*
X159766000Y-86436200D01*
X161544000Y-97866200D02*
X161544000Y-97358200D01*
X160274000Y-93548200D02*
X159766000Y-93548200D01*
X159766000Y-94056200D02*
X159766000Y-93548200D01*
X160274000Y-94056200D02*
X159766000Y-94056200D01*
X160274000Y-92786200D02*
X160274000Y-92278200D01*
X160274000Y-88468200D02*
X159766000Y-88468200D01*
X159766000Y-88976200D02*
X159766000Y-88468200D01*
X160274000Y-88976200D02*
X159766000Y-88976200D01*
X160274000Y-87706200D02*
X160274000Y-87198200D01*
X160274000Y-94818200D02*
X159766000Y-94818200D01*
X159766000Y-95326200D02*
X159766000Y-94818200D01*
X160274000Y-95326200D02*
X159766000Y-95326200D01*
X160274000Y-94056200D02*
X160274000Y-93548200D01*
D11*
X159131000Y-96977200D02*
X159131000Y-96850200D01*
D12*
X161544000Y-93548200D02*
X161036000Y-93548200D01*
X161036000Y-94056200D02*
X161036000Y-93548200D01*
X161544000Y-94056200D02*
X161036000Y-94056200D01*
X161544000Y-92786200D02*
X161544000Y-92278200D01*
D11*
X162179000Y-91897200D02*
X160655000Y-91897200D01*
X162179000Y-90627200D02*
X160655000Y-90627200D01*
X162179000Y-89357200D02*
X160655000Y-89357200D01*
X162179000Y-88087200D02*
X160655000Y-88087200D01*
X160020000Y-96977200D02*
X159131000Y-96977200D01*
D12*
X161544000Y-89738200D02*
X161036000Y-89738200D01*
X161036000Y-90246200D02*
X161036000Y-89738200D01*
X161544000Y-90246200D02*
X161036000Y-90246200D01*
X161544000Y-88976200D02*
X161544000Y-88468200D01*
D11*
X159131000Y-95834200D02*
X159131000Y-95707200D01*
X159131000Y-95707200D02*
X159131000Y-95580200D01*
X159131000Y-97104200D02*
X159131000Y-96977200D01*
D12*
X160274000Y-97866200D02*
X160274000Y-97358200D01*
D11*
X160655000Y-95707200D02*
X159131000Y-95707200D01*
X160655000Y-94437200D02*
X159131000Y-94437200D01*
X160655000Y-93167200D02*
X159131000Y-93167200D01*
X160655000Y-91897200D02*
X159131000Y-91897200D01*
X160655000Y-90627200D02*
X159131000Y-90627200D01*
D12*
X161544000Y-92278200D02*
X161036000Y-92278200D01*
X161036000Y-92786200D02*
X161036000Y-92278200D01*
X161544000Y-92786200D02*
X161036000Y-92786200D01*
X161544000Y-91516200D02*
X161544000Y-91008200D01*
D11*
X162179000Y-88087200D02*
X162179000Y-87960200D01*
X162179000Y-86944200D02*
X162179000Y-86817200D01*
X162179000Y-86817200D02*
X162179000Y-86690200D01*
X159131000Y-86944200D02*
X159131000Y-86690200D01*
X158115000Y-84912200D02*
X156210000Y-86817200D01*
X157480000Y-84912200D02*
X156210000Y-86182200D01*
X157734000Y-84912200D02*
X156210000Y-86436200D01*
X157861000Y-84912200D02*
X156210000Y-86690200D01*
X157226000Y-84912200D02*
X156210000Y-85928200D01*
X156972000Y-84912200D02*
X156210000Y-85674200D01*
X156718000Y-84912200D02*
X156210000Y-85420200D01*
X156210000Y-85166200D02*
X156464000Y-84912200D01*
%TO.C,LiPo_BAT1*%
X126855220Y-99034600D02*
X120807480Y-99034600D01*
X120807480Y-99034600D02*
X120807480Y-103550720D01*
X120807480Y-103550720D02*
X126842520Y-103550720D01*
X126842520Y-103550720D02*
X126842520Y-99057460D01*
%TO.C,EXT1*%
X145415000Y-104775000D02*
X145415000Y-107315000D01*
X170815000Y-105029000D02*
X170815000Y-107442000D01*
X168529000Y-109855000D02*
X168275000Y-109601000D01*
X168275000Y-105029000D02*
X168529000Y-104775000D01*
X168529000Y-104775000D02*
X170561000Y-104775000D01*
X170561000Y-109855000D02*
X168529000Y-109855000D01*
X170815000Y-109601000D02*
X170561000Y-109855000D01*
X170561000Y-104775000D02*
X170815000Y-105029000D01*
X168021000Y-104775000D02*
X168275000Y-105029000D01*
X168529000Y-109855000D02*
X168275000Y-109601000D01*
X168275000Y-109601000D02*
X168021000Y-109855000D01*
X170561000Y-109855000D02*
X168529000Y-109855000D01*
X168275000Y-105029000D02*
X168529000Y-104775000D01*
X168529000Y-104775000D02*
X170561000Y-104775000D01*
X170815000Y-107569000D02*
X170815000Y-109601000D01*
X170815000Y-109601000D02*
X170561000Y-109855000D01*
X168021000Y-109855000D02*
X165989000Y-109855000D01*
X170561000Y-104775000D02*
X170815000Y-105029000D01*
X165989000Y-104775000D02*
X168021000Y-104775000D01*
X165735000Y-105029000D02*
X165989000Y-104775000D01*
X165989000Y-109855000D02*
X165735000Y-109601000D01*
X160909000Y-109855000D02*
X160655000Y-109601000D01*
X160655000Y-105029000D02*
X160909000Y-104775000D01*
X160909000Y-104775000D02*
X162941000Y-104775000D01*
X165481000Y-104775000D02*
X165735000Y-105029000D01*
X162941000Y-109855000D02*
X160909000Y-109855000D01*
X165735000Y-109601000D02*
X165481000Y-109855000D01*
X163449000Y-104775000D02*
X165481000Y-104775000D01*
X163195000Y-105029000D02*
X163449000Y-104775000D01*
X165481000Y-109855000D02*
X163449000Y-109855000D01*
X163195000Y-109601000D02*
X162941000Y-109855000D01*
X163449000Y-109855000D02*
X163195000Y-109601000D01*
X162941000Y-104775000D02*
X163195000Y-105029000D01*
X165481000Y-104775000D02*
X165735000Y-105029000D01*
X165735000Y-109601000D02*
X165481000Y-109855000D01*
X165481000Y-109855000D02*
X163449000Y-109855000D01*
X163449000Y-104775000D02*
X165481000Y-104775000D01*
X163195000Y-105029000D02*
X163449000Y-104775000D01*
X163449000Y-109855000D02*
X163195000Y-109601000D01*
X158369000Y-109855000D02*
X158115000Y-109601000D01*
X158115000Y-105029000D02*
X158369000Y-104775000D01*
X158369000Y-104775000D02*
X160401000Y-104775000D01*
X160401000Y-109855000D02*
X158369000Y-109855000D01*
X160655000Y-109601000D02*
X160401000Y-109855000D01*
X160401000Y-104775000D02*
X160655000Y-105029000D01*
X157861000Y-104775000D02*
X158115000Y-105029000D01*
X158369000Y-109855000D02*
X158115000Y-109601000D01*
X158115000Y-109601000D02*
X157861000Y-109855000D01*
X160401000Y-109855000D02*
X158369000Y-109855000D01*
X158115000Y-105029000D02*
X158369000Y-104775000D01*
X158369000Y-104775000D02*
X160401000Y-104775000D01*
X160655000Y-109601000D02*
X160401000Y-109855000D01*
X153289000Y-109855000D02*
X153035000Y-109601000D01*
X157861000Y-109855000D02*
X155829000Y-109855000D01*
X160401000Y-104775000D02*
X160655000Y-105029000D01*
X155829000Y-104775000D02*
X157861000Y-104775000D01*
X155575000Y-105029000D02*
X155829000Y-104775000D01*
X145415000Y-104775000D02*
X145669000Y-104775000D01*
X145669000Y-104775000D02*
X147701000Y-104775000D01*
X147701000Y-104775000D02*
X147955000Y-105029000D01*
X147955000Y-105029000D02*
X148209000Y-104775000D01*
X148209000Y-104775000D02*
X150241000Y-104775000D01*
X150241000Y-104775000D02*
X150495000Y-105029000D01*
X150495000Y-105029000D02*
X150749000Y-104775000D01*
X150749000Y-104775000D02*
X152781000Y-104775000D01*
X152781000Y-104775000D02*
X153035000Y-105029000D01*
X153035000Y-105029000D02*
X153289000Y-104775000D01*
X153289000Y-104775000D02*
X155321000Y-104775000D01*
X155321000Y-104775000D02*
X155575000Y-105029000D01*
X155575000Y-109601000D02*
X155321000Y-109855000D01*
X155321000Y-109855000D02*
X153289000Y-109855000D01*
X155829000Y-109855000D02*
X155575000Y-109601000D01*
X153035000Y-109601000D02*
X152781000Y-109855000D01*
X152781000Y-109855000D02*
X150749000Y-109855000D01*
X145415000Y-105029000D02*
X145669000Y-104775000D01*
X145669000Y-109855000D02*
X145415000Y-109601000D01*
X145923000Y-109855000D02*
X145415000Y-109855000D01*
X150241000Y-109855000D02*
X148209000Y-109855000D01*
X148209000Y-109855000D02*
X147955000Y-109601000D01*
X147955000Y-109601000D02*
X147701000Y-109855000D01*
X147701000Y-109855000D02*
X145923000Y-109855000D01*
X150241000Y-109855000D02*
X150495000Y-109601000D01*
X150495000Y-109601000D02*
X150749000Y-109855000D01*
X145415000Y-107315000D02*
X145415000Y-109855000D01*
D12*
%TO.C,PWR1*%
X174855000Y-104680000D02*
X174855000Y-108680000D01*
X171855000Y-104680000D02*
X171855000Y-108680000D01*
X174852000Y-108680000D02*
X174293200Y-108680000D01*
X172416000Y-108680000D02*
X171857200Y-108680000D01*
X174852800Y-104680000D02*
X174243200Y-104680000D01*
X172416000Y-104680000D02*
X171857200Y-104680000D01*
X174194738Y-106680000D02*
G75*
G03*
X174194738Y-106680000I-839738J0D01*
G01*
%TO.C,RST1*%
X176816000Y-100354000D02*
X180816000Y-100354000D01*
X176816000Y-103354000D02*
X180816000Y-103354000D01*
X180816000Y-100357000D02*
X180816000Y-100915800D01*
X180816000Y-102793000D02*
X180816000Y-103351800D01*
X176816000Y-100356200D02*
X176816000Y-100965800D01*
X176816000Y-102793000D02*
X176816000Y-103351800D01*
X179655738Y-101854000D02*
G75*
G03*
X179655738Y-101854000I-839738J0D01*
G01*
D11*
%TO.C,LCD_CON1*%
X126850000Y-59965000D02*
X152550000Y-59965000D01*
X152550000Y-59965000D02*
X152550000Y-61765000D01*
X152550000Y-61765000D02*
X152200000Y-61765000D01*
X126850000Y-59965000D02*
X126850000Y-61765000D01*
X126850000Y-61765000D02*
X127200000Y-61765000D01*
X127200000Y-61765000D02*
X127200000Y-61915000D01*
X152200000Y-61765000D02*
X152200000Y-61915000D01*
X127200000Y-61765000D02*
X152200000Y-61765000D01*
D12*
X126850000Y-59965000D02*
X126850000Y-58765000D01*
X126850000Y-58765000D02*
X152550000Y-58765000D01*
X152550000Y-58765000D02*
X152550000Y-59965000D01*
D11*
X129300000Y-59965000D02*
X129300000Y-61765000D01*
X150100000Y-59965000D02*
X150100000Y-61765000D01*
%TO.C,LAN1*%
X187325000Y-78105000D02*
X187325000Y-67691000D01*
X187325000Y-81915000D02*
X187325000Y-78105000D01*
X187325000Y-83439000D02*
X187325000Y-81915000D01*
X165862000Y-67665000D02*
X165862000Y-83465000D01*
X187452000Y-67665000D02*
X175230000Y-67665000D01*
X187452000Y-67691000D02*
X187452000Y-67665600D01*
X187452000Y-83439000D02*
X187452000Y-67691000D01*
X187452000Y-83464400D02*
X187452000Y-83439000D01*
X175230000Y-83465000D02*
X187452000Y-83465000D01*
X165862000Y-67665000D02*
X171430000Y-67665000D01*
X165862000Y-83465000D02*
X171430000Y-83465000D01*
%TO.C,HEADPHONES/LINEOUT1*%
X121213000Y-80510000D02*
X121213000Y-86510000D01*
X121213000Y-81455400D02*
X120908300Y-81455400D01*
X120908300Y-81455400D02*
X120413000Y-81760000D01*
X120413000Y-81760000D02*
X120413000Y-85260000D01*
X120413000Y-85260000D02*
X120857500Y-85595600D01*
X120857500Y-85595600D02*
X121213000Y-85595600D01*
X120857500Y-81506200D02*
X120857500Y-85595600D01*
X121213000Y-80510000D02*
X125913000Y-80510000D01*
X128413000Y-80510000D02*
X137613000Y-80510000D01*
X137613000Y-80510000D02*
X137613000Y-81510000D01*
X137613000Y-83930000D02*
X137613000Y-86510000D01*
X126313000Y-86510000D02*
X133313000Y-86510000D01*
X135913000Y-86510000D02*
X137613000Y-86510000D01*
X121213000Y-86510000D02*
X121373000Y-86510000D01*
X123413000Y-86510000D02*
X124213000Y-86510000D01*
%TO.C,MIC/LINEIN1*%
X121176000Y-70406000D02*
X121176000Y-76406000D01*
X121176000Y-71351400D02*
X120871300Y-71351400D01*
X120871300Y-71351400D02*
X120376000Y-71656000D01*
X120376000Y-71656000D02*
X120376000Y-75156000D01*
X120376000Y-75156000D02*
X120820500Y-75491600D01*
X120820500Y-75491600D02*
X121176000Y-75491600D01*
X120820500Y-71402200D02*
X120820500Y-75491600D01*
X121176000Y-70406000D02*
X125876000Y-70406000D01*
X128376000Y-70406000D02*
X137576000Y-70406000D01*
X137576000Y-70406000D02*
X137576000Y-71406000D01*
X137576000Y-73826000D02*
X137576000Y-76406000D01*
X126276000Y-76406000D02*
X133276000Y-76406000D01*
X135876000Y-76406000D02*
X137576000Y-76406000D01*
X121176000Y-76406000D02*
X121336000Y-76406000D01*
X123376000Y-76406000D02*
X124176000Y-76406000D01*
%TO.C,USB-OTG1*%
X120142000Y-90424000D02*
X121158000Y-90805000D01*
X120142000Y-98552000D02*
X121158000Y-98171000D01*
X125671000Y-98188000D02*
X124471000Y-98188000D01*
X121171000Y-90788000D02*
X122171000Y-90788000D01*
X120071000Y-98552000D02*
X120071000Y-90424000D01*
X122171000Y-98188000D02*
X121171000Y-98188000D01*
X127171000Y-97288000D02*
X127171000Y-96288000D01*
X127171000Y-92688000D02*
X127171000Y-91688000D01*
X125671000Y-90788000D02*
X124471000Y-90788000D01*
X121171000Y-98188000D02*
X121171000Y-90788000D01*
%TO.C,D2*%
X143510000Y-106807000D02*
X142240000Y-106807000D01*
X143510000Y-105791000D02*
X142875000Y-106807000D01*
X142240000Y-105791000D02*
X142875000Y-106807000D01*
X143510000Y-105791000D02*
X142240000Y-105791000D01*
X144477740Y-103926640D02*
X144477740Y-108925360D01*
X141272260Y-108925360D02*
X141272260Y-103926640D01*
D13*
X141400000Y-107376000D02*
X144400000Y-107376000D01*
D14*
%TO.C,U2*%
X167271146Y-95389700D02*
G75*
G03*
X167271146Y-95389700I-197566J0D01*
G01*
D11*
X172249000Y-92456000D02*
X172249000Y-94996000D01*
X172249000Y-94996000D02*
X167649000Y-94996000D01*
X167649000Y-94996000D02*
X167349000Y-94726000D01*
X167349000Y-94726000D02*
X167349000Y-92456000D01*
X167349000Y-92456000D02*
X172249000Y-92456000D01*
D14*
X168218566Y-94361000D02*
G75*
G03*
X168218566Y-94361000I-197566J0D01*
G01*
D11*
%TO.C,CHGLED1*%
X128244600Y-99695000D02*
X127203200Y-99695000D01*
X127317500Y-99529900D02*
X128143000Y-99529900D01*
X128282700Y-99682300D02*
X128155700Y-99542600D01*
X127190500Y-99682300D02*
X127317500Y-99529900D01*
D15*
X127986600Y-101121200D02*
X128096600Y-101251200D01*
X128116600Y-101261200D02*
X128106600Y-101181200D01*
X128116600Y-101261200D02*
X128036600Y-101261200D01*
X128116600Y-101045800D02*
X128036600Y-101045800D01*
X128116600Y-101045800D02*
X128106600Y-100965800D01*
X128007600Y-100914200D02*
X128117600Y-101044200D01*
D16*
X127652000Y-100992000D02*
X127872000Y-100992000D01*
X127872000Y-101182000D02*
X127772000Y-101082000D01*
X127652000Y-101182000D02*
X127752000Y-101072000D01*
X127652000Y-101182000D02*
X127872000Y-101182000D01*
X127762000Y-101352000D02*
X127762000Y-100832000D01*
D12*
X127127000Y-100711000D02*
X127127000Y-99695000D01*
X128346200Y-99695000D02*
X128346200Y-100711000D01*
D11*
%TO.C,PWRLED1*%
X129514600Y-99695000D02*
X128473200Y-99695000D01*
X128587500Y-99529900D02*
X129413000Y-99529900D01*
X129552700Y-99682300D02*
X129425700Y-99542600D01*
X128460500Y-99682300D02*
X128587500Y-99529900D01*
D15*
X129256600Y-101121200D02*
X129366600Y-101251200D01*
X129386600Y-101261200D02*
X129376600Y-101181200D01*
X129386600Y-101261200D02*
X129306600Y-101261200D01*
X129386600Y-101045800D02*
X129306600Y-101045800D01*
X129386600Y-101045800D02*
X129376600Y-100965800D01*
X129277600Y-100914200D02*
X129387600Y-101044200D01*
D16*
X128922000Y-100992000D02*
X129142000Y-100992000D01*
X129142000Y-101182000D02*
X129042000Y-101082000D01*
X128922000Y-101182000D02*
X129022000Y-101072000D01*
X128922000Y-101182000D02*
X129142000Y-101182000D01*
X129032000Y-101352000D02*
X129032000Y-100832000D01*
D12*
X128397000Y-100711000D02*
X128397000Y-99695000D01*
X129616200Y-99695000D02*
X129616200Y-100711000D01*
D11*
%TO.C,GPIO_LED1*%
X174752000Y-102336600D02*
X174752000Y-101295200D01*
X174917100Y-101409500D02*
X174917100Y-102235000D01*
X174764700Y-102374700D02*
X174904400Y-102247700D01*
X174764700Y-101282500D02*
X174917100Y-101409500D01*
D15*
X173325800Y-102078600D02*
X173195800Y-102188600D01*
X173185800Y-102208600D02*
X173265800Y-102198600D01*
X173185800Y-102208600D02*
X173185800Y-102128600D01*
X173401200Y-102208600D02*
X173401200Y-102128600D01*
X173401200Y-102208600D02*
X173481200Y-102198600D01*
X173532800Y-102099600D02*
X173402800Y-102209600D01*
D16*
X173455000Y-101744000D02*
X173455000Y-101964000D01*
X173265000Y-101964000D02*
X173365000Y-101864000D01*
X173265000Y-101744000D02*
X173375000Y-101844000D01*
X173265000Y-101744000D02*
X173265000Y-101964000D01*
X173095000Y-101854000D02*
X173615000Y-101854000D01*
D12*
X173736000Y-101219000D02*
X174752000Y-101219000D01*
X174752000Y-102438200D02*
X173736000Y-102438200D01*
D17*
%TO.C,L5*%
X137310000Y-100723000D02*
X137310000Y-100373000D01*
X137310000Y-102223000D02*
X137310000Y-102573000D01*
X137260000Y-101223000D02*
G75*
G02*
X137260000Y-100723000I0J250000D01*
G01*
X137260000Y-102223000D02*
G75*
G02*
X137260000Y-101723000I0J250000D01*
G01*
X137260000Y-101723000D02*
G75*
G02*
X137260000Y-101223000I0J250000D01*
G01*
D11*
X137360000Y-102973000D02*
X136960000Y-102973000D01*
X137360000Y-99973000D02*
X136960000Y-99973000D01*
D17*
%TO.C,L4*%
X141680500Y-96751000D02*
X141330500Y-96751000D01*
X143180500Y-96751000D02*
X143530500Y-96751000D01*
X142180500Y-96801000D02*
G75*
G02*
X141680500Y-96801000I-250000J0D01*
G01*
X143180500Y-96801000D02*
G75*
G02*
X142680500Y-96801000I-250000J0D01*
G01*
X142680500Y-96801000D02*
G75*
G02*
X142180500Y-96801000I-250000J0D01*
G01*
D11*
X143930500Y-96701000D02*
X143930500Y-97101000D01*
X140930500Y-96701000D02*
X140930500Y-97101000D01*
D17*
%TO.C,L3*%
X139561000Y-89939000D02*
X139911000Y-89939000D01*
X138061000Y-89939000D02*
X137711000Y-89939000D01*
X139061000Y-89889000D02*
G75*
G02*
X139561000Y-89889000I250000J0D01*
G01*
X138061000Y-89889000D02*
G75*
G02*
X138561000Y-89889000I250000J0D01*
G01*
X138561000Y-89889000D02*
G75*
G02*
X139061000Y-89889000I250000J0D01*
G01*
D11*
X137311000Y-89989000D02*
X137311000Y-89589000D01*
X140311000Y-89989000D02*
X140311000Y-89589000D01*
D17*
%TO.C,L7*%
X152758000Y-92444000D02*
X152758000Y-92794000D01*
X152758000Y-90944000D02*
X152758000Y-90594000D01*
X152808000Y-91944000D02*
G75*
G02*
X152808000Y-92444000I0J-250000D01*
G01*
X152808000Y-90944000D02*
G75*
G02*
X152808000Y-91444000I0J-250000D01*
G01*
X152808000Y-91444000D02*
G75*
G02*
X152808000Y-91944000I0J-250000D01*
G01*
D11*
X152708000Y-90194000D02*
X153108000Y-90194000D01*
X152708000Y-93194000D02*
X153108000Y-93194000D01*
%TO.C,C33*%
X152750000Y-77794500D02*
X153004000Y-77794500D01*
X152750000Y-77794500D02*
X152496000Y-77794500D01*
X152750000Y-76905500D02*
X152496000Y-76905500D01*
X152750000Y-76905500D02*
X153004000Y-76905500D01*
%TO.C,C18*%
X159829499Y-80010000D02*
X159829499Y-79756000D01*
X159829499Y-80010000D02*
X159829499Y-80264000D01*
X158940499Y-80010000D02*
X158940499Y-80264000D01*
X158940499Y-80010000D02*
X158940499Y-79756000D01*
%TO.C,C17*%
X158940499Y-78105000D02*
X158940499Y-78359000D01*
X158940499Y-78105000D02*
X158940499Y-77851000D01*
X159829499Y-78105000D02*
X159829499Y-77851000D01*
X159829499Y-78105000D02*
X159829499Y-78359000D01*
%TO.C,C38*%
X152425000Y-80719500D02*
X152679000Y-80719500D01*
X152425000Y-80719500D02*
X152171000Y-80719500D01*
X152425000Y-79830500D02*
X152171000Y-79830500D01*
X152425000Y-79830500D02*
X152679000Y-79830500D01*
%TO.C,C50*%
X153162000Y-82359500D02*
X153416000Y-82359500D01*
X153162000Y-82359500D02*
X152908000Y-82359500D01*
X153162000Y-81470500D02*
X152908000Y-81470500D01*
X153162000Y-81470500D02*
X153416000Y-81470500D01*
%TO.C,C88*%
X140081000Y-75882500D02*
X139827000Y-75882500D01*
X140081000Y-75882500D02*
X140335000Y-75882500D01*
X140081000Y-74993500D02*
X140335000Y-74993500D01*
X140081000Y-74993500D02*
X139827000Y-74993500D01*
%TO.C,C86*%
X140081000Y-68389500D02*
X139827000Y-68389500D01*
X140081000Y-68389500D02*
X140335000Y-68389500D01*
X140081000Y-69278500D02*
X140335000Y-69278500D01*
X140081000Y-69278500D02*
X139827000Y-69278500D01*
%TO.C,C87*%
X139192000Y-70167500D02*
X138938000Y-70167500D01*
X139192000Y-70167500D02*
X139446000Y-70167500D01*
X139192000Y-71056500D02*
X139446000Y-71056500D01*
X139192000Y-71056500D02*
X138938000Y-71056500D01*
%TO.C,C16*%
X152717500Y-88519000D02*
X152717500Y-88265000D01*
X152717500Y-88519000D02*
X152717500Y-88773000D01*
X151828500Y-88519000D02*
X151828500Y-88773000D01*
X151828500Y-88519000D02*
X151828500Y-88265000D01*
%TO.C,C91*%
X140081000Y-76898500D02*
X139827000Y-76898500D01*
X140081000Y-76898500D02*
X140335000Y-76898500D01*
X140081000Y-76009500D02*
X140335000Y-76009500D01*
X140081000Y-76009500D02*
X139827000Y-76009500D01*
%TO.C,C21*%
X138049000Y-93281500D02*
X138303000Y-93281500D01*
X138049000Y-93281500D02*
X137795000Y-93281500D01*
X138049000Y-92392500D02*
X137795000Y-92392500D01*
X138049000Y-92392500D02*
X138303000Y-92392500D01*
%TO.C,C90*%
X140081000Y-67373500D02*
X139827000Y-67373500D01*
X140081000Y-67373500D02*
X140335000Y-67373500D01*
X140081000Y-68262500D02*
X140335000Y-68262500D01*
X140081000Y-68262500D02*
X139827000Y-68262500D01*
%TO.C,C89*%
X139065000Y-78676500D02*
X138811000Y-78676500D01*
X139065000Y-78676500D02*
X139319000Y-78676500D01*
X139065000Y-77787500D02*
X139319000Y-77787500D01*
X139065000Y-77787500D02*
X138811000Y-77787500D01*
%TO.C,C85*%
X151125000Y-78205500D02*
X150871000Y-78205500D01*
X151125000Y-78205500D02*
X151379000Y-78205500D01*
X151125000Y-79094500D02*
X151379000Y-79094500D01*
X151125000Y-79094500D02*
X150871000Y-79094500D01*
%TO.C,C83*%
X150030500Y-75725000D02*
X150030500Y-75979000D01*
X150030500Y-75725000D02*
X150030500Y-75471000D01*
X150919500Y-75725000D02*
X150919500Y-75471000D01*
X150919500Y-75725000D02*
X150919500Y-75979000D01*
%TO.C,C1*%
X149098000Y-80581500D02*
X149352000Y-80581500D01*
X149098000Y-80581500D02*
X148844000Y-80581500D01*
X149098000Y-81470500D02*
X148844000Y-81470500D01*
X149098000Y-81470500D02*
X149352000Y-81470500D01*
%TO.C,C82*%
X151330500Y-75725000D02*
X151330500Y-75979000D01*
X151330500Y-75725000D02*
X151330500Y-75471000D01*
X152219500Y-75725000D02*
X152219500Y-75471000D01*
X152219500Y-75725000D02*
X152219500Y-75979000D01*
%TO.C,C3*%
X171096414Y-97628001D02*
X170842414Y-97628001D01*
X171096414Y-97628001D02*
X171350414Y-97628001D01*
X171096414Y-98517001D02*
X171350414Y-98517001D01*
X171096414Y-98517001D02*
X170842414Y-98517001D01*
%TO.C,C105*%
X154169500Y-80275000D02*
X154169500Y-80021000D01*
X154169500Y-80275000D02*
X154169500Y-80529000D01*
X153280500Y-80275000D02*
X153280500Y-80529000D01*
X153280500Y-80275000D02*
X153280500Y-80021000D01*
%TO.C,C76*%
X151125000Y-79057500D02*
X150871000Y-79057500D01*
X151125000Y-79057500D02*
X151379000Y-79057500D01*
X151125000Y-79946500D02*
X151379000Y-79946500D01*
X151125000Y-79946500D02*
X150871000Y-79946500D01*
%TO.C,C98*%
X139192000Y-77787500D02*
X138938000Y-77787500D01*
X139192000Y-77787500D02*
X139446000Y-77787500D01*
X139192000Y-76898500D02*
X139446000Y-76898500D01*
X139192000Y-76898500D02*
X138938000Y-76898500D01*
%TO.C,C75*%
X148850000Y-78855500D02*
X148596000Y-78855500D01*
X148850000Y-78855500D02*
X149104000Y-78855500D01*
X148850000Y-79744500D02*
X149104000Y-79744500D01*
X148850000Y-79744500D02*
X148596000Y-79744500D01*
%TO.C,C79*%
X148850000Y-77555500D02*
X148596000Y-77555500D01*
X148850000Y-77555500D02*
X149104000Y-77555500D01*
X148850000Y-78444500D02*
X149104000Y-78444500D01*
X148850000Y-78444500D02*
X148596000Y-78444500D01*
%TO.C,C78*%
X148850000Y-76255500D02*
X148596000Y-76255500D01*
X148850000Y-76255500D02*
X149104000Y-76255500D01*
X148850000Y-77144500D02*
X149104000Y-77144500D01*
X148850000Y-77144500D02*
X148596000Y-77144500D01*
%TO.C,C97*%
X137350500Y-68326000D02*
X137350500Y-68580000D01*
X137350500Y-68326000D02*
X137350500Y-68072000D01*
X138239500Y-68326000D02*
X138239500Y-68072000D01*
X138239500Y-68326000D02*
X138239500Y-68580000D01*
%TO.C,C84*%
X151028400Y-76905500D02*
X150774400Y-76905500D01*
X151028400Y-76905500D02*
X151282400Y-76905500D01*
X151028400Y-77794500D02*
X151282400Y-77794500D01*
X151028400Y-77794500D02*
X150774400Y-77794500D01*
%TO.C,C73*%
X153194500Y-83312000D02*
X153194500Y-83058000D01*
X153194500Y-83312000D02*
X153194500Y-83566000D01*
X152305500Y-83312000D02*
X152305500Y-83566000D01*
X152305500Y-83312000D02*
X152305500Y-83058000D01*
%TO.C,C22*%
X150919500Y-83312000D02*
X150919500Y-83058000D01*
X150919500Y-83312000D02*
X150919500Y-83566000D01*
X150030500Y-83312000D02*
X150030500Y-83566000D01*
X150030500Y-83312000D02*
X150030500Y-83058000D01*
%TO.C,C4*%
X149098000Y-80577500D02*
X149352000Y-80577500D01*
X149098000Y-80577500D02*
X148844000Y-80577500D01*
X149098000Y-79688500D02*
X148844000Y-79688500D01*
X149098000Y-79688500D02*
X149352000Y-79688500D01*
%TO.C,C93*%
X138239500Y-68326000D02*
X138239500Y-68580000D01*
X138239500Y-68326000D02*
X138239500Y-68072000D01*
X139128500Y-68326000D02*
X139128500Y-68072000D01*
X139128500Y-68326000D02*
X139128500Y-68580000D01*
%TO.C,C96*%
X138239500Y-75946000D02*
X138239500Y-75692000D01*
X138239500Y-75946000D02*
X138239500Y-76200000D01*
X139128500Y-75946000D02*
X139128500Y-76200000D01*
X139128500Y-75946000D02*
X139128500Y-75692000D01*
%TO.C,C55*%
X137033000Y-94107000D02*
X137033000Y-93091000D01*
X135509000Y-94107000D02*
X135509000Y-93091000D01*
%TO.C,C23*%
X148716999Y-88011000D02*
X148716999Y-89027000D01*
X150240999Y-88011000D02*
X150240999Y-89027000D01*
%TO.C,C24*%
X147192999Y-88011000D02*
X147192999Y-89027000D01*
X148716999Y-88011000D02*
X148716999Y-89027000D01*
%TO.C,C68*%
X153416000Y-93345000D02*
X152400000Y-93345000D01*
X153416000Y-94869000D02*
X152400000Y-94869000D01*
%TO.C,C28*%
X133477000Y-96647000D02*
X134493000Y-96647000D01*
X133477000Y-95123000D02*
X134493000Y-95123000D01*
%TO.C,C19*%
X133477000Y-99822000D02*
X134493000Y-99822000D01*
X133477000Y-98298000D02*
X134493000Y-98298000D01*
%TO.C,C77*%
X142240000Y-88519000D02*
X142240000Y-89535000D01*
X143764000Y-88519000D02*
X143764000Y-89535000D01*
%TO.C,C74*%
X143764000Y-88519000D02*
X143764000Y-89535000D01*
X145288000Y-88519000D02*
X145288000Y-89535000D01*
%TO.C,C48*%
X154559000Y-79438500D02*
X154559000Y-80454500D01*
X156083000Y-79438500D02*
X156083000Y-80454500D01*
%TO.C,C49*%
X156083000Y-83439000D02*
X156083000Y-82423000D01*
X154559000Y-83439000D02*
X154559000Y-82423000D01*
%TO.C,C92*%
X139954000Y-73914000D02*
X139954000Y-72898000D01*
X141478000Y-73914000D02*
X141478000Y-72898000D01*
%TO.C,C59*%
X144843500Y-91821000D02*
X144843500Y-92837000D01*
X146367500Y-91821000D02*
X146367500Y-92837000D01*
%TO.C,C14*%
X148017000Y-83962000D02*
X149033000Y-83962000D01*
X148017000Y-82438000D02*
X149033000Y-82438000D01*
%TO.C,C15*%
X150240999Y-88011000D02*
X150240999Y-89027000D01*
X151764999Y-88011000D02*
X151764999Y-89027000D01*
%TO.C,C81*%
X161290000Y-78232000D02*
X161290000Y-79248000D01*
X159766000Y-78232000D02*
X159766000Y-79248000D01*
%TO.C,C36*%
X138049000Y-99822000D02*
X139065000Y-99822000D01*
X138049000Y-98298000D02*
X139065000Y-98298000D01*
%TO.C,C40*%
X142875000Y-99059999D02*
X141859000Y-99059999D01*
X142875000Y-100583999D02*
X141859000Y-100583999D01*
%TO.C,C39*%
X135128000Y-90043000D02*
X136144000Y-90043000D01*
X135128000Y-88519000D02*
X136144000Y-88519000D01*
%TO.C,C41*%
X135509000Y-97663000D02*
X135509000Y-98679000D01*
X137033000Y-97663000D02*
X137033000Y-98679000D01*
%TO.C,C35*%
X138049000Y-96647000D02*
X139065000Y-96647000D01*
X138049000Y-95123000D02*
X139065000Y-95123000D01*
%TO.C,R4*%
X171259500Y-88773000D02*
X171259500Y-89027000D01*
X171259500Y-88773000D02*
X171259500Y-88519000D01*
X172148500Y-88773000D02*
X172148500Y-88519000D01*
X172148500Y-88773000D02*
X172148500Y-89027000D01*
%TO.C,R5*%
X169989500Y-88773000D02*
X169989500Y-89027000D01*
X169989500Y-88773000D02*
X169989500Y-88519000D01*
X170878500Y-88773000D02*
X170878500Y-88519000D01*
X170878500Y-88773000D02*
X170878500Y-89027000D01*
%TO.C,R27*%
X153519500Y-75725000D02*
X153519500Y-75471000D01*
X153519500Y-75725000D02*
X153519500Y-75979000D01*
X152630500Y-75725000D02*
X152630500Y-75979000D01*
X152630500Y-75725000D02*
X152630500Y-75471000D01*
%TO.C,R28*%
X153860500Y-78000000D02*
X153860500Y-78254000D01*
X153860500Y-78000000D02*
X153860500Y-77746000D01*
X154749500Y-78000000D02*
X154749500Y-77746000D01*
X154749500Y-78000000D02*
X154749500Y-78254000D01*
%TO.C,R15*%
X158940499Y-80010000D02*
X158940499Y-79756000D01*
X158940499Y-80010000D02*
X158940499Y-80264000D01*
X158051499Y-80010000D02*
X158051499Y-80264000D01*
X158051499Y-80010000D02*
X158051499Y-79756000D01*
%TO.C,R14*%
X158051499Y-78105000D02*
X158051499Y-78359000D01*
X158051499Y-78105000D02*
X158051499Y-77851000D01*
X158940499Y-78105000D02*
X158940499Y-77851000D01*
X158940499Y-78105000D02*
X158940499Y-78359000D01*
%TO.C,R31*%
X151005500Y-83312000D02*
X151005500Y-83566000D01*
X151005500Y-83312000D02*
X151005500Y-83058000D01*
X151894500Y-83312000D02*
X151894500Y-83058000D01*
X151894500Y-83312000D02*
X151894500Y-83566000D01*
%TO.C,R50*%
X159004000Y-80962500D02*
X158750000Y-80962500D01*
X159004000Y-80962500D02*
X159258000Y-80962500D01*
X159004000Y-81851500D02*
X159258000Y-81851500D01*
X159004000Y-81851500D02*
X158750000Y-81851500D01*
%TO.C,R49*%
X159004000Y-81851500D02*
X158750000Y-81851500D01*
X159004000Y-81851500D02*
X159258000Y-81851500D01*
X159004000Y-82740500D02*
X159258000Y-82740500D01*
X159004000Y-82740500D02*
X158750000Y-82740500D01*
%TO.C,R59*%
X139192000Y-69278500D02*
X138938000Y-69278500D01*
X139192000Y-69278500D02*
X139446000Y-69278500D01*
X139192000Y-70167500D02*
X139446000Y-70167500D01*
X139192000Y-70167500D02*
X138938000Y-70167500D01*
%TO.C,R57*%
X140271500Y-70866000D02*
X140271500Y-71120000D01*
X140271500Y-70866000D02*
X140271500Y-70612000D01*
X141160500Y-70866000D02*
X141160500Y-70612000D01*
X141160500Y-70866000D02*
X141160500Y-71120000D01*
%TO.C,R58*%
X139192000Y-74993500D02*
X138938000Y-74993500D01*
X139192000Y-74993500D02*
X139446000Y-74993500D01*
X139192000Y-74104500D02*
X139446000Y-74104500D01*
X139192000Y-74104500D02*
X138938000Y-74104500D01*
%TO.C,R64*%
X121920000Y-80200500D02*
X122174000Y-80200500D01*
X121920000Y-80200500D02*
X121666000Y-80200500D01*
X121920000Y-79311500D02*
X121666000Y-79311500D01*
X121920000Y-79311500D02*
X122174000Y-79311500D01*
%TO.C,R56*%
X121920000Y-79311500D02*
X122174000Y-79311500D01*
X121920000Y-79311500D02*
X121666000Y-79311500D01*
X121920000Y-78422500D02*
X121666000Y-78422500D01*
X121920000Y-78422500D02*
X122174000Y-78422500D01*
%TO.C,R6*%
X170815000Y-101409500D02*
X170561000Y-101409500D01*
X170815000Y-101409500D02*
X171069000Y-101409500D01*
X170815000Y-102298500D02*
X171069000Y-102298500D01*
X170815000Y-102298500D02*
X170561000Y-102298500D01*
%TO.C,R21*%
X128587500Y-103378000D02*
X128587500Y-103632000D01*
X128587500Y-103378000D02*
X128587500Y-103124000D01*
X129476500Y-103378000D02*
X129476500Y-103124000D01*
X129476500Y-103378000D02*
X129476500Y-103632000D01*
%TO.C,R42*%
X149161500Y-93789500D02*
X148907500Y-93789500D01*
X149161500Y-93789500D02*
X149415500Y-93789500D01*
X149161500Y-94678500D02*
X149415500Y-94678500D01*
X149161500Y-94678500D02*
X148907500Y-94678500D01*
%TO.C,R43*%
X147383500Y-94678500D02*
X147637500Y-94678500D01*
X147383500Y-94678500D02*
X147129500Y-94678500D01*
X147383500Y-93789500D02*
X147129500Y-93789500D01*
X147383500Y-93789500D02*
X147637500Y-93789500D01*
%TO.C,R16*%
X128206500Y-103377999D02*
X128206500Y-103123999D01*
X128206500Y-103377999D02*
X128206500Y-103631999D01*
X127317500Y-103377999D02*
X127317500Y-103631999D01*
X127317500Y-103377999D02*
X127317500Y-103123999D01*
%TO.C,R20*%
X134493000Y-92392500D02*
X134239000Y-92392500D01*
X134493000Y-92392500D02*
X134747000Y-92392500D01*
X134493000Y-93281500D02*
X134747000Y-93281500D01*
X134493000Y-93281500D02*
X134239000Y-93281500D01*
%TO.C,R19*%
X147129498Y-88519001D02*
X147129498Y-88265001D01*
X147129498Y-88519001D02*
X147129498Y-88773001D01*
X146240498Y-88519001D02*
X146240498Y-88773001D01*
X146240498Y-88519001D02*
X146240498Y-88265001D01*
%TO.C,R18*%
X139763500Y-94107000D02*
X139763500Y-93853000D01*
X139763500Y-94107000D02*
X139763500Y-94361000D01*
X138874500Y-94107000D02*
X138874500Y-94361000D01*
X138874500Y-94107000D02*
X138874500Y-93853000D01*
%TO.C,L6*%
X145100040Y-101724460D02*
X145100040Y-101922580D01*
X145100040Y-101922580D02*
X153095960Y-101922580D01*
X153095960Y-101922580D02*
X153095960Y-101724460D01*
X153095960Y-95125540D02*
X153095960Y-94927420D01*
X153095960Y-94927420D02*
X145100040Y-94927420D01*
X145100040Y-94927420D02*
X145100040Y-95125540D01*
%TO.C,U5*%
X147713700Y-93738700D02*
X148844000Y-93738700D01*
X147713700Y-90932000D02*
X148844000Y-90932000D01*
%TO.C,T1*%
X142240000Y-93103700D02*
X142240000Y-93814900D01*
X143078200Y-93814900D02*
X142240000Y-93814900D01*
X143078200Y-90970100D02*
X142240000Y-90970100D01*
X142240000Y-90970100D02*
X142240000Y-91681300D01*
%TO.C,Sign-Antistatic*%
X143637000Y-77978000D02*
X140081000Y-85090000D01*
X140081000Y-85090000D02*
X147193000Y-85090000D01*
X147193000Y-85090000D02*
X145859500Y-82423000D01*
X145859500Y-82423000D02*
X145415000Y-81534000D01*
X145415000Y-81534000D02*
X143637000Y-77978000D01*
X141859000Y-81597500D02*
X147193000Y-85090000D01*
X144233900Y-81534000D02*
X145415000Y-81534000D01*
X145859500Y-82423000D02*
X145542000Y-82423000D01*
X142875000Y-84010500D02*
X143027400Y-84010500D01*
X141922500Y-82613500D02*
X141922500Y-83693000D01*
X142367000Y-84010500D02*
X142367000Y-83883500D01*
X142303500Y-83820000D02*
X142303500Y-82804000D01*
X142303500Y-83820000D02*
X142240000Y-83820000D01*
X144017279Y-81470678D02*
G75*
G03*
X142430500Y-81978500I-466639J-1274902D01*
G01*
X144018085Y-81472114D02*
G75*
G03*
X144233900Y-81534000I182795J230214D01*
G01*
X145542699Y-82423474D02*
G75*
G03*
X145034000Y-82613500I-64199J-604046D01*
G01*
X144211539Y-83059576D02*
G75*
G03*
X145034000Y-82613500I-147819J1253796D01*
G01*
X143699292Y-82805166D02*
G75*
G03*
X142748000Y-83566000I285688J-1332334D01*
G01*
X143637085Y-83249965D02*
G75*
G03*
X143065500Y-84010500I284395J-808795D01*
G01*
X144076725Y-83122493D02*
G75*
G03*
X143637000Y-83248500I825195J-3709947D01*
G01*
X142748033Y-83883600D02*
G75*
G03*
X142875000Y-84010500I190467J63600D01*
G01*
X142748932Y-83566674D02*
G75*
G03*
X142748000Y-83883500I316568J-159346D01*
G01*
X142305065Y-82805845D02*
G75*
G03*
X143002000Y-82359500I-153965J1007685D01*
G01*
X142114451Y-82296142D02*
G75*
G03*
X142430500Y-81978500I-478971J792622D01*
G01*
X142111952Y-82297575D02*
G75*
G03*
X141922500Y-82613500I168688J-315925D01*
G01*
X141922500Y-83693000D02*
G75*
G03*
X142303500Y-84074000I381000J0D01*
G01*
X142305929Y-84076545D02*
G75*
G03*
X142367000Y-84010500I-2429J63505D01*
G01*
X142367000Y-83883500D02*
G75*
G03*
X142303500Y-83820000I-63500J0D01*
G01*
X142240000Y-83820000D02*
G75*
G03*
X142113000Y-83947000I0J-127000D01*
G01*
D17*
%TO.C,Sign-PbFree*%
X162085020Y-68625720D02*
X164518340Y-71046340D01*
D11*
X165048037Y-69789040D02*
G75*
G03*
X165048037Y-69789040I-1802237J0D01*
G01*
%TO.C,RPi_CAMERA1*%
X160231666Y-67134619D02*
X159893000Y-66650809D01*
X159651095Y-67134619D02*
X159651095Y-66118619D01*
X160038142Y-66118619D01*
X160134904Y-66167000D01*
X160183285Y-66215380D01*
X160231666Y-66312142D01*
X160231666Y-66457285D01*
X160183285Y-66554047D01*
X160134904Y-66602428D01*
X160038142Y-66650809D01*
X159651095Y-66650809D01*
X160667095Y-67134619D02*
X160667095Y-66118619D01*
X161054142Y-66118619D01*
X161150904Y-66167000D01*
X161199285Y-66215380D01*
X161247666Y-66312142D01*
X161247666Y-66457285D01*
X161199285Y-66554047D01*
X161150904Y-66602428D01*
X161054142Y-66650809D01*
X160667095Y-66650809D01*
X161683095Y-67134619D02*
X161683095Y-66457285D01*
X161683095Y-66118619D02*
X161634714Y-66167000D01*
X161683095Y-66215380D01*
X161731476Y-66167000D01*
X161683095Y-66118619D01*
X161683095Y-66215380D01*
X161925000Y-67231380D02*
X162699095Y-67231380D01*
X163521571Y-67037857D02*
X163473190Y-67086238D01*
X163328047Y-67134619D01*
X163231285Y-67134619D01*
X163086142Y-67086238D01*
X162989380Y-66989476D01*
X162941000Y-66892714D01*
X162892619Y-66699190D01*
X162892619Y-66554047D01*
X162941000Y-66360523D01*
X162989380Y-66263761D01*
X163086142Y-66167000D01*
X163231285Y-66118619D01*
X163328047Y-66118619D01*
X163473190Y-66167000D01*
X163521571Y-66215380D01*
X163908619Y-66844333D02*
X164392428Y-66844333D01*
X163811857Y-67134619D02*
X164150523Y-66118619D01*
X164489190Y-67134619D01*
X164827857Y-67134619D02*
X164827857Y-66118619D01*
X165166523Y-66844333D01*
X165505190Y-66118619D01*
X165505190Y-67134619D01*
X165989000Y-66602428D02*
X166327666Y-66602428D01*
X166472809Y-67134619D02*
X165989000Y-67134619D01*
X165989000Y-66118619D01*
X166472809Y-66118619D01*
X167488809Y-67134619D02*
X167150142Y-66650809D01*
X166908238Y-67134619D02*
X166908238Y-66118619D01*
X167295285Y-66118619D01*
X167392047Y-66167000D01*
X167440428Y-66215380D01*
X167488809Y-66312142D01*
X167488809Y-66457285D01*
X167440428Y-66554047D01*
X167392047Y-66602428D01*
X167295285Y-66650809D01*
X166908238Y-66650809D01*
X167875857Y-66844333D02*
X168359666Y-66844333D01*
X167779095Y-67134619D02*
X168117761Y-66118619D01*
X168456428Y-67134619D01*
X169327285Y-67134619D02*
X168746714Y-67134619D01*
X169037000Y-67134619D02*
X169037000Y-66118619D01*
X168940238Y-66263761D01*
X168843476Y-66360523D01*
X168746714Y-66408904D01*
D10*
X155466142Y-60161714D02*
X155937857Y-60161714D01*
X155683857Y-60452000D01*
X155792714Y-60452000D01*
X155865285Y-60488285D01*
X155901571Y-60524571D01*
X155937857Y-60597142D01*
X155937857Y-60778571D01*
X155901571Y-60851142D01*
X155865285Y-60887428D01*
X155792714Y-60923714D01*
X155575000Y-60923714D01*
X155502428Y-60887428D01*
X155466142Y-60851142D01*
X156409571Y-60161714D02*
X156482142Y-60161714D01*
X156554714Y-60198000D01*
X156591000Y-60234285D01*
X156627285Y-60306857D01*
X156663571Y-60452000D01*
X156663571Y-60633428D01*
X156627285Y-60778571D01*
X156591000Y-60851142D01*
X156554714Y-60887428D01*
X156482142Y-60923714D01*
X156409571Y-60923714D01*
X156337000Y-60887428D01*
X156300714Y-60851142D01*
X156264428Y-60778571D01*
X156228142Y-60633428D01*
X156228142Y-60452000D01*
X156264428Y-60306857D01*
X156300714Y-60234285D01*
X156337000Y-60198000D01*
X156409571Y-60161714D01*
X173082857Y-60923714D02*
X172647428Y-60923714D01*
X172865142Y-60923714D02*
X172865142Y-60161714D01*
X172792571Y-60270571D01*
X172720000Y-60343142D01*
X172647428Y-60379428D01*
X173736000Y-60161714D02*
X173590857Y-60161714D01*
X173518285Y-60198000D01*
X173482000Y-60234285D01*
X173409428Y-60343142D01*
X173373142Y-60488285D01*
X173373142Y-60778571D01*
X173409428Y-60851142D01*
X173445714Y-60887428D01*
X173518285Y-60923714D01*
X173663428Y-60923714D01*
X173736000Y-60887428D01*
X173772285Y-60851142D01*
X173808571Y-60778571D01*
X173808571Y-60597142D01*
X173772285Y-60524571D01*
X173736000Y-60488285D01*
X173663428Y-60452000D01*
X173518285Y-60452000D01*
X173445714Y-60488285D01*
X173409428Y-60524571D01*
X173373142Y-60597142D01*
X172701857Y-66003714D02*
X172266428Y-66003714D01*
X172484142Y-66003714D02*
X172484142Y-65241714D01*
X172411571Y-65350571D01*
X172339000Y-65423142D01*
X172266428Y-65459428D01*
X173391285Y-65241714D02*
X173028428Y-65241714D01*
X172992142Y-65604571D01*
X173028428Y-65568285D01*
X173101000Y-65532000D01*
X173282428Y-65532000D01*
X173355000Y-65568285D01*
X173391285Y-65604571D01*
X173427571Y-65677142D01*
X173427571Y-65858571D01*
X173391285Y-65931142D01*
X173355000Y-65967428D01*
X173282428Y-66003714D01*
X173101000Y-66003714D01*
X173028428Y-65967428D01*
X172992142Y-65931142D01*
D11*
X156445857Y-66868523D02*
X155720142Y-66868523D01*
X156083000Y-66868523D02*
X156083000Y-65598523D01*
X155962047Y-65779952D01*
X155841095Y-65900904D01*
X155720142Y-65961380D01*
%TO.C,C25*%
D18*
X130528785Y-92102214D02*
X130559023Y-92132452D01*
X130589261Y-92223166D01*
X130589261Y-92283642D01*
X130559023Y-92374357D01*
X130498547Y-92434833D01*
X130438071Y-92465071D01*
X130317119Y-92495309D01*
X130226404Y-92495309D01*
X130105452Y-92465071D01*
X130044976Y-92434833D01*
X129984500Y-92374357D01*
X129954261Y-92283642D01*
X129954261Y-92223166D01*
X129984500Y-92132452D01*
X130014738Y-92102214D01*
X130014738Y-91860309D02*
X129984500Y-91830071D01*
X129954261Y-91769595D01*
X129954261Y-91618404D01*
X129984500Y-91557928D01*
X130014738Y-91527690D01*
X130075214Y-91497452D01*
X130135690Y-91497452D01*
X130226404Y-91527690D01*
X130589261Y-91890547D01*
X130589261Y-91497452D01*
X129954261Y-90922928D02*
X129954261Y-91225309D01*
X130256642Y-91255547D01*
X130226404Y-91225309D01*
X130196166Y-91164833D01*
X130196166Y-91013642D01*
X130226404Y-90953166D01*
X130256642Y-90922928D01*
X130317119Y-90892690D01*
X130468309Y-90892690D01*
X130528785Y-90922928D01*
X130559023Y-90953166D01*
X130589261Y-91013642D01*
X130589261Y-91164833D01*
X130559023Y-91225309D01*
X130528785Y-91255547D01*
%TO.C,UEXT1*%
D11*
X131880428Y-103329619D02*
X131880428Y-104152095D01*
X131928809Y-104248857D01*
X131977190Y-104297238D01*
X132073952Y-104345619D01*
X132267476Y-104345619D01*
X132364238Y-104297238D01*
X132412619Y-104248857D01*
X132461000Y-104152095D01*
X132461000Y-103329619D01*
X132944809Y-103813428D02*
X133283476Y-103813428D01*
X133428619Y-104345619D02*
X132944809Y-104345619D01*
X132944809Y-103329619D01*
X133428619Y-103329619D01*
X133767285Y-103329619D02*
X134444619Y-104345619D01*
X134444619Y-103329619D02*
X133767285Y-104345619D01*
X134686523Y-103329619D02*
X135267095Y-103329619D01*
X134976809Y-104345619D02*
X134976809Y-103329619D01*
X136137952Y-104345619D02*
X135557380Y-104345619D01*
X135847666Y-104345619D02*
X135847666Y-103329619D01*
X135750904Y-103474761D01*
X135654142Y-103571523D01*
X135557380Y-103619904D01*
%TO.C,PoE1*%
D18*
X123643571Y-89060261D02*
X123643571Y-88425261D01*
X123885476Y-88425261D01*
X123945952Y-88455500D01*
X123976190Y-88485738D01*
X124006428Y-88546214D01*
X124006428Y-88636928D01*
X123976190Y-88697404D01*
X123945952Y-88727642D01*
X123885476Y-88757880D01*
X123643571Y-88757880D01*
X124369285Y-89060261D02*
X124308809Y-89030023D01*
X124278571Y-88999785D01*
X124248333Y-88939309D01*
X124248333Y-88757880D01*
X124278571Y-88697404D01*
X124308809Y-88667166D01*
X124369285Y-88636928D01*
X124460000Y-88636928D01*
X124520476Y-88667166D01*
X124550714Y-88697404D01*
X124580952Y-88757880D01*
X124580952Y-88939309D01*
X124550714Y-88999785D01*
X124520476Y-89030023D01*
X124460000Y-89060261D01*
X124369285Y-89060261D01*
X124853095Y-88727642D02*
X125064761Y-88727642D01*
X125155476Y-89060261D02*
X124853095Y-89060261D01*
X124853095Y-88425261D01*
X125155476Y-88425261D01*
X125276428Y-89120738D02*
X125760238Y-89120738D01*
X126032380Y-88425261D02*
X126153333Y-88425261D01*
X126213809Y-88455500D01*
X126274285Y-88515976D01*
X126304523Y-88636928D01*
X126304523Y-88848595D01*
X126274285Y-88969547D01*
X126213809Y-89030023D01*
X126153333Y-89060261D01*
X126032380Y-89060261D01*
X125971904Y-89030023D01*
X125911428Y-88969547D01*
X125881190Y-88848595D01*
X125881190Y-88636928D01*
X125911428Y-88515976D01*
X125971904Y-88455500D01*
X126032380Y-88425261D01*
X126848809Y-88636928D02*
X126848809Y-89060261D01*
X126576666Y-88636928D02*
X126576666Y-88969547D01*
X126606904Y-89030023D01*
X126667380Y-89060261D01*
X126758095Y-89060261D01*
X126818571Y-89030023D01*
X126848809Y-88999785D01*
X127060476Y-88636928D02*
X127302380Y-88636928D01*
X127151190Y-88425261D02*
X127151190Y-88969547D01*
X127181428Y-89030023D01*
X127241904Y-89060261D01*
X127302380Y-89060261D01*
X127483809Y-88485738D02*
X127514047Y-88455500D01*
X127574523Y-88425261D01*
X127725714Y-88425261D01*
X127786190Y-88455500D01*
X127816428Y-88485738D01*
X127846666Y-88546214D01*
X127846666Y-88606690D01*
X127816428Y-88697404D01*
X127453571Y-89060261D01*
X127846666Y-89060261D01*
X128723571Y-70137261D02*
X128723571Y-69502261D01*
X128965476Y-69502261D01*
X129025952Y-69532500D01*
X129056190Y-69562738D01*
X129086428Y-69623214D01*
X129086428Y-69713928D01*
X129056190Y-69774404D01*
X129025952Y-69804642D01*
X128965476Y-69834880D01*
X128723571Y-69834880D01*
X129449285Y-70137261D02*
X129388809Y-70107023D01*
X129358571Y-70076785D01*
X129328333Y-70016309D01*
X129328333Y-69834880D01*
X129358571Y-69774404D01*
X129388809Y-69744166D01*
X129449285Y-69713928D01*
X129540000Y-69713928D01*
X129600476Y-69744166D01*
X129630714Y-69774404D01*
X129660952Y-69834880D01*
X129660952Y-70016309D01*
X129630714Y-70076785D01*
X129600476Y-70107023D01*
X129540000Y-70137261D01*
X129449285Y-70137261D01*
X129933095Y-69804642D02*
X130144761Y-69804642D01*
X130235476Y-70137261D02*
X129933095Y-70137261D01*
X129933095Y-69502261D01*
X130235476Y-69502261D01*
X130356428Y-70197738D02*
X130840238Y-70197738D01*
X131112380Y-69502261D02*
X131233333Y-69502261D01*
X131293809Y-69532500D01*
X131354285Y-69592976D01*
X131384523Y-69713928D01*
X131384523Y-69925595D01*
X131354285Y-70046547D01*
X131293809Y-70107023D01*
X131233333Y-70137261D01*
X131112380Y-70137261D01*
X131051904Y-70107023D01*
X130991428Y-70046547D01*
X130961190Y-69925595D01*
X130961190Y-69713928D01*
X130991428Y-69592976D01*
X131051904Y-69532500D01*
X131112380Y-69502261D01*
X131928809Y-69713928D02*
X131928809Y-70137261D01*
X131656666Y-69713928D02*
X131656666Y-70046547D01*
X131686904Y-70107023D01*
X131747380Y-70137261D01*
X131838095Y-70137261D01*
X131898571Y-70107023D01*
X131928809Y-70076785D01*
X132140476Y-69713928D02*
X132382380Y-69713928D01*
X132231190Y-69502261D02*
X132231190Y-70046547D01*
X132261428Y-70107023D01*
X132321904Y-70137261D01*
X132382380Y-70137261D01*
X132926666Y-70137261D02*
X132563809Y-70137261D01*
X132745238Y-70137261D02*
X132745238Y-69502261D01*
X132684761Y-69592976D01*
X132624285Y-69653452D01*
X132563809Y-69683690D01*
D11*
X162257619Y-76695904D02*
X161241619Y-76695904D01*
X161241619Y-76308857D01*
X161290000Y-76212095D01*
X161338380Y-76163714D01*
X161435142Y-76115333D01*
X161580285Y-76115333D01*
X161677047Y-76163714D01*
X161725428Y-76212095D01*
X161773809Y-76308857D01*
X161773809Y-76695904D01*
X162257619Y-75534761D02*
X162209238Y-75631523D01*
X162160857Y-75679904D01*
X162064095Y-75728285D01*
X161773809Y-75728285D01*
X161677047Y-75679904D01*
X161628666Y-75631523D01*
X161580285Y-75534761D01*
X161580285Y-75389619D01*
X161628666Y-75292857D01*
X161677047Y-75244476D01*
X161773809Y-75196095D01*
X162064095Y-75196095D01*
X162160857Y-75244476D01*
X162209238Y-75292857D01*
X162257619Y-75389619D01*
X162257619Y-75534761D01*
X161725428Y-74760666D02*
X161725428Y-74422000D01*
X162257619Y-74276857D02*
X162257619Y-74760666D01*
X161241619Y-74760666D01*
X161241619Y-74276857D01*
X162354380Y-74083333D02*
X162354380Y-73309238D01*
X162257619Y-73067333D02*
X161241619Y-73067333D01*
X161580285Y-72583523D02*
X162257619Y-72583523D01*
X161677047Y-72583523D02*
X161628666Y-72535142D01*
X161580285Y-72438380D01*
X161580285Y-72293238D01*
X161628666Y-72196476D01*
X161725428Y-72148095D01*
X162257619Y-72148095D01*
%TO.C,Flash1*%
X164628285Y-94367047D02*
X164628285Y-94790380D01*
X165293523Y-94790380D02*
X164023523Y-94790380D01*
X164023523Y-94185619D01*
X165293523Y-93520380D02*
X165233047Y-93641333D01*
X165112095Y-93701809D01*
X164023523Y-93701809D01*
X165293523Y-92492285D02*
X164628285Y-92492285D01*
X164507333Y-92552761D01*
X164446857Y-92673714D01*
X164446857Y-92915619D01*
X164507333Y-93036571D01*
X165233047Y-92492285D02*
X165293523Y-92613238D01*
X165293523Y-92915619D01*
X165233047Y-93036571D01*
X165112095Y-93097047D01*
X164991142Y-93097047D01*
X164870190Y-93036571D01*
X164809714Y-92915619D01*
X164809714Y-92613238D01*
X164749238Y-92492285D01*
X165233047Y-91948000D02*
X165293523Y-91827047D01*
X165293523Y-91585142D01*
X165233047Y-91464190D01*
X165112095Y-91403714D01*
X165051619Y-91403714D01*
X164930666Y-91464190D01*
X164870190Y-91585142D01*
X164870190Y-91766571D01*
X164809714Y-91887523D01*
X164688761Y-91948000D01*
X164628285Y-91948000D01*
X164507333Y-91887523D01*
X164446857Y-91766571D01*
X164446857Y-91585142D01*
X164507333Y-91464190D01*
X165293523Y-90859428D02*
X164023523Y-90859428D01*
X165293523Y-90315142D02*
X164628285Y-90315142D01*
X164507333Y-90375619D01*
X164446857Y-90496571D01*
X164446857Y-90678000D01*
X164507333Y-90798952D01*
X164567809Y-90859428D01*
X165293523Y-89045142D02*
X165293523Y-89770857D01*
X165293523Y-89408000D02*
X164023523Y-89408000D01*
X164204952Y-89528952D01*
X164325904Y-89649904D01*
X164386380Y-89770857D01*
D17*
X173863095Y-85729819D02*
X173910714Y-85682200D01*
X174005952Y-85634580D01*
X174244047Y-85634580D01*
X174339285Y-85682200D01*
X174386904Y-85729819D01*
X174434523Y-85825057D01*
X174434523Y-85920295D01*
X174386904Y-86063152D01*
X173815476Y-86634580D01*
X174434523Y-86634580D01*
X175053571Y-85634580D02*
X175148809Y-85634580D01*
X175244047Y-85682200D01*
X175291666Y-85729819D01*
X175339285Y-85825057D01*
X175386904Y-86015533D01*
X175386904Y-86253628D01*
X175339285Y-86444104D01*
X175291666Y-86539342D01*
X175244047Y-86586961D01*
X175148809Y-86634580D01*
X175053571Y-86634580D01*
X174958333Y-86586961D01*
X174910714Y-86539342D01*
X174863095Y-86444104D01*
X174815476Y-86253628D01*
X174815476Y-86015533D01*
X174863095Y-85825057D01*
X174910714Y-85729819D01*
X174958333Y-85682200D01*
X175053571Y-85634580D01*
X180149523Y-86634580D02*
X179578095Y-86634580D01*
X179863809Y-86634580D02*
X179863809Y-85634580D01*
X179768571Y-85777438D01*
X179673333Y-85872676D01*
X179578095Y-85920295D01*
X180625714Y-86634580D02*
X180816190Y-86634580D01*
X180911428Y-86586961D01*
X180959047Y-86539342D01*
X181054285Y-86396485D01*
X181101904Y-86206009D01*
X181101904Y-85825057D01*
X181054285Y-85729819D01*
X181006666Y-85682200D01*
X180911428Y-85634580D01*
X180720952Y-85634580D01*
X180625714Y-85682200D01*
X180578095Y-85729819D01*
X180530476Y-85825057D01*
X180530476Y-86063152D01*
X180578095Y-86158390D01*
X180625714Y-86206009D01*
X180720952Y-86253628D01*
X180911428Y-86253628D01*
X181006666Y-86206009D01*
X181054285Y-86158390D01*
X181101904Y-86063152D01*
X181260714Y-99334580D02*
X180689285Y-99334580D01*
X180975000Y-99334580D02*
X180975000Y-98334580D01*
X180879761Y-98477438D01*
X180784523Y-98572676D01*
X180689285Y-98620295D01*
X173069285Y-98429819D02*
X173116904Y-98382200D01*
X173212142Y-98334580D01*
X173450238Y-98334580D01*
X173545476Y-98382200D01*
X173593095Y-98429819D01*
X173640714Y-98525057D01*
X173640714Y-98620295D01*
X173593095Y-98763152D01*
X173021666Y-99334580D01*
X173640714Y-99334580D01*
X157353095Y-98429819D02*
X157400714Y-98382200D01*
X157495952Y-98334580D01*
X157734047Y-98334580D01*
X157829285Y-98382200D01*
X157876904Y-98429819D01*
X157924523Y-98525057D01*
X157924523Y-98620295D01*
X157876904Y-98763152D01*
X157305476Y-99334580D01*
X157924523Y-99334580D01*
X158305476Y-98429819D02*
X158353095Y-98382200D01*
X158448333Y-98334580D01*
X158686428Y-98334580D01*
X158781666Y-98382200D01*
X158829285Y-98429819D01*
X158876904Y-98525057D01*
X158876904Y-98620295D01*
X158829285Y-98763152D01*
X158257857Y-99334580D01*
X158876904Y-99334580D01*
X164290476Y-85634580D02*
X164909523Y-85634580D01*
X164576190Y-86015533D01*
X164719047Y-86015533D01*
X164814285Y-86063152D01*
X164861904Y-86110771D01*
X164909523Y-86206009D01*
X164909523Y-86444104D01*
X164861904Y-86539342D01*
X164814285Y-86586961D01*
X164719047Y-86634580D01*
X164433333Y-86634580D01*
X164338095Y-86586961D01*
X164290476Y-86539342D01*
X165385714Y-86634580D02*
X165576190Y-86634580D01*
X165671428Y-86586961D01*
X165719047Y-86539342D01*
X165814285Y-86396485D01*
X165861904Y-86206009D01*
X165861904Y-85825057D01*
X165814285Y-85729819D01*
X165766666Y-85682200D01*
X165671428Y-85634580D01*
X165480952Y-85634580D01*
X165385714Y-85682200D01*
X165338095Y-85729819D01*
X165290476Y-85825057D01*
X165290476Y-86063152D01*
X165338095Y-86158390D01*
X165385714Y-86206009D01*
X165480952Y-86253628D01*
X165671428Y-86253628D01*
X165766666Y-86206009D01*
X165814285Y-86158390D01*
X165861904Y-86063152D01*
X162433095Y-98429819D02*
X162480714Y-98382200D01*
X162575952Y-98334580D01*
X162814047Y-98334580D01*
X162909285Y-98382200D01*
X162956904Y-98429819D01*
X163004523Y-98525057D01*
X163004523Y-98620295D01*
X162956904Y-98763152D01*
X162385476Y-99334580D01*
X163004523Y-99334580D01*
X163956904Y-99334580D02*
X163385476Y-99334580D01*
X163671190Y-99334580D02*
X163671190Y-98334580D01*
X163575952Y-98477438D01*
X163480714Y-98572676D01*
X163385476Y-98620295D01*
D12*
X180557714Y-93653428D02*
X180557714Y-93822761D01*
X180823809Y-93822761D02*
X180315809Y-93822761D01*
X180315809Y-93580857D01*
X180823809Y-93314761D02*
X180799619Y-93363142D01*
X180751238Y-93387333D01*
X180315809Y-93387333D01*
X180823809Y-92903523D02*
X180557714Y-92903523D01*
X180509333Y-92927714D01*
X180485142Y-92976095D01*
X180485142Y-93072857D01*
X180509333Y-93121238D01*
X180799619Y-92903523D02*
X180823809Y-92951904D01*
X180823809Y-93072857D01*
X180799619Y-93121238D01*
X180751238Y-93145428D01*
X180702857Y-93145428D01*
X180654476Y-93121238D01*
X180630285Y-93072857D01*
X180630285Y-92951904D01*
X180606095Y-92903523D01*
X180799619Y-92685809D02*
X180823809Y-92637428D01*
X180823809Y-92540666D01*
X180799619Y-92492285D01*
X180751238Y-92468095D01*
X180727047Y-92468095D01*
X180678666Y-92492285D01*
X180654476Y-92540666D01*
X180654476Y-92613238D01*
X180630285Y-92661619D01*
X180581904Y-92685809D01*
X180557714Y-92685809D01*
X180509333Y-92661619D01*
X180485142Y-92613238D01*
X180485142Y-92540666D01*
X180509333Y-92492285D01*
X180823809Y-92250380D02*
X180315809Y-92250380D01*
X180823809Y-92032666D02*
X180557714Y-92032666D01*
X180509333Y-92056857D01*
X180485142Y-92105238D01*
X180485142Y-92177809D01*
X180509333Y-92226190D01*
X180533523Y-92250380D01*
X180678666Y-91814952D02*
X180678666Y-91573047D01*
X180823809Y-91863333D02*
X180315809Y-91694000D01*
X180823809Y-91524666D01*
X157189714Y-93562714D02*
X157189714Y-93732047D01*
X157455809Y-93732047D02*
X156947809Y-93732047D01*
X156947809Y-93490142D01*
X157455809Y-93224047D02*
X157431619Y-93272428D01*
X157383238Y-93296619D01*
X156947809Y-93296619D01*
X157455809Y-92812809D02*
X157189714Y-92812809D01*
X157141333Y-92837000D01*
X157117142Y-92885380D01*
X157117142Y-92982142D01*
X157141333Y-93030523D01*
X157431619Y-92812809D02*
X157455809Y-92861190D01*
X157455809Y-92982142D01*
X157431619Y-93030523D01*
X157383238Y-93054714D01*
X157334857Y-93054714D01*
X157286476Y-93030523D01*
X157262285Y-92982142D01*
X157262285Y-92861190D01*
X157238095Y-92812809D01*
X157431619Y-92595095D02*
X157455809Y-92546714D01*
X157455809Y-92449952D01*
X157431619Y-92401571D01*
X157383238Y-92377380D01*
X157359047Y-92377380D01*
X157310666Y-92401571D01*
X157286476Y-92449952D01*
X157286476Y-92522523D01*
X157262285Y-92570904D01*
X157213904Y-92595095D01*
X157189714Y-92595095D01*
X157141333Y-92570904D01*
X157117142Y-92522523D01*
X157117142Y-92449952D01*
X157141333Y-92401571D01*
X157455809Y-92159666D02*
X156947809Y-92159666D01*
X157455809Y-91941952D02*
X157189714Y-91941952D01*
X157141333Y-91966142D01*
X157117142Y-92014523D01*
X157117142Y-92087095D01*
X157141333Y-92135476D01*
X157165523Y-92159666D01*
X157189714Y-91530714D02*
X157213904Y-91458142D01*
X157238095Y-91433952D01*
X157286476Y-91409761D01*
X157359047Y-91409761D01*
X157407428Y-91433952D01*
X157431619Y-91458142D01*
X157455809Y-91506523D01*
X157455809Y-91700047D01*
X156947809Y-91700047D01*
X156947809Y-91530714D01*
X156972000Y-91482333D01*
X156996190Y-91458142D01*
X157044571Y-91433952D01*
X157092952Y-91433952D01*
X157141333Y-91458142D01*
X157165523Y-91482333D01*
X157189714Y-91530714D01*
X157189714Y-91700047D01*
%TO.C,LiPo_BAT1*%
D18*
X121889761Y-104681261D02*
X121587380Y-104681261D01*
X121587380Y-104046261D01*
X122101428Y-104681261D02*
X122101428Y-104257928D01*
X122101428Y-104046261D02*
X122071190Y-104076500D01*
X122101428Y-104106738D01*
X122131666Y-104076500D01*
X122101428Y-104046261D01*
X122101428Y-104106738D01*
X122403809Y-104681261D02*
X122403809Y-104046261D01*
X122645714Y-104046261D01*
X122706190Y-104076500D01*
X122736428Y-104106738D01*
X122766666Y-104167214D01*
X122766666Y-104257928D01*
X122736428Y-104318404D01*
X122706190Y-104348642D01*
X122645714Y-104378880D01*
X122403809Y-104378880D01*
X123129523Y-104681261D02*
X123069047Y-104651023D01*
X123038809Y-104620785D01*
X123008571Y-104560309D01*
X123008571Y-104378880D01*
X123038809Y-104318404D01*
X123069047Y-104288166D01*
X123129523Y-104257928D01*
X123220238Y-104257928D01*
X123280714Y-104288166D01*
X123310952Y-104318404D01*
X123341190Y-104378880D01*
X123341190Y-104560309D01*
X123310952Y-104620785D01*
X123280714Y-104651023D01*
X123220238Y-104681261D01*
X123129523Y-104681261D01*
X123462142Y-104741738D02*
X123945952Y-104741738D01*
X124308809Y-104348642D02*
X124399523Y-104378880D01*
X124429761Y-104409119D01*
X124460000Y-104469595D01*
X124460000Y-104560309D01*
X124429761Y-104620785D01*
X124399523Y-104651023D01*
X124339047Y-104681261D01*
X124097142Y-104681261D01*
X124097142Y-104046261D01*
X124308809Y-104046261D01*
X124369285Y-104076500D01*
X124399523Y-104106738D01*
X124429761Y-104167214D01*
X124429761Y-104227690D01*
X124399523Y-104288166D01*
X124369285Y-104318404D01*
X124308809Y-104348642D01*
X124097142Y-104348642D01*
X124701904Y-104499833D02*
X125004285Y-104499833D01*
X124641428Y-104681261D02*
X124853095Y-104046261D01*
X125064761Y-104681261D01*
X125185714Y-104046261D02*
X125548571Y-104046261D01*
X125367142Y-104681261D02*
X125367142Y-104046261D01*
X126092857Y-104681261D02*
X125730000Y-104681261D01*
X125911428Y-104681261D02*
X125911428Y-104046261D01*
X125850952Y-104136976D01*
X125790476Y-104197452D01*
X125730000Y-104227690D01*
D11*
X122489634Y-99657120D02*
X122542015Y-99604740D01*
X122646777Y-99552359D01*
X122908681Y-99552359D01*
X123013443Y-99604740D01*
X123065824Y-99657120D01*
X123118205Y-99761882D01*
X123118205Y-99866644D01*
X123065824Y-100023787D01*
X122437253Y-100652359D01*
X123118205Y-100652359D01*
X125122265Y-100601559D02*
X124493694Y-100601559D01*
X124807980Y-100601559D02*
X124807980Y-99501559D01*
X124703218Y-99658701D01*
X124598456Y-99763463D01*
X124493694Y-99815844D01*
%TO.C,EXT1*%
X156149523Y-103668285D02*
X156572857Y-103668285D01*
X156754285Y-104333523D02*
X156149523Y-104333523D01*
X156149523Y-103063523D01*
X156754285Y-103063523D01*
X157177619Y-103063523D02*
X158024285Y-104333523D01*
X158024285Y-103063523D02*
X157177619Y-104333523D01*
X158326666Y-103063523D02*
X159052380Y-103063523D01*
X158689523Y-104333523D02*
X158689523Y-103063523D01*
X160140952Y-104333523D02*
X159415238Y-104333523D01*
X159778095Y-104333523D02*
X159778095Y-103063523D01*
X159657142Y-103244952D01*
X159536190Y-103365904D01*
X159415238Y-103426380D01*
%TO.C,PWR1*%
D10*
X176239714Y-108058857D02*
X175477714Y-108058857D01*
X175477714Y-107768571D01*
X175514000Y-107696000D01*
X175550285Y-107659714D01*
X175622857Y-107623428D01*
X175731714Y-107623428D01*
X175804285Y-107659714D01*
X175840571Y-107696000D01*
X175876857Y-107768571D01*
X175876857Y-108058857D01*
X175477714Y-107369428D02*
X176239714Y-107188000D01*
X175695428Y-107042857D01*
X176239714Y-106897714D01*
X175477714Y-106716285D01*
X176239714Y-105990571D02*
X175876857Y-106244571D01*
X176239714Y-106426000D02*
X175477714Y-106426000D01*
X175477714Y-106135714D01*
X175514000Y-106063142D01*
X175550285Y-106026857D01*
X175622857Y-105990571D01*
X175731714Y-105990571D01*
X175804285Y-106026857D01*
X175840571Y-106063142D01*
X175876857Y-106135714D01*
X175876857Y-106426000D01*
X176239714Y-105264857D02*
X176239714Y-105700285D01*
X176239714Y-105482571D02*
X175477714Y-105482571D01*
X175586571Y-105555142D01*
X175659142Y-105627714D01*
X175695428Y-105700285D01*
%TO.C,RST1*%
X178035857Y-104484714D02*
X177781857Y-104121857D01*
X177600428Y-104484714D02*
X177600428Y-103722714D01*
X177890714Y-103722714D01*
X177963285Y-103759000D01*
X177999571Y-103795285D01*
X178035857Y-103867857D01*
X178035857Y-103976714D01*
X177999571Y-104049285D01*
X177963285Y-104085571D01*
X177890714Y-104121857D01*
X177600428Y-104121857D01*
X178326142Y-104448428D02*
X178435000Y-104484714D01*
X178616428Y-104484714D01*
X178689000Y-104448428D01*
X178725285Y-104412142D01*
X178761571Y-104339571D01*
X178761571Y-104267000D01*
X178725285Y-104194428D01*
X178689000Y-104158142D01*
X178616428Y-104121857D01*
X178471285Y-104085571D01*
X178398714Y-104049285D01*
X178362428Y-104013000D01*
X178326142Y-103940428D01*
X178326142Y-103867857D01*
X178362428Y-103795285D01*
X178398714Y-103759000D01*
X178471285Y-103722714D01*
X178652714Y-103722714D01*
X178761571Y-103759000D01*
X178979285Y-103722714D02*
X179414714Y-103722714D01*
X179197000Y-104484714D02*
X179197000Y-103722714D01*
X180067857Y-104484714D02*
X179632428Y-104484714D01*
X179850142Y-104484714D02*
X179850142Y-103722714D01*
X179777571Y-103831571D01*
X179705000Y-103904142D01*
X179632428Y-103940428D01*
%TO.C,LCD_CON1*%
D18*
X147894523Y-67089261D02*
X147592142Y-67089261D01*
X147592142Y-66454261D01*
X148469047Y-67028785D02*
X148438809Y-67059023D01*
X148348095Y-67089261D01*
X148287619Y-67089261D01*
X148196904Y-67059023D01*
X148136428Y-66998547D01*
X148106190Y-66938071D01*
X148075952Y-66817119D01*
X148075952Y-66726404D01*
X148106190Y-66605452D01*
X148136428Y-66544976D01*
X148196904Y-66484500D01*
X148287619Y-66454261D01*
X148348095Y-66454261D01*
X148438809Y-66484500D01*
X148469047Y-66514738D01*
X148741190Y-67089261D02*
X148741190Y-66454261D01*
X148892380Y-66454261D01*
X148983095Y-66484500D01*
X149043571Y-66544976D01*
X149073809Y-66605452D01*
X149104047Y-66726404D01*
X149104047Y-66817119D01*
X149073809Y-66938071D01*
X149043571Y-66998547D01*
X148983095Y-67059023D01*
X148892380Y-67089261D01*
X148741190Y-67089261D01*
X149225000Y-67149738D02*
X149708809Y-67149738D01*
X150222857Y-67028785D02*
X150192619Y-67059023D01*
X150101904Y-67089261D01*
X150041428Y-67089261D01*
X149950714Y-67059023D01*
X149890238Y-66998547D01*
X149860000Y-66938071D01*
X149829761Y-66817119D01*
X149829761Y-66726404D01*
X149860000Y-66605452D01*
X149890238Y-66544976D01*
X149950714Y-66484500D01*
X150041428Y-66454261D01*
X150101904Y-66454261D01*
X150192619Y-66484500D01*
X150222857Y-66514738D01*
X150615952Y-66454261D02*
X150736904Y-66454261D01*
X150797380Y-66484500D01*
X150857857Y-66544976D01*
X150888095Y-66665928D01*
X150888095Y-66877595D01*
X150857857Y-66998547D01*
X150797380Y-67059023D01*
X150736904Y-67089261D01*
X150615952Y-67089261D01*
X150555476Y-67059023D01*
X150495000Y-66998547D01*
X150464761Y-66877595D01*
X150464761Y-66665928D01*
X150495000Y-66544976D01*
X150555476Y-66484500D01*
X150615952Y-66454261D01*
X151160238Y-67089261D02*
X151160238Y-66454261D01*
X151523095Y-67089261D01*
X151523095Y-66454261D01*
X152158095Y-67089261D02*
X151795238Y-67089261D01*
X151976666Y-67089261D02*
X151976666Y-66454261D01*
X151916190Y-66544976D01*
X151855714Y-66605452D01*
X151795238Y-66635690D01*
D10*
X129376714Y-66284714D02*
X128941285Y-66284714D01*
X129159000Y-66284714D02*
X129159000Y-65522714D01*
X129086428Y-65631571D01*
X129013857Y-65704142D01*
X128941285Y-65740428D01*
%TO.C,LAN1*%
D11*
X178758547Y-67198119D02*
X178274738Y-67198119D01*
X178274738Y-66182119D01*
X179048833Y-66907833D02*
X179532642Y-66907833D01*
X178952071Y-67198119D02*
X179290738Y-66182119D01*
X179629404Y-67198119D01*
X179968071Y-67198119D02*
X179968071Y-66182119D01*
X180548642Y-67198119D01*
X180548642Y-66182119D01*
X181564642Y-67198119D02*
X180984071Y-67198119D01*
X181274357Y-67198119D02*
X181274357Y-66182119D01*
X181177595Y-66327261D01*
X181080833Y-66424023D01*
X180984071Y-66472404D01*
%TO.C,HEADPHONES/LINEOUT1*%
D18*
X128324428Y-79916261D02*
X128324428Y-79281261D01*
X128324428Y-79583642D02*
X128687285Y-79583642D01*
X128687285Y-79916261D02*
X128687285Y-79281261D01*
X128989666Y-79583642D02*
X129201333Y-79583642D01*
X129292047Y-79916261D02*
X128989666Y-79916261D01*
X128989666Y-79281261D01*
X129292047Y-79281261D01*
X129533952Y-79734833D02*
X129836333Y-79734833D01*
X129473476Y-79916261D02*
X129685142Y-79281261D01*
X129896809Y-79916261D01*
X130108476Y-79916261D02*
X130108476Y-79281261D01*
X130259666Y-79281261D01*
X130350380Y-79311500D01*
X130410857Y-79371976D01*
X130441095Y-79432452D01*
X130471333Y-79553404D01*
X130471333Y-79644119D01*
X130441095Y-79765071D01*
X130410857Y-79825547D01*
X130350380Y-79886023D01*
X130259666Y-79916261D01*
X130108476Y-79916261D01*
X130743476Y-79916261D02*
X130743476Y-79281261D01*
X130985380Y-79281261D01*
X131045857Y-79311500D01*
X131076095Y-79341738D01*
X131106333Y-79402214D01*
X131106333Y-79492928D01*
X131076095Y-79553404D01*
X131045857Y-79583642D01*
X130985380Y-79613880D01*
X130743476Y-79613880D01*
X131378476Y-79916261D02*
X131378476Y-79281261D01*
X131378476Y-79583642D02*
X131741333Y-79583642D01*
X131741333Y-79916261D02*
X131741333Y-79281261D01*
X132164666Y-79281261D02*
X132285619Y-79281261D01*
X132346095Y-79311500D01*
X132406571Y-79371976D01*
X132436809Y-79492928D01*
X132436809Y-79704595D01*
X132406571Y-79825547D01*
X132346095Y-79886023D01*
X132285619Y-79916261D01*
X132164666Y-79916261D01*
X132104190Y-79886023D01*
X132043714Y-79825547D01*
X132013476Y-79704595D01*
X132013476Y-79492928D01*
X132043714Y-79371976D01*
X132104190Y-79311500D01*
X132164666Y-79281261D01*
X132708952Y-79916261D02*
X132708952Y-79281261D01*
X133071809Y-79916261D01*
X133071809Y-79281261D01*
X133374190Y-79583642D02*
X133585857Y-79583642D01*
X133676571Y-79916261D02*
X133374190Y-79916261D01*
X133374190Y-79281261D01*
X133676571Y-79281261D01*
X133918476Y-79886023D02*
X134009190Y-79916261D01*
X134160380Y-79916261D01*
X134220857Y-79886023D01*
X134251095Y-79855785D01*
X134281333Y-79795309D01*
X134281333Y-79734833D01*
X134251095Y-79674357D01*
X134220857Y-79644119D01*
X134160380Y-79613880D01*
X134039428Y-79583642D01*
X133978952Y-79553404D01*
X133948714Y-79523166D01*
X133918476Y-79462690D01*
X133918476Y-79402214D01*
X133948714Y-79341738D01*
X133978952Y-79311500D01*
X134039428Y-79281261D01*
X134190619Y-79281261D01*
X134281333Y-79311500D01*
X135007047Y-79251023D02*
X134462761Y-80067452D01*
X135521095Y-79916261D02*
X135218714Y-79916261D01*
X135218714Y-79281261D01*
X135732761Y-79916261D02*
X135732761Y-79281261D01*
X136035142Y-79916261D02*
X136035142Y-79281261D01*
X136398000Y-79916261D01*
X136398000Y-79281261D01*
X136700380Y-79583642D02*
X136912047Y-79583642D01*
X137002761Y-79916261D02*
X136700380Y-79916261D01*
X136700380Y-79281261D01*
X137002761Y-79281261D01*
X137395857Y-79281261D02*
X137516809Y-79281261D01*
X137577285Y-79311500D01*
X137637761Y-79371976D01*
X137668000Y-79492928D01*
X137668000Y-79704595D01*
X137637761Y-79825547D01*
X137577285Y-79886023D01*
X137516809Y-79916261D01*
X137395857Y-79916261D01*
X137335380Y-79886023D01*
X137274904Y-79825547D01*
X137244666Y-79704595D01*
X137244666Y-79492928D01*
X137274904Y-79371976D01*
X137335380Y-79311500D01*
X137395857Y-79281261D01*
X137940142Y-79281261D02*
X137940142Y-79795309D01*
X137970380Y-79855785D01*
X138000619Y-79886023D01*
X138061095Y-79916261D01*
X138182047Y-79916261D01*
X138242523Y-79886023D01*
X138272761Y-79855785D01*
X138303000Y-79795309D01*
X138303000Y-79281261D01*
X138514666Y-79281261D02*
X138877523Y-79281261D01*
X138696095Y-79916261D02*
X138696095Y-79281261D01*
X139421809Y-79916261D02*
X139058952Y-79916261D01*
X139240380Y-79916261D02*
X139240380Y-79281261D01*
X139179904Y-79371976D01*
X139119428Y-79432452D01*
X139058952Y-79462690D01*
%TO.C,MIC/LINEIN1*%
D10*
X126274285Y-77624214D02*
X126274285Y-76862214D01*
X126528285Y-77406500D01*
X126782285Y-76862214D01*
X126782285Y-77624214D01*
X127145142Y-77624214D02*
X127145142Y-76862214D01*
X127943428Y-77551642D02*
X127907142Y-77587928D01*
X127798285Y-77624214D01*
X127725714Y-77624214D01*
X127616857Y-77587928D01*
X127544285Y-77515357D01*
X127508000Y-77442785D01*
X127471714Y-77297642D01*
X127471714Y-77188785D01*
X127508000Y-77043642D01*
X127544285Y-76971071D01*
X127616857Y-76898500D01*
X127725714Y-76862214D01*
X127798285Y-76862214D01*
X127907142Y-76898500D01*
X127943428Y-76934785D01*
X128814285Y-76825928D02*
X128161142Y-77805642D01*
X129431142Y-77624214D02*
X129068285Y-77624214D01*
X129068285Y-76862214D01*
X129685142Y-77624214D02*
X129685142Y-76862214D01*
X130048000Y-77624214D02*
X130048000Y-76862214D01*
X130483428Y-77624214D01*
X130483428Y-76862214D01*
X130846285Y-77225071D02*
X131100285Y-77225071D01*
X131209142Y-77624214D02*
X130846285Y-77624214D01*
X130846285Y-76862214D01*
X131209142Y-76862214D01*
X131535714Y-77624214D02*
X131535714Y-76862214D01*
X131898571Y-77624214D02*
X131898571Y-76862214D01*
X132334000Y-77624214D01*
X132334000Y-76862214D01*
X133096000Y-77624214D02*
X132660571Y-77624214D01*
X132878285Y-77624214D02*
X132878285Y-76862214D01*
X132805714Y-76971071D01*
X132733142Y-77043642D01*
X132660571Y-77079928D01*
%TO.C,ANT1*%
D18*
X120819333Y-68973095D02*
X120819333Y-68670714D01*
X121000761Y-69033571D02*
X120365761Y-68821904D01*
X121000761Y-68610238D01*
X121000761Y-68398571D02*
X120365761Y-68398571D01*
X121000761Y-68035714D01*
X120365761Y-68035714D01*
X120365761Y-67824047D02*
X120365761Y-67461190D01*
X121000761Y-67642619D02*
X120365761Y-67642619D01*
X121000761Y-66916904D02*
X121000761Y-67279761D01*
X121000761Y-67098333D02*
X120365761Y-67098333D01*
X120456476Y-67158809D01*
X120516952Y-67219285D01*
X120547190Y-67279761D01*
%TO.C,USB-OTG1*%
D19*
X127910166Y-97832333D02*
X128629833Y-97832333D01*
X128714500Y-97790000D01*
X128756833Y-97747666D01*
X128799166Y-97663000D01*
X128799166Y-97493666D01*
X128756833Y-97409000D01*
X128714500Y-97366666D01*
X128629833Y-97324333D01*
X127910166Y-97324333D01*
X128756833Y-96943333D02*
X128799166Y-96816333D01*
X128799166Y-96604666D01*
X128756833Y-96520000D01*
X128714500Y-96477666D01*
X128629833Y-96435333D01*
X128545166Y-96435333D01*
X128460500Y-96477666D01*
X128418166Y-96520000D01*
X128375833Y-96604666D01*
X128333500Y-96774000D01*
X128291166Y-96858666D01*
X128248833Y-96901000D01*
X128164166Y-96943333D01*
X128079500Y-96943333D01*
X127994833Y-96901000D01*
X127952500Y-96858666D01*
X127910166Y-96774000D01*
X127910166Y-96562333D01*
X127952500Y-96435333D01*
X128333500Y-95758000D02*
X128375833Y-95631000D01*
X128418166Y-95588666D01*
X128502833Y-95546333D01*
X128629833Y-95546333D01*
X128714500Y-95588666D01*
X128756833Y-95631000D01*
X128799166Y-95715666D01*
X128799166Y-96054333D01*
X127910166Y-96054333D01*
X127910166Y-95758000D01*
X127952500Y-95673333D01*
X127994833Y-95631000D01*
X128079500Y-95588666D01*
X128164166Y-95588666D01*
X128248833Y-95631000D01*
X128291166Y-95673333D01*
X128333500Y-95758000D01*
X128333500Y-96054333D01*
X128460500Y-95165333D02*
X128460500Y-94488000D01*
X127910166Y-93895333D02*
X127910166Y-93726000D01*
X127952500Y-93641333D01*
X128037166Y-93556666D01*
X128206500Y-93514333D01*
X128502833Y-93514333D01*
X128672166Y-93556666D01*
X128756833Y-93641333D01*
X128799166Y-93726000D01*
X128799166Y-93895333D01*
X128756833Y-93980000D01*
X128672166Y-94064666D01*
X128502833Y-94107000D01*
X128206500Y-94107000D01*
X128037166Y-94064666D01*
X127952500Y-93980000D01*
X127910166Y-93895333D01*
X127910166Y-93260333D02*
X127910166Y-92752333D01*
X128799166Y-93006333D02*
X127910166Y-93006333D01*
X127952500Y-91990333D02*
X127910166Y-92075000D01*
X127910166Y-92202000D01*
X127952500Y-92329000D01*
X128037166Y-92413666D01*
X128121833Y-92456000D01*
X128291166Y-92498333D01*
X128418166Y-92498333D01*
X128587500Y-92456000D01*
X128672166Y-92413666D01*
X128756833Y-92329000D01*
X128799166Y-92202000D01*
X128799166Y-92117333D01*
X128756833Y-91990333D01*
X128714500Y-91948000D01*
X128418166Y-91948000D01*
X128418166Y-92117333D01*
X128799166Y-91101333D02*
X128799166Y-91609333D01*
X128799166Y-91355333D02*
X127910166Y-91355333D01*
X128037166Y-91440000D01*
X128121833Y-91524666D01*
X128164166Y-91609333D01*
D12*
X123139666Y-92709809D02*
X123309000Y-93217809D01*
X123478333Y-92709809D01*
X123817000Y-92951714D02*
X123889571Y-92975904D01*
X123913761Y-93000095D01*
X123937952Y-93048476D01*
X123937952Y-93121047D01*
X123913761Y-93169428D01*
X123889571Y-93193619D01*
X123841190Y-93217809D01*
X123647666Y-93217809D01*
X123647666Y-92709809D01*
X123817000Y-92709809D01*
X123865380Y-92734000D01*
X123889571Y-92758190D01*
X123913761Y-92806571D01*
X123913761Y-92854952D01*
X123889571Y-92903333D01*
X123865380Y-92927523D01*
X123817000Y-92951714D01*
X123647666Y-92951714D01*
X124155666Y-92709809D02*
X124155666Y-93121047D01*
X124179857Y-93169428D01*
X124204047Y-93193619D01*
X124252428Y-93217809D01*
X124349190Y-93217809D01*
X124397571Y-93193619D01*
X124421761Y-93169428D01*
X124445952Y-93121047D01*
X124445952Y-92709809D01*
X124663666Y-93193619D02*
X124736238Y-93217809D01*
X124857190Y-93217809D01*
X124905571Y-93193619D01*
X124929761Y-93169428D01*
X124953952Y-93121047D01*
X124953952Y-93072666D01*
X124929761Y-93024285D01*
X124905571Y-93000095D01*
X124857190Y-92975904D01*
X124760428Y-92951714D01*
X124712047Y-92927523D01*
X124687857Y-92903333D01*
X124663666Y-92854952D01*
X124663666Y-92806571D01*
X124687857Y-92758190D01*
X124712047Y-92734000D01*
X124760428Y-92709809D01*
X124881380Y-92709809D01*
X124953952Y-92734000D01*
X124123476Y-93967809D02*
X124123476Y-93459809D01*
X124244428Y-93459809D01*
X124317000Y-93484000D01*
X124365380Y-93532380D01*
X124389571Y-93580761D01*
X124413761Y-93677523D01*
X124413761Y-93750095D01*
X124389571Y-93846857D01*
X124365380Y-93895238D01*
X124317000Y-93943619D01*
X124244428Y-93967809D01*
X124123476Y-93967809D01*
X124631476Y-93774285D02*
X125018523Y-93774285D01*
X124123476Y-94717809D02*
X124123476Y-94209809D01*
X124244428Y-94209809D01*
X124317000Y-94234000D01*
X124365380Y-94282380D01*
X124389571Y-94330761D01*
X124413761Y-94427523D01*
X124413761Y-94500095D01*
X124389571Y-94596857D01*
X124365380Y-94645238D01*
X124317000Y-94693619D01*
X124244428Y-94717809D01*
X124123476Y-94717809D01*
X124631476Y-94524285D02*
X125018523Y-94524285D01*
X124825000Y-94717809D02*
X124825000Y-94330761D01*
X124567000Y-95467809D02*
X124567000Y-94959809D01*
X124808904Y-95467809D02*
X124808904Y-94959809D01*
X124929857Y-94959809D01*
X125002428Y-94984000D01*
X125050809Y-95032380D01*
X125075000Y-95080761D01*
X125099190Y-95177523D01*
X125099190Y-95250095D01*
X125075000Y-95346857D01*
X125050809Y-95395238D01*
X125002428Y-95443619D01*
X124929857Y-95467809D01*
X124808904Y-95467809D01*
X124083952Y-95834000D02*
X124035571Y-95809809D01*
X123963000Y-95809809D01*
X123890428Y-95834000D01*
X123842047Y-95882380D01*
X123817857Y-95930761D01*
X123793666Y-96027523D01*
X123793666Y-96100095D01*
X123817857Y-96196857D01*
X123842047Y-96245238D01*
X123890428Y-96293619D01*
X123963000Y-96317809D01*
X124011380Y-96317809D01*
X124083952Y-96293619D01*
X124108142Y-96269428D01*
X124108142Y-96100095D01*
X124011380Y-96100095D01*
X124325857Y-96317809D02*
X124325857Y-95809809D01*
X124616142Y-96317809D01*
X124616142Y-95809809D01*
X124858047Y-96317809D02*
X124858047Y-95809809D01*
X124979000Y-95809809D01*
X125051571Y-95834000D01*
X125099952Y-95882380D01*
X125124142Y-95930761D01*
X125148333Y-96027523D01*
X125148333Y-96100095D01*
X125124142Y-96196857D01*
X125099952Y-96245238D01*
X125051571Y-96293619D01*
X124979000Y-96317809D01*
X124858047Y-96317809D01*
%TO.C,D2*%
D10*
X144979571Y-104230714D02*
X144979571Y-103468714D01*
X145161000Y-103468714D01*
X145269857Y-103505000D01*
X145342428Y-103577571D01*
X145378714Y-103650142D01*
X145415000Y-103795285D01*
X145415000Y-103904142D01*
X145378714Y-104049285D01*
X145342428Y-104121857D01*
X145269857Y-104194428D01*
X145161000Y-104230714D01*
X144979571Y-104230714D01*
X145705285Y-103541285D02*
X145741571Y-103505000D01*
X145814142Y-103468714D01*
X145995571Y-103468714D01*
X146068142Y-103505000D01*
X146104428Y-103541285D01*
X146140714Y-103613857D01*
X146140714Y-103686428D01*
X146104428Y-103795285D01*
X145669000Y-104230714D01*
X146140714Y-104230714D01*
%TO.C,U2*%
D11*
X165613563Y-94685999D02*
X166641659Y-94685999D01*
X166762611Y-94625522D01*
X166823087Y-94565046D01*
X166883563Y-94444094D01*
X166883563Y-94202189D01*
X166823087Y-94081237D01*
X166762611Y-94020760D01*
X166641659Y-93960284D01*
X165613563Y-93960284D01*
X165734516Y-93415999D02*
X165674040Y-93355522D01*
X165613563Y-93234570D01*
X165613563Y-92932189D01*
X165674040Y-92811237D01*
X165734516Y-92750760D01*
X165855468Y-92690284D01*
X165976420Y-92690284D01*
X166157849Y-92750760D01*
X166883563Y-93476475D01*
X166883563Y-92690284D01*
D18*
X169142833Y-94724461D02*
X168779976Y-94724461D01*
X168961404Y-94724461D02*
X168961404Y-94089461D01*
X168900928Y-94180176D01*
X168840452Y-94240652D01*
X168779976Y-94270890D01*
X169717357Y-94089461D02*
X169414976Y-94089461D01*
X169384738Y-94391842D01*
X169414976Y-94361604D01*
X169475452Y-94331366D01*
X169626642Y-94331366D01*
X169687119Y-94361604D01*
X169717357Y-94391842D01*
X169747595Y-94452319D01*
X169747595Y-94603509D01*
X169717357Y-94663985D01*
X169687119Y-94694223D01*
X169626642Y-94724461D01*
X169475452Y-94724461D01*
X169414976Y-94694223D01*
X169384738Y-94663985D01*
X170140690Y-94089461D02*
X170201166Y-94089461D01*
X170261642Y-94119700D01*
X170291880Y-94149938D01*
X170322119Y-94210414D01*
X170352357Y-94331366D01*
X170352357Y-94482557D01*
X170322119Y-94603509D01*
X170291880Y-94663985D01*
X170261642Y-94694223D01*
X170201166Y-94724461D01*
X170140690Y-94724461D01*
X170080214Y-94694223D01*
X170049976Y-94663985D01*
X170019738Y-94603509D01*
X169989500Y-94482557D01*
X169989500Y-94331366D01*
X170019738Y-94210414D01*
X170049976Y-94149938D01*
X170080214Y-94119700D01*
X170140690Y-94089461D01*
X170624500Y-94724461D02*
X170624500Y-94301128D01*
X170624500Y-94361604D02*
X170654738Y-94331366D01*
X170715214Y-94301128D01*
X170805928Y-94301128D01*
X170866404Y-94331366D01*
X170896642Y-94391842D01*
X170896642Y-94724461D01*
X170896642Y-94391842D02*
X170926880Y-94331366D01*
X170987357Y-94301128D01*
X171078071Y-94301128D01*
X171138547Y-94331366D01*
X171168785Y-94391842D01*
X171168785Y-94724461D01*
X171471166Y-94724461D02*
X171471166Y-94301128D01*
X171471166Y-94089461D02*
X171440928Y-94119700D01*
X171471166Y-94149938D01*
X171501404Y-94119700D01*
X171471166Y-94089461D01*
X171471166Y-94149938D01*
X171864261Y-94724461D02*
X171803785Y-94694223D01*
X171773547Y-94633747D01*
X171773547Y-94089461D01*
D10*
X167841022Y-93762648D02*
X167949880Y-93798934D01*
X168131308Y-93798934D01*
X168203880Y-93762648D01*
X168240165Y-93726362D01*
X168276451Y-93653791D01*
X168276451Y-93581220D01*
X168240165Y-93508648D01*
X168203880Y-93472362D01*
X168131308Y-93436077D01*
X167986165Y-93399791D01*
X167913594Y-93363505D01*
X167877308Y-93327220D01*
X167841022Y-93254648D01*
X167841022Y-93182077D01*
X167877308Y-93109505D01*
X167913594Y-93073220D01*
X167986165Y-93036934D01*
X168167594Y-93036934D01*
X168276451Y-93073220D01*
X168748165Y-93036934D02*
X168893308Y-93036934D01*
X168965880Y-93073220D01*
X169038451Y-93145791D01*
X169074737Y-93290934D01*
X169074737Y-93544934D01*
X169038451Y-93690077D01*
X168965880Y-93762648D01*
X168893308Y-93798934D01*
X168748165Y-93798934D01*
X168675594Y-93762648D01*
X168603022Y-93690077D01*
X168566737Y-93544934D01*
X168566737Y-93290934D01*
X168603022Y-93145791D01*
X168675594Y-93073220D01*
X168748165Y-93036934D01*
X169401308Y-93798934D02*
X169401308Y-93036934D01*
X170199594Y-93726362D02*
X170163308Y-93762648D01*
X170054451Y-93798934D01*
X169981880Y-93798934D01*
X169873022Y-93762648D01*
X169800451Y-93690077D01*
X169764165Y-93617505D01*
X169727880Y-93472362D01*
X169727880Y-93363505D01*
X169764165Y-93218362D01*
X169800451Y-93145791D01*
X169873022Y-93073220D01*
X169981880Y-93036934D01*
X170054451Y-93036934D01*
X170163308Y-93073220D01*
X170199594Y-93109505D01*
X170526165Y-93508648D02*
X171106737Y-93508648D01*
X171578451Y-93363505D02*
X171505880Y-93327220D01*
X171469594Y-93290934D01*
X171433308Y-93218362D01*
X171433308Y-93182077D01*
X171469594Y-93109505D01*
X171505880Y-93073220D01*
X171578451Y-93036934D01*
X171723594Y-93036934D01*
X171796165Y-93073220D01*
X171832451Y-93109505D01*
X171868737Y-93182077D01*
X171868737Y-93218362D01*
X171832451Y-93290934D01*
X171796165Y-93327220D01*
X171723594Y-93363505D01*
X171578451Y-93363505D01*
X171505880Y-93399791D01*
X171469594Y-93436077D01*
X171433308Y-93508648D01*
X171433308Y-93653791D01*
X171469594Y-93726362D01*
X171505880Y-93762648D01*
X171578451Y-93798934D01*
X171723594Y-93798934D01*
X171796165Y-93762648D01*
X171832451Y-93726362D01*
X171868737Y-93653791D01*
X171868737Y-93508648D01*
X171832451Y-93436077D01*
X171796165Y-93399791D01*
X171723594Y-93363505D01*
%TO.C,CHGLED1*%
D12*
X130356428Y-101370190D02*
X130380619Y-101394380D01*
X130404809Y-101466952D01*
X130404809Y-101515333D01*
X130380619Y-101587904D01*
X130332238Y-101636285D01*
X130283857Y-101660476D01*
X130187095Y-101684666D01*
X130114523Y-101684666D01*
X130017761Y-101660476D01*
X129969380Y-101636285D01*
X129921000Y-101587904D01*
X129896809Y-101515333D01*
X129896809Y-101466952D01*
X129921000Y-101394380D01*
X129945190Y-101370190D01*
X130404809Y-101152476D02*
X129896809Y-101152476D01*
X130138714Y-101152476D02*
X130138714Y-100862190D01*
X130404809Y-100862190D02*
X129896809Y-100862190D01*
X129921000Y-100354190D02*
X129896809Y-100402571D01*
X129896809Y-100475142D01*
X129921000Y-100547714D01*
X129969380Y-100596095D01*
X130017761Y-100620285D01*
X130114523Y-100644476D01*
X130187095Y-100644476D01*
X130283857Y-100620285D01*
X130332238Y-100596095D01*
X130380619Y-100547714D01*
X130404809Y-100475142D01*
X130404809Y-100426761D01*
X130380619Y-100354190D01*
X130356428Y-100330000D01*
X130187095Y-100330000D01*
X130187095Y-100426761D01*
X130404809Y-99870380D02*
X130404809Y-100112285D01*
X129896809Y-100112285D01*
X130138714Y-99701047D02*
X130138714Y-99531714D01*
X130404809Y-99459142D02*
X130404809Y-99701047D01*
X129896809Y-99701047D01*
X129896809Y-99459142D01*
X130404809Y-99241428D02*
X129896809Y-99241428D01*
X129896809Y-99120476D01*
X129921000Y-99047904D01*
X129969380Y-98999523D01*
X130017761Y-98975333D01*
X130114523Y-98951142D01*
X130187095Y-98951142D01*
X130283857Y-98975333D01*
X130332238Y-98999523D01*
X130380619Y-99047904D01*
X130404809Y-99120476D01*
X130404809Y-99241428D01*
X130404809Y-98467333D02*
X130404809Y-98757619D01*
X130404809Y-98612476D02*
X129896809Y-98612476D01*
X129969380Y-98660857D01*
X130017761Y-98709238D01*
X130041952Y-98757619D01*
%TO.C,PWRLED1*%
X131293809Y-101684666D02*
X130785809Y-101684666D01*
X130785809Y-101491142D01*
X130810000Y-101442761D01*
X130834190Y-101418571D01*
X130882571Y-101394380D01*
X130955142Y-101394380D01*
X131003523Y-101418571D01*
X131027714Y-101442761D01*
X131051904Y-101491142D01*
X131051904Y-101684666D01*
X130785809Y-101225047D02*
X131293809Y-101104095D01*
X130930952Y-101007333D01*
X131293809Y-100910571D01*
X130785809Y-100789619D01*
X131293809Y-100305809D02*
X131051904Y-100475142D01*
X131293809Y-100596095D02*
X130785809Y-100596095D01*
X130785809Y-100402571D01*
X130810000Y-100354190D01*
X130834190Y-100330000D01*
X130882571Y-100305809D01*
X130955142Y-100305809D01*
X131003523Y-100330000D01*
X131027714Y-100354190D01*
X131051904Y-100402571D01*
X131051904Y-100596095D01*
X131293809Y-99846190D02*
X131293809Y-100088095D01*
X130785809Y-100088095D01*
X131027714Y-99676857D02*
X131027714Y-99507523D01*
X131293809Y-99434952D02*
X131293809Y-99676857D01*
X130785809Y-99676857D01*
X130785809Y-99434952D01*
X131293809Y-99217238D02*
X130785809Y-99217238D01*
X130785809Y-99096285D01*
X130810000Y-99023714D01*
X130858380Y-98975333D01*
X130906761Y-98951142D01*
X131003523Y-98926952D01*
X131076095Y-98926952D01*
X131172857Y-98951142D01*
X131221238Y-98975333D01*
X131269619Y-99023714D01*
X131293809Y-99096285D01*
X131293809Y-99217238D01*
X131293809Y-98443142D02*
X131293809Y-98733428D01*
X131293809Y-98588285D02*
X130785809Y-98588285D01*
X130858380Y-98636666D01*
X130906761Y-98685047D01*
X130930952Y-98733428D01*
%TO.C,GPIO_LED1*%
D18*
X171313928Y-102806500D02*
X171253452Y-102776261D01*
X171162738Y-102776261D01*
X171072023Y-102806500D01*
X171011547Y-102866976D01*
X170981309Y-102927452D01*
X170951071Y-103048404D01*
X170951071Y-103139119D01*
X170981309Y-103260071D01*
X171011547Y-103320547D01*
X171072023Y-103381023D01*
X171162738Y-103411261D01*
X171223214Y-103411261D01*
X171313928Y-103381023D01*
X171344166Y-103350785D01*
X171344166Y-103139119D01*
X171223214Y-103139119D01*
X171616309Y-103411261D02*
X171616309Y-102776261D01*
X171858214Y-102776261D01*
X171918690Y-102806500D01*
X171948928Y-102836738D01*
X171979166Y-102897214D01*
X171979166Y-102987928D01*
X171948928Y-103048404D01*
X171918690Y-103078642D01*
X171858214Y-103108880D01*
X171616309Y-103108880D01*
X172251309Y-103411261D02*
X172251309Y-102776261D01*
X172674642Y-102776261D02*
X172795595Y-102776261D01*
X172856071Y-102806500D01*
X172916547Y-102866976D01*
X172946785Y-102987928D01*
X172946785Y-103199595D01*
X172916547Y-103320547D01*
X172856071Y-103381023D01*
X172795595Y-103411261D01*
X172674642Y-103411261D01*
X172614166Y-103381023D01*
X172553690Y-103320547D01*
X172523452Y-103199595D01*
X172523452Y-102987928D01*
X172553690Y-102866976D01*
X172614166Y-102806500D01*
X172674642Y-102776261D01*
X173067738Y-103471738D02*
X173551547Y-103471738D01*
X174005119Y-103411261D02*
X173702738Y-103411261D01*
X173702738Y-102776261D01*
X174216785Y-103078642D02*
X174428452Y-103078642D01*
X174519166Y-103411261D02*
X174216785Y-103411261D01*
X174216785Y-102776261D01*
X174519166Y-102776261D01*
X174791309Y-103411261D02*
X174791309Y-102776261D01*
X174942500Y-102776261D01*
X175033214Y-102806500D01*
X175093690Y-102866976D01*
X175123928Y-102927452D01*
X175154166Y-103048404D01*
X175154166Y-103139119D01*
X175123928Y-103260071D01*
X175093690Y-103320547D01*
X175033214Y-103381023D01*
X174942500Y-103411261D01*
X174791309Y-103411261D01*
X175758928Y-103411261D02*
X175396071Y-103411261D01*
X175577500Y-103411261D02*
X175577500Y-102776261D01*
X175517023Y-102866976D01*
X175456547Y-102927452D01*
X175396071Y-102957690D01*
%TO.C,L5*%
X138133666Y-103919261D02*
X137831285Y-103919261D01*
X137831285Y-103284261D01*
X138647714Y-103284261D02*
X138345333Y-103284261D01*
X138315095Y-103586642D01*
X138345333Y-103556404D01*
X138405809Y-103526166D01*
X138557000Y-103526166D01*
X138617476Y-103556404D01*
X138647714Y-103586642D01*
X138677952Y-103647119D01*
X138677952Y-103798309D01*
X138647714Y-103858785D01*
X138617476Y-103889023D01*
X138557000Y-103919261D01*
X138405809Y-103919261D01*
X138345333Y-103889023D01*
X138315095Y-103858785D01*
%TO.C,L4*%
X142324666Y-94711761D02*
X142022285Y-94711761D01*
X142022285Y-94076761D01*
X142808476Y-94288428D02*
X142808476Y-94711761D01*
X142657285Y-94046523D02*
X142506095Y-94500095D01*
X142899190Y-94500095D01*
%TO.C,L3*%
D10*
X141314714Y-88519000D02*
X141314714Y-88881857D01*
X140552714Y-88881857D01*
X140552714Y-88337571D02*
X140552714Y-87865857D01*
X140843000Y-88119857D01*
X140843000Y-88011000D01*
X140879285Y-87938428D01*
X140915571Y-87902142D01*
X140988142Y-87865857D01*
X141169571Y-87865857D01*
X141242142Y-87902142D01*
X141278428Y-87938428D01*
X141314714Y-88011000D01*
X141314714Y-88228714D01*
X141278428Y-88301285D01*
X141242142Y-88337571D01*
%TO.C,L7*%
D12*
X153585333Y-89891809D02*
X153343428Y-89891809D01*
X153343428Y-89383809D01*
X153706285Y-89383809D02*
X154044952Y-89383809D01*
X153827238Y-89891809D01*
%TO.C,C33*%
X154232428Y-76653571D02*
X154256619Y-76677761D01*
X154280809Y-76750333D01*
X154280809Y-76798714D01*
X154256619Y-76871285D01*
X154208238Y-76919666D01*
X154159857Y-76943857D01*
X154063095Y-76968047D01*
X153990523Y-76968047D01*
X153893761Y-76943857D01*
X153845380Y-76919666D01*
X153797000Y-76871285D01*
X153772809Y-76798714D01*
X153772809Y-76750333D01*
X153797000Y-76677761D01*
X153821190Y-76653571D01*
X153772809Y-76484238D02*
X153772809Y-76169761D01*
X153966333Y-76339095D01*
X153966333Y-76266523D01*
X153990523Y-76218142D01*
X154014714Y-76193952D01*
X154063095Y-76169761D01*
X154184047Y-76169761D01*
X154232428Y-76193952D01*
X154256619Y-76218142D01*
X154280809Y-76266523D01*
X154280809Y-76411666D01*
X154256619Y-76460047D01*
X154232428Y-76484238D01*
X153772809Y-76000428D02*
X153772809Y-75685952D01*
X153966333Y-75855285D01*
X153966333Y-75782714D01*
X153990523Y-75734333D01*
X154014714Y-75710142D01*
X154063095Y-75685952D01*
X154184047Y-75685952D01*
X154232428Y-75710142D01*
X154256619Y-75734333D01*
X154280809Y-75782714D01*
X154280809Y-75927857D01*
X154256619Y-75976238D01*
X154232428Y-76000428D01*
%TO.C,C18*%
X160041789Y-81050368D02*
X160007579Y-81050368D01*
X159939158Y-81016158D01*
X159904947Y-80981947D01*
X159870737Y-80913526D01*
X159870737Y-80845105D01*
X159887842Y-80793789D01*
X159939158Y-80708263D01*
X159990474Y-80656947D01*
X160076000Y-80605632D01*
X160127316Y-80588526D01*
X160195737Y-80588526D01*
X160264158Y-80622737D01*
X160298368Y-80656947D01*
X160332579Y-80725368D01*
X160332579Y-80759579D01*
X160349684Y-81426683D02*
X160144421Y-81221420D01*
X160247052Y-81324052D02*
X160606262Y-80964842D01*
X160520736Y-80981947D01*
X160452315Y-80981947D01*
X160401000Y-80964842D01*
X160760210Y-81426683D02*
X160743104Y-81375368D01*
X160743104Y-81341157D01*
X160760210Y-81289841D01*
X160777315Y-81272736D01*
X160828631Y-81255631D01*
X160862841Y-81255631D01*
X160914157Y-81272736D01*
X160982578Y-81341157D01*
X160999683Y-81392473D01*
X160999683Y-81426683D01*
X160982578Y-81477999D01*
X160965473Y-81495104D01*
X160914157Y-81512210D01*
X160879946Y-81512210D01*
X160828631Y-81495104D01*
X160760210Y-81426683D01*
X160708894Y-81409578D01*
X160674683Y-81409578D01*
X160623368Y-81426683D01*
X160554947Y-81495104D01*
X160537841Y-81546420D01*
X160537841Y-81580631D01*
X160554947Y-81631946D01*
X160623368Y-81700367D01*
X160674683Y-81717473D01*
X160708894Y-81717473D01*
X160760210Y-81700367D01*
X160828631Y-81631946D01*
X160845736Y-81580631D01*
X160845736Y-81546420D01*
X160828631Y-81495104D01*
%TO.C,C17*%
X159566428Y-76780571D02*
X159590619Y-76804761D01*
X159614809Y-76877333D01*
X159614809Y-76925714D01*
X159590619Y-76998285D01*
X159542238Y-77046666D01*
X159493857Y-77070857D01*
X159397095Y-77095047D01*
X159324523Y-77095047D01*
X159227761Y-77070857D01*
X159179380Y-77046666D01*
X159131000Y-76998285D01*
X159106809Y-76925714D01*
X159106809Y-76877333D01*
X159131000Y-76804761D01*
X159155190Y-76780571D01*
X159614809Y-76296761D02*
X159614809Y-76587047D01*
X159614809Y-76441904D02*
X159106809Y-76441904D01*
X159179380Y-76490285D01*
X159227761Y-76538666D01*
X159251952Y-76587047D01*
X159106809Y-76127428D02*
X159106809Y-75788761D01*
X159614809Y-76006476D01*
%TO.C,C38*%
X150549428Y-80572428D02*
X150525238Y-80596619D01*
X150452666Y-80620809D01*
X150404285Y-80620809D01*
X150331714Y-80596619D01*
X150283333Y-80548238D01*
X150259142Y-80499857D01*
X150234952Y-80403095D01*
X150234952Y-80330523D01*
X150259142Y-80233761D01*
X150283333Y-80185380D01*
X150331714Y-80137000D01*
X150404285Y-80112809D01*
X150452666Y-80112809D01*
X150525238Y-80137000D01*
X150549428Y-80161190D01*
X150718761Y-80112809D02*
X151033238Y-80112809D01*
X150863904Y-80306333D01*
X150936476Y-80306333D01*
X150984857Y-80330523D01*
X151009047Y-80354714D01*
X151033238Y-80403095D01*
X151033238Y-80524047D01*
X151009047Y-80572428D01*
X150984857Y-80596619D01*
X150936476Y-80620809D01*
X150791333Y-80620809D01*
X150742952Y-80596619D01*
X150718761Y-80572428D01*
X151323523Y-80330523D02*
X151275142Y-80306333D01*
X151250952Y-80282142D01*
X151226761Y-80233761D01*
X151226761Y-80209571D01*
X151250952Y-80161190D01*
X151275142Y-80137000D01*
X151323523Y-80112809D01*
X151420285Y-80112809D01*
X151468666Y-80137000D01*
X151492857Y-80161190D01*
X151517047Y-80209571D01*
X151517047Y-80233761D01*
X151492857Y-80282142D01*
X151468666Y-80306333D01*
X151420285Y-80330523D01*
X151323523Y-80330523D01*
X151275142Y-80354714D01*
X151250952Y-80378904D01*
X151226761Y-80427285D01*
X151226761Y-80524047D01*
X151250952Y-80572428D01*
X151275142Y-80596619D01*
X151323523Y-80620809D01*
X151420285Y-80620809D01*
X151468666Y-80596619D01*
X151492857Y-80572428D01*
X151517047Y-80524047D01*
X151517047Y-80427285D01*
X151492857Y-80378904D01*
X151468666Y-80354714D01*
X151420285Y-80330523D01*
%TO.C,C50*%
X151311428Y-81969428D02*
X151287238Y-81993619D01*
X151214666Y-82017809D01*
X151166285Y-82017809D01*
X151093714Y-81993619D01*
X151045333Y-81945238D01*
X151021142Y-81896857D01*
X150996952Y-81800095D01*
X150996952Y-81727523D01*
X151021142Y-81630761D01*
X151045333Y-81582380D01*
X151093714Y-81534000D01*
X151166285Y-81509809D01*
X151214666Y-81509809D01*
X151287238Y-81534000D01*
X151311428Y-81558190D01*
X151771047Y-81509809D02*
X151529142Y-81509809D01*
X151504952Y-81751714D01*
X151529142Y-81727523D01*
X151577523Y-81703333D01*
X151698476Y-81703333D01*
X151746857Y-81727523D01*
X151771047Y-81751714D01*
X151795238Y-81800095D01*
X151795238Y-81921047D01*
X151771047Y-81969428D01*
X151746857Y-81993619D01*
X151698476Y-82017809D01*
X151577523Y-82017809D01*
X151529142Y-81993619D01*
X151504952Y-81969428D01*
X152109714Y-81509809D02*
X152158095Y-81509809D01*
X152206476Y-81534000D01*
X152230666Y-81558190D01*
X152254857Y-81606571D01*
X152279047Y-81703333D01*
X152279047Y-81824285D01*
X152254857Y-81921047D01*
X152230666Y-81969428D01*
X152206476Y-81993619D01*
X152158095Y-82017809D01*
X152109714Y-82017809D01*
X152061333Y-81993619D01*
X152037142Y-81969428D01*
X152012952Y-81921047D01*
X151988761Y-81824285D01*
X151988761Y-81703333D01*
X152012952Y-81606571D01*
X152037142Y-81558190D01*
X152061333Y-81534000D01*
X152109714Y-81509809D01*
%TO.C,C88*%
D18*
X142466785Y-75664785D02*
X142436547Y-75695023D01*
X142345833Y-75725261D01*
X142285357Y-75725261D01*
X142194642Y-75695023D01*
X142134166Y-75634547D01*
X142103928Y-75574071D01*
X142073690Y-75453119D01*
X142073690Y-75362404D01*
X142103928Y-75241452D01*
X142134166Y-75180976D01*
X142194642Y-75120500D01*
X142285357Y-75090261D01*
X142345833Y-75090261D01*
X142436547Y-75120500D01*
X142466785Y-75150738D01*
X142829642Y-75362404D02*
X142769166Y-75332166D01*
X142738928Y-75301928D01*
X142708690Y-75241452D01*
X142708690Y-75211214D01*
X142738928Y-75150738D01*
X142769166Y-75120500D01*
X142829642Y-75090261D01*
X142950595Y-75090261D01*
X143011071Y-75120500D01*
X143041309Y-75150738D01*
X143071547Y-75211214D01*
X143071547Y-75241452D01*
X143041309Y-75301928D01*
X143011071Y-75332166D01*
X142950595Y-75362404D01*
X142829642Y-75362404D01*
X142769166Y-75392642D01*
X142738928Y-75422880D01*
X142708690Y-75483357D01*
X142708690Y-75604309D01*
X142738928Y-75664785D01*
X142769166Y-75695023D01*
X142829642Y-75725261D01*
X142950595Y-75725261D01*
X143011071Y-75695023D01*
X143041309Y-75664785D01*
X143071547Y-75604309D01*
X143071547Y-75483357D01*
X143041309Y-75422880D01*
X143011071Y-75392642D01*
X142950595Y-75362404D01*
X143434404Y-75362404D02*
X143373928Y-75332166D01*
X143343690Y-75301928D01*
X143313452Y-75241452D01*
X143313452Y-75211214D01*
X143343690Y-75150738D01*
X143373928Y-75120500D01*
X143434404Y-75090261D01*
X143555357Y-75090261D01*
X143615833Y-75120500D01*
X143646071Y-75150738D01*
X143676309Y-75211214D01*
X143676309Y-75241452D01*
X143646071Y-75301928D01*
X143615833Y-75332166D01*
X143555357Y-75362404D01*
X143434404Y-75362404D01*
X143373928Y-75392642D01*
X143343690Y-75422880D01*
X143313452Y-75483357D01*
X143313452Y-75604309D01*
X143343690Y-75664785D01*
X143373928Y-75695023D01*
X143434404Y-75725261D01*
X143555357Y-75725261D01*
X143615833Y-75695023D01*
X143646071Y-75664785D01*
X143676309Y-75604309D01*
X143676309Y-75483357D01*
X143646071Y-75422880D01*
X143615833Y-75392642D01*
X143555357Y-75362404D01*
%TO.C,C86*%
X141704785Y-68933785D02*
X141674547Y-68964023D01*
X141583833Y-68994261D01*
X141523357Y-68994261D01*
X141432642Y-68964023D01*
X141372166Y-68903547D01*
X141341928Y-68843071D01*
X141311690Y-68722119D01*
X141311690Y-68631404D01*
X141341928Y-68510452D01*
X141372166Y-68449976D01*
X141432642Y-68389500D01*
X141523357Y-68359261D01*
X141583833Y-68359261D01*
X141674547Y-68389500D01*
X141704785Y-68419738D01*
X142067642Y-68631404D02*
X142007166Y-68601166D01*
X141976928Y-68570928D01*
X141946690Y-68510452D01*
X141946690Y-68480214D01*
X141976928Y-68419738D01*
X142007166Y-68389500D01*
X142067642Y-68359261D01*
X142188595Y-68359261D01*
X142249071Y-68389500D01*
X142279309Y-68419738D01*
X142309547Y-68480214D01*
X142309547Y-68510452D01*
X142279309Y-68570928D01*
X142249071Y-68601166D01*
X142188595Y-68631404D01*
X142067642Y-68631404D01*
X142007166Y-68661642D01*
X141976928Y-68691880D01*
X141946690Y-68752357D01*
X141946690Y-68873309D01*
X141976928Y-68933785D01*
X142007166Y-68964023D01*
X142067642Y-68994261D01*
X142188595Y-68994261D01*
X142249071Y-68964023D01*
X142279309Y-68933785D01*
X142309547Y-68873309D01*
X142309547Y-68752357D01*
X142279309Y-68691880D01*
X142249071Y-68661642D01*
X142188595Y-68631404D01*
X142853833Y-68359261D02*
X142732880Y-68359261D01*
X142672404Y-68389500D01*
X142642166Y-68419738D01*
X142581690Y-68510452D01*
X142551452Y-68631404D01*
X142551452Y-68873309D01*
X142581690Y-68933785D01*
X142611928Y-68964023D01*
X142672404Y-68994261D01*
X142793357Y-68994261D01*
X142853833Y-68964023D01*
X142884071Y-68933785D01*
X142914309Y-68873309D01*
X142914309Y-68722119D01*
X142884071Y-68661642D01*
X142853833Y-68631404D01*
X142793357Y-68601166D01*
X142672404Y-68601166D01*
X142611928Y-68631404D01*
X142581690Y-68661642D01*
X142551452Y-68722119D01*
%TO.C,C87*%
X141831785Y-70711785D02*
X141801547Y-70742023D01*
X141710833Y-70772261D01*
X141650357Y-70772261D01*
X141559642Y-70742023D01*
X141499166Y-70681547D01*
X141468928Y-70621071D01*
X141438690Y-70500119D01*
X141438690Y-70409404D01*
X141468928Y-70288452D01*
X141499166Y-70227976D01*
X141559642Y-70167500D01*
X141650357Y-70137261D01*
X141710833Y-70137261D01*
X141801547Y-70167500D01*
X141831785Y-70197738D01*
X142194642Y-70409404D02*
X142134166Y-70379166D01*
X142103928Y-70348928D01*
X142073690Y-70288452D01*
X142073690Y-70258214D01*
X142103928Y-70197738D01*
X142134166Y-70167500D01*
X142194642Y-70137261D01*
X142315595Y-70137261D01*
X142376071Y-70167500D01*
X142406309Y-70197738D01*
X142436547Y-70258214D01*
X142436547Y-70288452D01*
X142406309Y-70348928D01*
X142376071Y-70379166D01*
X142315595Y-70409404D01*
X142194642Y-70409404D01*
X142134166Y-70439642D01*
X142103928Y-70469880D01*
X142073690Y-70530357D01*
X142073690Y-70651309D01*
X142103928Y-70711785D01*
X142134166Y-70742023D01*
X142194642Y-70772261D01*
X142315595Y-70772261D01*
X142376071Y-70742023D01*
X142406309Y-70711785D01*
X142436547Y-70651309D01*
X142436547Y-70530357D01*
X142406309Y-70469880D01*
X142376071Y-70439642D01*
X142315595Y-70409404D01*
X142648214Y-70137261D02*
X143071547Y-70137261D01*
X142799404Y-70772261D01*
%TO.C,C16*%
X152499785Y-87022214D02*
X152530023Y-87052452D01*
X152560261Y-87143166D01*
X152560261Y-87203642D01*
X152530023Y-87294357D01*
X152469547Y-87354833D01*
X152409071Y-87385071D01*
X152288119Y-87415309D01*
X152197404Y-87415309D01*
X152076452Y-87385071D01*
X152015976Y-87354833D01*
X151955500Y-87294357D01*
X151925261Y-87203642D01*
X151925261Y-87143166D01*
X151955500Y-87052452D01*
X151985738Y-87022214D01*
X152560261Y-86417452D02*
X152560261Y-86780309D01*
X152560261Y-86598880D02*
X151925261Y-86598880D01*
X152015976Y-86659357D01*
X152076452Y-86719833D01*
X152106690Y-86780309D01*
X151925261Y-85873166D02*
X151925261Y-85994119D01*
X151955500Y-86054595D01*
X151985738Y-86084833D01*
X152076452Y-86145309D01*
X152197404Y-86175547D01*
X152439309Y-86175547D01*
X152499785Y-86145309D01*
X152530023Y-86115071D01*
X152560261Y-86054595D01*
X152560261Y-85933642D01*
X152530023Y-85873166D01*
X152499785Y-85842928D01*
X152439309Y-85812690D01*
X152288119Y-85812690D01*
X152227642Y-85842928D01*
X152197404Y-85873166D01*
X152167166Y-85933642D01*
X152167166Y-86054595D01*
X152197404Y-86115071D01*
X152227642Y-86145309D01*
X152288119Y-86175547D01*
%TO.C,C91*%
X142466785Y-76680785D02*
X142436547Y-76711023D01*
X142345833Y-76741261D01*
X142285357Y-76741261D01*
X142194642Y-76711023D01*
X142134166Y-76650547D01*
X142103928Y-76590071D01*
X142073690Y-76469119D01*
X142073690Y-76378404D01*
X142103928Y-76257452D01*
X142134166Y-76196976D01*
X142194642Y-76136500D01*
X142285357Y-76106261D01*
X142345833Y-76106261D01*
X142436547Y-76136500D01*
X142466785Y-76166738D01*
X142769166Y-76741261D02*
X142890119Y-76741261D01*
X142950595Y-76711023D01*
X142980833Y-76680785D01*
X143041309Y-76590071D01*
X143071547Y-76469119D01*
X143071547Y-76227214D01*
X143041309Y-76166738D01*
X143011071Y-76136500D01*
X142950595Y-76106261D01*
X142829642Y-76106261D01*
X142769166Y-76136500D01*
X142738928Y-76166738D01*
X142708690Y-76227214D01*
X142708690Y-76378404D01*
X142738928Y-76438880D01*
X142769166Y-76469119D01*
X142829642Y-76499357D01*
X142950595Y-76499357D01*
X143011071Y-76469119D01*
X143041309Y-76438880D01*
X143071547Y-76378404D01*
X143676309Y-76741261D02*
X143313452Y-76741261D01*
X143494880Y-76741261D02*
X143494880Y-76106261D01*
X143434404Y-76196976D01*
X143373928Y-76257452D01*
X143313452Y-76287690D01*
%TO.C,C21*%
X139418785Y-92682785D02*
X139388547Y-92713023D01*
X139297833Y-92743261D01*
X139237357Y-92743261D01*
X139146642Y-92713023D01*
X139086166Y-92652547D01*
X139055928Y-92592071D01*
X139025690Y-92471119D01*
X139025690Y-92380404D01*
X139055928Y-92259452D01*
X139086166Y-92198976D01*
X139146642Y-92138500D01*
X139237357Y-92108261D01*
X139297833Y-92108261D01*
X139388547Y-92138500D01*
X139418785Y-92168738D01*
X139660690Y-92168738D02*
X139690928Y-92138500D01*
X139751404Y-92108261D01*
X139902595Y-92108261D01*
X139963071Y-92138500D01*
X139993309Y-92168738D01*
X140023547Y-92229214D01*
X140023547Y-92289690D01*
X139993309Y-92380404D01*
X139630452Y-92743261D01*
X140023547Y-92743261D01*
X140628309Y-92743261D02*
X140265452Y-92743261D01*
X140446880Y-92743261D02*
X140446880Y-92108261D01*
X140386404Y-92198976D01*
X140325928Y-92259452D01*
X140265452Y-92289690D01*
%TO.C,C90*%
X141704785Y-67917785D02*
X141674547Y-67948023D01*
X141583833Y-67978261D01*
X141523357Y-67978261D01*
X141432642Y-67948023D01*
X141372166Y-67887547D01*
X141341928Y-67827071D01*
X141311690Y-67706119D01*
X141311690Y-67615404D01*
X141341928Y-67494452D01*
X141372166Y-67433976D01*
X141432642Y-67373500D01*
X141523357Y-67343261D01*
X141583833Y-67343261D01*
X141674547Y-67373500D01*
X141704785Y-67403738D01*
X142007166Y-67978261D02*
X142128119Y-67978261D01*
X142188595Y-67948023D01*
X142218833Y-67917785D01*
X142279309Y-67827071D01*
X142309547Y-67706119D01*
X142309547Y-67464214D01*
X142279309Y-67403738D01*
X142249071Y-67373500D01*
X142188595Y-67343261D01*
X142067642Y-67343261D01*
X142007166Y-67373500D01*
X141976928Y-67403738D01*
X141946690Y-67464214D01*
X141946690Y-67615404D01*
X141976928Y-67675880D01*
X142007166Y-67706119D01*
X142067642Y-67736357D01*
X142188595Y-67736357D01*
X142249071Y-67706119D01*
X142279309Y-67675880D01*
X142309547Y-67615404D01*
X142702642Y-67343261D02*
X142763119Y-67343261D01*
X142823595Y-67373500D01*
X142853833Y-67403738D01*
X142884071Y-67464214D01*
X142914309Y-67585166D01*
X142914309Y-67736357D01*
X142884071Y-67857309D01*
X142853833Y-67917785D01*
X142823595Y-67948023D01*
X142763119Y-67978261D01*
X142702642Y-67978261D01*
X142642166Y-67948023D01*
X142611928Y-67917785D01*
X142581690Y-67857309D01*
X142551452Y-67736357D01*
X142551452Y-67585166D01*
X142581690Y-67464214D01*
X142611928Y-67403738D01*
X142642166Y-67373500D01*
X142702642Y-67343261D01*
%TO.C,C89*%
X136751785Y-78458785D02*
X136721547Y-78489023D01*
X136630833Y-78519261D01*
X136570357Y-78519261D01*
X136479642Y-78489023D01*
X136419166Y-78428547D01*
X136388928Y-78368071D01*
X136358690Y-78247119D01*
X136358690Y-78156404D01*
X136388928Y-78035452D01*
X136419166Y-77974976D01*
X136479642Y-77914500D01*
X136570357Y-77884261D01*
X136630833Y-77884261D01*
X136721547Y-77914500D01*
X136751785Y-77944738D01*
X137114642Y-78156404D02*
X137054166Y-78126166D01*
X137023928Y-78095928D01*
X136993690Y-78035452D01*
X136993690Y-78005214D01*
X137023928Y-77944738D01*
X137054166Y-77914500D01*
X137114642Y-77884261D01*
X137235595Y-77884261D01*
X137296071Y-77914500D01*
X137326309Y-77944738D01*
X137356547Y-78005214D01*
X137356547Y-78035452D01*
X137326309Y-78095928D01*
X137296071Y-78126166D01*
X137235595Y-78156404D01*
X137114642Y-78156404D01*
X137054166Y-78186642D01*
X137023928Y-78216880D01*
X136993690Y-78277357D01*
X136993690Y-78398309D01*
X137023928Y-78458785D01*
X137054166Y-78489023D01*
X137114642Y-78519261D01*
X137235595Y-78519261D01*
X137296071Y-78489023D01*
X137326309Y-78458785D01*
X137356547Y-78398309D01*
X137356547Y-78277357D01*
X137326309Y-78216880D01*
X137296071Y-78186642D01*
X137235595Y-78156404D01*
X137658928Y-78519261D02*
X137779880Y-78519261D01*
X137840357Y-78489023D01*
X137870595Y-78458785D01*
X137931071Y-78368071D01*
X137961309Y-78247119D01*
X137961309Y-78005214D01*
X137931071Y-77944738D01*
X137900833Y-77914500D01*
X137840357Y-77884261D01*
X137719404Y-77884261D01*
X137658928Y-77914500D01*
X137628690Y-77944738D01*
X137598452Y-78005214D01*
X137598452Y-78156404D01*
X137628690Y-78216880D01*
X137658928Y-78247119D01*
X137719404Y-78277357D01*
X137840357Y-78277357D01*
X137900833Y-78247119D01*
X137931071Y-78216880D01*
X137961309Y-78156404D01*
%TO.C,C85*%
D12*
X152327428Y-78413428D02*
X152303238Y-78437619D01*
X152230666Y-78461809D01*
X152182285Y-78461809D01*
X152109714Y-78437619D01*
X152061333Y-78389238D01*
X152037142Y-78340857D01*
X152012952Y-78244095D01*
X152012952Y-78171523D01*
X152037142Y-78074761D01*
X152061333Y-78026380D01*
X152109714Y-77978000D01*
X152182285Y-77953809D01*
X152230666Y-77953809D01*
X152303238Y-77978000D01*
X152327428Y-78002190D01*
X152617714Y-78171523D02*
X152569333Y-78147333D01*
X152545142Y-78123142D01*
X152520952Y-78074761D01*
X152520952Y-78050571D01*
X152545142Y-78002190D01*
X152569333Y-77978000D01*
X152617714Y-77953809D01*
X152714476Y-77953809D01*
X152762857Y-77978000D01*
X152787047Y-78002190D01*
X152811238Y-78050571D01*
X152811238Y-78074761D01*
X152787047Y-78123142D01*
X152762857Y-78147333D01*
X152714476Y-78171523D01*
X152617714Y-78171523D01*
X152569333Y-78195714D01*
X152545142Y-78219904D01*
X152520952Y-78268285D01*
X152520952Y-78365047D01*
X152545142Y-78413428D01*
X152569333Y-78437619D01*
X152617714Y-78461809D01*
X152714476Y-78461809D01*
X152762857Y-78437619D01*
X152787047Y-78413428D01*
X152811238Y-78365047D01*
X152811238Y-78268285D01*
X152787047Y-78219904D01*
X152762857Y-78195714D01*
X152714476Y-78171523D01*
X153270857Y-77953809D02*
X153028952Y-77953809D01*
X153004761Y-78195714D01*
X153028952Y-78171523D01*
X153077333Y-78147333D01*
X153198285Y-78147333D01*
X153246666Y-78171523D01*
X153270857Y-78195714D01*
X153295047Y-78244095D01*
X153295047Y-78365047D01*
X153270857Y-78413428D01*
X153246666Y-78437619D01*
X153198285Y-78461809D01*
X153077333Y-78461809D01*
X153028952Y-78437619D01*
X153004761Y-78413428D01*
%TO.C,C83*%
X150676428Y-74494571D02*
X150700619Y-74518761D01*
X150724809Y-74591333D01*
X150724809Y-74639714D01*
X150700619Y-74712285D01*
X150652238Y-74760666D01*
X150603857Y-74784857D01*
X150507095Y-74809047D01*
X150434523Y-74809047D01*
X150337761Y-74784857D01*
X150289380Y-74760666D01*
X150241000Y-74712285D01*
X150216809Y-74639714D01*
X150216809Y-74591333D01*
X150241000Y-74518761D01*
X150265190Y-74494571D01*
X150434523Y-74204285D02*
X150410333Y-74252666D01*
X150386142Y-74276857D01*
X150337761Y-74301047D01*
X150313571Y-74301047D01*
X150265190Y-74276857D01*
X150241000Y-74252666D01*
X150216809Y-74204285D01*
X150216809Y-74107523D01*
X150241000Y-74059142D01*
X150265190Y-74034952D01*
X150313571Y-74010761D01*
X150337761Y-74010761D01*
X150386142Y-74034952D01*
X150410333Y-74059142D01*
X150434523Y-74107523D01*
X150434523Y-74204285D01*
X150458714Y-74252666D01*
X150482904Y-74276857D01*
X150531285Y-74301047D01*
X150628047Y-74301047D01*
X150676428Y-74276857D01*
X150700619Y-74252666D01*
X150724809Y-74204285D01*
X150724809Y-74107523D01*
X150700619Y-74059142D01*
X150676428Y-74034952D01*
X150628047Y-74010761D01*
X150531285Y-74010761D01*
X150482904Y-74034952D01*
X150458714Y-74059142D01*
X150434523Y-74107523D01*
X150216809Y-73841428D02*
X150216809Y-73526952D01*
X150410333Y-73696285D01*
X150410333Y-73623714D01*
X150434523Y-73575333D01*
X150458714Y-73551142D01*
X150507095Y-73526952D01*
X150628047Y-73526952D01*
X150676428Y-73551142D01*
X150700619Y-73575333D01*
X150724809Y-73623714D01*
X150724809Y-73768857D01*
X150700619Y-73817238D01*
X150676428Y-73841428D01*
%TO.C,C1*%
X147362333Y-81207428D02*
X147338142Y-81231619D01*
X147265571Y-81255809D01*
X147217190Y-81255809D01*
X147144619Y-81231619D01*
X147096238Y-81183238D01*
X147072047Y-81134857D01*
X147047857Y-81038095D01*
X147047857Y-80965523D01*
X147072047Y-80868761D01*
X147096238Y-80820380D01*
X147144619Y-80772000D01*
X147217190Y-80747809D01*
X147265571Y-80747809D01*
X147338142Y-80772000D01*
X147362333Y-80796190D01*
X147846142Y-81255809D02*
X147555857Y-81255809D01*
X147701000Y-81255809D02*
X147701000Y-80747809D01*
X147652619Y-80820380D01*
X147604238Y-80868761D01*
X147555857Y-80892952D01*
%TO.C,C82*%
X151946428Y-74494571D02*
X151970619Y-74518761D01*
X151994809Y-74591333D01*
X151994809Y-74639714D01*
X151970619Y-74712285D01*
X151922238Y-74760666D01*
X151873857Y-74784857D01*
X151777095Y-74809047D01*
X151704523Y-74809047D01*
X151607761Y-74784857D01*
X151559380Y-74760666D01*
X151511000Y-74712285D01*
X151486809Y-74639714D01*
X151486809Y-74591333D01*
X151511000Y-74518761D01*
X151535190Y-74494571D01*
X151704523Y-74204285D02*
X151680333Y-74252666D01*
X151656142Y-74276857D01*
X151607761Y-74301047D01*
X151583571Y-74301047D01*
X151535190Y-74276857D01*
X151511000Y-74252666D01*
X151486809Y-74204285D01*
X151486809Y-74107523D01*
X151511000Y-74059142D01*
X151535190Y-74034952D01*
X151583571Y-74010761D01*
X151607761Y-74010761D01*
X151656142Y-74034952D01*
X151680333Y-74059142D01*
X151704523Y-74107523D01*
X151704523Y-74204285D01*
X151728714Y-74252666D01*
X151752904Y-74276857D01*
X151801285Y-74301047D01*
X151898047Y-74301047D01*
X151946428Y-74276857D01*
X151970619Y-74252666D01*
X151994809Y-74204285D01*
X151994809Y-74107523D01*
X151970619Y-74059142D01*
X151946428Y-74034952D01*
X151898047Y-74010761D01*
X151801285Y-74010761D01*
X151752904Y-74034952D01*
X151728714Y-74059142D01*
X151704523Y-74107523D01*
X151535190Y-73817238D02*
X151511000Y-73793047D01*
X151486809Y-73744666D01*
X151486809Y-73623714D01*
X151511000Y-73575333D01*
X151535190Y-73551142D01*
X151583571Y-73526952D01*
X151631952Y-73526952D01*
X151704523Y-73551142D01*
X151994809Y-73841428D01*
X151994809Y-73526952D01*
%TO.C,C3*%
X169587333Y-98352428D02*
X169563142Y-98376619D01*
X169490571Y-98400809D01*
X169442190Y-98400809D01*
X169369619Y-98376619D01*
X169321238Y-98328238D01*
X169297047Y-98279857D01*
X169272857Y-98183095D01*
X169272857Y-98110523D01*
X169297047Y-98013761D01*
X169321238Y-97965380D01*
X169369619Y-97917000D01*
X169442190Y-97892809D01*
X169490571Y-97892809D01*
X169563142Y-97917000D01*
X169587333Y-97941190D01*
X169756666Y-97892809D02*
X170071142Y-97892809D01*
X169901809Y-98086333D01*
X169974380Y-98086333D01*
X170022761Y-98110523D01*
X170046952Y-98134714D01*
X170071142Y-98183095D01*
X170071142Y-98304047D01*
X170046952Y-98352428D01*
X170022761Y-98376619D01*
X169974380Y-98400809D01*
X169829238Y-98400809D01*
X169780857Y-98376619D01*
X169756666Y-98352428D01*
%TO.C,C105*%
X152974523Y-79302428D02*
X152950333Y-79326619D01*
X152877761Y-79350809D01*
X152829380Y-79350809D01*
X152756809Y-79326619D01*
X152708428Y-79278238D01*
X152684238Y-79229857D01*
X152660047Y-79133095D01*
X152660047Y-79060523D01*
X152684238Y-78963761D01*
X152708428Y-78915380D01*
X152756809Y-78867000D01*
X152829380Y-78842809D01*
X152877761Y-78842809D01*
X152950333Y-78867000D01*
X152974523Y-78891190D01*
X153458333Y-79350809D02*
X153168047Y-79350809D01*
X153313190Y-79350809D02*
X153313190Y-78842809D01*
X153264809Y-78915380D01*
X153216428Y-78963761D01*
X153168047Y-78987952D01*
X153772809Y-78842809D02*
X153821190Y-78842809D01*
X153869571Y-78867000D01*
X153893761Y-78891190D01*
X153917952Y-78939571D01*
X153942142Y-79036333D01*
X153942142Y-79157285D01*
X153917952Y-79254047D01*
X153893761Y-79302428D01*
X153869571Y-79326619D01*
X153821190Y-79350809D01*
X153772809Y-79350809D01*
X153724428Y-79326619D01*
X153700238Y-79302428D01*
X153676047Y-79254047D01*
X153651857Y-79157285D01*
X153651857Y-79036333D01*
X153676047Y-78939571D01*
X153700238Y-78891190D01*
X153724428Y-78867000D01*
X153772809Y-78842809D01*
X154401761Y-78842809D02*
X154159857Y-78842809D01*
X154135666Y-79084714D01*
X154159857Y-79060523D01*
X154208238Y-79036333D01*
X154329190Y-79036333D01*
X154377571Y-79060523D01*
X154401761Y-79084714D01*
X154425952Y-79133095D01*
X154425952Y-79254047D01*
X154401761Y-79302428D01*
X154377571Y-79326619D01*
X154329190Y-79350809D01*
X154208238Y-79350809D01*
X154159857Y-79326619D01*
X154135666Y-79302428D01*
%TO.C,C76*%
X150168428Y-79320571D02*
X150192619Y-79344761D01*
X150216809Y-79417333D01*
X150216809Y-79465714D01*
X150192619Y-79538285D01*
X150144238Y-79586666D01*
X150095857Y-79610857D01*
X149999095Y-79635047D01*
X149926523Y-79635047D01*
X149829761Y-79610857D01*
X149781380Y-79586666D01*
X149733000Y-79538285D01*
X149708809Y-79465714D01*
X149708809Y-79417333D01*
X149733000Y-79344761D01*
X149757190Y-79320571D01*
X149708809Y-79151238D02*
X149708809Y-78812571D01*
X150216809Y-79030285D01*
X149708809Y-78401333D02*
X149708809Y-78498095D01*
X149733000Y-78546476D01*
X149757190Y-78570666D01*
X149829761Y-78619047D01*
X149926523Y-78643238D01*
X150120047Y-78643238D01*
X150168428Y-78619047D01*
X150192619Y-78594857D01*
X150216809Y-78546476D01*
X150216809Y-78449714D01*
X150192619Y-78401333D01*
X150168428Y-78377142D01*
X150120047Y-78352952D01*
X149999095Y-78352952D01*
X149950714Y-78377142D01*
X149926523Y-78401333D01*
X149902333Y-78449714D01*
X149902333Y-78546476D01*
X149926523Y-78594857D01*
X149950714Y-78619047D01*
X149999095Y-78643238D01*
%TO.C,C98*%
D18*
X136878785Y-77442785D02*
X136848547Y-77473023D01*
X136757833Y-77503261D01*
X136697357Y-77503261D01*
X136606642Y-77473023D01*
X136546166Y-77412547D01*
X136515928Y-77352071D01*
X136485690Y-77231119D01*
X136485690Y-77140404D01*
X136515928Y-77019452D01*
X136546166Y-76958976D01*
X136606642Y-76898500D01*
X136697357Y-76868261D01*
X136757833Y-76868261D01*
X136848547Y-76898500D01*
X136878785Y-76928738D01*
X137181166Y-77503261D02*
X137302119Y-77503261D01*
X137362595Y-77473023D01*
X137392833Y-77442785D01*
X137453309Y-77352071D01*
X137483547Y-77231119D01*
X137483547Y-76989214D01*
X137453309Y-76928738D01*
X137423071Y-76898500D01*
X137362595Y-76868261D01*
X137241642Y-76868261D01*
X137181166Y-76898500D01*
X137150928Y-76928738D01*
X137120690Y-76989214D01*
X137120690Y-77140404D01*
X137150928Y-77200880D01*
X137181166Y-77231119D01*
X137241642Y-77261357D01*
X137362595Y-77261357D01*
X137423071Y-77231119D01*
X137453309Y-77200880D01*
X137483547Y-77140404D01*
X137846404Y-77140404D02*
X137785928Y-77110166D01*
X137755690Y-77079928D01*
X137725452Y-77019452D01*
X137725452Y-76989214D01*
X137755690Y-76928738D01*
X137785928Y-76898500D01*
X137846404Y-76868261D01*
X137967357Y-76868261D01*
X138027833Y-76898500D01*
X138058071Y-76928738D01*
X138088309Y-76989214D01*
X138088309Y-77019452D01*
X138058071Y-77079928D01*
X138027833Y-77110166D01*
X137967357Y-77140404D01*
X137846404Y-77140404D01*
X137785928Y-77170642D01*
X137755690Y-77200880D01*
X137725452Y-77261357D01*
X137725452Y-77382309D01*
X137755690Y-77442785D01*
X137785928Y-77473023D01*
X137846404Y-77503261D01*
X137967357Y-77503261D01*
X138027833Y-77473023D01*
X138058071Y-77442785D01*
X138088309Y-77382309D01*
X138088309Y-77261357D01*
X138058071Y-77200880D01*
X138027833Y-77170642D01*
X137967357Y-77140404D01*
%TO.C,C75*%
D12*
X146866428Y-79556428D02*
X146842238Y-79580619D01*
X146769666Y-79604809D01*
X146721285Y-79604809D01*
X146648714Y-79580619D01*
X146600333Y-79532238D01*
X146576142Y-79483857D01*
X146551952Y-79387095D01*
X146551952Y-79314523D01*
X146576142Y-79217761D01*
X146600333Y-79169380D01*
X146648714Y-79121000D01*
X146721285Y-79096809D01*
X146769666Y-79096809D01*
X146842238Y-79121000D01*
X146866428Y-79145190D01*
X147035761Y-79096809D02*
X147374428Y-79096809D01*
X147156714Y-79604809D01*
X147809857Y-79096809D02*
X147567952Y-79096809D01*
X147543761Y-79338714D01*
X147567952Y-79314523D01*
X147616333Y-79290333D01*
X147737285Y-79290333D01*
X147785666Y-79314523D01*
X147809857Y-79338714D01*
X147834047Y-79387095D01*
X147834047Y-79508047D01*
X147809857Y-79556428D01*
X147785666Y-79580619D01*
X147737285Y-79604809D01*
X147616333Y-79604809D01*
X147567952Y-79580619D01*
X147543761Y-79556428D01*
%TO.C,C79*%
X146866428Y-78159428D02*
X146842238Y-78183619D01*
X146769666Y-78207809D01*
X146721285Y-78207809D01*
X146648714Y-78183619D01*
X146600333Y-78135238D01*
X146576142Y-78086857D01*
X146551952Y-77990095D01*
X146551952Y-77917523D01*
X146576142Y-77820761D01*
X146600333Y-77772380D01*
X146648714Y-77724000D01*
X146721285Y-77699809D01*
X146769666Y-77699809D01*
X146842238Y-77724000D01*
X146866428Y-77748190D01*
X147035761Y-77699809D02*
X147374428Y-77699809D01*
X147156714Y-78207809D01*
X147592142Y-78207809D02*
X147688904Y-78207809D01*
X147737285Y-78183619D01*
X147761476Y-78159428D01*
X147809857Y-78086857D01*
X147834047Y-77990095D01*
X147834047Y-77796571D01*
X147809857Y-77748190D01*
X147785666Y-77724000D01*
X147737285Y-77699809D01*
X147640523Y-77699809D01*
X147592142Y-77724000D01*
X147567952Y-77748190D01*
X147543761Y-77796571D01*
X147543761Y-77917523D01*
X147567952Y-77965904D01*
X147592142Y-77990095D01*
X147640523Y-78014285D01*
X147737285Y-78014285D01*
X147785666Y-77990095D01*
X147809857Y-77965904D01*
X147834047Y-77917523D01*
%TO.C,C78*%
X146866428Y-76889428D02*
X146842238Y-76913619D01*
X146769666Y-76937809D01*
X146721285Y-76937809D01*
X146648714Y-76913619D01*
X146600333Y-76865238D01*
X146576142Y-76816857D01*
X146551952Y-76720095D01*
X146551952Y-76647523D01*
X146576142Y-76550761D01*
X146600333Y-76502380D01*
X146648714Y-76454000D01*
X146721285Y-76429809D01*
X146769666Y-76429809D01*
X146842238Y-76454000D01*
X146866428Y-76478190D01*
X147035761Y-76429809D02*
X147374428Y-76429809D01*
X147156714Y-76937809D01*
X147640523Y-76647523D02*
X147592142Y-76623333D01*
X147567952Y-76599142D01*
X147543761Y-76550761D01*
X147543761Y-76526571D01*
X147567952Y-76478190D01*
X147592142Y-76454000D01*
X147640523Y-76429809D01*
X147737285Y-76429809D01*
X147785666Y-76454000D01*
X147809857Y-76478190D01*
X147834047Y-76526571D01*
X147834047Y-76550761D01*
X147809857Y-76599142D01*
X147785666Y-76623333D01*
X147737285Y-76647523D01*
X147640523Y-76647523D01*
X147592142Y-76671714D01*
X147567952Y-76695904D01*
X147543761Y-76744285D01*
X147543761Y-76841047D01*
X147567952Y-76889428D01*
X147592142Y-76913619D01*
X147640523Y-76937809D01*
X147737285Y-76937809D01*
X147785666Y-76913619D01*
X147809857Y-76889428D01*
X147834047Y-76841047D01*
X147834047Y-76744285D01*
X147809857Y-76695904D01*
X147785666Y-76671714D01*
X147737285Y-76647523D01*
%TO.C,C97*%
D18*
X136878785Y-68988214D02*
X136909023Y-69018452D01*
X136939261Y-69109166D01*
X136939261Y-69169642D01*
X136909023Y-69260357D01*
X136848547Y-69320833D01*
X136788071Y-69351071D01*
X136667119Y-69381309D01*
X136576404Y-69381309D01*
X136455452Y-69351071D01*
X136394976Y-69320833D01*
X136334500Y-69260357D01*
X136304261Y-69169642D01*
X136304261Y-69109166D01*
X136334500Y-69018452D01*
X136364738Y-68988214D01*
X136939261Y-68685833D02*
X136939261Y-68564880D01*
X136909023Y-68504404D01*
X136878785Y-68474166D01*
X136788071Y-68413690D01*
X136667119Y-68383452D01*
X136425214Y-68383452D01*
X136364738Y-68413690D01*
X136334500Y-68443928D01*
X136304261Y-68504404D01*
X136304261Y-68625357D01*
X136334500Y-68685833D01*
X136364738Y-68716071D01*
X136425214Y-68746309D01*
X136576404Y-68746309D01*
X136636880Y-68716071D01*
X136667119Y-68685833D01*
X136697357Y-68625357D01*
X136697357Y-68504404D01*
X136667119Y-68443928D01*
X136636880Y-68413690D01*
X136576404Y-68383452D01*
X136304261Y-68171785D02*
X136304261Y-67748452D01*
X136939261Y-68020595D01*
%TO.C,C84*%
D12*
X150168428Y-77669571D02*
X150192619Y-77693761D01*
X150216809Y-77766333D01*
X150216809Y-77814714D01*
X150192619Y-77887285D01*
X150144238Y-77935666D01*
X150095857Y-77959857D01*
X149999095Y-77984047D01*
X149926523Y-77984047D01*
X149829761Y-77959857D01*
X149781380Y-77935666D01*
X149733000Y-77887285D01*
X149708809Y-77814714D01*
X149708809Y-77766333D01*
X149733000Y-77693761D01*
X149757190Y-77669571D01*
X149926523Y-77379285D02*
X149902333Y-77427666D01*
X149878142Y-77451857D01*
X149829761Y-77476047D01*
X149805571Y-77476047D01*
X149757190Y-77451857D01*
X149733000Y-77427666D01*
X149708809Y-77379285D01*
X149708809Y-77282523D01*
X149733000Y-77234142D01*
X149757190Y-77209952D01*
X149805571Y-77185761D01*
X149829761Y-77185761D01*
X149878142Y-77209952D01*
X149902333Y-77234142D01*
X149926523Y-77282523D01*
X149926523Y-77379285D01*
X149950714Y-77427666D01*
X149974904Y-77451857D01*
X150023285Y-77476047D01*
X150120047Y-77476047D01*
X150168428Y-77451857D01*
X150192619Y-77427666D01*
X150216809Y-77379285D01*
X150216809Y-77282523D01*
X150192619Y-77234142D01*
X150168428Y-77209952D01*
X150120047Y-77185761D01*
X150023285Y-77185761D01*
X149974904Y-77209952D01*
X149950714Y-77234142D01*
X149926523Y-77282523D01*
X149878142Y-76750333D02*
X150216809Y-76750333D01*
X149684619Y-76871285D02*
X150047476Y-76992238D01*
X150047476Y-76677761D01*
%TO.C,C73*%
X152962428Y-85162571D02*
X152986619Y-85186761D01*
X153010809Y-85259333D01*
X153010809Y-85307714D01*
X152986619Y-85380285D01*
X152938238Y-85428666D01*
X152889857Y-85452857D01*
X152793095Y-85477047D01*
X152720523Y-85477047D01*
X152623761Y-85452857D01*
X152575380Y-85428666D01*
X152527000Y-85380285D01*
X152502809Y-85307714D01*
X152502809Y-85259333D01*
X152527000Y-85186761D01*
X152551190Y-85162571D01*
X152502809Y-84993238D02*
X152502809Y-84654571D01*
X153010809Y-84872285D01*
X152502809Y-84509428D02*
X152502809Y-84194952D01*
X152696333Y-84364285D01*
X152696333Y-84291714D01*
X152720523Y-84243333D01*
X152744714Y-84219142D01*
X152793095Y-84194952D01*
X152914047Y-84194952D01*
X152962428Y-84219142D01*
X152986619Y-84243333D01*
X153010809Y-84291714D01*
X153010809Y-84436857D01*
X152986619Y-84485238D01*
X152962428Y-84509428D01*
%TO.C,C22*%
X149787428Y-84636428D02*
X149763238Y-84660619D01*
X149690666Y-84684809D01*
X149642285Y-84684809D01*
X149569714Y-84660619D01*
X149521333Y-84612238D01*
X149497142Y-84563857D01*
X149472952Y-84467095D01*
X149472952Y-84394523D01*
X149497142Y-84297761D01*
X149521333Y-84249380D01*
X149569714Y-84201000D01*
X149642285Y-84176809D01*
X149690666Y-84176809D01*
X149763238Y-84201000D01*
X149787428Y-84225190D01*
X149980952Y-84225190D02*
X150005142Y-84201000D01*
X150053523Y-84176809D01*
X150174476Y-84176809D01*
X150222857Y-84201000D01*
X150247047Y-84225190D01*
X150271238Y-84273571D01*
X150271238Y-84321952D01*
X150247047Y-84394523D01*
X149956761Y-84684809D01*
X150271238Y-84684809D01*
X150464761Y-84225190D02*
X150488952Y-84201000D01*
X150537333Y-84176809D01*
X150658285Y-84176809D01*
X150706666Y-84201000D01*
X150730857Y-84225190D01*
X150755047Y-84273571D01*
X150755047Y-84321952D01*
X150730857Y-84394523D01*
X150440571Y-84684809D01*
X150755047Y-84684809D01*
%TO.C,C4*%
X147362333Y-80318428D02*
X147338142Y-80342619D01*
X147265571Y-80366809D01*
X147217190Y-80366809D01*
X147144619Y-80342619D01*
X147096238Y-80294238D01*
X147072047Y-80245857D01*
X147047857Y-80149095D01*
X147047857Y-80076523D01*
X147072047Y-79979761D01*
X147096238Y-79931380D01*
X147144619Y-79883000D01*
X147217190Y-79858809D01*
X147265571Y-79858809D01*
X147338142Y-79883000D01*
X147362333Y-79907190D01*
X147797761Y-80028142D02*
X147797761Y-80366809D01*
X147676809Y-79834619D02*
X147555857Y-80197476D01*
X147870333Y-80197476D01*
%TO.C,C93*%
D18*
X138275785Y-67282785D02*
X138245547Y-67313023D01*
X138154833Y-67343261D01*
X138094357Y-67343261D01*
X138003642Y-67313023D01*
X137943166Y-67252547D01*
X137912928Y-67192071D01*
X137882690Y-67071119D01*
X137882690Y-66980404D01*
X137912928Y-66859452D01*
X137943166Y-66798976D01*
X138003642Y-66738500D01*
X138094357Y-66708261D01*
X138154833Y-66708261D01*
X138245547Y-66738500D01*
X138275785Y-66768738D01*
X138578166Y-67343261D02*
X138699119Y-67343261D01*
X138759595Y-67313023D01*
X138789833Y-67282785D01*
X138850309Y-67192071D01*
X138880547Y-67071119D01*
X138880547Y-66829214D01*
X138850309Y-66768738D01*
X138820071Y-66738500D01*
X138759595Y-66708261D01*
X138638642Y-66708261D01*
X138578166Y-66738500D01*
X138547928Y-66768738D01*
X138517690Y-66829214D01*
X138517690Y-66980404D01*
X138547928Y-67040880D01*
X138578166Y-67071119D01*
X138638642Y-67101357D01*
X138759595Y-67101357D01*
X138820071Y-67071119D01*
X138850309Y-67040880D01*
X138880547Y-66980404D01*
X139092214Y-66708261D02*
X139485309Y-66708261D01*
X139273642Y-66950166D01*
X139364357Y-66950166D01*
X139424833Y-66980404D01*
X139455071Y-67010642D01*
X139485309Y-67071119D01*
X139485309Y-67222309D01*
X139455071Y-67282785D01*
X139424833Y-67313023D01*
X139364357Y-67343261D01*
X139182928Y-67343261D01*
X139122452Y-67313023D01*
X139092214Y-67282785D01*
%TO.C,C96*%
X141641285Y-76354214D02*
X141671523Y-76384452D01*
X141701761Y-76475166D01*
X141701761Y-76535642D01*
X141671523Y-76626357D01*
X141611047Y-76686833D01*
X141550571Y-76717071D01*
X141429619Y-76747309D01*
X141338904Y-76747309D01*
X141217952Y-76717071D01*
X141157476Y-76686833D01*
X141097000Y-76626357D01*
X141066761Y-76535642D01*
X141066761Y-76475166D01*
X141097000Y-76384452D01*
X141127238Y-76354214D01*
X141701761Y-76051833D02*
X141701761Y-75930880D01*
X141671523Y-75870404D01*
X141641285Y-75840166D01*
X141550571Y-75779690D01*
X141429619Y-75749452D01*
X141187714Y-75749452D01*
X141127238Y-75779690D01*
X141097000Y-75809928D01*
X141066761Y-75870404D01*
X141066761Y-75991357D01*
X141097000Y-76051833D01*
X141127238Y-76082071D01*
X141187714Y-76112309D01*
X141338904Y-76112309D01*
X141399380Y-76082071D01*
X141429619Y-76051833D01*
X141459857Y-75991357D01*
X141459857Y-75870404D01*
X141429619Y-75809928D01*
X141399380Y-75779690D01*
X141338904Y-75749452D01*
X141066761Y-75205166D02*
X141066761Y-75326119D01*
X141097000Y-75386595D01*
X141127238Y-75416833D01*
X141217952Y-75477309D01*
X141338904Y-75507547D01*
X141580809Y-75507547D01*
X141641285Y-75477309D01*
X141671523Y-75447071D01*
X141701761Y-75386595D01*
X141701761Y-75265642D01*
X141671523Y-75205166D01*
X141641285Y-75174928D01*
X141580809Y-75144690D01*
X141429619Y-75144690D01*
X141369142Y-75174928D01*
X141338904Y-75205166D01*
X141308666Y-75265642D01*
X141308666Y-75386595D01*
X141338904Y-75447071D01*
X141369142Y-75477309D01*
X141429619Y-75507547D01*
%TO.C,C55*%
X135227785Y-94642214D02*
X135258023Y-94672452D01*
X135288261Y-94763166D01*
X135288261Y-94823642D01*
X135258023Y-94914357D01*
X135197547Y-94974833D01*
X135137071Y-95005071D01*
X135016119Y-95035309D01*
X134925404Y-95035309D01*
X134804452Y-95005071D01*
X134743976Y-94974833D01*
X134683500Y-94914357D01*
X134653261Y-94823642D01*
X134653261Y-94763166D01*
X134683500Y-94672452D01*
X134713738Y-94642214D01*
X134653261Y-94067690D02*
X134653261Y-94370071D01*
X134955642Y-94400309D01*
X134925404Y-94370071D01*
X134895166Y-94309595D01*
X134895166Y-94158404D01*
X134925404Y-94097928D01*
X134955642Y-94067690D01*
X135016119Y-94037452D01*
X135167309Y-94037452D01*
X135227785Y-94067690D01*
X135258023Y-94097928D01*
X135288261Y-94158404D01*
X135288261Y-94309595D01*
X135258023Y-94370071D01*
X135227785Y-94400309D01*
X134653261Y-93462928D02*
X134653261Y-93765309D01*
X134955642Y-93795547D01*
X134925404Y-93765309D01*
X134895166Y-93704833D01*
X134895166Y-93553642D01*
X134925404Y-93493166D01*
X134955642Y-93462928D01*
X135016119Y-93432690D01*
X135167309Y-93432690D01*
X135227785Y-93462928D01*
X135258023Y-93493166D01*
X135288261Y-93553642D01*
X135288261Y-93704833D01*
X135258023Y-93765309D01*
X135227785Y-93795547D01*
%TO.C,C23*%
X149705785Y-86514214D02*
X149736023Y-86544452D01*
X149766261Y-86635166D01*
X149766261Y-86695642D01*
X149736023Y-86786357D01*
X149675547Y-86846833D01*
X149615071Y-86877071D01*
X149494119Y-86907309D01*
X149403404Y-86907309D01*
X149282452Y-86877071D01*
X149221976Y-86846833D01*
X149161500Y-86786357D01*
X149131261Y-86695642D01*
X149131261Y-86635166D01*
X149161500Y-86544452D01*
X149191738Y-86514214D01*
X149191738Y-86272309D02*
X149161500Y-86242071D01*
X149131261Y-86181595D01*
X149131261Y-86030404D01*
X149161500Y-85969928D01*
X149191738Y-85939690D01*
X149252214Y-85909452D01*
X149312690Y-85909452D01*
X149403404Y-85939690D01*
X149766261Y-86302547D01*
X149766261Y-85909452D01*
X149131261Y-85697785D02*
X149131261Y-85304690D01*
X149373166Y-85516357D01*
X149373166Y-85425642D01*
X149403404Y-85365166D01*
X149433642Y-85334928D01*
X149494119Y-85304690D01*
X149645309Y-85304690D01*
X149705785Y-85334928D01*
X149736023Y-85365166D01*
X149766261Y-85425642D01*
X149766261Y-85607071D01*
X149736023Y-85667547D01*
X149705785Y-85697785D01*
%TO.C,C24*%
X148181785Y-86514214D02*
X148212023Y-86544452D01*
X148242261Y-86635166D01*
X148242261Y-86695642D01*
X148212023Y-86786357D01*
X148151547Y-86846833D01*
X148091071Y-86877071D01*
X147970119Y-86907309D01*
X147879404Y-86907309D01*
X147758452Y-86877071D01*
X147697976Y-86846833D01*
X147637500Y-86786357D01*
X147607261Y-86695642D01*
X147607261Y-86635166D01*
X147637500Y-86544452D01*
X147667738Y-86514214D01*
X147667738Y-86272309D02*
X147637500Y-86242071D01*
X147607261Y-86181595D01*
X147607261Y-86030404D01*
X147637500Y-85969928D01*
X147667738Y-85939690D01*
X147728214Y-85909452D01*
X147788690Y-85909452D01*
X147879404Y-85939690D01*
X148242261Y-86302547D01*
X148242261Y-85909452D01*
X147818928Y-85365166D02*
X148242261Y-85365166D01*
X147577023Y-85516357D02*
X148030595Y-85667547D01*
X148030595Y-85274452D01*
%TO.C,C68*%
X154404785Y-95476785D02*
X154374547Y-95507023D01*
X154283833Y-95537261D01*
X154223357Y-95537261D01*
X154132642Y-95507023D01*
X154072166Y-95446547D01*
X154041928Y-95386071D01*
X154011690Y-95265119D01*
X154011690Y-95174404D01*
X154041928Y-95053452D01*
X154072166Y-94992976D01*
X154132642Y-94932500D01*
X154223357Y-94902261D01*
X154283833Y-94902261D01*
X154374547Y-94932500D01*
X154404785Y-94962738D01*
X154949071Y-94902261D02*
X154828119Y-94902261D01*
X154767642Y-94932500D01*
X154737404Y-94962738D01*
X154676928Y-95053452D01*
X154646690Y-95174404D01*
X154646690Y-95416309D01*
X154676928Y-95476785D01*
X154707166Y-95507023D01*
X154767642Y-95537261D01*
X154888595Y-95537261D01*
X154949071Y-95507023D01*
X154979309Y-95476785D01*
X155009547Y-95416309D01*
X155009547Y-95265119D01*
X154979309Y-95204642D01*
X154949071Y-95174404D01*
X154888595Y-95144166D01*
X154767642Y-95144166D01*
X154707166Y-95174404D01*
X154676928Y-95204642D01*
X154646690Y-95265119D01*
X155372404Y-95174404D02*
X155311928Y-95144166D01*
X155281690Y-95113928D01*
X155251452Y-95053452D01*
X155251452Y-95023214D01*
X155281690Y-94962738D01*
X155311928Y-94932500D01*
X155372404Y-94902261D01*
X155493357Y-94902261D01*
X155553833Y-94932500D01*
X155584071Y-94962738D01*
X155614309Y-95023214D01*
X155614309Y-95053452D01*
X155584071Y-95113928D01*
X155553833Y-95144166D01*
X155493357Y-95174404D01*
X155372404Y-95174404D01*
X155311928Y-95204642D01*
X155281690Y-95234880D01*
X155251452Y-95295357D01*
X155251452Y-95416309D01*
X155281690Y-95476785D01*
X155311928Y-95507023D01*
X155372404Y-95537261D01*
X155493357Y-95537261D01*
X155553833Y-95507023D01*
X155584071Y-95476785D01*
X155614309Y-95416309D01*
X155614309Y-95295357D01*
X155584071Y-95234880D01*
X155553833Y-95204642D01*
X155493357Y-95174404D01*
%TO.C,C28*%
X131036785Y-96111785D02*
X131006547Y-96142023D01*
X130915833Y-96172261D01*
X130855357Y-96172261D01*
X130764642Y-96142023D01*
X130704166Y-96081547D01*
X130673928Y-96021071D01*
X130643690Y-95900119D01*
X130643690Y-95809404D01*
X130673928Y-95688452D01*
X130704166Y-95627976D01*
X130764642Y-95567500D01*
X130855357Y-95537261D01*
X130915833Y-95537261D01*
X131006547Y-95567500D01*
X131036785Y-95597738D01*
X131278690Y-95597738D02*
X131308928Y-95567500D01*
X131369404Y-95537261D01*
X131520595Y-95537261D01*
X131581071Y-95567500D01*
X131611309Y-95597738D01*
X131641547Y-95658214D01*
X131641547Y-95718690D01*
X131611309Y-95809404D01*
X131248452Y-96172261D01*
X131641547Y-96172261D01*
X132004404Y-95809404D02*
X131943928Y-95779166D01*
X131913690Y-95748928D01*
X131883452Y-95688452D01*
X131883452Y-95658214D01*
X131913690Y-95597738D01*
X131943928Y-95567500D01*
X132004404Y-95537261D01*
X132125357Y-95537261D01*
X132185833Y-95567500D01*
X132216071Y-95597738D01*
X132246309Y-95658214D01*
X132246309Y-95688452D01*
X132216071Y-95748928D01*
X132185833Y-95779166D01*
X132125357Y-95809404D01*
X132004404Y-95809404D01*
X131943928Y-95839642D01*
X131913690Y-95869880D01*
X131883452Y-95930357D01*
X131883452Y-96051309D01*
X131913690Y-96111785D01*
X131943928Y-96142023D01*
X132004404Y-96172261D01*
X132125357Y-96172261D01*
X132185833Y-96142023D01*
X132216071Y-96111785D01*
X132246309Y-96051309D01*
X132246309Y-95930357D01*
X132216071Y-95869880D01*
X132185833Y-95839642D01*
X132125357Y-95809404D01*
%TO.C,C19*%
X133322785Y-100683785D02*
X133292547Y-100714023D01*
X133201833Y-100744261D01*
X133141357Y-100744261D01*
X133050642Y-100714023D01*
X132990166Y-100653547D01*
X132959928Y-100593071D01*
X132929690Y-100472119D01*
X132929690Y-100381404D01*
X132959928Y-100260452D01*
X132990166Y-100199976D01*
X133050642Y-100139500D01*
X133141357Y-100109261D01*
X133201833Y-100109261D01*
X133292547Y-100139500D01*
X133322785Y-100169738D01*
X133927547Y-100744261D02*
X133564690Y-100744261D01*
X133746119Y-100744261D02*
X133746119Y-100109261D01*
X133685642Y-100199976D01*
X133625166Y-100260452D01*
X133564690Y-100290690D01*
X134229928Y-100744261D02*
X134350880Y-100744261D01*
X134411357Y-100714023D01*
X134441595Y-100683785D01*
X134502071Y-100593071D01*
X134532309Y-100472119D01*
X134532309Y-100230214D01*
X134502071Y-100169738D01*
X134471833Y-100139500D01*
X134411357Y-100109261D01*
X134290404Y-100109261D01*
X134229928Y-100139500D01*
X134199690Y-100169738D01*
X134169452Y-100230214D01*
X134169452Y-100381404D01*
X134199690Y-100441880D01*
X134229928Y-100472119D01*
X134290404Y-100502357D01*
X134411357Y-100502357D01*
X134471833Y-100472119D01*
X134502071Y-100441880D01*
X134532309Y-100381404D01*
%TO.C,C77*%
X143228785Y-86895214D02*
X143259023Y-86925452D01*
X143289261Y-87016166D01*
X143289261Y-87076642D01*
X143259023Y-87167357D01*
X143198547Y-87227833D01*
X143138071Y-87258071D01*
X143017119Y-87288309D01*
X142926404Y-87288309D01*
X142805452Y-87258071D01*
X142744976Y-87227833D01*
X142684500Y-87167357D01*
X142654261Y-87076642D01*
X142654261Y-87016166D01*
X142684500Y-86925452D01*
X142714738Y-86895214D01*
X142654261Y-86683547D02*
X142654261Y-86260214D01*
X143289261Y-86532357D01*
X142654261Y-86078785D02*
X142654261Y-85655452D01*
X143289261Y-85927595D01*
%TO.C,C74*%
X144752785Y-86895214D02*
X144783023Y-86925452D01*
X144813261Y-87016166D01*
X144813261Y-87076642D01*
X144783023Y-87167357D01*
X144722547Y-87227833D01*
X144662071Y-87258071D01*
X144541119Y-87288309D01*
X144450404Y-87288309D01*
X144329452Y-87258071D01*
X144268976Y-87227833D01*
X144208500Y-87167357D01*
X144178261Y-87076642D01*
X144178261Y-87016166D01*
X144208500Y-86925452D01*
X144238738Y-86895214D01*
X144178261Y-86683547D02*
X144178261Y-86260214D01*
X144813261Y-86532357D01*
X144389928Y-85746166D02*
X144813261Y-85746166D01*
X144148023Y-85897357D02*
X144601595Y-86048547D01*
X144601595Y-85655452D01*
%TO.C,C48*%
D12*
X155629428Y-78050571D02*
X155653619Y-78074761D01*
X155677809Y-78147333D01*
X155677809Y-78195714D01*
X155653619Y-78268285D01*
X155605238Y-78316666D01*
X155556857Y-78340857D01*
X155460095Y-78365047D01*
X155387523Y-78365047D01*
X155290761Y-78340857D01*
X155242380Y-78316666D01*
X155194000Y-78268285D01*
X155169809Y-78195714D01*
X155169809Y-78147333D01*
X155194000Y-78074761D01*
X155218190Y-78050571D01*
X155339142Y-77615142D02*
X155677809Y-77615142D01*
X155145619Y-77736095D02*
X155508476Y-77857047D01*
X155508476Y-77542571D01*
X155387523Y-77276476D02*
X155363333Y-77324857D01*
X155339142Y-77349047D01*
X155290761Y-77373238D01*
X155266571Y-77373238D01*
X155218190Y-77349047D01*
X155194000Y-77324857D01*
X155169809Y-77276476D01*
X155169809Y-77179714D01*
X155194000Y-77131333D01*
X155218190Y-77107142D01*
X155266571Y-77082952D01*
X155290761Y-77082952D01*
X155339142Y-77107142D01*
X155363333Y-77131333D01*
X155387523Y-77179714D01*
X155387523Y-77276476D01*
X155411714Y-77324857D01*
X155435904Y-77349047D01*
X155484285Y-77373238D01*
X155581047Y-77373238D01*
X155629428Y-77349047D01*
X155653619Y-77324857D01*
X155677809Y-77276476D01*
X155677809Y-77179714D01*
X155653619Y-77131333D01*
X155629428Y-77107142D01*
X155581047Y-77082952D01*
X155484285Y-77082952D01*
X155435904Y-77107142D01*
X155411714Y-77131333D01*
X155387523Y-77179714D01*
%TO.C,C49*%
X155502428Y-85797571D02*
X155526619Y-85821761D01*
X155550809Y-85894333D01*
X155550809Y-85942714D01*
X155526619Y-86015285D01*
X155478238Y-86063666D01*
X155429857Y-86087857D01*
X155333095Y-86112047D01*
X155260523Y-86112047D01*
X155163761Y-86087857D01*
X155115380Y-86063666D01*
X155067000Y-86015285D01*
X155042809Y-85942714D01*
X155042809Y-85894333D01*
X155067000Y-85821761D01*
X155091190Y-85797571D01*
X155212142Y-85362142D02*
X155550809Y-85362142D01*
X155018619Y-85483095D02*
X155381476Y-85604047D01*
X155381476Y-85289571D01*
X155550809Y-85071857D02*
X155550809Y-84975095D01*
X155526619Y-84926714D01*
X155502428Y-84902523D01*
X155429857Y-84854142D01*
X155333095Y-84829952D01*
X155139571Y-84829952D01*
X155091190Y-84854142D01*
X155067000Y-84878333D01*
X155042809Y-84926714D01*
X155042809Y-85023476D01*
X155067000Y-85071857D01*
X155091190Y-85096047D01*
X155139571Y-85120238D01*
X155260523Y-85120238D01*
X155308904Y-85096047D01*
X155333095Y-85071857D01*
X155357285Y-85023476D01*
X155357285Y-84926714D01*
X155333095Y-84878333D01*
X155308904Y-84854142D01*
X155260523Y-84829952D01*
%TO.C,C92*%
D18*
X142339785Y-73369714D02*
X142370023Y-73399952D01*
X142400261Y-73490666D01*
X142400261Y-73551142D01*
X142370023Y-73641857D01*
X142309547Y-73702333D01*
X142249071Y-73732571D01*
X142128119Y-73762809D01*
X142037404Y-73762809D01*
X141916452Y-73732571D01*
X141855976Y-73702333D01*
X141795500Y-73641857D01*
X141765261Y-73551142D01*
X141765261Y-73490666D01*
X141795500Y-73399952D01*
X141825738Y-73369714D01*
X142400261Y-73067333D02*
X142400261Y-72946380D01*
X142370023Y-72885904D01*
X142339785Y-72855666D01*
X142249071Y-72795190D01*
X142128119Y-72764952D01*
X141886214Y-72764952D01*
X141825738Y-72795190D01*
X141795500Y-72825428D01*
X141765261Y-72885904D01*
X141765261Y-73006857D01*
X141795500Y-73067333D01*
X141825738Y-73097571D01*
X141886214Y-73127809D01*
X142037404Y-73127809D01*
X142097880Y-73097571D01*
X142128119Y-73067333D01*
X142158357Y-73006857D01*
X142158357Y-72885904D01*
X142128119Y-72825428D01*
X142097880Y-72795190D01*
X142037404Y-72764952D01*
X141825738Y-72523047D02*
X141795500Y-72492809D01*
X141765261Y-72432333D01*
X141765261Y-72281142D01*
X141795500Y-72220666D01*
X141825738Y-72190428D01*
X141886214Y-72160190D01*
X141946690Y-72160190D01*
X142037404Y-72190428D01*
X142400261Y-72553285D01*
X142400261Y-72160190D01*
%TO.C,C59*%
X145768785Y-90650785D02*
X145738547Y-90681023D01*
X145647833Y-90711261D01*
X145587357Y-90711261D01*
X145496642Y-90681023D01*
X145436166Y-90620547D01*
X145405928Y-90560071D01*
X145375690Y-90439119D01*
X145375690Y-90348404D01*
X145405928Y-90227452D01*
X145436166Y-90166976D01*
X145496642Y-90106500D01*
X145587357Y-90076261D01*
X145647833Y-90076261D01*
X145738547Y-90106500D01*
X145768785Y-90136738D01*
X146343309Y-90076261D02*
X146040928Y-90076261D01*
X146010690Y-90378642D01*
X146040928Y-90348404D01*
X146101404Y-90318166D01*
X146252595Y-90318166D01*
X146313071Y-90348404D01*
X146343309Y-90378642D01*
X146373547Y-90439119D01*
X146373547Y-90590309D01*
X146343309Y-90650785D01*
X146313071Y-90681023D01*
X146252595Y-90711261D01*
X146101404Y-90711261D01*
X146040928Y-90681023D01*
X146010690Y-90650785D01*
X146675928Y-90711261D02*
X146796880Y-90711261D01*
X146857357Y-90681023D01*
X146887595Y-90650785D01*
X146948071Y-90560071D01*
X146978309Y-90439119D01*
X146978309Y-90197214D01*
X146948071Y-90136738D01*
X146917833Y-90106500D01*
X146857357Y-90076261D01*
X146736404Y-90076261D01*
X146675928Y-90106500D01*
X146645690Y-90136738D01*
X146615452Y-90197214D01*
X146615452Y-90348404D01*
X146645690Y-90408880D01*
X146675928Y-90439119D01*
X146736404Y-90469357D01*
X146857357Y-90469357D01*
X146917833Y-90439119D01*
X146948071Y-90408880D01*
X146978309Y-90348404D01*
%TO.C,C14*%
D12*
X146866428Y-82223428D02*
X146842238Y-82247619D01*
X146769666Y-82271809D01*
X146721285Y-82271809D01*
X146648714Y-82247619D01*
X146600333Y-82199238D01*
X146576142Y-82150857D01*
X146551952Y-82054095D01*
X146551952Y-81981523D01*
X146576142Y-81884761D01*
X146600333Y-81836380D01*
X146648714Y-81788000D01*
X146721285Y-81763809D01*
X146769666Y-81763809D01*
X146842238Y-81788000D01*
X146866428Y-81812190D01*
X147350238Y-82271809D02*
X147059952Y-82271809D01*
X147205095Y-82271809D02*
X147205095Y-81763809D01*
X147156714Y-81836380D01*
X147108333Y-81884761D01*
X147059952Y-81908952D01*
X147785666Y-81933142D02*
X147785666Y-82271809D01*
X147664714Y-81739619D02*
X147543761Y-82102476D01*
X147858238Y-82102476D01*
%TO.C,C15*%
D18*
X151229785Y-86514214D02*
X151260023Y-86544452D01*
X151290261Y-86635166D01*
X151290261Y-86695642D01*
X151260023Y-86786357D01*
X151199547Y-86846833D01*
X151139071Y-86877071D01*
X151018119Y-86907309D01*
X150927404Y-86907309D01*
X150806452Y-86877071D01*
X150745976Y-86846833D01*
X150685500Y-86786357D01*
X150655261Y-86695642D01*
X150655261Y-86635166D01*
X150685500Y-86544452D01*
X150715738Y-86514214D01*
X151290261Y-85909452D02*
X151290261Y-86272309D01*
X151290261Y-86090880D02*
X150655261Y-86090880D01*
X150745976Y-86151357D01*
X150806452Y-86211833D01*
X150836690Y-86272309D01*
X150655261Y-85334928D02*
X150655261Y-85637309D01*
X150957642Y-85667547D01*
X150927404Y-85637309D01*
X150897166Y-85576833D01*
X150897166Y-85425642D01*
X150927404Y-85365166D01*
X150957642Y-85334928D01*
X151018119Y-85304690D01*
X151169309Y-85304690D01*
X151229785Y-85334928D01*
X151260023Y-85365166D01*
X151290261Y-85425642D01*
X151290261Y-85576833D01*
X151260023Y-85637309D01*
X151229785Y-85667547D01*
%TO.C,C81*%
D12*
X160709428Y-76780571D02*
X160733619Y-76804761D01*
X160757809Y-76877333D01*
X160757809Y-76925714D01*
X160733619Y-76998285D01*
X160685238Y-77046666D01*
X160636857Y-77070857D01*
X160540095Y-77095047D01*
X160467523Y-77095047D01*
X160370761Y-77070857D01*
X160322380Y-77046666D01*
X160274000Y-76998285D01*
X160249809Y-76925714D01*
X160249809Y-76877333D01*
X160274000Y-76804761D01*
X160298190Y-76780571D01*
X160467523Y-76490285D02*
X160443333Y-76538666D01*
X160419142Y-76562857D01*
X160370761Y-76587047D01*
X160346571Y-76587047D01*
X160298190Y-76562857D01*
X160274000Y-76538666D01*
X160249809Y-76490285D01*
X160249809Y-76393523D01*
X160274000Y-76345142D01*
X160298190Y-76320952D01*
X160346571Y-76296761D01*
X160370761Y-76296761D01*
X160419142Y-76320952D01*
X160443333Y-76345142D01*
X160467523Y-76393523D01*
X160467523Y-76490285D01*
X160491714Y-76538666D01*
X160515904Y-76562857D01*
X160564285Y-76587047D01*
X160661047Y-76587047D01*
X160709428Y-76562857D01*
X160733619Y-76538666D01*
X160757809Y-76490285D01*
X160757809Y-76393523D01*
X160733619Y-76345142D01*
X160709428Y-76320952D01*
X160661047Y-76296761D01*
X160564285Y-76296761D01*
X160515904Y-76320952D01*
X160491714Y-76345142D01*
X160467523Y-76393523D01*
X160757809Y-75812952D02*
X160757809Y-76103238D01*
X160757809Y-75958095D02*
X160249809Y-75958095D01*
X160322380Y-76006476D01*
X160370761Y-76054857D01*
X160394952Y-76103238D01*
%TO.C,C36*%
X138230428Y-97971428D02*
X138206238Y-97995619D01*
X138133666Y-98019809D01*
X138085285Y-98019809D01*
X138012714Y-97995619D01*
X137964333Y-97947238D01*
X137940142Y-97898857D01*
X137915952Y-97802095D01*
X137915952Y-97729523D01*
X137940142Y-97632761D01*
X137964333Y-97584380D01*
X138012714Y-97536000D01*
X138085285Y-97511809D01*
X138133666Y-97511809D01*
X138206238Y-97536000D01*
X138230428Y-97560190D01*
X138399761Y-97511809D02*
X138714238Y-97511809D01*
X138544904Y-97705333D01*
X138617476Y-97705333D01*
X138665857Y-97729523D01*
X138690047Y-97753714D01*
X138714238Y-97802095D01*
X138714238Y-97923047D01*
X138690047Y-97971428D01*
X138665857Y-97995619D01*
X138617476Y-98019809D01*
X138472333Y-98019809D01*
X138423952Y-97995619D01*
X138399761Y-97971428D01*
X139149666Y-97511809D02*
X139052904Y-97511809D01*
X139004523Y-97536000D01*
X138980333Y-97560190D01*
X138931952Y-97632761D01*
X138907761Y-97729523D01*
X138907761Y-97923047D01*
X138931952Y-97971428D01*
X138956142Y-97995619D01*
X139004523Y-98019809D01*
X139101285Y-98019809D01*
X139149666Y-97995619D01*
X139173857Y-97971428D01*
X139198047Y-97923047D01*
X139198047Y-97802095D01*
X139173857Y-97753714D01*
X139149666Y-97729523D01*
X139101285Y-97705333D01*
X139004523Y-97705333D01*
X138956142Y-97729523D01*
X138931952Y-97753714D01*
X138907761Y-97802095D01*
%TO.C,C40*%
D10*
X141877142Y-101618142D02*
X141840857Y-101654428D01*
X141732000Y-101690714D01*
X141659428Y-101690714D01*
X141550571Y-101654428D01*
X141478000Y-101581857D01*
X141441714Y-101509285D01*
X141405428Y-101364142D01*
X141405428Y-101255285D01*
X141441714Y-101110142D01*
X141478000Y-101037571D01*
X141550571Y-100965000D01*
X141659428Y-100928714D01*
X141732000Y-100928714D01*
X141840857Y-100965000D01*
X141877142Y-101001285D01*
X142530285Y-101182714D02*
X142530285Y-101690714D01*
X142348857Y-100892428D02*
X142167428Y-101436714D01*
X142639142Y-101436714D01*
X143074571Y-100928714D02*
X143147142Y-100928714D01*
X143219714Y-100965000D01*
X143256000Y-101001285D01*
X143292285Y-101073857D01*
X143328571Y-101219000D01*
X143328571Y-101400428D01*
X143292285Y-101545571D01*
X143256000Y-101618142D01*
X143219714Y-101654428D01*
X143147142Y-101690714D01*
X143074571Y-101690714D01*
X143002000Y-101654428D01*
X142965714Y-101618142D01*
X142929428Y-101545571D01*
X142893142Y-101400428D01*
X142893142Y-101219000D01*
X142929428Y-101073857D01*
X142965714Y-101001285D01*
X143002000Y-100965000D01*
X143074571Y-100928714D01*
%TO.C,C39*%
X136498052Y-88041815D02*
X136498052Y-88093131D01*
X136446737Y-88195762D01*
X136395421Y-88247078D01*
X136292789Y-88298394D01*
X136190158Y-88298394D01*
X136113184Y-88272736D01*
X135984895Y-88195762D01*
X135907921Y-88118788D01*
X135830948Y-87990499D01*
X135805290Y-87913525D01*
X135805290Y-87810894D01*
X135856605Y-87708262D01*
X135907921Y-87656947D01*
X136010553Y-87605631D01*
X136061868Y-87605631D01*
X136190158Y-87374710D02*
X136523710Y-87041158D01*
X136549368Y-87426026D01*
X136626342Y-87349052D01*
X136703315Y-87323394D01*
X136754631Y-87323394D01*
X136831605Y-87349052D01*
X136959894Y-87477342D01*
X136985552Y-87554315D01*
X136985552Y-87605631D01*
X136959894Y-87682605D01*
X136805947Y-87836552D01*
X136728973Y-87862210D01*
X136677657Y-87862210D01*
X137319104Y-87323394D02*
X137421736Y-87220763D01*
X137447394Y-87143789D01*
X137447394Y-87092474D01*
X137421736Y-86964184D01*
X137344762Y-86835895D01*
X137139499Y-86630632D01*
X137062525Y-86604974D01*
X137011210Y-86604974D01*
X136934236Y-86630632D01*
X136831605Y-86733263D01*
X136805947Y-86810237D01*
X136805947Y-86861553D01*
X136831605Y-86938526D01*
X136959894Y-87066816D01*
X137036868Y-87092474D01*
X137088183Y-87092474D01*
X137165157Y-87066816D01*
X137267788Y-86964184D01*
X137293446Y-86887211D01*
X137293446Y-86835895D01*
X137267788Y-86758921D01*
%TO.C,C41*%
D18*
X135227785Y-97817214D02*
X135258023Y-97847452D01*
X135288261Y-97938166D01*
X135288261Y-97998642D01*
X135258023Y-98089357D01*
X135197547Y-98149833D01*
X135137071Y-98180071D01*
X135016119Y-98210309D01*
X134925404Y-98210309D01*
X134804452Y-98180071D01*
X134743976Y-98149833D01*
X134683500Y-98089357D01*
X134653261Y-97998642D01*
X134653261Y-97938166D01*
X134683500Y-97847452D01*
X134713738Y-97817214D01*
X134864928Y-97272928D02*
X135288261Y-97272928D01*
X134623023Y-97424119D02*
X135076595Y-97575309D01*
X135076595Y-97182214D01*
X135288261Y-96607690D02*
X135288261Y-96970547D01*
X135288261Y-96789119D02*
X134653261Y-96789119D01*
X134743976Y-96849595D01*
X134804452Y-96910071D01*
X134834690Y-96970547D01*
%TO.C,C35*%
X137386785Y-94841785D02*
X137356547Y-94872023D01*
X137265833Y-94902261D01*
X137205357Y-94902261D01*
X137114642Y-94872023D01*
X137054166Y-94811547D01*
X137023928Y-94751071D01*
X136993690Y-94630119D01*
X136993690Y-94539404D01*
X137023928Y-94418452D01*
X137054166Y-94357976D01*
X137114642Y-94297500D01*
X137205357Y-94267261D01*
X137265833Y-94267261D01*
X137356547Y-94297500D01*
X137386785Y-94327738D01*
X137598452Y-94267261D02*
X137991547Y-94267261D01*
X137779880Y-94509166D01*
X137870595Y-94509166D01*
X137931071Y-94539404D01*
X137961309Y-94569642D01*
X137991547Y-94630119D01*
X137991547Y-94781309D01*
X137961309Y-94841785D01*
X137931071Y-94872023D01*
X137870595Y-94902261D01*
X137689166Y-94902261D01*
X137628690Y-94872023D01*
X137598452Y-94841785D01*
X138566071Y-94267261D02*
X138263690Y-94267261D01*
X138233452Y-94569642D01*
X138263690Y-94539404D01*
X138324166Y-94509166D01*
X138475357Y-94509166D01*
X138535833Y-94539404D01*
X138566071Y-94569642D01*
X138596309Y-94630119D01*
X138596309Y-94781309D01*
X138566071Y-94841785D01*
X138535833Y-94872023D01*
X138475357Y-94902261D01*
X138324166Y-94902261D01*
X138263690Y-94872023D01*
X138233452Y-94841785D01*
%TO.C,R4*%
D12*
X171933809Y-87460666D02*
X171691904Y-87630000D01*
X171933809Y-87750952D02*
X171425809Y-87750952D01*
X171425809Y-87557428D01*
X171450000Y-87509047D01*
X171474190Y-87484857D01*
X171522571Y-87460666D01*
X171595142Y-87460666D01*
X171643523Y-87484857D01*
X171667714Y-87509047D01*
X171691904Y-87557428D01*
X171691904Y-87750952D01*
X171595142Y-87025238D02*
X171933809Y-87025238D01*
X171401619Y-87146190D02*
X171764476Y-87267142D01*
X171764476Y-86952666D01*
%TO.C,R5*%
X170663809Y-87460666D02*
X170421904Y-87630000D01*
X170663809Y-87750952D02*
X170155809Y-87750952D01*
X170155809Y-87557428D01*
X170180000Y-87509047D01*
X170204190Y-87484857D01*
X170252571Y-87460666D01*
X170325142Y-87460666D01*
X170373523Y-87484857D01*
X170397714Y-87509047D01*
X170421904Y-87557428D01*
X170421904Y-87750952D01*
X170155809Y-87001047D02*
X170155809Y-87242952D01*
X170397714Y-87267142D01*
X170373523Y-87242952D01*
X170349333Y-87194571D01*
X170349333Y-87073619D01*
X170373523Y-87025238D01*
X170397714Y-87001047D01*
X170446095Y-86976857D01*
X170567047Y-86976857D01*
X170615428Y-87001047D01*
X170639619Y-87025238D01*
X170663809Y-87073619D01*
X170663809Y-87194571D01*
X170639619Y-87242952D01*
X170615428Y-87267142D01*
%TO.C,R27*%
X153264809Y-74494571D02*
X153022904Y-74663904D01*
X153264809Y-74784857D02*
X152756809Y-74784857D01*
X152756809Y-74591333D01*
X152781000Y-74542952D01*
X152805190Y-74518761D01*
X152853571Y-74494571D01*
X152926142Y-74494571D01*
X152974523Y-74518761D01*
X152998714Y-74542952D01*
X153022904Y-74591333D01*
X153022904Y-74784857D01*
X152805190Y-74301047D02*
X152781000Y-74276857D01*
X152756809Y-74228476D01*
X152756809Y-74107523D01*
X152781000Y-74059142D01*
X152805190Y-74034952D01*
X152853571Y-74010761D01*
X152901952Y-74010761D01*
X152974523Y-74034952D01*
X153264809Y-74325238D01*
X153264809Y-74010761D01*
X152756809Y-73841428D02*
X152756809Y-73502761D01*
X153264809Y-73720476D01*
%TO.C,R28*%
X155169809Y-76653571D02*
X154927904Y-76822904D01*
X155169809Y-76943857D02*
X154661809Y-76943857D01*
X154661809Y-76750333D01*
X154686000Y-76701952D01*
X154710190Y-76677761D01*
X154758571Y-76653571D01*
X154831142Y-76653571D01*
X154879523Y-76677761D01*
X154903714Y-76701952D01*
X154927904Y-76750333D01*
X154927904Y-76943857D01*
X154710190Y-76460047D02*
X154686000Y-76435857D01*
X154661809Y-76387476D01*
X154661809Y-76266523D01*
X154686000Y-76218142D01*
X154710190Y-76193952D01*
X154758571Y-76169761D01*
X154806952Y-76169761D01*
X154879523Y-76193952D01*
X155169809Y-76484238D01*
X155169809Y-76169761D01*
X154879523Y-75879476D02*
X154855333Y-75927857D01*
X154831142Y-75952047D01*
X154782761Y-75976238D01*
X154758571Y-75976238D01*
X154710190Y-75952047D01*
X154686000Y-75927857D01*
X154661809Y-75879476D01*
X154661809Y-75782714D01*
X154686000Y-75734333D01*
X154710190Y-75710142D01*
X154758571Y-75685952D01*
X154782761Y-75685952D01*
X154831142Y-75710142D01*
X154855333Y-75734333D01*
X154879523Y-75782714D01*
X154879523Y-75879476D01*
X154903714Y-75927857D01*
X154927904Y-75952047D01*
X154976285Y-75976238D01*
X155073047Y-75976238D01*
X155121428Y-75952047D01*
X155145619Y-75927857D01*
X155169809Y-75879476D01*
X155169809Y-75782714D01*
X155145619Y-75734333D01*
X155121428Y-75710142D01*
X155073047Y-75685952D01*
X154976285Y-75685952D01*
X154927904Y-75710142D01*
X154903714Y-75734333D01*
X154879523Y-75782714D01*
%TO.C,R15*%
X156615190Y-79683428D02*
X156857095Y-79514095D01*
X156615190Y-79393142D02*
X157123190Y-79393142D01*
X157123190Y-79586666D01*
X157099000Y-79635047D01*
X157074809Y-79659238D01*
X157026428Y-79683428D01*
X156953857Y-79683428D01*
X156905476Y-79659238D01*
X156881285Y-79635047D01*
X156857095Y-79586666D01*
X156857095Y-79393142D01*
X156615190Y-80167238D02*
X156615190Y-79876952D01*
X156615190Y-80022095D02*
X157123190Y-80022095D01*
X157050619Y-79973714D01*
X157002238Y-79925333D01*
X156978047Y-79876952D01*
X157123190Y-80626857D02*
X157123190Y-80384952D01*
X156881285Y-80360761D01*
X156905476Y-80384952D01*
X156929666Y-80433333D01*
X156929666Y-80554285D01*
X156905476Y-80602666D01*
X156881285Y-80626857D01*
X156832904Y-80651047D01*
X156711952Y-80651047D01*
X156663571Y-80626857D01*
X156639380Y-80602666D01*
X156615190Y-80554285D01*
X156615190Y-80433333D01*
X156639380Y-80384952D01*
X156663571Y-80360761D01*
%TO.C,R14*%
X158725809Y-76780571D02*
X158483904Y-76949904D01*
X158725809Y-77070857D02*
X158217809Y-77070857D01*
X158217809Y-76877333D01*
X158242000Y-76828952D01*
X158266190Y-76804761D01*
X158314571Y-76780571D01*
X158387142Y-76780571D01*
X158435523Y-76804761D01*
X158459714Y-76828952D01*
X158483904Y-76877333D01*
X158483904Y-77070857D01*
X158725809Y-76296761D02*
X158725809Y-76587047D01*
X158725809Y-76441904D02*
X158217809Y-76441904D01*
X158290380Y-76490285D01*
X158338761Y-76538666D01*
X158362952Y-76587047D01*
X158387142Y-75861333D02*
X158725809Y-75861333D01*
X158193619Y-75982285D02*
X158556476Y-76103238D01*
X158556476Y-75788761D01*
%TO.C,R31*%
X151994809Y-85162571D02*
X151752904Y-85331904D01*
X151994809Y-85452857D02*
X151486809Y-85452857D01*
X151486809Y-85259333D01*
X151511000Y-85210952D01*
X151535190Y-85186761D01*
X151583571Y-85162571D01*
X151656142Y-85162571D01*
X151704523Y-85186761D01*
X151728714Y-85210952D01*
X151752904Y-85259333D01*
X151752904Y-85452857D01*
X151486809Y-84993238D02*
X151486809Y-84678761D01*
X151680333Y-84848095D01*
X151680333Y-84775523D01*
X151704523Y-84727142D01*
X151728714Y-84702952D01*
X151777095Y-84678761D01*
X151898047Y-84678761D01*
X151946428Y-84702952D01*
X151970619Y-84727142D01*
X151994809Y-84775523D01*
X151994809Y-84920666D01*
X151970619Y-84969047D01*
X151946428Y-84993238D01*
X151994809Y-84194952D02*
X151994809Y-84485238D01*
X151994809Y-84340095D02*
X151486809Y-84340095D01*
X151559380Y-84388476D01*
X151607761Y-84436857D01*
X151631952Y-84485238D01*
%TO.C,R50*%
X157026428Y-81636809D02*
X156857095Y-81394904D01*
X156736142Y-81636809D02*
X156736142Y-81128809D01*
X156929666Y-81128809D01*
X156978047Y-81153000D01*
X157002238Y-81177190D01*
X157026428Y-81225571D01*
X157026428Y-81298142D01*
X157002238Y-81346523D01*
X156978047Y-81370714D01*
X156929666Y-81394904D01*
X156736142Y-81394904D01*
X157486047Y-81128809D02*
X157244142Y-81128809D01*
X157219952Y-81370714D01*
X157244142Y-81346523D01*
X157292523Y-81322333D01*
X157413476Y-81322333D01*
X157461857Y-81346523D01*
X157486047Y-81370714D01*
X157510238Y-81419095D01*
X157510238Y-81540047D01*
X157486047Y-81588428D01*
X157461857Y-81612619D01*
X157413476Y-81636809D01*
X157292523Y-81636809D01*
X157244142Y-81612619D01*
X157219952Y-81588428D01*
X157824714Y-81128809D02*
X157873095Y-81128809D01*
X157921476Y-81153000D01*
X157945666Y-81177190D01*
X157969857Y-81225571D01*
X157994047Y-81322333D01*
X157994047Y-81443285D01*
X157969857Y-81540047D01*
X157945666Y-81588428D01*
X157921476Y-81612619D01*
X157873095Y-81636809D01*
X157824714Y-81636809D01*
X157776333Y-81612619D01*
X157752142Y-81588428D01*
X157727952Y-81540047D01*
X157703761Y-81443285D01*
X157703761Y-81322333D01*
X157727952Y-81225571D01*
X157752142Y-81177190D01*
X157776333Y-81153000D01*
X157824714Y-81128809D01*
%TO.C,R49*%
X157026428Y-82525809D02*
X156857095Y-82283904D01*
X156736142Y-82525809D02*
X156736142Y-82017809D01*
X156929666Y-82017809D01*
X156978047Y-82042000D01*
X157002238Y-82066190D01*
X157026428Y-82114571D01*
X157026428Y-82187142D01*
X157002238Y-82235523D01*
X156978047Y-82259714D01*
X156929666Y-82283904D01*
X156736142Y-82283904D01*
X157461857Y-82187142D02*
X157461857Y-82525809D01*
X157340904Y-81993619D02*
X157219952Y-82356476D01*
X157534428Y-82356476D01*
X157752142Y-82525809D02*
X157848904Y-82525809D01*
X157897285Y-82501619D01*
X157921476Y-82477428D01*
X157969857Y-82404857D01*
X157994047Y-82308095D01*
X157994047Y-82114571D01*
X157969857Y-82066190D01*
X157945666Y-82042000D01*
X157897285Y-82017809D01*
X157800523Y-82017809D01*
X157752142Y-82042000D01*
X157727952Y-82066190D01*
X157703761Y-82114571D01*
X157703761Y-82235523D01*
X157727952Y-82283904D01*
X157752142Y-82308095D01*
X157800523Y-82332285D01*
X157897285Y-82332285D01*
X157945666Y-82308095D01*
X157969857Y-82283904D01*
X157994047Y-82235523D01*
%TO.C,R59*%
D18*
X141831785Y-69883261D02*
X141620119Y-69580880D01*
X141468928Y-69883261D02*
X141468928Y-69248261D01*
X141710833Y-69248261D01*
X141771309Y-69278500D01*
X141801547Y-69308738D01*
X141831785Y-69369214D01*
X141831785Y-69459928D01*
X141801547Y-69520404D01*
X141771309Y-69550642D01*
X141710833Y-69580880D01*
X141468928Y-69580880D01*
X142406309Y-69248261D02*
X142103928Y-69248261D01*
X142073690Y-69550642D01*
X142103928Y-69520404D01*
X142164404Y-69490166D01*
X142315595Y-69490166D01*
X142376071Y-69520404D01*
X142406309Y-69550642D01*
X142436547Y-69611119D01*
X142436547Y-69762309D01*
X142406309Y-69822785D01*
X142376071Y-69853023D01*
X142315595Y-69883261D01*
X142164404Y-69883261D01*
X142103928Y-69853023D01*
X142073690Y-69822785D01*
X142738928Y-69883261D02*
X142859880Y-69883261D01*
X142920357Y-69853023D01*
X142950595Y-69822785D01*
X143011071Y-69732071D01*
X143041309Y-69611119D01*
X143041309Y-69369214D01*
X143011071Y-69308738D01*
X142980833Y-69278500D01*
X142920357Y-69248261D01*
X142799404Y-69248261D01*
X142738928Y-69278500D01*
X142708690Y-69308738D01*
X142678452Y-69369214D01*
X142678452Y-69520404D01*
X142708690Y-69580880D01*
X142738928Y-69611119D01*
X142799404Y-69641357D01*
X142920357Y-69641357D01*
X142980833Y-69611119D01*
X143011071Y-69580880D01*
X143041309Y-69520404D01*
%TO.C,R57*%
X141895285Y-71661261D02*
X141683619Y-71358880D01*
X141532428Y-71661261D02*
X141532428Y-71026261D01*
X141774333Y-71026261D01*
X141834809Y-71056500D01*
X141865047Y-71086738D01*
X141895285Y-71147214D01*
X141895285Y-71237928D01*
X141865047Y-71298404D01*
X141834809Y-71328642D01*
X141774333Y-71358880D01*
X141532428Y-71358880D01*
X142469809Y-71026261D02*
X142167428Y-71026261D01*
X142137190Y-71328642D01*
X142167428Y-71298404D01*
X142227904Y-71268166D01*
X142379095Y-71268166D01*
X142439571Y-71298404D01*
X142469809Y-71328642D01*
X142500047Y-71389119D01*
X142500047Y-71540309D01*
X142469809Y-71600785D01*
X142439571Y-71631023D01*
X142379095Y-71661261D01*
X142227904Y-71661261D01*
X142167428Y-71631023D01*
X142137190Y-71600785D01*
X142711714Y-71026261D02*
X143135047Y-71026261D01*
X142862904Y-71661261D01*
%TO.C,R58*%
X141958785Y-74836261D02*
X141747119Y-74533880D01*
X141595928Y-74836261D02*
X141595928Y-74201261D01*
X141837833Y-74201261D01*
X141898309Y-74231500D01*
X141928547Y-74261738D01*
X141958785Y-74322214D01*
X141958785Y-74412928D01*
X141928547Y-74473404D01*
X141898309Y-74503642D01*
X141837833Y-74533880D01*
X141595928Y-74533880D01*
X142533309Y-74201261D02*
X142230928Y-74201261D01*
X142200690Y-74503642D01*
X142230928Y-74473404D01*
X142291404Y-74443166D01*
X142442595Y-74443166D01*
X142503071Y-74473404D01*
X142533309Y-74503642D01*
X142563547Y-74564119D01*
X142563547Y-74715309D01*
X142533309Y-74775785D01*
X142503071Y-74806023D01*
X142442595Y-74836261D01*
X142291404Y-74836261D01*
X142230928Y-74806023D01*
X142200690Y-74775785D01*
X142926404Y-74473404D02*
X142865928Y-74443166D01*
X142835690Y-74412928D01*
X142805452Y-74352452D01*
X142805452Y-74322214D01*
X142835690Y-74261738D01*
X142865928Y-74231500D01*
X142926404Y-74201261D01*
X143047357Y-74201261D01*
X143107833Y-74231500D01*
X143138071Y-74261738D01*
X143168309Y-74322214D01*
X143168309Y-74352452D01*
X143138071Y-74412928D01*
X143107833Y-74443166D01*
X143047357Y-74473404D01*
X142926404Y-74473404D01*
X142865928Y-74503642D01*
X142835690Y-74533880D01*
X142805452Y-74594357D01*
X142805452Y-74715309D01*
X142835690Y-74775785D01*
X142865928Y-74806023D01*
X142926404Y-74836261D01*
X143047357Y-74836261D01*
X143107833Y-74806023D01*
X143138071Y-74775785D01*
X143168309Y-74715309D01*
X143168309Y-74594357D01*
X143138071Y-74533880D01*
X143107833Y-74503642D01*
X143047357Y-74473404D01*
%TO.C,R64*%
X123289785Y-80170261D02*
X123078119Y-79867880D01*
X122926928Y-80170261D02*
X122926928Y-79535261D01*
X123168833Y-79535261D01*
X123229309Y-79565500D01*
X123259547Y-79595738D01*
X123289785Y-79656214D01*
X123289785Y-79746928D01*
X123259547Y-79807404D01*
X123229309Y-79837642D01*
X123168833Y-79867880D01*
X122926928Y-79867880D01*
X123834071Y-79535261D02*
X123713119Y-79535261D01*
X123652642Y-79565500D01*
X123622404Y-79595738D01*
X123561928Y-79686452D01*
X123531690Y-79807404D01*
X123531690Y-80049309D01*
X123561928Y-80109785D01*
X123592166Y-80140023D01*
X123652642Y-80170261D01*
X123773595Y-80170261D01*
X123834071Y-80140023D01*
X123864309Y-80109785D01*
X123894547Y-80049309D01*
X123894547Y-79898119D01*
X123864309Y-79837642D01*
X123834071Y-79807404D01*
X123773595Y-79777166D01*
X123652642Y-79777166D01*
X123592166Y-79807404D01*
X123561928Y-79837642D01*
X123531690Y-79898119D01*
X124438833Y-79746928D02*
X124438833Y-80170261D01*
X124287642Y-79505023D02*
X124136452Y-79958595D01*
X124529547Y-79958595D01*
%TO.C,R56*%
X123289785Y-79027261D02*
X123078119Y-78724880D01*
X122926928Y-79027261D02*
X122926928Y-78392261D01*
X123168833Y-78392261D01*
X123229309Y-78422500D01*
X123259547Y-78452738D01*
X123289785Y-78513214D01*
X123289785Y-78603928D01*
X123259547Y-78664404D01*
X123229309Y-78694642D01*
X123168833Y-78724880D01*
X122926928Y-78724880D01*
X123864309Y-78392261D02*
X123561928Y-78392261D01*
X123531690Y-78694642D01*
X123561928Y-78664404D01*
X123622404Y-78634166D01*
X123773595Y-78634166D01*
X123834071Y-78664404D01*
X123864309Y-78694642D01*
X123894547Y-78755119D01*
X123894547Y-78906309D01*
X123864309Y-78966785D01*
X123834071Y-78997023D01*
X123773595Y-79027261D01*
X123622404Y-79027261D01*
X123561928Y-78997023D01*
X123531690Y-78966785D01*
X124438833Y-78392261D02*
X124317880Y-78392261D01*
X124257404Y-78422500D01*
X124227166Y-78452738D01*
X124166690Y-78543452D01*
X124136452Y-78664404D01*
X124136452Y-78906309D01*
X124166690Y-78966785D01*
X124196928Y-78997023D01*
X124257404Y-79027261D01*
X124378357Y-79027261D01*
X124438833Y-78997023D01*
X124469071Y-78966785D01*
X124499309Y-78906309D01*
X124499309Y-78755119D01*
X124469071Y-78694642D01*
X124438833Y-78664404D01*
X124378357Y-78634166D01*
X124257404Y-78634166D01*
X124196928Y-78664404D01*
X124166690Y-78694642D01*
X124136452Y-78755119D01*
%TO.C,R6*%
X169058166Y-102141261D02*
X168846500Y-101838880D01*
X168695309Y-102141261D02*
X168695309Y-101506261D01*
X168937214Y-101506261D01*
X168997690Y-101536500D01*
X169027928Y-101566738D01*
X169058166Y-101627214D01*
X169058166Y-101717928D01*
X169027928Y-101778404D01*
X168997690Y-101808642D01*
X168937214Y-101838880D01*
X168695309Y-101838880D01*
X169602452Y-101506261D02*
X169481500Y-101506261D01*
X169421023Y-101536500D01*
X169390785Y-101566738D01*
X169330309Y-101657452D01*
X169300071Y-101778404D01*
X169300071Y-102020309D01*
X169330309Y-102080785D01*
X169360547Y-102111023D01*
X169421023Y-102141261D01*
X169541976Y-102141261D01*
X169602452Y-102111023D01*
X169632690Y-102080785D01*
X169662928Y-102020309D01*
X169662928Y-101869119D01*
X169632690Y-101808642D01*
X169602452Y-101778404D01*
X169541976Y-101748166D01*
X169421023Y-101748166D01*
X169360547Y-101778404D01*
X169330309Y-101808642D01*
X169300071Y-101869119D01*
%TO.C,R21*%
D12*
X131166809Y-103704571D02*
X130924904Y-103873904D01*
X131166809Y-103994857D02*
X130658809Y-103994857D01*
X130658809Y-103801333D01*
X130683000Y-103752952D01*
X130707190Y-103728761D01*
X130755571Y-103704571D01*
X130828142Y-103704571D01*
X130876523Y-103728761D01*
X130900714Y-103752952D01*
X130924904Y-103801333D01*
X130924904Y-103994857D01*
X130707190Y-103511047D02*
X130683000Y-103486857D01*
X130658809Y-103438476D01*
X130658809Y-103317523D01*
X130683000Y-103269142D01*
X130707190Y-103244952D01*
X130755571Y-103220761D01*
X130803952Y-103220761D01*
X130876523Y-103244952D01*
X131166809Y-103535238D01*
X131166809Y-103220761D01*
X131166809Y-102736952D02*
X131166809Y-103027238D01*
X131166809Y-102882095D02*
X130658809Y-102882095D01*
X130731380Y-102930476D01*
X130779761Y-102978857D01*
X130803952Y-103027238D01*
%TO.C,R42*%
X150851809Y-94433571D02*
X150609904Y-94602904D01*
X150851809Y-94723857D02*
X150343809Y-94723857D01*
X150343809Y-94530333D01*
X150368000Y-94481952D01*
X150392190Y-94457761D01*
X150440571Y-94433571D01*
X150513142Y-94433571D01*
X150561523Y-94457761D01*
X150585714Y-94481952D01*
X150609904Y-94530333D01*
X150609904Y-94723857D01*
X150513142Y-93998142D02*
X150851809Y-93998142D01*
X150319619Y-94119095D02*
X150682476Y-94240047D01*
X150682476Y-93925571D01*
X150392190Y-93756238D02*
X150368000Y-93732047D01*
X150343809Y-93683666D01*
X150343809Y-93562714D01*
X150368000Y-93514333D01*
X150392190Y-93490142D01*
X150440571Y-93465952D01*
X150488952Y-93465952D01*
X150561523Y-93490142D01*
X150851809Y-93780428D01*
X150851809Y-93465952D01*
%TO.C,R43*%
D18*
X145133785Y-94648261D02*
X144922119Y-94345880D01*
X144770928Y-94648261D02*
X144770928Y-94013261D01*
X145012833Y-94013261D01*
X145073309Y-94043500D01*
X145103547Y-94073738D01*
X145133785Y-94134214D01*
X145133785Y-94224928D01*
X145103547Y-94285404D01*
X145073309Y-94315642D01*
X145012833Y-94345880D01*
X144770928Y-94345880D01*
X145678071Y-94224928D02*
X145678071Y-94648261D01*
X145526880Y-93983023D02*
X145375690Y-94436595D01*
X145768785Y-94436595D01*
X145950214Y-94013261D02*
X146343309Y-94013261D01*
X146131642Y-94255166D01*
X146222357Y-94255166D01*
X146282833Y-94285404D01*
X146313071Y-94315642D01*
X146343309Y-94376119D01*
X146343309Y-94527309D01*
X146313071Y-94587785D01*
X146282833Y-94618023D01*
X146222357Y-94648261D01*
X146040928Y-94648261D01*
X145980452Y-94618023D01*
X145950214Y-94587785D01*
%TO.C,R16*%
D12*
X130404809Y-103704571D02*
X130162904Y-103873904D01*
X130404809Y-103994857D02*
X129896809Y-103994857D01*
X129896809Y-103801333D01*
X129921000Y-103752952D01*
X129945190Y-103728761D01*
X129993571Y-103704571D01*
X130066142Y-103704571D01*
X130114523Y-103728761D01*
X130138714Y-103752952D01*
X130162904Y-103801333D01*
X130162904Y-103994857D01*
X130404809Y-103220761D02*
X130404809Y-103511047D01*
X130404809Y-103365904D02*
X129896809Y-103365904D01*
X129969380Y-103414285D01*
X130017761Y-103462666D01*
X130041952Y-103511047D01*
X129896809Y-102785333D02*
X129896809Y-102882095D01*
X129921000Y-102930476D01*
X129945190Y-102954666D01*
X130017761Y-103003047D01*
X130114523Y-103027238D01*
X130308047Y-103027238D01*
X130356428Y-103003047D01*
X130380619Y-102978857D01*
X130404809Y-102930476D01*
X130404809Y-102833714D01*
X130380619Y-102785333D01*
X130356428Y-102761142D01*
X130308047Y-102736952D01*
X130187095Y-102736952D01*
X130138714Y-102761142D01*
X130114523Y-102785333D01*
X130090333Y-102833714D01*
X130090333Y-102930476D01*
X130114523Y-102978857D01*
X130138714Y-103003047D01*
X130187095Y-103027238D01*
%TO.C,R20*%
D18*
X134084785Y-92108261D02*
X133873119Y-91805880D01*
X133721928Y-92108261D02*
X133721928Y-91473261D01*
X133963833Y-91473261D01*
X134024309Y-91503500D01*
X134054547Y-91533738D01*
X134084785Y-91594214D01*
X134084785Y-91684928D01*
X134054547Y-91745404D01*
X134024309Y-91775642D01*
X133963833Y-91805880D01*
X133721928Y-91805880D01*
X134326690Y-91533738D02*
X134356928Y-91503500D01*
X134417404Y-91473261D01*
X134568595Y-91473261D01*
X134629071Y-91503500D01*
X134659309Y-91533738D01*
X134689547Y-91594214D01*
X134689547Y-91654690D01*
X134659309Y-91745404D01*
X134296452Y-92108261D01*
X134689547Y-92108261D01*
X135082642Y-91473261D02*
X135143119Y-91473261D01*
X135203595Y-91503500D01*
X135233833Y-91533738D01*
X135264071Y-91594214D01*
X135294309Y-91715166D01*
X135294309Y-91866357D01*
X135264071Y-91987309D01*
X135233833Y-92047785D01*
X135203595Y-92078023D01*
X135143119Y-92108261D01*
X135082642Y-92108261D01*
X135022166Y-92078023D01*
X134991928Y-92047785D01*
X134961690Y-91987309D01*
X134931452Y-91866357D01*
X134931452Y-91715166D01*
X134961690Y-91594214D01*
X134991928Y-91533738D01*
X135022166Y-91503500D01*
X135082642Y-91473261D01*
%TO.C,R19*%
X146972261Y-87149214D02*
X146669880Y-87360880D01*
X146972261Y-87512071D02*
X146337261Y-87512071D01*
X146337261Y-87270166D01*
X146367500Y-87209690D01*
X146397738Y-87179452D01*
X146458214Y-87149214D01*
X146548928Y-87149214D01*
X146609404Y-87179452D01*
X146639642Y-87209690D01*
X146669880Y-87270166D01*
X146669880Y-87512071D01*
X146972261Y-86544452D02*
X146972261Y-86907309D01*
X146972261Y-86725880D02*
X146337261Y-86725880D01*
X146427976Y-86786357D01*
X146488452Y-86846833D01*
X146518690Y-86907309D01*
X146972261Y-86242071D02*
X146972261Y-86121119D01*
X146942023Y-86060642D01*
X146911785Y-86030404D01*
X146821071Y-85969928D01*
X146700119Y-85939690D01*
X146458214Y-85939690D01*
X146397738Y-85969928D01*
X146367500Y-86000166D01*
X146337261Y-86060642D01*
X146337261Y-86181595D01*
X146367500Y-86242071D01*
X146397738Y-86272309D01*
X146458214Y-86302547D01*
X146609404Y-86302547D01*
X146669880Y-86272309D01*
X146700119Y-86242071D01*
X146730357Y-86181595D01*
X146730357Y-86060642D01*
X146700119Y-86000166D01*
X146669880Y-85969928D01*
X146609404Y-85939690D01*
%TO.C,R18*%
D12*
X140564809Y-94433571D02*
X140322904Y-94602904D01*
X140564809Y-94723857D02*
X140056809Y-94723857D01*
X140056809Y-94530333D01*
X140081000Y-94481952D01*
X140105190Y-94457761D01*
X140153571Y-94433571D01*
X140226142Y-94433571D01*
X140274523Y-94457761D01*
X140298714Y-94481952D01*
X140322904Y-94530333D01*
X140322904Y-94723857D01*
X140564809Y-93949761D02*
X140564809Y-94240047D01*
X140564809Y-94094904D02*
X140056809Y-94094904D01*
X140129380Y-94143285D01*
X140177761Y-94191666D01*
X140201952Y-94240047D01*
X140274523Y-93659476D02*
X140250333Y-93707857D01*
X140226142Y-93732047D01*
X140177761Y-93756238D01*
X140153571Y-93756238D01*
X140105190Y-93732047D01*
X140081000Y-93707857D01*
X140056809Y-93659476D01*
X140056809Y-93562714D01*
X140081000Y-93514333D01*
X140105190Y-93490142D01*
X140153571Y-93465952D01*
X140177761Y-93465952D01*
X140226142Y-93490142D01*
X140250333Y-93514333D01*
X140274523Y-93562714D01*
X140274523Y-93659476D01*
X140298714Y-93707857D01*
X140322904Y-93732047D01*
X140371285Y-93756238D01*
X140468047Y-93756238D01*
X140516428Y-93732047D01*
X140540619Y-93707857D01*
X140564809Y-93659476D01*
X140564809Y-93562714D01*
X140540619Y-93514333D01*
X140516428Y-93490142D01*
X140468047Y-93465952D01*
X140371285Y-93465952D01*
X140322904Y-93490142D01*
X140298714Y-93514333D01*
X140274523Y-93562714D01*
%TO.C,L6*%
D18*
X154199166Y-101506261D02*
X153896785Y-101506261D01*
X153896785Y-100871261D01*
X154682976Y-100871261D02*
X154562023Y-100871261D01*
X154501547Y-100901500D01*
X154471309Y-100931738D01*
X154410833Y-101022452D01*
X154380595Y-101143404D01*
X154380595Y-101385309D01*
X154410833Y-101445785D01*
X154441071Y-101476023D01*
X154501547Y-101506261D01*
X154622500Y-101506261D01*
X154682976Y-101476023D01*
X154713214Y-101445785D01*
X154743452Y-101385309D01*
X154743452Y-101234119D01*
X154713214Y-101173642D01*
X154682976Y-101143404D01*
X154622500Y-101113166D01*
X154501547Y-101113166D01*
X154441071Y-101143404D01*
X154410833Y-101173642D01*
X154380595Y-101234119D01*
%TO.C,U5*%
X149122190Y-90203261D02*
X149122190Y-90717309D01*
X149152428Y-90777785D01*
X149182666Y-90808023D01*
X149243142Y-90838261D01*
X149364095Y-90838261D01*
X149424571Y-90808023D01*
X149454809Y-90777785D01*
X149485047Y-90717309D01*
X149485047Y-90203261D01*
X150089809Y-90203261D02*
X149787428Y-90203261D01*
X149757190Y-90505642D01*
X149787428Y-90475404D01*
X149847904Y-90445166D01*
X149999095Y-90445166D01*
X150059571Y-90475404D01*
X150089809Y-90505642D01*
X150120047Y-90566119D01*
X150120047Y-90717309D01*
X150089809Y-90777785D01*
X150059571Y-90808023D01*
X149999095Y-90838261D01*
X149847904Y-90838261D01*
X149787428Y-90808023D01*
X149757190Y-90777785D01*
%TO.C,T1*%
X141130261Y-91542809D02*
X141130261Y-91179952D01*
X141765261Y-91361380D02*
X141130261Y-91361380D01*
X141765261Y-90635666D02*
X141765261Y-90998523D01*
X141765261Y-90817095D02*
X141130261Y-90817095D01*
X141220976Y-90877571D01*
X141281452Y-90938047D01*
X141311690Y-90998523D01*
%TO.C,Sign-PbFree*%
D11*
X162291211Y-70537767D02*
X162291211Y-68837767D01*
X162862640Y-68837767D01*
X163005497Y-68918720D01*
X163076925Y-68999672D01*
X163148354Y-69161577D01*
X163148354Y-69404434D01*
X163076925Y-69566339D01*
X163005497Y-69647291D01*
X162862640Y-69728243D01*
X162291211Y-69728243D01*
X163791211Y-70537767D02*
X163791211Y-68837767D01*
X163791211Y-69485386D02*
X163934068Y-69404434D01*
X164219782Y-69404434D01*
X164362640Y-69485386D01*
X164434068Y-69566339D01*
X164505497Y-69728243D01*
X164505497Y-70213958D01*
X164434068Y-70375862D01*
X164362640Y-70456815D01*
X164219782Y-70537767D01*
X163934068Y-70537767D01*
X163791211Y-70456815D01*
%TD*%
M02*
