M48
; DRILL file {KiCad 5.1.0-rc2-unknown-036be7d~80~ubuntu16.04.1} date 29.11.2019 (пт) 15:46:37 EET
; FORMAT={-:-/ absolute / inch / decimal}
; #@! TF.CreationDate,2019-11-29T15:46:37+02:00*
; #@! TF.GenerationSoftware,Kicad,Pcbnew,5.1.0-rc2-unknown-036be7d~80~ubuntu16.04.1
; #@! TF.FileFunction,Plated,1,4,PTH
FMAT,2
INCH
T1C0.0079
T2C0.0118
T3C0.0157
T4C0.0236
T5C0.0276
T6C0.0354
T7C0.0394
T8C0.0472
%
G90
G05
T1
X5.625Y-3.095
X5.6637Y-3.0942
X5.6888Y-3.2711
X5.7208Y-2.8482
X5.7323Y-3.1358
X5.7568Y-3.2116
X5.7579Y-3.0069
X5.7579Y-3.1358
X5.7579Y-3.1595
X5.7579Y-3.2372
X5.7586Y-3.056
X5.7588Y-3.1082
X5.7825Y-3.1093
X5.7825Y-3.135
X5.7829Y-3.1866
X5.7835Y-2.9813
X5.7835Y-3.0069
X5.7835Y-3.0581
X5.7835Y-3.0837
X5.7838Y-2.9306
X5.7839Y-3.2116
X5.8084Y-3.0325
X5.8084Y-3.0581
X5.8091Y-2.9557
X5.8091Y-2.9813
X5.8091Y-3.1604
X5.8091Y-3.2372
X5.8095Y-3.186
X5.8095Y-3.2121
X5.81Y-3.1093
X5.8329Y-3.1604
X5.8329Y-3.1855
X5.8346Y-2.9301
X5.8346Y-2.9557
X5.8346Y-2.9813
X5.8346Y-3.0325
X5.8346Y-3.0832
X5.8346Y-3.1097
X5.859Y-3.1091
X5.8592Y-3.1328
X5.8602Y-2.9557
X5.8602Y-2.9813
X5.8611Y-3.0067
X5.8615Y-3.0326
X5.8615Y-3.0579
X5.8615Y-3.0838
X5.8849Y-3.0823
X5.8858Y-2.9301
X5.8858Y-2.9557
X5.8858Y-2.9813
X5.8858Y-3.0069
X5.8858Y-3.0325
X5.8858Y-3.0581
X5.8858Y-3.1088
X5.8865Y-3.1855
X5.8865Y-3.2121
X5.8865Y-3.1353
X5.909Y-3.0831
X5.9091Y-3.11
X5.911Y-3.2116
X5.911Y-3.2373
X5.9112Y-3.1871
X5.9113Y-3.1607
X5.9114Y-2.9557
X5.9114Y-3.1342
X5.937Y-2.9557
X5.937Y-3.0069
X5.937Y-3.0325
X5.937Y-3.0581
X5.937Y-3.0837
X5.9372Y-2.9804
X5.9375Y-3.2122
X5.9377Y-3.1856
X5.9382Y-3.1605
X5.9425Y-2.8325
X5.9624Y-3.2382
X5.9624Y-2.9804
X5.9626Y-3.2118
X5.9626Y-2.9557
X5.9626Y-3.0069
X5.9626Y-3.0325
X5.9626Y-3.0581
X5.9626Y-3.0837
X5.9626Y-3.1093
X5.963Y-3.1853
X5.9647Y-3.1598
X5.9877Y-3.1093
X5.988Y-3.059
X5.9882Y-2.9301
X5.9882Y-2.9557
X5.9882Y-3.0069
X5.9882Y-3.0837
X5.9882Y-3.2628
X5.9882Y-3.2118
X5.9883Y-3.1853
X5.9883Y-3.2382
X5.9884Y-2.9804
X5.9909Y-3.1359
X6.0136Y-3.0065
X6.0136Y-2.9804
X6.0138Y-2.9557
X6.0138Y-3.0832
X6.0138Y-3.1348
X6.0138Y-3.1856
X6.0142Y-3.1097
X6.0149Y-3.0567
X6.0377Y-3.1385
X6.0386Y-3.0557
X6.0391Y-3.0832
X6.0394Y-2.9557
X6.0394Y-3.1856
X6.0394Y-3.2121
X6.0394Y-2.9804
X6.0396Y-3.1097
X6.065Y-2.9301
X6.065Y-2.9557
X6.065Y-3.0069
X6.065Y-3.0832
X6.065Y-3.1097
X6.065Y-3.1362
X6.065Y-3.2628
X6.0906Y-3.2628
X6.115Y-2.88
X6.125Y-3.1442
X6.1289Y-3.2756
X6.135Y-3.03
X6.2281Y-2.9379
X6.2281Y-2.9821
X6.2285Y-2.917
X6.2285Y-3.003
X6.298Y-2.715
X6.3189Y-2.715
X6.3605Y-2.715
X6.3805Y-2.715
X6.405Y-2.715
X6.425Y-2.715
T2
X4.765Y-3.445
X4.775Y-2.755
X4.805Y-2.87
X4.8146Y-3.33
X4.815Y-2.93
X4.815Y-2.955
X4.815Y-3.295
X4.825Y-2.805
X4.825Y-3.225
X4.84Y-2.9471
X4.8446Y-3.1646
X4.845Y-3.715
X4.85Y-2.655
X4.85Y-2.695
X4.85Y-2.875
X4.85Y-2.91
X4.865Y-3.29
X4.865Y-3.35
X4.87Y-3.695
X4.875Y-3.785
X4.89Y-3.1875
X4.9Y-2.78
X4.9029Y-2.7341
X4.905Y-3.635
X4.905Y-3.67
X4.9175Y-3.1875
X4.9225Y-3.085
X4.935Y-2.615
X4.9375Y-3.17
X4.9378Y-2.7122
X4.9394Y-3.3496
X4.96Y-2.615
X4.97Y-3.8001
X4.9701Y-3.3636
X4.9704Y-3.0005
X4.9704Y-3.025
X4.9718Y-3.4413
X4.985Y-2.615
X4.9951Y-3.8001
X5.0Y-3.34
X5.01Y-2.615
X5.01Y-3.4
X5.015Y-2.4
X5.0161Y-2.6468
X5.02Y-3.06
X5.02Y-3.8
X5.03Y-3.26
X5.03Y-3.305
X5.0301Y-3.0842
X5.045Y-3.64
X5.045Y-3.67
X5.05Y-3.765
X5.0519Y-3.4335
X5.06Y-3.125
X5.06Y-3.735
X5.0675Y-2.565
X5.0675Y-2.595
X5.09Y-2.485
X5.09Y-2.51
X5.095Y-2.565
X5.095Y-2.595
X5.12Y-2.485
X5.12Y-2.51
X5.1296Y-3.9457
X5.14Y-3.865
X5.1475Y-2.42
X5.1475Y-3.13
X5.1475Y-3.1675
X5.15Y-3.915
X5.1675Y-2.6225
X5.175Y-2.485
X5.175Y-2.51
X5.175Y-2.84
X5.175Y-2.865
X5.175Y-2.89
X5.175Y-2.915
X5.175Y-2.975
X5.175Y-3.035
X5.175Y-3.06
X5.1839Y-3.1752
X5.1875Y-3.68
X5.1875Y-3.705
X5.19Y-4.035
X5.195Y-2.6225
X5.1975Y-3.125
X5.2Y-3.26
X5.21Y-2.485
X5.21Y-2.51
X5.21Y-3.035
X5.21Y-3.06
X5.215Y-3.68
X5.215Y-3.705
X5.215Y-4.035
X5.2236Y-3.175
X5.225Y-3.125
X5.225Y-3.745
X5.225Y-4.19
X5.235Y-2.51
X5.2357Y-4.1443
X5.24Y-3.675
X5.24Y-4.035
X5.2405Y-3.9403
X5.245Y-3.38
X5.25Y-3.125
X5.256Y-2.4958
X5.26Y-3.625
X5.26Y-3.66
X5.265Y-4.035
X5.2682Y-3.9128
X5.2691Y-2.4751
X5.2725Y-4.0075
X5.2747Y-3.1253
X5.2875Y-3.625
X5.29Y-4.035
X5.2936Y-2.4742
X5.3Y-3.12
X5.305Y-2.84
X5.305Y-3.55
X5.318Y-2.4729
X5.32Y-2.725
X5.32Y-3.22
X5.3418Y-2.4789
X5.345Y-3.22
X5.345Y-3.245
X5.36Y-3.605
X5.375Y-3.26
X5.38Y-3.585
X5.3802Y-2.8052
X5.3822Y-3.0178
X5.3829Y-3.1221
X5.3846Y-3.0871
X5.385Y-2.455
X5.385Y-3.0529
X5.385Y-3.9425
X5.385Y-3.9675
X5.385Y-3.9925
X5.385Y-4.0175
X5.3875Y-3.1674
X5.39Y-2.665
X5.39Y-2.725
X5.41Y-3.9425
X5.41Y-3.9675
X5.41Y-3.9925
X5.41Y-4.0175
X5.415Y-2.45
X5.425Y-2.785
X5.43Y-2.545
X5.43Y-3.34
X5.44Y-3.53
X5.44Y-3.616
X5.45Y-3.175
X5.46Y-3.355
X5.465Y-2.54
X5.465Y-3.53
X5.469Y-3.616
X5.48Y-3.655
X5.485Y-2.78
X5.49Y-3.53
X5.4901Y-2.5401
X5.495Y-2.62
X5.495Y-3.616
X5.495Y-4.005
X5.5121Y-3.1226
X5.515Y-3.095
X5.515Y-3.1634
X5.515Y-3.1879
X5.515Y-3.29
X5.515Y-3.315
X5.515Y-3.985
X5.515Y-4.025
X5.52Y-2.62
X5.52Y-3.045
X5.52Y-3.66
X5.52Y-3.695
X5.525Y-3.805
X5.53Y-3.26
X5.54Y-3.06
X5.54Y-3.09
X5.54Y-3.125
X5.54Y-3.1629
X5.54Y-3.56
X5.54Y-3.585
X5.54Y-4.29
X5.545Y-3.375
X5.545Y-3.475
X5.55Y-2.64
X5.55Y-3.805
X5.55Y-3.83
X5.55Y-4.255
X5.57Y-3.375
X5.575Y-3.805
X5.575Y-3.83
X5.58Y-3.68
X5.585Y-2.6475
X5.5852Y-2.623
X5.59Y-3.475
X5.59Y-3.54
X5.6Y-3.83
X5.605Y-2.665
X5.605Y-3.705
X5.605Y-3.975
X5.6091Y-2.6897
X5.61Y-4.0544
X5.6184Y-2.8054
X5.6234Y-3.3666
X5.625Y-3.62
X5.625Y-3.645
X5.625Y-3.83
X5.6269Y-2.654
X5.6275Y-2.5454
X5.63Y-3.96
X5.6464Y-2.6871
X5.649Y-2.6109
X5.6528Y-2.6635
X5.655Y-3.64
X5.655Y-3.96
X5.66Y-3.46
X5.66Y-3.485
X5.66Y-3.7216
X5.67Y-2.73
X5.6719Y-2.7723
X5.672Y-2.7968
X5.6768Y-2.6369
X5.685Y-3.85
X5.685Y-3.875
X5.685Y-3.9
X5.685Y-3.925
X5.685Y-3.95
X5.728Y-2.482
X5.73Y-3.49
X5.745Y-3.71
X5.745Y-3.74
X5.7543Y-2.4877
X5.77Y-3.535
X5.7795Y-2.5366
X5.7925Y-2.4475
X5.795Y-3.725
X5.7975Y-3.625
X5.8019Y-2.5268
X5.82Y-3.33
X5.825Y-3.62
X5.83Y-2.42
X5.83Y-3.769
X5.83Y-3.794
X5.8309Y-3.744
X5.8375Y-3.655
X5.84Y-3.965
X5.84Y-3.99
X5.84Y-4.015
X5.845Y-3.3329
X5.85Y-3.44
X5.85Y-3.62
X5.8542Y-3.3092
X5.855Y-3.8
X5.86Y-3.465
X5.86Y-3.675
X5.8656Y-2.524
X5.8797Y-3.3572
X5.8798Y-3.3327
X5.9Y-2.41
X5.905Y-2.58
X5.91Y-3.88
X5.91Y-3.905
X5.91Y-3.93
X5.91Y-3.955
X5.9101Y-2.6082
X5.92Y-3.44
X5.93Y-4.115
X5.9325Y-3.3902
X5.95Y-2.4
X5.957Y-3.3905
X5.9593Y-3.3504
X5.96Y-4.035
X5.965Y-2.8353
X5.9709Y-2.8591
X5.975Y-2.425
X5.9815Y-3.39
X5.983Y-3.3245
X5.9838Y-3.3499
X5.985Y-4.035
X6.0Y-2.4
X6.005Y-2.6517
X6.0196Y-3.715
X6.02Y-3.545
X6.02Y-4.1
X6.025Y-2.425
X6.025Y-2.475
X6.035Y-2.58
X6.04Y-2.495
X6.04Y-2.52
X6.0409Y-2.8611
X6.05Y-2.4
X6.05Y-2.45
X6.06Y-2.58
X6.0712Y-2.8448
X6.075Y-2.425
X6.075Y-3.4695
X6.075Y-3.74
X6.095Y-2.47
X6.095Y-3.945
X6.095Y-3.97
X6.095Y-4.045
X6.1Y-2.4
X6.115Y-3.33
X6.12Y-3.61
X6.125Y-4.045
X6.135Y-3.445
X6.135Y-3.4722
X6.14Y-2.665
X6.15Y-2.4
X6.155Y-4.0
X6.17Y-2.58
X6.17Y-3.645
X6.17Y-3.67
X6.17Y-3.695
X6.18Y-2.865
X6.185Y-2.665
X6.1854Y-3.545
X6.195Y-4.0171
X6.201Y-2.88
X6.212Y-2.797
X6.222Y-2.865
X6.225Y-4.0475
X6.235Y-2.71
X6.24Y-3.08
X6.24Y-3.2225
X6.2404Y-3.1571
X6.244Y-2.88
X6.25Y-4.08
X6.2533Y-2.5119
X6.264Y-2.799
X6.27Y-2.88
X6.275Y-2.745
X6.275Y-4.06
X6.2754Y-3.1571
X6.2799Y-3.2699
X6.285Y-3.04
X6.29Y-3.6425
X6.29Y-3.7471
X6.29Y-3.8425
X6.2903Y-3.4427
X6.2951Y-3.535
X6.306Y-2.864
X6.3068Y-3.56
X6.31Y-2.96
X6.31Y-3.04
X6.3125Y-2.515
X6.325Y-2.655
X6.325Y-3.255
X6.325Y-3.45
X6.325Y-3.475
X6.325Y-3.5
X6.335Y-2.7521
X6.335Y-2.7925
X6.335Y-3.36
X6.34Y-3.39
X6.355Y-3.19
X6.355Y-3.715
X6.355Y-3.7425
X6.355Y-3.8425
X6.3585Y-3.8163
X6.36Y-3.36
X6.375Y-4.0171
X6.39Y-3.165
X6.39Y-3.09
X6.405Y-3.3704
X6.43Y-2.515
X6.435Y-3.33
X6.435Y-3.355
X6.44Y-2.755
X6.4475Y-3.55
X6.4475Y-3.6225
X6.455Y-2.815
X6.4554Y-2.5071
X6.46Y-2.735
X6.46Y-3.33
X6.4657Y-3.4793
X6.475Y-4.0
X6.48Y-2.815
X6.48Y-2.84
X6.4847Y-3.3319
X6.485Y-3.29
X6.485Y-3.62
X6.485Y-3.7
X6.488Y-3.513
X6.49Y-2.655
X6.49Y-2.7
X6.4941Y-3.7295
X6.495Y-3.76
X6.5Y-3.795
X6.505Y-2.82
X6.505Y-3.415
X6.5079Y-3.3811
X6.51Y-4.025
X6.51Y-4.06
X6.525Y-2.62
X6.525Y-2.7
X6.53Y-2.4633
X6.53Y-3.29
X6.53Y-3.315
X6.53Y-3.34
X6.545Y-2.75
X6.545Y-4.025
X6.545Y-4.06
X6.5467Y-2.9041
X6.5479Y-2.52
X6.565Y-2.7
X6.575Y-4.025
X6.58Y-2.465
X6.6Y-2.7
X6.61Y-2.49
X6.61Y-3.505
X6.61Y-3.5375
X6.61Y-3.8425
X6.61Y-3.87
X6.61Y-4.13
X6.635Y-2.7
X6.64Y-2.495
X6.64Y-3.495
X6.64Y-4.13
X6.65Y-2.785
X6.65Y-2.88
X6.66Y-3.54
X6.66Y-3.8425
X6.6675Y-2.47
X6.6675Y-2.515
X6.67Y-2.7
X6.675Y-4.01
X6.705Y-2.495
X6.705Y-2.7
X6.71Y-3.455
X6.71Y-3.8425
X6.715Y-2.615
X6.76Y-3.455
X6.76Y-3.73
X6.76Y-3.8425
X6.77Y-3.69
X6.78Y-2.4
X6.78Y-2.805
X6.795Y-3.69
X6.82Y-2.4
X6.845Y-2.5255
X6.845Y-2.55
X6.845Y-3.645
X6.85Y-2.4
X6.85Y-2.45
X6.85Y-3.543
X6.85Y-3.7925
X6.85Y-3.845
X6.85Y-3.8925
X6.865Y-4.285
X6.87Y-3.925
X6.875Y-2.425
X6.875Y-2.475
X6.885Y-4.01
X6.89Y-3.945
X6.9Y-2.4
X6.9Y-2.45
X6.94Y-3.36
X6.94Y-3.6925
X6.94Y-3.79
X6.95Y-2.64
X7.005Y-2.875
X7.01Y-3.37
X7.0118Y-3.743
X7.03Y-3.385
X7.035Y-2.65
X7.05Y-3.37
X7.06Y-3.93
X7.0752Y-3.3848
X7.1025Y-3.41
X7.1025Y-3.7925
X7.1025Y-3.8425
X7.1025Y-3.8925
X7.12Y-4.05
T3
X5.5318Y-3.775
T4
X4.765Y-3.94
X4.765Y-4.015
X4.765Y-4.07
X4.835Y-3.94
X4.95Y-4.09
X5.0254Y-3.5303
X5.12Y-4.015
X5.155Y-3.57
X5.19Y-3.995
X5.505Y-3.935
X5.54Y-4.145
X5.54Y-4.19
X5.5899Y-4.1601
X6.78Y-2.9
X6.815Y-3.0
T5
X5.3099Y-3.7199
X5.3099Y-3.8301
X5.4201Y-3.7199
X5.4201Y-3.8301
T6
X4.8356Y-4.0143
X4.9155Y-4.0142
T7
X5.1Y-2.675
X5.1Y-3.475
X5.2Y-2.675
X5.2Y-3.475
X6.45Y-2.925
X6.45Y-3.025
X6.45Y-3.125
X6.45Y-3.225
X5.775Y-4.175
X5.775Y-4.275
X5.875Y-4.175
X5.875Y-4.275
X5.975Y-4.175
X5.975Y-4.275
X6.075Y-4.175
X6.075Y-4.275
X6.175Y-4.175
X6.175Y-4.275
X6.275Y-4.175
X6.275Y-4.275
X6.375Y-4.175
X6.375Y-4.275
X6.475Y-4.175
X6.475Y-4.275
X6.575Y-4.175
X6.575Y-4.275
X6.675Y-4.175
X6.675Y-4.275
X5.075Y-4.175
X5.075Y-4.275
X5.175Y-4.175
X5.175Y-4.275
X5.275Y-4.175
X5.275Y-4.275
X5.375Y-4.175
X5.375Y-4.275
X5.475Y-4.175
X5.475Y-4.275
X6.6Y-2.8
X6.6Y-2.9
X6.6Y-3.0
X6.6Y-3.1
X6.6Y-3.2
X6.7Y-2.75
X6.7Y-2.85
X6.7Y-2.95
X6.7Y-3.05
X6.7Y-3.15
X6.7992Y-2.75
X6.7992Y-3.2
X6.85Y-2.85
X6.85Y-3.1
X7.1098Y-2.714
X7.1098Y-2.814
X7.1098Y-3.136
X7.1098Y-3.236
T8
X5.365Y-3.775
T4
G00X4.867Y-3.5783
M15
G01X4.8433Y-3.5783
M16
G05
G00X4.867Y-3.8617
M15
G01X4.8433Y-3.8617
M16
G05
G00X5.0036Y-3.5783
M15
G01X4.98Y-3.5783
M16
G05
G00X5.0036Y-3.8617
M15
G01X4.98Y-3.8617
M16
G05
T7
G00X6.8417Y-2.665
M15
G01X6.8181Y-2.665
M16
G05
G00X6.8417Y-3.285
M15
G01X6.8181Y-3.285
M16
G05
T0
M30
